G04 #@! TF.GenerationSoftware,KiCad,Pcbnew,8.0.5*
G04 #@! TF.CreationDate,2024-11-12T19:45:38-03:00*
G04 #@! TF.ProjectId,Teste R_pido Fonte Chaveada,54657374-6520-452e-9170-69646f20466f,rev?*
G04 #@! TF.SameCoordinates,Original*
G04 #@! TF.FileFunction,Legend,Top*
G04 #@! TF.FilePolarity,Positive*
%FSLAX46Y46*%
G04 Gerber Fmt 4.6, Leading zero omitted, Abs format (unit mm)*
G04 Created by KiCad (PCBNEW 8.0.5) date 2024-11-12 19:45:38*
%MOMM*%
%LPD*%
G01*
G04 APERTURE LIST*
G04 Aperture macros list*
%AMRoundRect*
0 Rectangle with rounded corners*
0 $1 Rounding radius*
0 $2 $3 $4 $5 $6 $7 $8 $9 X,Y pos of 4 corners*
0 Add a 4 corners polygon primitive as box body*
4,1,4,$2,$3,$4,$5,$6,$7,$8,$9,$2,$3,0*
0 Add four circle primitives for the rounded corners*
1,1,$1+$1,$2,$3*
1,1,$1+$1,$4,$5*
1,1,$1+$1,$6,$7*
1,1,$1+$1,$8,$9*
0 Add four rect primitives between the rounded corners*
20,1,$1+$1,$2,$3,$4,$5,0*
20,1,$1+$1,$4,$5,$6,$7,0*
20,1,$1+$1,$6,$7,$8,$9,0*
20,1,$1+$1,$8,$9,$2,$3,0*%
G04 Aperture macros list end*
%ADD10C,0.000000*%
%ADD11C,0.200000*%
%ADD12C,0.250000*%
%ADD13C,0.100000*%
%ADD14C,0.254000*%
%ADD15C,0.127000*%
%ADD16RoundRect,0.228600X0.533400X0.660400X-0.533400X0.660400X-0.533400X-0.660400X0.533400X-0.660400X0*%
%ADD17RoundRect,0.228600X-0.533400X-0.660400X0.533400X-0.660400X0.533400X0.660400X-0.533400X0.660400X0*%
%ADD18RoundRect,0.315000X0.735000X0.735000X-0.735000X0.735000X-0.735000X-0.735000X0.735000X-0.735000X0*%
%ADD19C,2.100000*%
%ADD20RoundRect,0.190500X0.825500X0.444500X-0.825500X0.444500X-0.825500X-0.444500X0.825500X-0.444500X0*%
G04 APERTURE END LIST*
D10*
G36*
X118952749Y-60609259D02*
G01*
X119015820Y-60610640D01*
X119074271Y-60615055D01*
X119128274Y-60622417D01*
X119178003Y-60632641D01*
X119223627Y-60645639D01*
X119265320Y-60661325D01*
X119303254Y-60679613D01*
X119337599Y-60700415D01*
X119368530Y-60723647D01*
X119396216Y-60749220D01*
X119420831Y-60777049D01*
X119442547Y-60807046D01*
X119461535Y-60839127D01*
X119477967Y-60873203D01*
X119492016Y-60909188D01*
X119503853Y-60946997D01*
X119521581Y-61027737D01*
X119532526Y-61114731D01*
X119538065Y-61207287D01*
X119539573Y-61304713D01*
X119532823Y-61729271D01*
X119532843Y-61734891D01*
X119532888Y-61740510D01*
X119533735Y-61908121D01*
X119532352Y-61947028D01*
X119531267Y-61988290D01*
X119530464Y-62031745D01*
X119529924Y-62077231D01*
X119529742Y-62270173D01*
X119531872Y-62481965D01*
X119538450Y-62924574D01*
X119540590Y-63136627D01*
X119540423Y-63330002D01*
X119536797Y-63495318D01*
X119528555Y-63623193D01*
X119528523Y-63623209D01*
X119528490Y-63623225D01*
X119525810Y-63644887D01*
X119522295Y-63666163D01*
X119517960Y-63687040D01*
X119512819Y-63707503D01*
X119506889Y-63727538D01*
X119500185Y-63747130D01*
X119492722Y-63766266D01*
X119484515Y-63784929D01*
X119475579Y-63803107D01*
X119465931Y-63820785D01*
X119455584Y-63837948D01*
X119444556Y-63854581D01*
X119432860Y-63870672D01*
X119420511Y-63886205D01*
X119407527Y-63901165D01*
X119393921Y-63915539D01*
X119379709Y-63929312D01*
X119364906Y-63942469D01*
X119349528Y-63954997D01*
X119333589Y-63966880D01*
X119317106Y-63978105D01*
X119300093Y-63988657D01*
X119282566Y-63998522D01*
X119264539Y-64007685D01*
X119246029Y-64016131D01*
X119227051Y-64023848D01*
X119207620Y-64030819D01*
X119187751Y-64037031D01*
X119167459Y-64042469D01*
X119146760Y-64047119D01*
X119125669Y-64050966D01*
X119104201Y-64053997D01*
X118958295Y-64059568D01*
X118664675Y-64063034D01*
X117831291Y-64064943D01*
X116558893Y-64057711D01*
X116536477Y-64056312D01*
X116514373Y-64054043D01*
X116492603Y-64050923D01*
X116471186Y-64046967D01*
X116450141Y-64042194D01*
X116429489Y-64036620D01*
X116409249Y-64030262D01*
X116389440Y-64023138D01*
X116370083Y-64015264D01*
X116351198Y-64006658D01*
X116332803Y-63997336D01*
X116314919Y-63987317D01*
X116297565Y-63976616D01*
X116280761Y-63965252D01*
X116264527Y-63953240D01*
X116248882Y-63940599D01*
X116233847Y-63927345D01*
X116219441Y-63913496D01*
X116205683Y-63899068D01*
X116192594Y-63884079D01*
X116180192Y-63868546D01*
X116168499Y-63852485D01*
X116157533Y-63835915D01*
X116147314Y-63818852D01*
X116137862Y-63801312D01*
X116129196Y-63783314D01*
X116121337Y-63764875D01*
X116114304Y-63746011D01*
X116108117Y-63726739D01*
X116102796Y-63707077D01*
X116098359Y-63687042D01*
X116094828Y-63666651D01*
X116088130Y-63525229D01*
X116084493Y-63244183D01*
X116083767Y-62521933D01*
X116201270Y-62521933D01*
X116203901Y-63260992D01*
X116209560Y-63521353D01*
X116219241Y-63657172D01*
X116225284Y-63683726D01*
X116232542Y-63708541D01*
X116240959Y-63731675D01*
X116250480Y-63753186D01*
X116261049Y-63773133D01*
X116272613Y-63791576D01*
X116285115Y-63808573D01*
X116298500Y-63824182D01*
X116312714Y-63838464D01*
X116327701Y-63851475D01*
X116343407Y-63863277D01*
X116359775Y-63873926D01*
X116376751Y-63883482D01*
X116394279Y-63892004D01*
X116412305Y-63899551D01*
X116430774Y-63906181D01*
X116468818Y-63916927D01*
X116507970Y-63924713D01*
X116547790Y-63930009D01*
X116587835Y-63933285D01*
X116627665Y-63935013D01*
X116666840Y-63935663D01*
X116741457Y-63935611D01*
X118009273Y-63941039D01*
X118756902Y-63938282D01*
X119015226Y-63932730D01*
X119141730Y-63923329D01*
X119167543Y-63916163D01*
X119191647Y-63907900D01*
X119214100Y-63898589D01*
X119234961Y-63888280D01*
X119254288Y-63877024D01*
X119272139Y-63864872D01*
X119288573Y-63851873D01*
X119303648Y-63838077D01*
X119317422Y-63823536D01*
X119329953Y-63808299D01*
X119341301Y-63792416D01*
X119351522Y-63775939D01*
X119360677Y-63758916D01*
X119368822Y-63741398D01*
X119376016Y-63723436D01*
X119382319Y-63705080D01*
X119392479Y-63667387D01*
X119399770Y-63628720D01*
X119404658Y-63589483D01*
X119407609Y-63550076D01*
X119409091Y-63510902D01*
X119409570Y-63472363D01*
X119409386Y-63398800D01*
X119415088Y-62081270D01*
X119414892Y-61733246D01*
X119413402Y-61469012D01*
X119410376Y-61249092D01*
X119408185Y-61160980D01*
X119405487Y-61090223D01*
X119402241Y-61038915D01*
X119400401Y-61021208D01*
X119398408Y-61009147D01*
X119391620Y-60982442D01*
X119383768Y-60957505D01*
X119374896Y-60934276D01*
X119365053Y-60912695D01*
X119354283Y-60892701D01*
X119342634Y-60874233D01*
X119330152Y-60857233D01*
X119316883Y-60841638D01*
X119302873Y-60827389D01*
X119288168Y-60814426D01*
X119272816Y-60802688D01*
X119256862Y-60792114D01*
X119240353Y-60782645D01*
X119223335Y-60774219D01*
X119205854Y-60766778D01*
X119187957Y-60760259D01*
X119151100Y-60749751D01*
X119113134Y-60742211D01*
X119074429Y-60737156D01*
X119035357Y-60734105D01*
X118996287Y-60732574D01*
X118957592Y-60732080D01*
X118882804Y-60732271D01*
X117621492Y-60727653D01*
X116872742Y-60729697D01*
X116617657Y-60734107D01*
X116498788Y-60741653D01*
X116453001Y-60754994D01*
X116431990Y-60762426D01*
X116412188Y-60770383D01*
X116393559Y-60778876D01*
X116376068Y-60787920D01*
X116359682Y-60797526D01*
X116344365Y-60807707D01*
X116330083Y-60818476D01*
X116316800Y-60829846D01*
X116304483Y-60841828D01*
X116293095Y-60854437D01*
X116282603Y-60867684D01*
X116272971Y-60881582D01*
X116264165Y-60896144D01*
X116256151Y-60911382D01*
X116248892Y-60927309D01*
X116242355Y-60943938D01*
X116231307Y-60979352D01*
X116222727Y-61017725D01*
X116216338Y-61059158D01*
X116211861Y-61103753D01*
X116209018Y-61151610D01*
X116207531Y-61202831D01*
X116207122Y-61257517D01*
X116201270Y-62521933D01*
X116083767Y-62521933D01*
X116083686Y-62442192D01*
X116088964Y-61131410D01*
X116089999Y-61086694D01*
X116093381Y-61043179D01*
X116099193Y-61000984D01*
X116103036Y-60980421D01*
X116107519Y-60960234D01*
X116112652Y-60940439D01*
X116118444Y-60921050D01*
X116124907Y-60902084D01*
X116132052Y-60883555D01*
X116139888Y-60865478D01*
X116148426Y-60847870D01*
X116157677Y-60830745D01*
X116167651Y-60814118D01*
X116178358Y-60798005D01*
X116189810Y-60782421D01*
X116202016Y-60767381D01*
X116214988Y-60752901D01*
X116228735Y-60738996D01*
X116243269Y-60725681D01*
X116258599Y-60712971D01*
X116274736Y-60700882D01*
X116291691Y-60689429D01*
X116309474Y-60678628D01*
X116328096Y-60668492D01*
X116347568Y-60659039D01*
X116367898Y-60650283D01*
X116389100Y-60642239D01*
X116411181Y-60634922D01*
X116434154Y-60628349D01*
X116485924Y-60621152D01*
X116577447Y-60615379D01*
X116857756Y-60607568D01*
X117653406Y-60603154D01*
X118952749Y-60609259D01*
G37*
G36*
X121910552Y-62242985D02*
G01*
X121910552Y-61330426D01*
X122122371Y-61330426D01*
X122122371Y-62796703D01*
X121911139Y-62796703D01*
X121598688Y-61884144D01*
X121598688Y-62796703D01*
X121386218Y-62796703D01*
X121386218Y-61330426D01*
X121598688Y-61330426D01*
X121910552Y-62242985D01*
G37*
G36*
X127945231Y-61602610D02*
G01*
X127549252Y-61602610D01*
X127549252Y-61911933D01*
X127883432Y-61911933D01*
X127883432Y-62173888D01*
X127549252Y-62173888D01*
X127549252Y-62524454D01*
X127943960Y-62524454D01*
X127943960Y-62796671D01*
X127336587Y-62796671D01*
X127336587Y-61330393D01*
X127945231Y-61330393D01*
X127945231Y-61602610D01*
G37*
G36*
X128810912Y-62796703D02*
G01*
X128582544Y-62796703D01*
X128531104Y-62522401D01*
X128239927Y-62522401D01*
X128189073Y-62796703D01*
X127961976Y-62796703D01*
X128082514Y-62250184D01*
X128290748Y-62250184D01*
X128480251Y-62250184D01*
X128385189Y-61741129D01*
X128290748Y-62250184D01*
X128082514Y-62250184D01*
X128285373Y-61330426D01*
X128485007Y-61330426D01*
X128810912Y-62796703D01*
G37*
G36*
X125574212Y-62796703D02*
G01*
X125362818Y-62796703D01*
X125362818Y-62184182D01*
X125049944Y-62184182D01*
X125049944Y-62796703D01*
X124837278Y-62796703D01*
X124837278Y-61330426D01*
X125049944Y-61330426D01*
X125049944Y-61911965D01*
X125362818Y-61911965D01*
X125362818Y-61330425D01*
X125574212Y-61330425D01*
X125574212Y-62796703D01*
G37*
G36*
X126976020Y-62796703D02*
G01*
X126743482Y-62796703D01*
X126449209Y-61330426D01*
X126684810Y-61330426D01*
X126859849Y-62397988D01*
X127035312Y-61330425D01*
X127272735Y-61330425D01*
X126976020Y-62796703D01*
G37*
G36*
X122931432Y-61602643D02*
G01*
X122666936Y-61602643D01*
X122666936Y-62796703D01*
X122454270Y-62796703D01*
X122454270Y-61602643D01*
X122194497Y-61602643D01*
X122194497Y-61330426D01*
X122931432Y-61330426D01*
X122931432Y-61602643D01*
G37*
G36*
X126500031Y-62796703D02*
G01*
X126271662Y-62796703D01*
X126220190Y-62522401D01*
X125929046Y-62522401D01*
X125878193Y-62796703D01*
X125651095Y-62796703D01*
X125771633Y-62250184D01*
X125979899Y-62250184D01*
X126169369Y-62250184D01*
X126074341Y-61741129D01*
X125979899Y-62250184D01*
X125771633Y-62250184D01*
X125974491Y-61330426D01*
X126174127Y-61330426D01*
X126500031Y-62796703D01*
G37*
G36*
X120441798Y-61602643D02*
G01*
X120064649Y-61602643D01*
X120064649Y-61940862D01*
X120407299Y-61940862D01*
X120407299Y-62213079D01*
X120064649Y-62213079D01*
X120064649Y-62796703D01*
X119851983Y-62796703D01*
X119851983Y-61330426D01*
X120441798Y-61330426D01*
X120441798Y-61602643D01*
G37*
G36*
X120904611Y-61310118D02*
G01*
X120918322Y-61311158D01*
X120931848Y-61312891D01*
X120945189Y-61315317D01*
X120958343Y-61318435D01*
X120971310Y-61322247D01*
X120984090Y-61326751D01*
X120996681Y-61331948D01*
X121009085Y-61337838D01*
X121021299Y-61344420D01*
X121033323Y-61351694D01*
X121045157Y-61359661D01*
X121056800Y-61368319D01*
X121068251Y-61377670D01*
X121079511Y-61387713D01*
X121090578Y-61398447D01*
X121101390Y-61409827D01*
X121111897Y-61421795D01*
X121122101Y-61434350D01*
X121132000Y-61447491D01*
X121141596Y-61461219D01*
X121150889Y-61475532D01*
X121159878Y-61490429D01*
X121168564Y-61505912D01*
X121176947Y-61521978D01*
X121185028Y-61538629D01*
X121192807Y-61555862D01*
X121200284Y-61573678D01*
X121207459Y-61592076D01*
X121214332Y-61611056D01*
X121220904Y-61630617D01*
X121227175Y-61650759D01*
X121238587Y-61692489D01*
X121248490Y-61735705D01*
X121256887Y-61780412D01*
X121263780Y-61826612D01*
X121269172Y-61874309D01*
X121273065Y-61923506D01*
X121275463Y-61974205D01*
X121276367Y-62026410D01*
X121276367Y-62093780D01*
X121276351Y-62093788D01*
X121276334Y-62093796D01*
X121276302Y-62093813D01*
X121275555Y-62146672D01*
X121273315Y-62198009D01*
X121269583Y-62247815D01*
X121264358Y-62296082D01*
X121257641Y-62342802D01*
X121249433Y-62387967D01*
X121239733Y-62431569D01*
X121228543Y-62473600D01*
X121222416Y-62493991D01*
X121215970Y-62513785D01*
X121209206Y-62532983D01*
X121202125Y-62551585D01*
X121194726Y-62569590D01*
X121187012Y-62586999D01*
X121178982Y-62603812D01*
X121170637Y-62620028D01*
X121161977Y-62635648D01*
X121153003Y-62650671D01*
X121143716Y-62665099D01*
X121134115Y-62678930D01*
X121124203Y-62692165D01*
X121113979Y-62704803D01*
X121103443Y-62716845D01*
X121092597Y-62728291D01*
X121081493Y-62739088D01*
X121070196Y-62749185D01*
X121058705Y-62758582D01*
X121047021Y-62767279D01*
X121035146Y-62775278D01*
X121023078Y-62782579D01*
X121010818Y-62789181D01*
X120998367Y-62795087D01*
X120985725Y-62800296D01*
X120972893Y-62804808D01*
X120959871Y-62808625D01*
X120946659Y-62811747D01*
X120933257Y-62814174D01*
X120919667Y-62815907D01*
X120905888Y-62816946D01*
X120891921Y-62817292D01*
X120877950Y-62816954D01*
X120864175Y-62815940D01*
X120850594Y-62814250D01*
X120837209Y-62811886D01*
X120824020Y-62808846D01*
X120811028Y-62805133D01*
X120798233Y-62800746D01*
X120785637Y-62795686D01*
X120773238Y-62789953D01*
X120761039Y-62783548D01*
X120749040Y-62776471D01*
X120737241Y-62768723D01*
X120725642Y-62760304D01*
X120714245Y-62751215D01*
X120703050Y-62741456D01*
X120692058Y-62731027D01*
X120681317Y-62719969D01*
X120670877Y-62708332D01*
X120660737Y-62696116D01*
X120650897Y-62683321D01*
X120641356Y-62669947D01*
X120632115Y-62655993D01*
X120623172Y-62641460D01*
X120614528Y-62626348D01*
X120606182Y-62610656D01*
X120598134Y-62594385D01*
X120590383Y-62577534D01*
X120582929Y-62560103D01*
X120575773Y-62542092D01*
X120568912Y-62523501D01*
X120562348Y-62504330D01*
X120556080Y-62484579D01*
X120544648Y-62443863D01*
X120534663Y-62401639D01*
X120526123Y-62357910D01*
X120519027Y-62312680D01*
X120513374Y-62265952D01*
X120509164Y-62217729D01*
X120506394Y-62168014D01*
X120505063Y-62116812D01*
X120505063Y-62093487D01*
X120721183Y-62093487D01*
X120721852Y-62145814D01*
X120723861Y-62195044D01*
X120727213Y-62241172D01*
X120731909Y-62284195D01*
X120737952Y-62324109D01*
X120745344Y-62360910D01*
X120749547Y-62378142D01*
X120754088Y-62394594D01*
X120758967Y-62410266D01*
X120764185Y-62425158D01*
X120769700Y-62439204D01*
X120775543Y-62452340D01*
X120781715Y-62464567D01*
X120788216Y-62475886D01*
X120795046Y-62486296D01*
X120802205Y-62495799D01*
X120809693Y-62504394D01*
X120817510Y-62512083D01*
X120825657Y-62518865D01*
X120829854Y-62521916D01*
X120834133Y-62524741D01*
X120838495Y-62527340D01*
X120842939Y-62529712D01*
X120847466Y-62531858D01*
X120852075Y-62533778D01*
X120856767Y-62535472D01*
X120861541Y-62536940D01*
X120866398Y-62538182D01*
X120871337Y-62539198D01*
X120876359Y-62539988D01*
X120881464Y-62540552D01*
X120891921Y-62541003D01*
X120896921Y-62540891D01*
X120901848Y-62540556D01*
X120906702Y-62539998D01*
X120911484Y-62539216D01*
X120916193Y-62538210D01*
X120920830Y-62536982D01*
X120925394Y-62535530D01*
X120929885Y-62533855D01*
X120934303Y-62531958D01*
X120938649Y-62529837D01*
X120942922Y-62527493D01*
X120947123Y-62524927D01*
X120951251Y-62522137D01*
X120955307Y-62519125D01*
X120959290Y-62515890D01*
X120963200Y-62512433D01*
X120967038Y-62508753D01*
X120970804Y-62504850D01*
X120974497Y-62500725D01*
X120978117Y-62496378D01*
X120981665Y-62491808D01*
X120985140Y-62487016D01*
X120991874Y-62476765D01*
X120998318Y-62465627D01*
X121004472Y-62453600D01*
X121010336Y-62440685D01*
X121015911Y-62426884D01*
X121021202Y-62412253D01*
X121026155Y-62396848D01*
X121030769Y-62380669D01*
X121035046Y-62363713D01*
X121038984Y-62345980D01*
X121042585Y-62327469D01*
X121045850Y-62308179D01*
X121048777Y-62288108D01*
X121051369Y-62267256D01*
X121053624Y-62245622D01*
X121055543Y-62223203D01*
X121057128Y-62200000D01*
X121059292Y-62151235D01*
X121060118Y-62099318D01*
X121060118Y-62031981D01*
X121060118Y-62031948D01*
X121059439Y-61978827D01*
X121057400Y-61929020D01*
X121053995Y-61882523D01*
X121049221Y-61839334D01*
X121043072Y-61799449D01*
X121035544Y-61762867D01*
X121031262Y-61745812D01*
X121026633Y-61729582D01*
X121021657Y-61714176D01*
X121016334Y-61699593D01*
X121010680Y-61685853D01*
X121004736Y-61673001D01*
X120998502Y-61661035D01*
X120991977Y-61649956D01*
X120985160Y-61639764D01*
X120978050Y-61630459D01*
X120970646Y-61622041D01*
X120962948Y-61614509D01*
X120954954Y-61607863D01*
X120946663Y-61602104D01*
X120942407Y-61599557D01*
X120938076Y-61597232D01*
X120933671Y-61595128D01*
X120929190Y-61593245D01*
X120924636Y-61591584D01*
X120920006Y-61590144D01*
X120915301Y-61588926D01*
X120910522Y-61587930D01*
X120905667Y-61587155D01*
X120900737Y-61586601D01*
X120890650Y-61586158D01*
X120880802Y-61586548D01*
X120871249Y-61587717D01*
X120861991Y-61589666D01*
X120853028Y-61592394D01*
X120844360Y-61595902D01*
X120835988Y-61600190D01*
X120827910Y-61605257D01*
X120820128Y-61611104D01*
X120812641Y-61617731D01*
X120805449Y-61625138D01*
X120798551Y-61633325D01*
X120791949Y-61642292D01*
X120785642Y-61652040D01*
X120779629Y-61662567D01*
X120773912Y-61673875D01*
X120768489Y-61685963D01*
X120763361Y-61698832D01*
X120758528Y-61712481D01*
X120753990Y-61726911D01*
X120749746Y-61742121D01*
X120745798Y-61758112D01*
X120742143Y-61774884D01*
X120738784Y-61792437D01*
X120735719Y-61810770D01*
X120732948Y-61829885D01*
X120730473Y-61849780D01*
X120728291Y-61870457D01*
X120726405Y-61891914D01*
X120724812Y-61914153D01*
X120723514Y-61937173D01*
X120721802Y-61985558D01*
X120721183Y-62093487D01*
X120505063Y-62093487D01*
X120505063Y-62034326D01*
X120505802Y-61981239D01*
X120508019Y-61929729D01*
X120511719Y-61879796D01*
X120516905Y-61831442D01*
X120523582Y-61784666D01*
X120531753Y-61739471D01*
X120541423Y-61695856D01*
X120552594Y-61653822D01*
X120558687Y-61633551D01*
X120565105Y-61613862D01*
X120571846Y-61594754D01*
X120578911Y-61576228D01*
X120586299Y-61558284D01*
X120594010Y-61540923D01*
X120602043Y-61524146D01*
X120610399Y-61507952D01*
X120619076Y-61492343D01*
X120628075Y-61477319D01*
X120637395Y-61462881D01*
X120647035Y-61449028D01*
X120656997Y-61435762D01*
X120667278Y-61423084D01*
X120677880Y-61410993D01*
X120688800Y-61399490D01*
X120699978Y-61388625D01*
X120711349Y-61378462D01*
X120722913Y-61368999D01*
X120734670Y-61360238D01*
X120746621Y-61352177D01*
X120758763Y-61344818D01*
X120771098Y-61338159D01*
X120783625Y-61332201D01*
X120796344Y-61326944D01*
X120809253Y-61322388D01*
X120822354Y-61318533D01*
X120835646Y-61315379D01*
X120849128Y-61312925D01*
X120862801Y-61311173D01*
X120876663Y-61310122D01*
X120890715Y-61309771D01*
X120904611Y-61310118D01*
G37*
G36*
X129173423Y-61330768D02*
G01*
X129187758Y-61331796D01*
X129201908Y-61333510D01*
X129215875Y-61335910D01*
X129229657Y-61338997D01*
X129243256Y-61342771D01*
X129256670Y-61347233D01*
X129269899Y-61352383D01*
X129282944Y-61358221D01*
X129295805Y-61364749D01*
X129308481Y-61371967D01*
X129320973Y-61379875D01*
X129333280Y-61388473D01*
X129345403Y-61397763D01*
X129357341Y-61407744D01*
X129369094Y-61418417D01*
X129380600Y-61429719D01*
X129391787Y-61441585D01*
X129402653Y-61454016D01*
X129413198Y-61467014D01*
X129423421Y-61480577D01*
X129433323Y-61494707D01*
X129442904Y-61509404D01*
X129452162Y-61524668D01*
X129461097Y-61540501D01*
X129469710Y-61556902D01*
X129477999Y-61573873D01*
X129485964Y-61591413D01*
X129493606Y-61609522D01*
X129500923Y-61628203D01*
X129507916Y-61647454D01*
X129514584Y-61667276D01*
X129520931Y-61687528D01*
X129526877Y-61708080D01*
X129532420Y-61728932D01*
X129537560Y-61750084D01*
X129542298Y-61771537D01*
X129546632Y-61793291D01*
X129554089Y-61837705D01*
X129559929Y-61883328D01*
X129564148Y-61930164D01*
X129566746Y-61978215D01*
X129567718Y-62027485D01*
X129567718Y-62094823D01*
X129566913Y-62144462D01*
X129564502Y-62192832D01*
X129560487Y-62239920D01*
X129554870Y-62285714D01*
X129547654Y-62330203D01*
X129538842Y-62373373D01*
X129528436Y-62415215D01*
X129516440Y-62455715D01*
X129509888Y-62475422D01*
X129503009Y-62494581D01*
X129495805Y-62513194D01*
X129488274Y-62531261D01*
X129480417Y-62548782D01*
X129472233Y-62565758D01*
X129463722Y-62582188D01*
X129454885Y-62598075D01*
X129445721Y-62613417D01*
X129436231Y-62628216D01*
X129426413Y-62642471D01*
X129416268Y-62656184D01*
X129405796Y-62669355D01*
X129394997Y-62681984D01*
X129383870Y-62694071D01*
X129372416Y-62705617D01*
X129360710Y-62716543D01*
X129348838Y-62726769D01*
X129336800Y-62736296D01*
X129324597Y-62745124D01*
X129312228Y-62753253D01*
X129299693Y-62760685D01*
X129286991Y-62767419D01*
X129274122Y-62773456D01*
X129261085Y-62778796D01*
X129247882Y-62783439D01*
X129234510Y-62787387D01*
X129220971Y-62790640D01*
X129207263Y-62793197D01*
X129193386Y-62795060D01*
X129179341Y-62796229D01*
X129165126Y-62796704D01*
X128874959Y-62796704D01*
X128874959Y-62524486D01*
X128874959Y-61602675D01*
X129087592Y-61602675D01*
X129087624Y-61602675D01*
X129087624Y-62524486D01*
X129161379Y-62524486D01*
X129172649Y-62524063D01*
X129178159Y-62523535D01*
X129183587Y-62522794D01*
X129188933Y-62521843D01*
X129194195Y-62520680D01*
X129199375Y-62519305D01*
X129204472Y-62517719D01*
X129209486Y-62515921D01*
X129214417Y-62513912D01*
X129219266Y-62511692D01*
X129224032Y-62509260D01*
X129228714Y-62506617D01*
X129233314Y-62503762D01*
X129237831Y-62500696D01*
X129242265Y-62497419D01*
X129250885Y-62490229D01*
X129259172Y-62482195D01*
X129267128Y-62473314D01*
X129274751Y-62463588D01*
X129282041Y-62453017D01*
X129289000Y-62441601D01*
X129295625Y-62429339D01*
X129301918Y-62416232D01*
X129307848Y-62402285D01*
X129313394Y-62387516D01*
X129318558Y-62371925D01*
X129323340Y-62355510D01*
X129327739Y-62338273D01*
X129331756Y-62320211D01*
X129335390Y-62301325D01*
X129338641Y-62281614D01*
X129341510Y-62261077D01*
X129343996Y-62239715D01*
X129346100Y-62217526D01*
X129347822Y-62194511D01*
X129349160Y-62170668D01*
X129350117Y-62145997D01*
X129350691Y-62120499D01*
X129350882Y-62094171D01*
X129350882Y-62030906D01*
X129350117Y-61979335D01*
X129347822Y-61931074D01*
X129343996Y-61886114D01*
X129338641Y-61844449D01*
X129335390Y-61824849D01*
X129331756Y-61806069D01*
X129327739Y-61788109D01*
X129323340Y-61770968D01*
X129318558Y-61754645D01*
X129313394Y-61739138D01*
X129307848Y-61724448D01*
X129301918Y-61710572D01*
X129295615Y-61697522D01*
X129288960Y-61685312D01*
X129281952Y-61673940D01*
X129274592Y-61663408D01*
X129266880Y-61653716D01*
X129258816Y-61644865D01*
X129250401Y-61636855D01*
X129246061Y-61633165D01*
X129241634Y-61629686D01*
X129237119Y-61626417D01*
X129232516Y-61623359D01*
X129227825Y-61620511D01*
X129223047Y-61617874D01*
X129218181Y-61615447D01*
X129213227Y-61613232D01*
X129208186Y-61611227D01*
X129203057Y-61609433D01*
X129197840Y-61607849D01*
X129192536Y-61606477D01*
X129187144Y-61605315D01*
X129181664Y-61604365D01*
X129176097Y-61603626D01*
X129170443Y-61603098D01*
X129158872Y-61602675D01*
X129087624Y-61602675D01*
X129087624Y-61602643D01*
X129087616Y-61602651D01*
X129087609Y-61602659D01*
X129087605Y-61602663D01*
X129087601Y-61602667D01*
X129087596Y-61602671D01*
X129087592Y-61602675D01*
X128874959Y-61602675D01*
X128874959Y-61330426D01*
X129158904Y-61330426D01*
X129173423Y-61330768D01*
G37*
G36*
X124389453Y-61310319D02*
G01*
X124408784Y-61311964D01*
X124427620Y-61314704D01*
X124445963Y-61318542D01*
X124463812Y-61323477D01*
X124481167Y-61329511D01*
X124498027Y-61336643D01*
X124514394Y-61344874D01*
X124530267Y-61354204D01*
X124545645Y-61364635D01*
X124560530Y-61376166D01*
X124574921Y-61388797D01*
X124588817Y-61402530D01*
X124602220Y-61417366D01*
X124615129Y-61433303D01*
X124627543Y-61450343D01*
X124639416Y-61468293D01*
X124650626Y-61487080D01*
X124661174Y-61506703D01*
X124671060Y-61527161D01*
X124680285Y-61548453D01*
X124688850Y-61570577D01*
X124696756Y-61593533D01*
X124704003Y-61617319D01*
X124710591Y-61641934D01*
X124716522Y-61667378D01*
X124721797Y-61693648D01*
X124726415Y-61720744D01*
X124730378Y-61748665D01*
X124733685Y-61777409D01*
X124736339Y-61806976D01*
X124738339Y-61837363D01*
X124526488Y-61837363D01*
X124525315Y-61805029D01*
X124524314Y-61789744D01*
X124523038Y-61775047D01*
X124521484Y-61760937D01*
X124519654Y-61747416D01*
X124517546Y-61734482D01*
X124515159Y-61722137D01*
X124512494Y-61710379D01*
X124509549Y-61699209D01*
X124506325Y-61688628D01*
X124502821Y-61678634D01*
X124499037Y-61669228D01*
X124494971Y-61660410D01*
X124490624Y-61652180D01*
X124485994Y-61644537D01*
X124483573Y-61640950D01*
X124481072Y-61637476D01*
X124478493Y-61634115D01*
X124475835Y-61630868D01*
X124473099Y-61627733D01*
X124470284Y-61624712D01*
X124467390Y-61621804D01*
X124464418Y-61619009D01*
X124461367Y-61616328D01*
X124458238Y-61613761D01*
X124455031Y-61611307D01*
X124451745Y-61608966D01*
X124448381Y-61606739D01*
X124444939Y-61604626D01*
X124441419Y-61602627D01*
X124437821Y-61600741D01*
X124434144Y-61598969D01*
X124430390Y-61597312D01*
X124426557Y-61595768D01*
X124422647Y-61594338D01*
X124418658Y-61593022D01*
X124414592Y-61591821D01*
X124410448Y-61590733D01*
X124406227Y-61589760D01*
X124397550Y-61588156D01*
X124388564Y-61587011D01*
X124379267Y-61586323D01*
X124369661Y-61586093D01*
X124364742Y-61586190D01*
X124359907Y-61586480D01*
X124355156Y-61586963D01*
X124350488Y-61587640D01*
X124345903Y-61588509D01*
X124341401Y-61589572D01*
X124336983Y-61590827D01*
X124332648Y-61592276D01*
X124328396Y-61593917D01*
X124324227Y-61595751D01*
X124320141Y-61597777D01*
X124316139Y-61599997D01*
X124312219Y-61602409D01*
X124308383Y-61605013D01*
X124304629Y-61607810D01*
X124300959Y-61610799D01*
X124297371Y-61613981D01*
X124293866Y-61617355D01*
X124290445Y-61620921D01*
X124287106Y-61624679D01*
X124283849Y-61628629D01*
X124280676Y-61632771D01*
X124274578Y-61641631D01*
X124268810Y-61651259D01*
X124263373Y-61661652D01*
X124258266Y-61672812D01*
X124253490Y-61684738D01*
X124249019Y-61697573D01*
X124244820Y-61711326D01*
X124240891Y-61725999D01*
X124237233Y-61741592D01*
X124233847Y-61758105D01*
X124230733Y-61775539D01*
X124227891Y-61793894D01*
X124225322Y-61813170D01*
X124223026Y-61833369D01*
X124221003Y-61854490D01*
X124217779Y-61899500D01*
X124215652Y-61948205D01*
X124214625Y-62000609D01*
X124214625Y-62104400D01*
X124215178Y-62160972D01*
X124216839Y-62213380D01*
X124219609Y-62261621D01*
X124223490Y-62305692D01*
X124228485Y-62345590D01*
X124234594Y-62381311D01*
X124241821Y-62412852D01*
X124245854Y-62427054D01*
X124250167Y-62440209D01*
X124254789Y-62452383D01*
X124259813Y-62463775D01*
X124265237Y-62474386D01*
X124271060Y-62484213D01*
X124277284Y-62493258D01*
X124283908Y-62501518D01*
X124287369Y-62505355D01*
X124290931Y-62508995D01*
X124294592Y-62512439D01*
X124298353Y-62515687D01*
X124302213Y-62518738D01*
X124306174Y-62521593D01*
X124310234Y-62524252D01*
X124314393Y-62526714D01*
X124318653Y-62528979D01*
X124323012Y-62531048D01*
X124327470Y-62532920D01*
X124332028Y-62534595D01*
X124336685Y-62536074D01*
X124341442Y-62537355D01*
X124346299Y-62538440D01*
X124351255Y-62539327D01*
X124356310Y-62540018D01*
X124361464Y-62540511D01*
X124372071Y-62540906D01*
X124381082Y-62540680D01*
X124389827Y-62540004D01*
X124398306Y-62538877D01*
X124406518Y-62537301D01*
X124414462Y-62535276D01*
X124422139Y-62532802D01*
X124429548Y-62529880D01*
X124436689Y-62526510D01*
X124443560Y-62522694D01*
X124450163Y-62518431D01*
X124456496Y-62513721D01*
X124462559Y-62508567D01*
X124468352Y-62502967D01*
X124473874Y-62496923D01*
X124479125Y-62490435D01*
X124484105Y-62483504D01*
X124488806Y-62476022D01*
X124493222Y-62468016D01*
X124497353Y-62459485D01*
X124501199Y-62450429D01*
X124504760Y-62440847D01*
X124508038Y-62430739D01*
X124511032Y-62420104D01*
X124513742Y-62408942D01*
X124516169Y-62397253D01*
X124518313Y-62385036D01*
X124520174Y-62372290D01*
X124521753Y-62359014D01*
X124523050Y-62345210D01*
X124524065Y-62330875D01*
X124524798Y-62316010D01*
X124525250Y-62300614D01*
X124736644Y-62300614D01*
X124736613Y-62300712D01*
X124734897Y-62338434D01*
X124731895Y-62375031D01*
X124727607Y-62410507D01*
X124722031Y-62444867D01*
X124715164Y-62478115D01*
X124707005Y-62510256D01*
X124702440Y-62525913D01*
X124697552Y-62541294D01*
X124692339Y-62556402D01*
X124686802Y-62571235D01*
X124681001Y-62585659D01*
X124674909Y-62599672D01*
X124668527Y-62613274D01*
X124661857Y-62626465D01*
X124654898Y-62639246D01*
X124647652Y-62651615D01*
X124640119Y-62663573D01*
X124632300Y-62675120D01*
X124624195Y-62686256D01*
X124615806Y-62696981D01*
X124607132Y-62707294D01*
X124598174Y-62717197D01*
X124588934Y-62726687D01*
X124579411Y-62735767D01*
X124569607Y-62744435D01*
X124559522Y-62752691D01*
X124549159Y-62760504D01*
X124538617Y-62767815D01*
X124527897Y-62774624D01*
X124516997Y-62780932D01*
X124505918Y-62786737D01*
X124494658Y-62792039D01*
X124483217Y-62796838D01*
X124471595Y-62801134D01*
X124459792Y-62804926D01*
X124447806Y-62808213D01*
X124435638Y-62810996D01*
X124423286Y-62813273D01*
X124410751Y-62815045D01*
X124398032Y-62816312D01*
X124385128Y-62817072D01*
X124372039Y-62817325D01*
X124350595Y-62816588D01*
X124329732Y-62814378D01*
X124309449Y-62810696D01*
X124289746Y-62805541D01*
X124270622Y-62798914D01*
X124252077Y-62790815D01*
X124234112Y-62781246D01*
X124216725Y-62770206D01*
X124199918Y-62757696D01*
X124183689Y-62743716D01*
X124168038Y-62728266D01*
X124152965Y-62711348D01*
X124138471Y-62692961D01*
X124124554Y-62673107D01*
X124111215Y-62651784D01*
X124098453Y-62628995D01*
X124086330Y-62604864D01*
X124074991Y-62579517D01*
X124064436Y-62552955D01*
X124054666Y-62525178D01*
X124045679Y-62496186D01*
X124037475Y-62465981D01*
X124030054Y-62434562D01*
X124023415Y-62401930D01*
X124017559Y-62368086D01*
X124012485Y-62333029D01*
X124008192Y-62296762D01*
X124004681Y-62259283D01*
X124001950Y-62220593D01*
X124000000Y-62180693D01*
X123998830Y-62139584D01*
X123998441Y-62097266D01*
X123998441Y-62024716D01*
X123999146Y-61971680D01*
X124001264Y-61920324D01*
X124004795Y-61870652D01*
X124009741Y-61822667D01*
X124016102Y-61776372D01*
X124023880Y-61731771D01*
X124033076Y-61688867D01*
X124043690Y-61647665D01*
X124049467Y-61627718D01*
X124055558Y-61608351D01*
X124061962Y-61589563D01*
X124068679Y-61571354D01*
X124075709Y-61553723D01*
X124083050Y-61536669D01*
X124090702Y-61520192D01*
X124098665Y-61504291D01*
X124106938Y-61488966D01*
X124115520Y-61474217D01*
X124124411Y-61460041D01*
X124133610Y-61446440D01*
X124143117Y-61433412D01*
X124152932Y-61420957D01*
X124163052Y-61409074D01*
X124173479Y-61397763D01*
X124184165Y-61387090D01*
X124195064Y-61377109D01*
X124206174Y-61367819D01*
X124217495Y-61359221D01*
X124229028Y-61351313D01*
X124240770Y-61344096D01*
X124252722Y-61337568D01*
X124264883Y-61331729D01*
X124277253Y-61326579D01*
X124289830Y-61322117D01*
X124302615Y-61318343D01*
X124315606Y-61315256D01*
X124328804Y-61312856D01*
X124342207Y-61311142D01*
X124355815Y-61310114D01*
X124369628Y-61309772D01*
X124389453Y-61310319D01*
G37*
G36*
X118702098Y-60989959D02*
G01*
X118751304Y-60991032D01*
X118796906Y-60994470D01*
X118839039Y-61000205D01*
X118877836Y-61008170D01*
X118913432Y-61018298D01*
X118945960Y-61030520D01*
X118975556Y-61044770D01*
X119002352Y-61060980D01*
X119026484Y-61079083D01*
X119048085Y-61099010D01*
X119067290Y-61120696D01*
X119084233Y-61144072D01*
X119099048Y-61169071D01*
X119111869Y-61195625D01*
X119122831Y-61223668D01*
X119132067Y-61253131D01*
X119145899Y-61316050D01*
X119154439Y-61383843D01*
X119158761Y-61455970D01*
X119159938Y-61531892D01*
X119154663Y-61862741D01*
X119154696Y-61871504D01*
X119155348Y-62002140D01*
X119154289Y-62032446D01*
X119153450Y-62064595D01*
X119152819Y-62098460D01*
X119152383Y-62133916D01*
X119152250Y-62284262D01*
X119153915Y-62449298D01*
X119159041Y-62794199D01*
X119160705Y-62959441D01*
X119160570Y-63110129D01*
X119157737Y-63238951D01*
X119151308Y-63338597D01*
X119151340Y-63338597D01*
X119149251Y-63355477D01*
X119146510Y-63372057D01*
X119143129Y-63388326D01*
X119139120Y-63404272D01*
X119134494Y-63419885D01*
X119129265Y-63435152D01*
X119123443Y-63450063D01*
X119117040Y-63464607D01*
X119110070Y-63478772D01*
X119102542Y-63492548D01*
X119094470Y-63505922D01*
X119085866Y-63518884D01*
X119076741Y-63531423D01*
X119067107Y-63543527D01*
X119056976Y-63555185D01*
X119046360Y-63566386D01*
X119035271Y-63577119D01*
X119023721Y-63587373D01*
X119011722Y-63597135D01*
X118999285Y-63606396D01*
X118986424Y-63615144D01*
X118973149Y-63623368D01*
X118959472Y-63631056D01*
X118945406Y-63638198D01*
X118930963Y-63644782D01*
X118916154Y-63650796D01*
X118900991Y-63656231D01*
X118885486Y-63661074D01*
X118869652Y-63665314D01*
X118853499Y-63668941D01*
X118837041Y-63671942D01*
X118820289Y-63674307D01*
X118706450Y-63678645D01*
X118477361Y-63681343D01*
X117827133Y-63682830D01*
X116834368Y-63677206D01*
X116816875Y-63676115D01*
X116799627Y-63674346D01*
X116782640Y-63671914D01*
X116765928Y-63668831D01*
X116749508Y-63665110D01*
X116733393Y-63660766D01*
X116717601Y-63655811D01*
X116702146Y-63650258D01*
X116687043Y-63644122D01*
X116672308Y-63637415D01*
X116657956Y-63630151D01*
X116644003Y-63622343D01*
X116630464Y-63614004D01*
X116617355Y-63605148D01*
X116604689Y-63595787D01*
X116592484Y-63585937D01*
X116580755Y-63575609D01*
X116569516Y-63564817D01*
X116558783Y-63553574D01*
X116548572Y-63541894D01*
X116538897Y-63529790D01*
X116529775Y-63517275D01*
X116521220Y-63504364D01*
X116513248Y-63491068D01*
X116505875Y-63477401D01*
X116499115Y-63463377D01*
X116492984Y-63449009D01*
X116487498Y-63434311D01*
X116482671Y-63419295D01*
X116478519Y-63403975D01*
X116475058Y-63388365D01*
X116472302Y-63372477D01*
X116467066Y-63262268D01*
X116464222Y-63043257D01*
X116463654Y-62480442D01*
X116555334Y-62480442D01*
X116557378Y-63056356D01*
X116561782Y-63259244D01*
X116569318Y-63365082D01*
X116574033Y-63385777D01*
X116579695Y-63405115D01*
X116586262Y-63423144D01*
X116593690Y-63439907D01*
X116601937Y-63455452D01*
X116610959Y-63469825D01*
X116620714Y-63483070D01*
X116631158Y-63495234D01*
X116642248Y-63506363D01*
X116653942Y-63516503D01*
X116666195Y-63525699D01*
X116678967Y-63533997D01*
X116692212Y-63541443D01*
X116705888Y-63548084D01*
X116719953Y-63553964D01*
X116734363Y-63559130D01*
X116764047Y-63567502D01*
X116794595Y-63573567D01*
X116825663Y-63577692D01*
X116856907Y-63580243D01*
X116887984Y-63581587D01*
X116918548Y-63582092D01*
X116976764Y-63582048D01*
X116976796Y-63582048D01*
X117965957Y-63586275D01*
X118549280Y-63584119D01*
X118750836Y-63579793D01*
X118849543Y-63572470D01*
X118869681Y-63566892D01*
X118888486Y-63560458D01*
X118906004Y-63553206D01*
X118922279Y-63545177D01*
X118937357Y-63536409D01*
X118951284Y-63526942D01*
X118964105Y-63516814D01*
X118975866Y-63506066D01*
X118986612Y-63494735D01*
X118996389Y-63482863D01*
X119005243Y-63470487D01*
X119013218Y-63457646D01*
X119020360Y-63444381D01*
X119026715Y-63430730D01*
X119032329Y-63416733D01*
X119037246Y-63402428D01*
X119045174Y-63373054D01*
X119050863Y-63342920D01*
X119054677Y-63312342D01*
X119056980Y-63281632D01*
X119058136Y-63251105D01*
X119058510Y-63221074D01*
X119058364Y-63163753D01*
X119062827Y-62137076D01*
X119062632Y-61865868D01*
X119061479Y-61659945D01*
X119059122Y-61488565D01*
X119057414Y-61419903D01*
X119055311Y-61364767D01*
X119052783Y-61324788D01*
X119051349Y-61310991D01*
X119049797Y-61301595D01*
X119044501Y-61280783D01*
X119038374Y-61261349D01*
X119031452Y-61243247D01*
X119023772Y-61226428D01*
X119015369Y-61210847D01*
X119006279Y-61196455D01*
X118996540Y-61183207D01*
X118986186Y-61171054D01*
X118975254Y-61159950D01*
X118963781Y-61149847D01*
X118951802Y-61140700D01*
X118939354Y-61132460D01*
X118926472Y-61125081D01*
X118913194Y-61118515D01*
X118899554Y-61112716D01*
X118885590Y-61107637D01*
X118856831Y-61099448D01*
X118827208Y-61093573D01*
X118797008Y-61089635D01*
X118766522Y-61087258D01*
X118736039Y-61086066D01*
X118705848Y-61085682D01*
X118647498Y-61085834D01*
X117663407Y-61082230D01*
X117079215Y-61083832D01*
X116880194Y-61087276D01*
X116787456Y-61093164D01*
X116751732Y-61103562D01*
X116735338Y-61109354D01*
X116719887Y-61115554D01*
X116705352Y-61122173D01*
X116691706Y-61129220D01*
X116678920Y-61136705D01*
X116666970Y-61144638D01*
X116655826Y-61153030D01*
X116645462Y-61161889D01*
X116635852Y-61171226D01*
X116626966Y-61181050D01*
X116618780Y-61191372D01*
X116611265Y-61202201D01*
X116604394Y-61213547D01*
X116598141Y-61225420D01*
X116592477Y-61237831D01*
X116587376Y-61250788D01*
X116578755Y-61278382D01*
X116572060Y-61308282D01*
X116567073Y-61340567D01*
X116563578Y-61375316D01*
X116561357Y-61412608D01*
X116560194Y-61452522D01*
X116559870Y-61495137D01*
X116555334Y-62480442D01*
X116463654Y-62480442D01*
X116463592Y-62418296D01*
X116467709Y-61396851D01*
X116468516Y-61362005D01*
X116471154Y-61328095D01*
X116475688Y-61295215D01*
X116478686Y-61279191D01*
X116482183Y-61263460D01*
X116486187Y-61248034D01*
X116490706Y-61232926D01*
X116495748Y-61218147D01*
X116501321Y-61203708D01*
X116507434Y-61189622D01*
X116514095Y-61175901D01*
X116521312Y-61162556D01*
X116529093Y-61149600D01*
X116537446Y-61137045D01*
X116546381Y-61124901D01*
X116555904Y-61113182D01*
X116566024Y-61101899D01*
X116576749Y-61091064D01*
X116588088Y-61080688D01*
X116600049Y-61070785D01*
X116612640Y-61061365D01*
X116625868Y-61052441D01*
X116639743Y-61044024D01*
X116654273Y-61036126D01*
X116669465Y-61028760D01*
X116685329Y-61021937D01*
X116701871Y-61015669D01*
X116719101Y-61009968D01*
X116737026Y-61004846D01*
X116777416Y-60999236D01*
X116848823Y-60994736D01*
X117067525Y-60988648D01*
X117688312Y-60985210D01*
X118702098Y-60989959D01*
G37*
G36*
X117322676Y-61594380D02*
G01*
X117345737Y-61599646D01*
X117367557Y-61607632D01*
X117388029Y-61618133D01*
X117407048Y-61630946D01*
X117424506Y-61645867D01*
X117440297Y-61662691D01*
X117454315Y-61681214D01*
X117466453Y-61701232D01*
X117476605Y-61722542D01*
X117484664Y-61744938D01*
X117490524Y-61768217D01*
X117494078Y-61792176D01*
X117495220Y-61816608D01*
X117493844Y-61841312D01*
X117489842Y-61866082D01*
X117483109Y-61890714D01*
X117473538Y-61915004D01*
X117461022Y-61938749D01*
X117445455Y-61961744D01*
X117439986Y-61968724D01*
X117434838Y-61974879D01*
X117429969Y-61980331D01*
X117425336Y-61985202D01*
X117420898Y-61989613D01*
X117416613Y-61993688D01*
X117408329Y-62001317D01*
X117404247Y-62005115D01*
X117400148Y-62009065D01*
X117395990Y-62013289D01*
X117391732Y-62017909D01*
X117387329Y-62023048D01*
X117382742Y-62028827D01*
X117377926Y-62035369D01*
X117372840Y-62042796D01*
X117347879Y-62083766D01*
X117326776Y-62125296D01*
X117309429Y-62167231D01*
X117295737Y-62209414D01*
X117285597Y-62251691D01*
X117278906Y-62293906D01*
X117275561Y-62335904D01*
X117275462Y-62377530D01*
X117278505Y-62418627D01*
X117284588Y-62459041D01*
X117293609Y-62498616D01*
X117305464Y-62537198D01*
X117320053Y-62574629D01*
X117337272Y-62610756D01*
X117357020Y-62645422D01*
X117379193Y-62678472D01*
X117403689Y-62709751D01*
X117430407Y-62739104D01*
X117459243Y-62766374D01*
X117490096Y-62791407D01*
X117522863Y-62814047D01*
X117557441Y-62834139D01*
X117593729Y-62851528D01*
X117631623Y-62866057D01*
X117671022Y-62877572D01*
X117711823Y-62885917D01*
X117753924Y-62890937D01*
X117797223Y-62892476D01*
X117841617Y-62890379D01*
X117887003Y-62884491D01*
X117933280Y-62874656D01*
X117980344Y-62860718D01*
X118006557Y-62851024D01*
X118032197Y-62839891D01*
X118057208Y-62827367D01*
X118081538Y-62813502D01*
X118105134Y-62798346D01*
X118127941Y-62781947D01*
X118149907Y-62764355D01*
X118170977Y-62745620D01*
X118191098Y-62725791D01*
X118210216Y-62704916D01*
X118228279Y-62683046D01*
X118245232Y-62660229D01*
X118261022Y-62636515D01*
X118275595Y-62611954D01*
X118288898Y-62586594D01*
X118300878Y-62560485D01*
X118311480Y-62533676D01*
X118320651Y-62506217D01*
X118328337Y-62478156D01*
X118334486Y-62449544D01*
X118339043Y-62420429D01*
X118341955Y-62390861D01*
X118343169Y-62360890D01*
X118342630Y-62330563D01*
X118340286Y-62299932D01*
X118336082Y-62269044D01*
X118329966Y-62237950D01*
X118321883Y-62206699D01*
X118311780Y-62175340D01*
X118299604Y-62143922D01*
X118285301Y-62112495D01*
X118268817Y-62081108D01*
X118256611Y-62061577D01*
X118242040Y-62041466D01*
X118208508Y-61999342D01*
X118190898Y-61977250D01*
X118173625Y-61954420D01*
X118157366Y-61930810D01*
X118142796Y-61906383D01*
X118136355Y-61893850D01*
X118130590Y-61881097D01*
X118125584Y-61868120D01*
X118121423Y-61854914D01*
X118118191Y-61841474D01*
X118115972Y-61827794D01*
X118114851Y-61813871D01*
X118114912Y-61799698D01*
X118116239Y-61785271D01*
X118118918Y-61770586D01*
X118123032Y-61755636D01*
X118128666Y-61740418D01*
X118135904Y-61724925D01*
X118144830Y-61709154D01*
X118155530Y-61693100D01*
X118168088Y-61676756D01*
X118176984Y-61666345D01*
X118186318Y-61656363D01*
X118196136Y-61646873D01*
X118206483Y-61637941D01*
X118217405Y-61629631D01*
X118228949Y-61622008D01*
X118241158Y-61615135D01*
X118254080Y-61609077D01*
X118267760Y-61603899D01*
X118282243Y-61599664D01*
X118297575Y-61596439D01*
X118313802Y-61594286D01*
X118330970Y-61593270D01*
X118349124Y-61593456D01*
X118368309Y-61594908D01*
X118388572Y-61597691D01*
X118396990Y-61599273D01*
X118405123Y-61601157D01*
X118412979Y-61603329D01*
X118420568Y-61605777D01*
X118427900Y-61608487D01*
X118434983Y-61611447D01*
X118441828Y-61614641D01*
X118448442Y-61618059D01*
X118454836Y-61621685D01*
X118461018Y-61625507D01*
X118466998Y-61629511D01*
X118472786Y-61633685D01*
X118483819Y-61642487D01*
X118494192Y-61651806D01*
X118503980Y-61661537D01*
X118513255Y-61671572D01*
X118522093Y-61681806D01*
X118530567Y-61692132D01*
X118562308Y-61732236D01*
X118615384Y-61802254D01*
X118661057Y-61873846D01*
X118699526Y-61946721D01*
X118730990Y-62020588D01*
X118755648Y-62095155D01*
X118773697Y-62170130D01*
X118785337Y-62245222D01*
X118790767Y-62320139D01*
X118790185Y-62394590D01*
X118783790Y-62468283D01*
X118771780Y-62540927D01*
X118754354Y-62612229D01*
X118731711Y-62681900D01*
X118704050Y-62749646D01*
X118671569Y-62815177D01*
X118634467Y-62878200D01*
X118592942Y-62938425D01*
X118547194Y-62995560D01*
X118497421Y-63049313D01*
X118443821Y-63099393D01*
X118386594Y-63145508D01*
X118325938Y-63187367D01*
X118262052Y-63224677D01*
X118195134Y-63257149D01*
X118125383Y-63284489D01*
X118052998Y-63306407D01*
X117978177Y-63322610D01*
X117901119Y-63332808D01*
X117822024Y-63336709D01*
X117741089Y-63334021D01*
X117658513Y-63324453D01*
X117574495Y-63307713D01*
X117534213Y-63296856D01*
X117493870Y-63283747D01*
X117453643Y-63268516D01*
X117413709Y-63251293D01*
X117374243Y-63232209D01*
X117335422Y-63211393D01*
X117297424Y-63188977D01*
X117260424Y-63165089D01*
X117224599Y-63139861D01*
X117190125Y-63113422D01*
X117157180Y-63085902D01*
X117125940Y-63057433D01*
X117096581Y-63028143D01*
X117069280Y-62998164D01*
X117044213Y-62967625D01*
X117021558Y-62936656D01*
X117021525Y-62936656D01*
X116991293Y-62891232D01*
X116964327Y-62847851D01*
X116940485Y-62806516D01*
X116919623Y-62767232D01*
X116901600Y-62730003D01*
X116886273Y-62694832D01*
X116873500Y-62661724D01*
X116863138Y-62630683D01*
X116855044Y-62601712D01*
X116849076Y-62574815D01*
X116845091Y-62549997D01*
X116842948Y-62527262D01*
X116842502Y-62506612D01*
X116843613Y-62488053D01*
X116846137Y-62471589D01*
X116849932Y-62457222D01*
X116854855Y-62444958D01*
X116860764Y-62434800D01*
X116867516Y-62426752D01*
X116874969Y-62420818D01*
X116882980Y-62417002D01*
X116891407Y-62415308D01*
X116900107Y-62415740D01*
X116908937Y-62418302D01*
X116917756Y-62422998D01*
X116926421Y-62429832D01*
X116934789Y-62438808D01*
X116942717Y-62449929D01*
X116950063Y-62463200D01*
X116956685Y-62478625D01*
X116962440Y-62496207D01*
X116967186Y-62515951D01*
X116978481Y-62565393D01*
X116992088Y-62613255D01*
X117007923Y-62659509D01*
X117025905Y-62704124D01*
X117045951Y-62747073D01*
X117067978Y-62788326D01*
X117091906Y-62827853D01*
X117117650Y-62865627D01*
X117145129Y-62901618D01*
X117174261Y-62935797D01*
X117204963Y-62968134D01*
X117237153Y-62998601D01*
X117270748Y-63027170D01*
X117305667Y-63053810D01*
X117341826Y-63078492D01*
X117379144Y-63101189D01*
X117417538Y-63121870D01*
X117456926Y-63140506D01*
X117497226Y-63157069D01*
X117538354Y-63171530D01*
X117580230Y-63183859D01*
X117622770Y-63194028D01*
X117665893Y-63202007D01*
X117709515Y-63207768D01*
X117753555Y-63211280D01*
X117797930Y-63212517D01*
X117842558Y-63211447D01*
X117887356Y-63208043D01*
X117932243Y-63202275D01*
X117977136Y-63194114D01*
X118021952Y-63183531D01*
X118066609Y-63170497D01*
X118103939Y-63158018D01*
X118137791Y-63145612D01*
X118168510Y-63133187D01*
X118196443Y-63120653D01*
X118221935Y-63107917D01*
X118245334Y-63094887D01*
X118266984Y-63081472D01*
X118287232Y-63067581D01*
X118306424Y-63053121D01*
X118324907Y-63038001D01*
X118343025Y-63022129D01*
X118361126Y-63005413D01*
X118398658Y-62969085D01*
X118440273Y-62928284D01*
X118484247Y-62881826D01*
X118522825Y-62833399D01*
X118556230Y-62783258D01*
X118584688Y-62731660D01*
X118608422Y-62678859D01*
X118627655Y-62625112D01*
X118642612Y-62570675D01*
X118653517Y-62515803D01*
X118660594Y-62460752D01*
X118664066Y-62405778D01*
X118664158Y-62351137D01*
X118661093Y-62297085D01*
X118655096Y-62243877D01*
X118646390Y-62191770D01*
X118635200Y-62141018D01*
X118621749Y-62091878D01*
X118606262Y-62044606D01*
X118588962Y-61999458D01*
X118570073Y-61956689D01*
X118549820Y-61916555D01*
X118528426Y-61879312D01*
X118506114Y-61845216D01*
X118483110Y-61814522D01*
X118459637Y-61787487D01*
X118435920Y-61764365D01*
X118412181Y-61745414D01*
X118388645Y-61730889D01*
X118365536Y-61721046D01*
X118343078Y-61716139D01*
X118321495Y-61716427D01*
X118301010Y-61722163D01*
X118281849Y-61733604D01*
X118270481Y-61743164D01*
X118260991Y-61752604D01*
X118253294Y-61761952D01*
X118247304Y-61771238D01*
X118242935Y-61780489D01*
X118240102Y-61789733D01*
X118238717Y-61799001D01*
X118238697Y-61808319D01*
X118239954Y-61817718D01*
X118242403Y-61827224D01*
X118245959Y-61836868D01*
X118250535Y-61846676D01*
X118256046Y-61856679D01*
X118262406Y-61866904D01*
X118277329Y-61888135D01*
X118313587Y-61934524D01*
X118333550Y-61960137D01*
X118353819Y-61987668D01*
X118373710Y-62017345D01*
X118383299Y-62033060D01*
X118392536Y-62049397D01*
X118401334Y-62066384D01*
X118409609Y-62084051D01*
X118417275Y-62102425D01*
X118424245Y-62121536D01*
X118435264Y-62156841D01*
X118444387Y-62191900D01*
X118451665Y-62226677D01*
X118457152Y-62261133D01*
X118460898Y-62295232D01*
X118462956Y-62328938D01*
X118463377Y-62362213D01*
X118462214Y-62395020D01*
X118459519Y-62427323D01*
X118455343Y-62459084D01*
X118449739Y-62490266D01*
X118442759Y-62520833D01*
X118434454Y-62550748D01*
X118424877Y-62579973D01*
X118414079Y-62608472D01*
X118402112Y-62636207D01*
X118389029Y-62663142D01*
X118374882Y-62689240D01*
X118359721Y-62714464D01*
X118343601Y-62738776D01*
X118326571Y-62762140D01*
X118308685Y-62784520D01*
X118289994Y-62805877D01*
X118270550Y-62826176D01*
X118250405Y-62845378D01*
X118229612Y-62863448D01*
X118208222Y-62880348D01*
X118186287Y-62896041D01*
X118163859Y-62910490D01*
X118140990Y-62923659D01*
X118117732Y-62935510D01*
X118094137Y-62946006D01*
X118063324Y-62958077D01*
X118032428Y-62968872D01*
X118001485Y-62978389D01*
X117970529Y-62986627D01*
X117939596Y-62993584D01*
X117908720Y-62999258D01*
X117877935Y-63003647D01*
X117847276Y-63006749D01*
X117816778Y-63008564D01*
X117786476Y-63009088D01*
X117756404Y-63008321D01*
X117726597Y-63006260D01*
X117697089Y-63002904D01*
X117667916Y-62998251D01*
X117639113Y-62992299D01*
X117610713Y-62985046D01*
X117582751Y-62976491D01*
X117555263Y-62966632D01*
X117528282Y-62955468D01*
X117501844Y-62942996D01*
X117475983Y-62929214D01*
X117450734Y-62914121D01*
X117426132Y-62897716D01*
X117402211Y-62879996D01*
X117379006Y-62860959D01*
X117356552Y-62840604D01*
X117334883Y-62818930D01*
X117314034Y-62795934D01*
X117294040Y-62771614D01*
X117274935Y-62745969D01*
X117256755Y-62718997D01*
X117239533Y-62690697D01*
X117217494Y-62649215D01*
X117198577Y-62606572D01*
X117182794Y-62562933D01*
X117170157Y-62518464D01*
X117160678Y-62473331D01*
X117154370Y-62427699D01*
X117151244Y-62381734D01*
X117151314Y-62335603D01*
X117154590Y-62289469D01*
X117161085Y-62243500D01*
X117170811Y-62197861D01*
X117183780Y-62152717D01*
X117200005Y-62108234D01*
X117219497Y-62064579D01*
X117242268Y-62021915D01*
X117268332Y-61980411D01*
X117277546Y-61967645D01*
X117287007Y-61955867D01*
X117296578Y-61944855D01*
X117306126Y-61934386D01*
X117324611Y-61914186D01*
X117333279Y-61904010D01*
X117341383Y-61893486D01*
X117348788Y-61882392D01*
X117352187Y-61876561D01*
X117355361Y-61870504D01*
X117358293Y-61864194D01*
X117360966Y-61857601D01*
X117363363Y-61850700D01*
X117365467Y-61843460D01*
X117367262Y-61835856D01*
X117368731Y-61827858D01*
X117369856Y-61819439D01*
X117370622Y-61810572D01*
X117371010Y-61801228D01*
X117371005Y-61791380D01*
X117370589Y-61780999D01*
X117369745Y-61770058D01*
X117356180Y-61758428D01*
X117342982Y-61748477D01*
X117330143Y-61740141D01*
X117317655Y-61733356D01*
X117305508Y-61728058D01*
X117293694Y-61724182D01*
X117282205Y-61721665D01*
X117271030Y-61720442D01*
X117260162Y-61720449D01*
X117249591Y-61721622D01*
X117239310Y-61723897D01*
X117229308Y-61727208D01*
X117219578Y-61731494D01*
X117210110Y-61736688D01*
X117200895Y-61742727D01*
X117191926Y-61749547D01*
X117183192Y-61757083D01*
X117174686Y-61765271D01*
X117158319Y-61783348D01*
X117142757Y-61803264D01*
X117127927Y-61824506D01*
X117113759Y-61846559D01*
X117100184Y-61868910D01*
X117074529Y-61912454D01*
X117062770Y-61932746D01*
X117052019Y-61952261D01*
X117042219Y-61971022D01*
X117033317Y-61989052D01*
X117025256Y-62006373D01*
X117017982Y-62023010D01*
X117011438Y-62038984D01*
X117005571Y-62054320D01*
X117000325Y-62069039D01*
X116995645Y-62083166D01*
X116987760Y-62109733D01*
X116981475Y-62134206D01*
X116976348Y-62156769D01*
X116967805Y-62196902D01*
X116963505Y-62214841D01*
X116958597Y-62231608D01*
X116955777Y-62239610D01*
X116952639Y-62247388D01*
X116949129Y-62254965D01*
X116945190Y-62262364D01*
X116940769Y-62269609D01*
X116935809Y-62276722D01*
X116930256Y-62283727D01*
X116924053Y-62290646D01*
X116907339Y-62290215D01*
X116892677Y-62287824D01*
X116879979Y-62283587D01*
X116869154Y-62277616D01*
X116860110Y-62270026D01*
X116852758Y-62260928D01*
X116847007Y-62250437D01*
X116842765Y-62238666D01*
X116839943Y-62225727D01*
X116838450Y-62211734D01*
X116838195Y-62196800D01*
X116839088Y-62181039D01*
X116841037Y-62164562D01*
X116843953Y-62147485D01*
X116852322Y-62111979D01*
X116863469Y-62075425D01*
X116876669Y-62038730D01*
X116891197Y-62002799D01*
X116906329Y-61968537D01*
X116935502Y-61908643D01*
X116958390Y-61866292D01*
X116987896Y-61817627D01*
X117017545Y-61774335D01*
X117047231Y-61736213D01*
X117076847Y-61703055D01*
X117106286Y-61674658D01*
X117135443Y-61650818D01*
X117164210Y-61631330D01*
X117192481Y-61615991D01*
X117220151Y-61604597D01*
X117247111Y-61596942D01*
X117273256Y-61592824D01*
X117298480Y-61592038D01*
X117322676Y-61594380D01*
G37*
G36*
X123629534Y-61602610D02*
G01*
X123233587Y-61602610D01*
X123233587Y-61911933D01*
X123567767Y-61911933D01*
X123567767Y-62173888D01*
X123233587Y-62173888D01*
X123233587Y-62524454D01*
X123628296Y-62524454D01*
X123628296Y-62796671D01*
X123020922Y-62796671D01*
X123020922Y-61330393D01*
X123629534Y-61330393D01*
X123629534Y-61602610D01*
G37*
G36*
X130444345Y-62796703D02*
G01*
X130215977Y-62796703D01*
X130164505Y-62522401D01*
X129873361Y-62522401D01*
X129822508Y-62796703D01*
X129595410Y-62796703D01*
X129715948Y-62250184D01*
X129924182Y-62250184D01*
X130113684Y-62250184D01*
X130018656Y-61741129D01*
X129924182Y-62250184D01*
X129715948Y-62250184D01*
X129918806Y-61330426D01*
X130118440Y-61330426D01*
X130444345Y-62796703D01*
G37*
G36*
X117837634Y-61352053D02*
G01*
X117855102Y-61354408D01*
X117871978Y-61358118D01*
X117888233Y-61363120D01*
X117903837Y-61369349D01*
X117918763Y-61376742D01*
X117932981Y-61385234D01*
X117946461Y-61394764D01*
X117959175Y-61405265D01*
X117971094Y-61416675D01*
X117982189Y-61428930D01*
X117992431Y-61441967D01*
X118001790Y-61455720D01*
X118010238Y-61470127D01*
X118017746Y-61485123D01*
X118024284Y-61500646D01*
X118029824Y-61516630D01*
X118034337Y-61533012D01*
X118037793Y-61549730D01*
X118040164Y-61566717D01*
X118041420Y-61583912D01*
X118041533Y-61601250D01*
X118040473Y-61618667D01*
X118038212Y-61636099D01*
X118034720Y-61653483D01*
X118029968Y-61670755D01*
X118023928Y-61687851D01*
X118016571Y-61704708D01*
X118000616Y-61706411D01*
X117986429Y-61707228D01*
X117973908Y-61707193D01*
X117962952Y-61706345D01*
X117953461Y-61704720D01*
X117945334Y-61702353D01*
X117938471Y-61699282D01*
X117932771Y-61695543D01*
X117928132Y-61691173D01*
X117924456Y-61686209D01*
X117921640Y-61680686D01*
X117919585Y-61674641D01*
X117918189Y-61668112D01*
X117917352Y-61661134D01*
X117916953Y-61645979D01*
X117918433Y-61611895D01*
X117918703Y-61593551D01*
X117917584Y-61574730D01*
X117916253Y-61565231D01*
X117914274Y-61555723D01*
X117911544Y-61546241D01*
X117907965Y-61536822D01*
X117903435Y-61527504D01*
X117897853Y-61518322D01*
X117891120Y-61509312D01*
X117883133Y-61500512D01*
X117876594Y-61494377D01*
X117869898Y-61488925D01*
X117863068Y-61484147D01*
X117856128Y-61480033D01*
X117849101Y-61476573D01*
X117842009Y-61473755D01*
X117834875Y-61471571D01*
X117827723Y-61470010D01*
X117820576Y-61469062D01*
X117813456Y-61468717D01*
X117806387Y-61468965D01*
X117799391Y-61469795D01*
X117792492Y-61471197D01*
X117785713Y-61473162D01*
X117779077Y-61475679D01*
X117772606Y-61478738D01*
X117766324Y-61482329D01*
X117760254Y-61486442D01*
X117754419Y-61491066D01*
X117748842Y-61496192D01*
X117743545Y-61501810D01*
X117738553Y-61507908D01*
X117733887Y-61514478D01*
X117729571Y-61521508D01*
X117725629Y-61528989D01*
X117722082Y-61536911D01*
X117718954Y-61545264D01*
X117716269Y-61554037D01*
X117714048Y-61563220D01*
X117712316Y-61572803D01*
X117711095Y-61582777D01*
X117710408Y-61593130D01*
X117709229Y-61634012D01*
X117708735Y-61675736D01*
X117709145Y-61760672D01*
X117710325Y-61845870D01*
X117710962Y-61929264D01*
X117710680Y-61957490D01*
X117710006Y-61982411D01*
X117708284Y-62023831D01*
X117707637Y-62041077D01*
X117707400Y-62056513D01*
X117707775Y-62070512D01*
X117708254Y-62077090D01*
X117708962Y-62083449D01*
X117709923Y-62089635D01*
X117711162Y-62095696D01*
X117712704Y-62101678D01*
X117714575Y-62107628D01*
X117716800Y-62113593D01*
X117719403Y-62119619D01*
X117722410Y-62125753D01*
X117725846Y-62132042D01*
X117729736Y-62138532D01*
X117734105Y-62145271D01*
X117738978Y-62152304D01*
X117744380Y-62159680D01*
X117756873Y-62175642D01*
X117771784Y-62193532D01*
X117798403Y-62193198D01*
X117821731Y-62190593D01*
X117841976Y-62185874D01*
X117859345Y-62179200D01*
X117874044Y-62170732D01*
X117886281Y-62160627D01*
X117896264Y-62149045D01*
X117904198Y-62136144D01*
X117910291Y-62122083D01*
X117914750Y-62107022D01*
X117917782Y-62091118D01*
X117919595Y-62074532D01*
X117920395Y-62057421D01*
X117920389Y-62039946D01*
X117918789Y-62004534D01*
X117916452Y-61969569D01*
X117915033Y-61936320D01*
X117915186Y-61920737D01*
X117916190Y-61906060D01*
X117918253Y-61892447D01*
X117921580Y-61880059D01*
X117926379Y-61869053D01*
X117932858Y-61859589D01*
X117941223Y-61851825D01*
X117951681Y-61845920D01*
X117964440Y-61842034D01*
X117979706Y-61840325D01*
X117997688Y-61840952D01*
X118018590Y-61844074D01*
X118025183Y-61862142D01*
X118031594Y-61885840D01*
X118037356Y-61914284D01*
X118042006Y-61946593D01*
X118045079Y-61981883D01*
X118046111Y-62019271D01*
X118044636Y-62057876D01*
X118042813Y-62077358D01*
X118040189Y-62096814D01*
X118036707Y-62116132D01*
X118032307Y-62135203D01*
X118026932Y-62153915D01*
X118020524Y-62172159D01*
X118013025Y-62189824D01*
X118004376Y-62206801D01*
X117994519Y-62222978D01*
X117983398Y-62238245D01*
X117970952Y-62252493D01*
X117957125Y-62265610D01*
X117941857Y-62277486D01*
X117925092Y-62288011D01*
X117906771Y-62297075D01*
X117886836Y-62304567D01*
X117865228Y-62310377D01*
X117841890Y-62314394D01*
X117815767Y-62316794D01*
X117791462Y-62317164D01*
X117768909Y-62315610D01*
X117748043Y-62312235D01*
X117728801Y-62307144D01*
X117711118Y-62300441D01*
X117694927Y-62292230D01*
X117680166Y-62282615D01*
X117666768Y-62271699D01*
X117654669Y-62259588D01*
X117643805Y-62246385D01*
X117634110Y-62232194D01*
X117625520Y-62217120D01*
X117617969Y-62201267D01*
X117611394Y-62184738D01*
X117605728Y-62167637D01*
X117596869Y-62132139D01*
X117590873Y-62095605D01*
X117587223Y-62058867D01*
X117585398Y-62022760D01*
X117585154Y-61955764D01*
X117585994Y-61901280D01*
X117585962Y-61901280D01*
X117584486Y-61817376D01*
X117582263Y-61732823D01*
X117581927Y-61691145D01*
X117582672Y-61650317D01*
X117584918Y-61610674D01*
X117589089Y-61572553D01*
X117592029Y-61554169D01*
X117595608Y-61536293D01*
X117599879Y-61518965D01*
X117604896Y-61502228D01*
X117610710Y-61486125D01*
X117617375Y-61470698D01*
X117624944Y-61455988D01*
X117633469Y-61442037D01*
X117643003Y-61428889D01*
X117653599Y-61416585D01*
X117665310Y-61405166D01*
X117678188Y-61394676D01*
X117692286Y-61385156D01*
X117707658Y-61376649D01*
X117724355Y-61369196D01*
X117742431Y-61362840D01*
X117762424Y-61357462D01*
X117781969Y-61353758D01*
X117801039Y-61351664D01*
X117819604Y-61351117D01*
X117837634Y-61352053D01*
G37*
D11*
G36*
X131638897Y-88263330D02*
G01*
X128505096Y-88263330D01*
X128505096Y-87651757D01*
X128616207Y-87651757D01*
X128616207Y-87690775D01*
X128631139Y-87726823D01*
X128658729Y-87754413D01*
X128694777Y-87769345D01*
X128714286Y-87771266D01*
X129476191Y-87771266D01*
X129495700Y-87769345D01*
X129531748Y-87754413D01*
X129559338Y-87726823D01*
X129574270Y-87690775D01*
X129574270Y-87651757D01*
X129559338Y-87615709D01*
X129531748Y-87588119D01*
X129495700Y-87573187D01*
X129476191Y-87571266D01*
X128714286Y-87571266D01*
X128694777Y-87573187D01*
X128658729Y-87588119D01*
X128631139Y-87615709D01*
X128616207Y-87651757D01*
X128505096Y-87651757D01*
X128505096Y-87538062D01*
X129805229Y-87538062D01*
X129806683Y-87542880D01*
X129806683Y-87547918D01*
X129812279Y-87561427D01*
X129816500Y-87575417D01*
X129819687Y-87579313D01*
X129821615Y-87583966D01*
X129831951Y-87594302D01*
X129841207Y-87605615D01*
X129845644Y-87607995D01*
X129849205Y-87611556D01*
X129862710Y-87617150D01*
X129875591Y-87624060D01*
X129880600Y-87624560D01*
X129885253Y-87626488D01*
X129899874Y-87626488D01*
X129914415Y-87627942D01*
X129919234Y-87626488D01*
X129924271Y-87626488D01*
X129937780Y-87620891D01*
X129951770Y-87616671D01*
X129955666Y-87613483D01*
X129960319Y-87611556D01*
X129975473Y-87599120D01*
X130011616Y-87562975D01*
X130071226Y-87533171D01*
X130262107Y-87533171D01*
X130321716Y-87562976D01*
X130346385Y-87587644D01*
X130376190Y-87647254D01*
X130376190Y-87838135D01*
X130346385Y-87897743D01*
X130321716Y-87922413D01*
X130262107Y-87952219D01*
X130071226Y-87952219D01*
X130011616Y-87922414D01*
X129975473Y-87886270D01*
X129960320Y-87873833D01*
X129924272Y-87858902D01*
X129885254Y-87858901D01*
X129849205Y-87873832D01*
X129821615Y-87901422D01*
X129806684Y-87937470D01*
X129806683Y-87976488D01*
X129821614Y-88012537D01*
X129834051Y-88027690D01*
X129881669Y-88075310D01*
X129889337Y-88081603D01*
X129891069Y-88083600D01*
X129894077Y-88085493D01*
X129896823Y-88087747D01*
X129899263Y-88088757D01*
X129907660Y-88094043D01*
X130002897Y-88141662D01*
X130021206Y-88148668D01*
X130024789Y-88148922D01*
X130028110Y-88150298D01*
X130047619Y-88152219D01*
X130285714Y-88152219D01*
X130305223Y-88150298D01*
X130308543Y-88148922D01*
X130312127Y-88148668D01*
X130330435Y-88141662D01*
X130425673Y-88094043D01*
X130434068Y-88088758D01*
X130436510Y-88087747D01*
X130439257Y-88085491D01*
X130442263Y-88083600D01*
X130443993Y-88081605D01*
X130451663Y-88075310D01*
X130499282Y-88027690D01*
X130505574Y-88020023D01*
X130507571Y-88018292D01*
X130509464Y-88015284D01*
X130511719Y-88012537D01*
X130512730Y-88010095D01*
X130518014Y-88001701D01*
X130565633Y-87906464D01*
X130572639Y-87888155D01*
X130572893Y-87884571D01*
X130574269Y-87881251D01*
X130576190Y-87861742D01*
X130576190Y-87623647D01*
X130574269Y-87604138D01*
X130572893Y-87600817D01*
X130572639Y-87597234D01*
X130565633Y-87578925D01*
X130518014Y-87483688D01*
X130512728Y-87475291D01*
X130511718Y-87472851D01*
X130509464Y-87470105D01*
X130507571Y-87467097D01*
X130505573Y-87465364D01*
X130499281Y-87457698D01*
X130451663Y-87410079D01*
X130443992Y-87403784D01*
X130442263Y-87401790D01*
X130439255Y-87399896D01*
X130436509Y-87397643D01*
X130434069Y-87396632D01*
X130425673Y-87391347D01*
X130330435Y-87343728D01*
X130312127Y-87336722D01*
X130308543Y-87336467D01*
X130305223Y-87335092D01*
X130285714Y-87333171D01*
X130047619Y-87333171D01*
X130028110Y-87335092D01*
X130024789Y-87336467D01*
X130024452Y-87336491D01*
X130042880Y-87152219D01*
X130428571Y-87152219D01*
X130448080Y-87150298D01*
X130484128Y-87135366D01*
X130511718Y-87107776D01*
X130526650Y-87071728D01*
X130526650Y-87064726D01*
X130662690Y-87064726D01*
X130667037Y-87083842D01*
X131000370Y-88083841D01*
X131008361Y-88101742D01*
X131013044Y-88107141D01*
X131016239Y-88113531D01*
X131025710Y-88121746D01*
X131033926Y-88131218D01*
X131040314Y-88134412D01*
X131045715Y-88139096D01*
X131057616Y-88143063D01*
X131068825Y-88148667D01*
X131075949Y-88149173D01*
X131082731Y-88151434D01*
X131095240Y-88150544D01*
X131107745Y-88151434D01*
X131114523Y-88149174D01*
X131121651Y-88148668D01*
X131132867Y-88143059D01*
X131144761Y-88139095D01*
X131150158Y-88134414D01*
X131156550Y-88131218D01*
X131164768Y-88121742D01*
X131174237Y-88113530D01*
X131177430Y-88107143D01*
X131182115Y-88101742D01*
X131190106Y-88083842D01*
X131523439Y-87083842D01*
X131527786Y-87064727D01*
X131525020Y-87025807D01*
X131507570Y-86990908D01*
X131478094Y-86965343D01*
X131441078Y-86953004D01*
X131402158Y-86955771D01*
X131367259Y-86973220D01*
X131341694Y-87002696D01*
X131333703Y-87020597D01*
X131095238Y-87735991D01*
X130856773Y-87020596D01*
X130848782Y-87002696D01*
X130823217Y-86973220D01*
X130788318Y-86955770D01*
X130749398Y-86953004D01*
X130712382Y-86965342D01*
X130682906Y-86990907D01*
X130665456Y-87025806D01*
X130662690Y-87064726D01*
X130526650Y-87064726D01*
X130526650Y-87032710D01*
X130511718Y-86996662D01*
X130484128Y-86969072D01*
X130448080Y-86954140D01*
X130428571Y-86952219D01*
X129952381Y-86952219D01*
X129945164Y-86952929D01*
X129942728Y-86952686D01*
X129940349Y-86953403D01*
X129932872Y-86954140D01*
X129919362Y-86959736D01*
X129905373Y-86963957D01*
X129901476Y-86967144D01*
X129896824Y-86969072D01*
X129886487Y-86979408D01*
X129875175Y-86988664D01*
X129872794Y-86993101D01*
X129869234Y-86996662D01*
X129863639Y-87010167D01*
X129856730Y-87023048D01*
X129855253Y-87030412D01*
X129854302Y-87032710D01*
X129854302Y-87035160D01*
X129852877Y-87042269D01*
X129805258Y-87518459D01*
X129805229Y-87538062D01*
X128505096Y-87538062D01*
X128505096Y-86841108D01*
X131638897Y-86841108D01*
X131638897Y-88263330D01*
G37*
G36*
X131638897Y-79863330D02*
G01*
X128505096Y-79863330D01*
X128505096Y-79251757D01*
X128616207Y-79251757D01*
X128616207Y-79290775D01*
X128631139Y-79326823D01*
X128658729Y-79354413D01*
X128694777Y-79369345D01*
X128714286Y-79371266D01*
X128995238Y-79371266D01*
X128995238Y-79652219D01*
X128997159Y-79671728D01*
X129012091Y-79707776D01*
X129039681Y-79735366D01*
X129075729Y-79750298D01*
X129114747Y-79750298D01*
X129150795Y-79735366D01*
X129178385Y-79707776D01*
X129193317Y-79671728D01*
X129195238Y-79652219D01*
X129195238Y-79371266D01*
X129476191Y-79371266D01*
X129495700Y-79369345D01*
X129531748Y-79354413D01*
X129559338Y-79326823D01*
X129574270Y-79290775D01*
X129574270Y-79251757D01*
X129559338Y-79215709D01*
X129531748Y-79188119D01*
X129495700Y-79173187D01*
X129476191Y-79171266D01*
X129195238Y-79171266D01*
X129195238Y-79138062D01*
X129805229Y-79138062D01*
X129806683Y-79142880D01*
X129806683Y-79147918D01*
X129812279Y-79161427D01*
X129816500Y-79175417D01*
X129819687Y-79179313D01*
X129821615Y-79183966D01*
X129831951Y-79194302D01*
X129841207Y-79205615D01*
X129845644Y-79207995D01*
X129849205Y-79211556D01*
X129862710Y-79217150D01*
X129875591Y-79224060D01*
X129880600Y-79224560D01*
X129885253Y-79226488D01*
X129899874Y-79226488D01*
X129914415Y-79227942D01*
X129919234Y-79226488D01*
X129924271Y-79226488D01*
X129937780Y-79220891D01*
X129951770Y-79216671D01*
X129955666Y-79213483D01*
X129960319Y-79211556D01*
X129975473Y-79199120D01*
X130011616Y-79162975D01*
X130071226Y-79133171D01*
X130262107Y-79133171D01*
X130321716Y-79162976D01*
X130346385Y-79187644D01*
X130376190Y-79247254D01*
X130376190Y-79438135D01*
X130346385Y-79497743D01*
X130321716Y-79522413D01*
X130262107Y-79552219D01*
X130071226Y-79552219D01*
X130011616Y-79522414D01*
X129975473Y-79486270D01*
X129960320Y-79473833D01*
X129924272Y-79458902D01*
X129885254Y-79458901D01*
X129849205Y-79473832D01*
X129821615Y-79501422D01*
X129806684Y-79537470D01*
X129806683Y-79576488D01*
X129821614Y-79612537D01*
X129834051Y-79627690D01*
X129881669Y-79675310D01*
X129889337Y-79681603D01*
X129891069Y-79683600D01*
X129894077Y-79685493D01*
X129896823Y-79687747D01*
X129899263Y-79688757D01*
X129907660Y-79694043D01*
X130002897Y-79741662D01*
X130021206Y-79748668D01*
X130024789Y-79748922D01*
X130028110Y-79750298D01*
X130047619Y-79752219D01*
X130285714Y-79752219D01*
X130305223Y-79750298D01*
X130308543Y-79748922D01*
X130312127Y-79748668D01*
X130330435Y-79741662D01*
X130425673Y-79694043D01*
X130434068Y-79688758D01*
X130436510Y-79687747D01*
X130439257Y-79685491D01*
X130442263Y-79683600D01*
X130443993Y-79681605D01*
X130451663Y-79675310D01*
X130499282Y-79627690D01*
X130505574Y-79620023D01*
X130507571Y-79618292D01*
X130509464Y-79615284D01*
X130511719Y-79612537D01*
X130512730Y-79610095D01*
X130518014Y-79601701D01*
X130565633Y-79506464D01*
X130572639Y-79488155D01*
X130572893Y-79484571D01*
X130574269Y-79481251D01*
X130576190Y-79461742D01*
X130576190Y-79223647D01*
X130574269Y-79204138D01*
X130572893Y-79200817D01*
X130572639Y-79197234D01*
X130565633Y-79178925D01*
X130518014Y-79083688D01*
X130512728Y-79075291D01*
X130511718Y-79072851D01*
X130509464Y-79070105D01*
X130507571Y-79067097D01*
X130505573Y-79065364D01*
X130499281Y-79057698D01*
X130451663Y-79010079D01*
X130443992Y-79003784D01*
X130442263Y-79001790D01*
X130439255Y-78999896D01*
X130436509Y-78997643D01*
X130434069Y-78996632D01*
X130425673Y-78991347D01*
X130330435Y-78943728D01*
X130312127Y-78936722D01*
X130308543Y-78936467D01*
X130305223Y-78935092D01*
X130285714Y-78933171D01*
X130047619Y-78933171D01*
X130028110Y-78935092D01*
X130024789Y-78936467D01*
X130024452Y-78936491D01*
X130042880Y-78752219D01*
X130428571Y-78752219D01*
X130448080Y-78750298D01*
X130484128Y-78735366D01*
X130511718Y-78707776D01*
X130526650Y-78671728D01*
X130526650Y-78664726D01*
X130662690Y-78664726D01*
X130667037Y-78683842D01*
X131000370Y-79683841D01*
X131008361Y-79701742D01*
X131013044Y-79707141D01*
X131016239Y-79713531D01*
X131025710Y-79721746D01*
X131033926Y-79731218D01*
X131040314Y-79734412D01*
X131045715Y-79739096D01*
X131057616Y-79743063D01*
X131068825Y-79748667D01*
X131075949Y-79749173D01*
X131082731Y-79751434D01*
X131095240Y-79750544D01*
X131107745Y-79751434D01*
X131114523Y-79749174D01*
X131121651Y-79748668D01*
X131132867Y-79743059D01*
X131144761Y-79739095D01*
X131150158Y-79734414D01*
X131156550Y-79731218D01*
X131164768Y-79721742D01*
X131174237Y-79713530D01*
X131177430Y-79707143D01*
X131182115Y-79701742D01*
X131190106Y-79683842D01*
X131523439Y-78683842D01*
X131527786Y-78664727D01*
X131525020Y-78625807D01*
X131507570Y-78590908D01*
X131478094Y-78565343D01*
X131441078Y-78553004D01*
X131402158Y-78555771D01*
X131367259Y-78573220D01*
X131341694Y-78602696D01*
X131333703Y-78620597D01*
X131095238Y-79335991D01*
X130856773Y-78620596D01*
X130848782Y-78602696D01*
X130823217Y-78573220D01*
X130788318Y-78555770D01*
X130749398Y-78553004D01*
X130712382Y-78565342D01*
X130682906Y-78590907D01*
X130665456Y-78625806D01*
X130662690Y-78664726D01*
X130526650Y-78664726D01*
X130526650Y-78632710D01*
X130511718Y-78596662D01*
X130484128Y-78569072D01*
X130448080Y-78554140D01*
X130428571Y-78552219D01*
X129952381Y-78552219D01*
X129945164Y-78552929D01*
X129942728Y-78552686D01*
X129940349Y-78553403D01*
X129932872Y-78554140D01*
X129919362Y-78559736D01*
X129905373Y-78563957D01*
X129901476Y-78567144D01*
X129896824Y-78569072D01*
X129886487Y-78579408D01*
X129875175Y-78588664D01*
X129872794Y-78593101D01*
X129869234Y-78596662D01*
X129863639Y-78610167D01*
X129856730Y-78623048D01*
X129855253Y-78630412D01*
X129854302Y-78632710D01*
X129854302Y-78635160D01*
X129852877Y-78642269D01*
X129805258Y-79118459D01*
X129805229Y-79138062D01*
X129195238Y-79138062D01*
X129195238Y-78890314D01*
X129193317Y-78870805D01*
X129178385Y-78834757D01*
X129150795Y-78807167D01*
X129114747Y-78792235D01*
X129075729Y-78792235D01*
X129039681Y-78807167D01*
X129012091Y-78834757D01*
X128997159Y-78870805D01*
X128995238Y-78890314D01*
X128995238Y-79171266D01*
X128714286Y-79171266D01*
X128694777Y-79173187D01*
X128658729Y-79188119D01*
X128631139Y-79215709D01*
X128616207Y-79251757D01*
X128505096Y-79251757D01*
X128505096Y-78441108D01*
X131638897Y-78441108D01*
X131638897Y-79863330D01*
G37*
X105880951Y-96147331D02*
X105880951Y-95147331D01*
X106309522Y-96147331D02*
X106309522Y-95623521D01*
X106309522Y-95623521D02*
X106261903Y-95528283D01*
X106261903Y-95528283D02*
X106166665Y-95480664D01*
X106166665Y-95480664D02*
X106023808Y-95480664D01*
X106023808Y-95480664D02*
X105928570Y-95528283D01*
X105928570Y-95528283D02*
X105880951Y-95575902D01*
X106642856Y-95480664D02*
X107023808Y-95480664D01*
X106785713Y-95147331D02*
X106785713Y-96004473D01*
X106785713Y-96004473D02*
X106833332Y-96099712D01*
X106833332Y-96099712D02*
X106928570Y-96147331D01*
X106928570Y-96147331D02*
X107023808Y-96147331D01*
X107214285Y-95480664D02*
X107595237Y-95480664D01*
X107357142Y-95147331D02*
X107357142Y-96004473D01*
X107357142Y-96004473D02*
X107404761Y-96099712D01*
X107404761Y-96099712D02*
X107499999Y-96147331D01*
X107499999Y-96147331D02*
X107595237Y-96147331D01*
X107928571Y-95480664D02*
X107928571Y-96480664D01*
X107928571Y-95528283D02*
X108023809Y-95480664D01*
X108023809Y-95480664D02*
X108214285Y-95480664D01*
X108214285Y-95480664D02*
X108309523Y-95528283D01*
X108309523Y-95528283D02*
X108357142Y-95575902D01*
X108357142Y-95575902D02*
X108404761Y-95671140D01*
X108404761Y-95671140D02*
X108404761Y-95956854D01*
X108404761Y-95956854D02*
X108357142Y-96052092D01*
X108357142Y-96052092D02*
X108309523Y-96099712D01*
X108309523Y-96099712D02*
X108214285Y-96147331D01*
X108214285Y-96147331D02*
X108023809Y-96147331D01*
X108023809Y-96147331D02*
X107928571Y-96099712D01*
X108785714Y-96099712D02*
X108880952Y-96147331D01*
X108880952Y-96147331D02*
X109071428Y-96147331D01*
X109071428Y-96147331D02*
X109166666Y-96099712D01*
X109166666Y-96099712D02*
X109214285Y-96004473D01*
X109214285Y-96004473D02*
X109214285Y-95956854D01*
X109214285Y-95956854D02*
X109166666Y-95861616D01*
X109166666Y-95861616D02*
X109071428Y-95813997D01*
X109071428Y-95813997D02*
X108928571Y-95813997D01*
X108928571Y-95813997D02*
X108833333Y-95766378D01*
X108833333Y-95766378D02*
X108785714Y-95671140D01*
X108785714Y-95671140D02*
X108785714Y-95623521D01*
X108785714Y-95623521D02*
X108833333Y-95528283D01*
X108833333Y-95528283D02*
X108928571Y-95480664D01*
X108928571Y-95480664D02*
X109071428Y-95480664D01*
X109071428Y-95480664D02*
X109166666Y-95528283D01*
X109642857Y-96052092D02*
X109690476Y-96099712D01*
X109690476Y-96099712D02*
X109642857Y-96147331D01*
X109642857Y-96147331D02*
X109595238Y-96099712D01*
X109595238Y-96099712D02*
X109642857Y-96052092D01*
X109642857Y-96052092D02*
X109642857Y-96147331D01*
X109642857Y-95528283D02*
X109690476Y-95575902D01*
X109690476Y-95575902D02*
X109642857Y-95623521D01*
X109642857Y-95623521D02*
X109595238Y-95575902D01*
X109595238Y-95575902D02*
X109642857Y-95528283D01*
X109642857Y-95528283D02*
X109642857Y-95623521D01*
X110833332Y-95099712D02*
X109976190Y-96385426D01*
X111880951Y-95099712D02*
X111023809Y-96385426D01*
X112071428Y-95480664D02*
X112452380Y-95480664D01*
X112214285Y-96147331D02*
X112214285Y-95290188D01*
X112214285Y-95290188D02*
X112261904Y-95194950D01*
X112261904Y-95194950D02*
X112357142Y-95147331D01*
X112357142Y-95147331D02*
X112452380Y-95147331D01*
X112928571Y-96147331D02*
X112833333Y-96099712D01*
X112833333Y-96099712D02*
X112785714Y-96052092D01*
X112785714Y-96052092D02*
X112738095Y-95956854D01*
X112738095Y-95956854D02*
X112738095Y-95671140D01*
X112738095Y-95671140D02*
X112785714Y-95575902D01*
X112785714Y-95575902D02*
X112833333Y-95528283D01*
X112833333Y-95528283D02*
X112928571Y-95480664D01*
X112928571Y-95480664D02*
X113071428Y-95480664D01*
X113071428Y-95480664D02*
X113166666Y-95528283D01*
X113166666Y-95528283D02*
X113214285Y-95575902D01*
X113214285Y-95575902D02*
X113261904Y-95671140D01*
X113261904Y-95671140D02*
X113261904Y-95956854D01*
X113261904Y-95956854D02*
X113214285Y-96052092D01*
X113214285Y-96052092D02*
X113166666Y-96099712D01*
X113166666Y-96099712D02*
X113071428Y-96147331D01*
X113071428Y-96147331D02*
X112928571Y-96147331D01*
X113690476Y-95480664D02*
X113690476Y-96147331D01*
X113690476Y-95575902D02*
X113738095Y-95528283D01*
X113738095Y-95528283D02*
X113833333Y-95480664D01*
X113833333Y-95480664D02*
X113976190Y-95480664D01*
X113976190Y-95480664D02*
X114071428Y-95528283D01*
X114071428Y-95528283D02*
X114119047Y-95623521D01*
X114119047Y-95623521D02*
X114119047Y-96147331D01*
X114452381Y-95480664D02*
X114833333Y-95480664D01*
X114595238Y-95147331D02*
X114595238Y-96004473D01*
X114595238Y-96004473D02*
X114642857Y-96099712D01*
X114642857Y-96099712D02*
X114738095Y-96147331D01*
X114738095Y-96147331D02*
X114833333Y-96147331D01*
X115547619Y-96099712D02*
X115452381Y-96147331D01*
X115452381Y-96147331D02*
X115261905Y-96147331D01*
X115261905Y-96147331D02*
X115166667Y-96099712D01*
X115166667Y-96099712D02*
X115119048Y-96004473D01*
X115119048Y-96004473D02*
X115119048Y-95623521D01*
X115119048Y-95623521D02*
X115166667Y-95528283D01*
X115166667Y-95528283D02*
X115261905Y-95480664D01*
X115261905Y-95480664D02*
X115452381Y-95480664D01*
X115452381Y-95480664D02*
X115547619Y-95528283D01*
X115547619Y-95528283D02*
X115595238Y-95623521D01*
X115595238Y-95623521D02*
X115595238Y-95718759D01*
X115595238Y-95718759D02*
X115119048Y-95813997D01*
X116452381Y-96099712D02*
X116357143Y-96147331D01*
X116357143Y-96147331D02*
X116166667Y-96147331D01*
X116166667Y-96147331D02*
X116071429Y-96099712D01*
X116071429Y-96099712D02*
X116023810Y-96052092D01*
X116023810Y-96052092D02*
X115976191Y-95956854D01*
X115976191Y-95956854D02*
X115976191Y-95671140D01*
X115976191Y-95671140D02*
X116023810Y-95575902D01*
X116023810Y-95575902D02*
X116071429Y-95528283D01*
X116071429Y-95528283D02*
X116166667Y-95480664D01*
X116166667Y-95480664D02*
X116357143Y-95480664D01*
X116357143Y-95480664D02*
X116452381Y-95528283D01*
X116880953Y-96147331D02*
X116880953Y-95147331D01*
X117309524Y-96147331D02*
X117309524Y-95623521D01*
X117309524Y-95623521D02*
X117261905Y-95528283D01*
X117261905Y-95528283D02*
X117166667Y-95480664D01*
X117166667Y-95480664D02*
X117023810Y-95480664D01*
X117023810Y-95480664D02*
X116928572Y-95528283D01*
X116928572Y-95528283D02*
X116880953Y-95575902D01*
X118214286Y-96147331D02*
X118214286Y-95623521D01*
X118214286Y-95623521D02*
X118166667Y-95528283D01*
X118166667Y-95528283D02*
X118071429Y-95480664D01*
X118071429Y-95480664D02*
X117880953Y-95480664D01*
X117880953Y-95480664D02*
X117785715Y-95528283D01*
X118214286Y-96099712D02*
X118119048Y-96147331D01*
X118119048Y-96147331D02*
X117880953Y-96147331D01*
X117880953Y-96147331D02*
X117785715Y-96099712D01*
X117785715Y-96099712D02*
X117738096Y-96004473D01*
X117738096Y-96004473D02*
X117738096Y-95909235D01*
X117738096Y-95909235D02*
X117785715Y-95813997D01*
X117785715Y-95813997D02*
X117880953Y-95766378D01*
X117880953Y-95766378D02*
X118119048Y-95766378D01*
X118119048Y-95766378D02*
X118214286Y-95718759D01*
X118595239Y-95480664D02*
X118833334Y-96147331D01*
X118833334Y-96147331D02*
X119071429Y-95480664D01*
X119833334Y-96099712D02*
X119738096Y-96147331D01*
X119738096Y-96147331D02*
X119547620Y-96147331D01*
X119547620Y-96147331D02*
X119452382Y-96099712D01*
X119452382Y-96099712D02*
X119404763Y-96004473D01*
X119404763Y-96004473D02*
X119404763Y-95623521D01*
X119404763Y-95623521D02*
X119452382Y-95528283D01*
X119452382Y-95528283D02*
X119547620Y-95480664D01*
X119547620Y-95480664D02*
X119738096Y-95480664D01*
X119738096Y-95480664D02*
X119833334Y-95528283D01*
X119833334Y-95528283D02*
X119880953Y-95623521D01*
X119880953Y-95623521D02*
X119880953Y-95718759D01*
X119880953Y-95718759D02*
X119404763Y-95813997D01*
X120738096Y-96147331D02*
X120738096Y-95623521D01*
X120738096Y-95623521D02*
X120690477Y-95528283D01*
X120690477Y-95528283D02*
X120595239Y-95480664D01*
X120595239Y-95480664D02*
X120404763Y-95480664D01*
X120404763Y-95480664D02*
X120309525Y-95528283D01*
X120738096Y-96099712D02*
X120642858Y-96147331D01*
X120642858Y-96147331D02*
X120404763Y-96147331D01*
X120404763Y-96147331D02*
X120309525Y-96099712D01*
X120309525Y-96099712D02*
X120261906Y-96004473D01*
X120261906Y-96004473D02*
X120261906Y-95909235D01*
X120261906Y-95909235D02*
X120309525Y-95813997D01*
X120309525Y-95813997D02*
X120404763Y-95766378D01*
X120404763Y-95766378D02*
X120642858Y-95766378D01*
X120642858Y-95766378D02*
X120738096Y-95718759D01*
X121642858Y-96147331D02*
X121642858Y-95147331D01*
X121642858Y-96099712D02*
X121547620Y-96147331D01*
X121547620Y-96147331D02*
X121357144Y-96147331D01*
X121357144Y-96147331D02*
X121261906Y-96099712D01*
X121261906Y-96099712D02*
X121214287Y-96052092D01*
X121214287Y-96052092D02*
X121166668Y-95956854D01*
X121166668Y-95956854D02*
X121166668Y-95671140D01*
X121166668Y-95671140D02*
X121214287Y-95575902D01*
X121214287Y-95575902D02*
X121261906Y-95528283D01*
X121261906Y-95528283D02*
X121357144Y-95480664D01*
X121357144Y-95480664D02*
X121547620Y-95480664D01*
X121547620Y-95480664D02*
X121642858Y-95528283D01*
X122547620Y-96147331D02*
X122547620Y-95623521D01*
X122547620Y-95623521D02*
X122500001Y-95528283D01*
X122500001Y-95528283D02*
X122404763Y-95480664D01*
X122404763Y-95480664D02*
X122214287Y-95480664D01*
X122214287Y-95480664D02*
X122119049Y-95528283D01*
X122547620Y-96099712D02*
X122452382Y-96147331D01*
X122452382Y-96147331D02*
X122214287Y-96147331D01*
X122214287Y-96147331D02*
X122119049Y-96099712D01*
X122119049Y-96099712D02*
X122071430Y-96004473D01*
X122071430Y-96004473D02*
X122071430Y-95909235D01*
X122071430Y-95909235D02*
X122119049Y-95813997D01*
X122119049Y-95813997D02*
X122214287Y-95766378D01*
X122214287Y-95766378D02*
X122452382Y-95766378D01*
X122452382Y-95766378D02*
X122547620Y-95718759D01*
X123023811Y-96052092D02*
X123071430Y-96099712D01*
X123071430Y-96099712D02*
X123023811Y-96147331D01*
X123023811Y-96147331D02*
X122976192Y-96099712D01*
X122976192Y-96099712D02*
X123023811Y-96052092D01*
X123023811Y-96052092D02*
X123023811Y-96147331D01*
X123928572Y-96099712D02*
X123833334Y-96147331D01*
X123833334Y-96147331D02*
X123642858Y-96147331D01*
X123642858Y-96147331D02*
X123547620Y-96099712D01*
X123547620Y-96099712D02*
X123500001Y-96052092D01*
X123500001Y-96052092D02*
X123452382Y-95956854D01*
X123452382Y-95956854D02*
X123452382Y-95671140D01*
X123452382Y-95671140D02*
X123500001Y-95575902D01*
X123500001Y-95575902D02*
X123547620Y-95528283D01*
X123547620Y-95528283D02*
X123642858Y-95480664D01*
X123642858Y-95480664D02*
X123833334Y-95480664D01*
X123833334Y-95480664D02*
X123928572Y-95528283D01*
X124500001Y-96147331D02*
X124404763Y-96099712D01*
X124404763Y-96099712D02*
X124357144Y-96052092D01*
X124357144Y-96052092D02*
X124309525Y-95956854D01*
X124309525Y-95956854D02*
X124309525Y-95671140D01*
X124309525Y-95671140D02*
X124357144Y-95575902D01*
X124357144Y-95575902D02*
X124404763Y-95528283D01*
X124404763Y-95528283D02*
X124500001Y-95480664D01*
X124500001Y-95480664D02*
X124642858Y-95480664D01*
X124642858Y-95480664D02*
X124738096Y-95528283D01*
X124738096Y-95528283D02*
X124785715Y-95575902D01*
X124785715Y-95575902D02*
X124833334Y-95671140D01*
X124833334Y-95671140D02*
X124833334Y-95956854D01*
X124833334Y-95956854D02*
X124785715Y-96052092D01*
X124785715Y-96052092D02*
X124738096Y-96099712D01*
X124738096Y-96099712D02*
X124642858Y-96147331D01*
X124642858Y-96147331D02*
X124500001Y-96147331D01*
X125261906Y-96147331D02*
X125261906Y-95480664D01*
X125261906Y-95575902D02*
X125309525Y-95528283D01*
X125309525Y-95528283D02*
X125404763Y-95480664D01*
X125404763Y-95480664D02*
X125547620Y-95480664D01*
X125547620Y-95480664D02*
X125642858Y-95528283D01*
X125642858Y-95528283D02*
X125690477Y-95623521D01*
X125690477Y-95623521D02*
X125690477Y-96147331D01*
X125690477Y-95623521D02*
X125738096Y-95528283D01*
X125738096Y-95528283D02*
X125833334Y-95480664D01*
X125833334Y-95480664D02*
X125976191Y-95480664D01*
X125976191Y-95480664D02*
X126071430Y-95528283D01*
X126071430Y-95528283D02*
X126119049Y-95623521D01*
X126119049Y-95623521D02*
X126119049Y-96147331D01*
X102761904Y-97757275D02*
X102761904Y-96757275D01*
X103190475Y-97757275D02*
X103190475Y-97233465D01*
X103190475Y-97233465D02*
X103142856Y-97138227D01*
X103142856Y-97138227D02*
X103047618Y-97090608D01*
X103047618Y-97090608D02*
X102904761Y-97090608D01*
X102904761Y-97090608D02*
X102809523Y-97138227D01*
X102809523Y-97138227D02*
X102761904Y-97185846D01*
X103523809Y-97090608D02*
X103904761Y-97090608D01*
X103666666Y-96757275D02*
X103666666Y-97614417D01*
X103666666Y-97614417D02*
X103714285Y-97709656D01*
X103714285Y-97709656D02*
X103809523Y-97757275D01*
X103809523Y-97757275D02*
X103904761Y-97757275D01*
X104095238Y-97090608D02*
X104476190Y-97090608D01*
X104238095Y-96757275D02*
X104238095Y-97614417D01*
X104238095Y-97614417D02*
X104285714Y-97709656D01*
X104285714Y-97709656D02*
X104380952Y-97757275D01*
X104380952Y-97757275D02*
X104476190Y-97757275D01*
X104809524Y-97090608D02*
X104809524Y-98090608D01*
X104809524Y-97138227D02*
X104904762Y-97090608D01*
X104904762Y-97090608D02*
X105095238Y-97090608D01*
X105095238Y-97090608D02*
X105190476Y-97138227D01*
X105190476Y-97138227D02*
X105238095Y-97185846D01*
X105238095Y-97185846D02*
X105285714Y-97281084D01*
X105285714Y-97281084D02*
X105285714Y-97566798D01*
X105285714Y-97566798D02*
X105238095Y-97662036D01*
X105238095Y-97662036D02*
X105190476Y-97709656D01*
X105190476Y-97709656D02*
X105095238Y-97757275D01*
X105095238Y-97757275D02*
X104904762Y-97757275D01*
X104904762Y-97757275D02*
X104809524Y-97709656D01*
X105666667Y-97709656D02*
X105761905Y-97757275D01*
X105761905Y-97757275D02*
X105952381Y-97757275D01*
X105952381Y-97757275D02*
X106047619Y-97709656D01*
X106047619Y-97709656D02*
X106095238Y-97614417D01*
X106095238Y-97614417D02*
X106095238Y-97566798D01*
X106095238Y-97566798D02*
X106047619Y-97471560D01*
X106047619Y-97471560D02*
X105952381Y-97423941D01*
X105952381Y-97423941D02*
X105809524Y-97423941D01*
X105809524Y-97423941D02*
X105714286Y-97376322D01*
X105714286Y-97376322D02*
X105666667Y-97281084D01*
X105666667Y-97281084D02*
X105666667Y-97233465D01*
X105666667Y-97233465D02*
X105714286Y-97138227D01*
X105714286Y-97138227D02*
X105809524Y-97090608D01*
X105809524Y-97090608D02*
X105952381Y-97090608D01*
X105952381Y-97090608D02*
X106047619Y-97138227D01*
X106523810Y-97662036D02*
X106571429Y-97709656D01*
X106571429Y-97709656D02*
X106523810Y-97757275D01*
X106523810Y-97757275D02*
X106476191Y-97709656D01*
X106476191Y-97709656D02*
X106523810Y-97662036D01*
X106523810Y-97662036D02*
X106523810Y-97757275D01*
X106523810Y-97138227D02*
X106571429Y-97185846D01*
X106571429Y-97185846D02*
X106523810Y-97233465D01*
X106523810Y-97233465D02*
X106476191Y-97185846D01*
X106476191Y-97185846D02*
X106523810Y-97138227D01*
X106523810Y-97138227D02*
X106523810Y-97233465D01*
X107714285Y-96709656D02*
X106857143Y-97995370D01*
X108761904Y-96709656D02*
X107904762Y-97995370D01*
X109095238Y-97757275D02*
X109095238Y-96757275D01*
X109095238Y-97138227D02*
X109190476Y-97090608D01*
X109190476Y-97090608D02*
X109380952Y-97090608D01*
X109380952Y-97090608D02*
X109476190Y-97138227D01*
X109476190Y-97138227D02*
X109523809Y-97185846D01*
X109523809Y-97185846D02*
X109571428Y-97281084D01*
X109571428Y-97281084D02*
X109571428Y-97566798D01*
X109571428Y-97566798D02*
X109523809Y-97662036D01*
X109523809Y-97662036D02*
X109476190Y-97709656D01*
X109476190Y-97709656D02*
X109380952Y-97757275D01*
X109380952Y-97757275D02*
X109190476Y-97757275D01*
X109190476Y-97757275D02*
X109095238Y-97709656D01*
X110428571Y-97757275D02*
X110428571Y-97233465D01*
X110428571Y-97233465D02*
X110380952Y-97138227D01*
X110380952Y-97138227D02*
X110285714Y-97090608D01*
X110285714Y-97090608D02*
X110095238Y-97090608D01*
X110095238Y-97090608D02*
X110000000Y-97138227D01*
X110428571Y-97709656D02*
X110333333Y-97757275D01*
X110333333Y-97757275D02*
X110095238Y-97757275D01*
X110095238Y-97757275D02*
X110000000Y-97709656D01*
X110000000Y-97709656D02*
X109952381Y-97614417D01*
X109952381Y-97614417D02*
X109952381Y-97519179D01*
X109952381Y-97519179D02*
X110000000Y-97423941D01*
X110000000Y-97423941D02*
X110095238Y-97376322D01*
X110095238Y-97376322D02*
X110333333Y-97376322D01*
X110333333Y-97376322D02*
X110428571Y-97328703D01*
X110857143Y-97709656D02*
X110952381Y-97757275D01*
X110952381Y-97757275D02*
X111142857Y-97757275D01*
X111142857Y-97757275D02*
X111238095Y-97709656D01*
X111238095Y-97709656D02*
X111285714Y-97614417D01*
X111285714Y-97614417D02*
X111285714Y-97566798D01*
X111285714Y-97566798D02*
X111238095Y-97471560D01*
X111238095Y-97471560D02*
X111142857Y-97423941D01*
X111142857Y-97423941D02*
X111000000Y-97423941D01*
X111000000Y-97423941D02*
X110904762Y-97376322D01*
X110904762Y-97376322D02*
X110857143Y-97281084D01*
X110857143Y-97281084D02*
X110857143Y-97233465D01*
X110857143Y-97233465D02*
X110904762Y-97138227D01*
X110904762Y-97138227D02*
X111000000Y-97090608D01*
X111000000Y-97090608D02*
X111142857Y-97090608D01*
X111142857Y-97090608D02*
X111238095Y-97138227D01*
X111714286Y-97757275D02*
X111714286Y-97090608D01*
X111714286Y-96757275D02*
X111666667Y-96804894D01*
X111666667Y-96804894D02*
X111714286Y-96852513D01*
X111714286Y-96852513D02*
X111761905Y-96804894D01*
X111761905Y-96804894D02*
X111714286Y-96757275D01*
X111714286Y-96757275D02*
X111714286Y-96852513D01*
X112619047Y-97709656D02*
X112523809Y-97757275D01*
X112523809Y-97757275D02*
X112333333Y-97757275D01*
X112333333Y-97757275D02*
X112238095Y-97709656D01*
X112238095Y-97709656D02*
X112190476Y-97662036D01*
X112190476Y-97662036D02*
X112142857Y-97566798D01*
X112142857Y-97566798D02*
X112142857Y-97281084D01*
X112142857Y-97281084D02*
X112190476Y-97185846D01*
X112190476Y-97185846D02*
X112238095Y-97138227D01*
X112238095Y-97138227D02*
X112333333Y-97090608D01*
X112333333Y-97090608D02*
X112523809Y-97090608D01*
X112523809Y-97090608D02*
X112619047Y-97138227D01*
X113476190Y-97757275D02*
X113476190Y-97233465D01*
X113476190Y-97233465D02*
X113428571Y-97138227D01*
X113428571Y-97138227D02*
X113333333Y-97090608D01*
X113333333Y-97090608D02*
X113142857Y-97090608D01*
X113142857Y-97090608D02*
X113047619Y-97138227D01*
X113476190Y-97709656D02*
X113380952Y-97757275D01*
X113380952Y-97757275D02*
X113142857Y-97757275D01*
X113142857Y-97757275D02*
X113047619Y-97709656D01*
X113047619Y-97709656D02*
X113000000Y-97614417D01*
X113000000Y-97614417D02*
X113000000Y-97519179D01*
X113000000Y-97519179D02*
X113047619Y-97423941D01*
X113047619Y-97423941D02*
X113142857Y-97376322D01*
X113142857Y-97376322D02*
X113380952Y-97376322D01*
X113380952Y-97376322D02*
X113476190Y-97328703D01*
X114095238Y-97757275D02*
X114000000Y-97709656D01*
X114000000Y-97709656D02*
X113952381Y-97662036D01*
X113952381Y-97662036D02*
X113904762Y-97566798D01*
X113904762Y-97566798D02*
X113904762Y-97281084D01*
X113904762Y-97281084D02*
X113952381Y-97185846D01*
X113952381Y-97185846D02*
X114000000Y-97138227D01*
X114000000Y-97138227D02*
X114095238Y-97090608D01*
X114095238Y-97090608D02*
X114238095Y-97090608D01*
X114238095Y-97090608D02*
X114333333Y-97138227D01*
X114333333Y-97138227D02*
X114380952Y-97185846D01*
X114380952Y-97185846D02*
X114428571Y-97281084D01*
X114428571Y-97281084D02*
X114428571Y-97566798D01*
X114428571Y-97566798D02*
X114380952Y-97662036D01*
X114380952Y-97662036D02*
X114333333Y-97709656D01*
X114333333Y-97709656D02*
X114238095Y-97757275D01*
X114238095Y-97757275D02*
X114095238Y-97757275D01*
X115285714Y-97757275D02*
X115285714Y-96757275D01*
X115285714Y-97709656D02*
X115190476Y-97757275D01*
X115190476Y-97757275D02*
X115000000Y-97757275D01*
X115000000Y-97757275D02*
X114904762Y-97709656D01*
X114904762Y-97709656D02*
X114857143Y-97662036D01*
X114857143Y-97662036D02*
X114809524Y-97566798D01*
X114809524Y-97566798D02*
X114809524Y-97281084D01*
X114809524Y-97281084D02*
X114857143Y-97185846D01*
X114857143Y-97185846D02*
X114904762Y-97138227D01*
X114904762Y-97138227D02*
X115000000Y-97090608D01*
X115000000Y-97090608D02*
X115190476Y-97090608D01*
X115190476Y-97090608D02*
X115285714Y-97138227D01*
X116190476Y-97757275D02*
X116190476Y-97233465D01*
X116190476Y-97233465D02*
X116142857Y-97138227D01*
X116142857Y-97138227D02*
X116047619Y-97090608D01*
X116047619Y-97090608D02*
X115857143Y-97090608D01*
X115857143Y-97090608D02*
X115761905Y-97138227D01*
X116190476Y-97709656D02*
X116095238Y-97757275D01*
X116095238Y-97757275D02*
X115857143Y-97757275D01*
X115857143Y-97757275D02*
X115761905Y-97709656D01*
X115761905Y-97709656D02*
X115714286Y-97614417D01*
X115714286Y-97614417D02*
X115714286Y-97519179D01*
X115714286Y-97519179D02*
X115761905Y-97423941D01*
X115761905Y-97423941D02*
X115857143Y-97376322D01*
X115857143Y-97376322D02*
X116095238Y-97376322D01*
X116095238Y-97376322D02*
X116190476Y-97328703D01*
X117047619Y-97709656D02*
X116952381Y-97757275D01*
X116952381Y-97757275D02*
X116761905Y-97757275D01*
X116761905Y-97757275D02*
X116666667Y-97709656D01*
X116666667Y-97709656D02*
X116619048Y-97614417D01*
X116619048Y-97614417D02*
X116619048Y-97233465D01*
X116619048Y-97233465D02*
X116666667Y-97138227D01*
X116666667Y-97138227D02*
X116761905Y-97090608D01*
X116761905Y-97090608D02*
X116952381Y-97090608D01*
X116952381Y-97090608D02*
X117047619Y-97138227D01*
X117047619Y-97138227D02*
X117095238Y-97233465D01*
X117095238Y-97233465D02*
X117095238Y-97328703D01*
X117095238Y-97328703D02*
X116619048Y-97423941D01*
X117666667Y-97757275D02*
X117571429Y-97709656D01*
X117571429Y-97709656D02*
X117523810Y-97614417D01*
X117523810Y-97614417D02*
X117523810Y-96757275D01*
X118428572Y-97709656D02*
X118333334Y-97757275D01*
X118333334Y-97757275D02*
X118142858Y-97757275D01*
X118142858Y-97757275D02*
X118047620Y-97709656D01*
X118047620Y-97709656D02*
X118000001Y-97614417D01*
X118000001Y-97614417D02*
X118000001Y-97233465D01*
X118000001Y-97233465D02*
X118047620Y-97138227D01*
X118047620Y-97138227D02*
X118142858Y-97090608D01*
X118142858Y-97090608D02*
X118333334Y-97090608D01*
X118333334Y-97090608D02*
X118428572Y-97138227D01*
X118428572Y-97138227D02*
X118476191Y-97233465D01*
X118476191Y-97233465D02*
X118476191Y-97328703D01*
X118476191Y-97328703D02*
X118000001Y-97423941D01*
X118761906Y-97090608D02*
X119142858Y-97090608D01*
X118904763Y-96757275D02*
X118904763Y-97614417D01*
X118904763Y-97614417D02*
X118952382Y-97709656D01*
X118952382Y-97709656D02*
X119047620Y-97757275D01*
X119047620Y-97757275D02*
X119142858Y-97757275D01*
X119476192Y-97757275D02*
X119476192Y-97090608D01*
X119476192Y-97281084D02*
X119523811Y-97185846D01*
X119523811Y-97185846D02*
X119571430Y-97138227D01*
X119571430Y-97138227D02*
X119666668Y-97090608D01*
X119666668Y-97090608D02*
X119761906Y-97090608D01*
X120238097Y-97757275D02*
X120142859Y-97709656D01*
X120142859Y-97709656D02*
X120095240Y-97662036D01*
X120095240Y-97662036D02*
X120047621Y-97566798D01*
X120047621Y-97566798D02*
X120047621Y-97281084D01*
X120047621Y-97281084D02*
X120095240Y-97185846D01*
X120095240Y-97185846D02*
X120142859Y-97138227D01*
X120142859Y-97138227D02*
X120238097Y-97090608D01*
X120238097Y-97090608D02*
X120380954Y-97090608D01*
X120380954Y-97090608D02*
X120476192Y-97138227D01*
X120476192Y-97138227D02*
X120523811Y-97185846D01*
X120523811Y-97185846D02*
X120571430Y-97281084D01*
X120571430Y-97281084D02*
X120571430Y-97566798D01*
X120571430Y-97566798D02*
X120523811Y-97662036D01*
X120523811Y-97662036D02*
X120476192Y-97709656D01*
X120476192Y-97709656D02*
X120380954Y-97757275D01*
X120380954Y-97757275D02*
X120238097Y-97757275D01*
X121000002Y-97090608D02*
X121000002Y-97757275D01*
X121000002Y-97185846D02*
X121047621Y-97138227D01*
X121047621Y-97138227D02*
X121142859Y-97090608D01*
X121142859Y-97090608D02*
X121285716Y-97090608D01*
X121285716Y-97090608D02*
X121380954Y-97138227D01*
X121380954Y-97138227D02*
X121428573Y-97233465D01*
X121428573Y-97233465D02*
X121428573Y-97757275D01*
X121904764Y-97757275D02*
X121904764Y-97090608D01*
X121904764Y-96757275D02*
X121857145Y-96804894D01*
X121857145Y-96804894D02*
X121904764Y-96852513D01*
X121904764Y-96852513D02*
X121952383Y-96804894D01*
X121952383Y-96804894D02*
X121904764Y-96757275D01*
X121904764Y-96757275D02*
X121904764Y-96852513D01*
X122809525Y-97709656D02*
X122714287Y-97757275D01*
X122714287Y-97757275D02*
X122523811Y-97757275D01*
X122523811Y-97757275D02*
X122428573Y-97709656D01*
X122428573Y-97709656D02*
X122380954Y-97662036D01*
X122380954Y-97662036D02*
X122333335Y-97566798D01*
X122333335Y-97566798D02*
X122333335Y-97281084D01*
X122333335Y-97281084D02*
X122380954Y-97185846D01*
X122380954Y-97185846D02*
X122428573Y-97138227D01*
X122428573Y-97138227D02*
X122523811Y-97090608D01*
X122523811Y-97090608D02*
X122714287Y-97090608D01*
X122714287Y-97090608D02*
X122809525Y-97138227D01*
X123666668Y-97757275D02*
X123666668Y-97233465D01*
X123666668Y-97233465D02*
X123619049Y-97138227D01*
X123619049Y-97138227D02*
X123523811Y-97090608D01*
X123523811Y-97090608D02*
X123333335Y-97090608D01*
X123333335Y-97090608D02*
X123238097Y-97138227D01*
X123666668Y-97709656D02*
X123571430Y-97757275D01*
X123571430Y-97757275D02*
X123333335Y-97757275D01*
X123333335Y-97757275D02*
X123238097Y-97709656D01*
X123238097Y-97709656D02*
X123190478Y-97614417D01*
X123190478Y-97614417D02*
X123190478Y-97519179D01*
X123190478Y-97519179D02*
X123238097Y-97423941D01*
X123238097Y-97423941D02*
X123333335Y-97376322D01*
X123333335Y-97376322D02*
X123571430Y-97376322D01*
X123571430Y-97376322D02*
X123666668Y-97328703D01*
X124142859Y-97662036D02*
X124190478Y-97709656D01*
X124190478Y-97709656D02*
X124142859Y-97757275D01*
X124142859Y-97757275D02*
X124095240Y-97709656D01*
X124095240Y-97709656D02*
X124142859Y-97662036D01*
X124142859Y-97662036D02*
X124142859Y-97757275D01*
X125047620Y-97709656D02*
X124952382Y-97757275D01*
X124952382Y-97757275D02*
X124761906Y-97757275D01*
X124761906Y-97757275D02*
X124666668Y-97709656D01*
X124666668Y-97709656D02*
X124619049Y-97662036D01*
X124619049Y-97662036D02*
X124571430Y-97566798D01*
X124571430Y-97566798D02*
X124571430Y-97281084D01*
X124571430Y-97281084D02*
X124619049Y-97185846D01*
X124619049Y-97185846D02*
X124666668Y-97138227D01*
X124666668Y-97138227D02*
X124761906Y-97090608D01*
X124761906Y-97090608D02*
X124952382Y-97090608D01*
X124952382Y-97090608D02*
X125047620Y-97138227D01*
X125619049Y-97757275D02*
X125523811Y-97709656D01*
X125523811Y-97709656D02*
X125476192Y-97662036D01*
X125476192Y-97662036D02*
X125428573Y-97566798D01*
X125428573Y-97566798D02*
X125428573Y-97281084D01*
X125428573Y-97281084D02*
X125476192Y-97185846D01*
X125476192Y-97185846D02*
X125523811Y-97138227D01*
X125523811Y-97138227D02*
X125619049Y-97090608D01*
X125619049Y-97090608D02*
X125761906Y-97090608D01*
X125761906Y-97090608D02*
X125857144Y-97138227D01*
X125857144Y-97138227D02*
X125904763Y-97185846D01*
X125904763Y-97185846D02*
X125952382Y-97281084D01*
X125952382Y-97281084D02*
X125952382Y-97566798D01*
X125952382Y-97566798D02*
X125904763Y-97662036D01*
X125904763Y-97662036D02*
X125857144Y-97709656D01*
X125857144Y-97709656D02*
X125761906Y-97757275D01*
X125761906Y-97757275D02*
X125619049Y-97757275D01*
X126380954Y-97757275D02*
X126380954Y-97090608D01*
X126380954Y-97185846D02*
X126428573Y-97138227D01*
X126428573Y-97138227D02*
X126523811Y-97090608D01*
X126523811Y-97090608D02*
X126666668Y-97090608D01*
X126666668Y-97090608D02*
X126761906Y-97138227D01*
X126761906Y-97138227D02*
X126809525Y-97233465D01*
X126809525Y-97233465D02*
X126809525Y-97757275D01*
X126809525Y-97233465D02*
X126857144Y-97138227D01*
X126857144Y-97138227D02*
X126952382Y-97090608D01*
X126952382Y-97090608D02*
X127095239Y-97090608D01*
X127095239Y-97090608D02*
X127190478Y-97138227D01*
X127190478Y-97138227D02*
X127238097Y-97233465D01*
X127238097Y-97233465D02*
X127238097Y-97757275D01*
X127714287Y-97662036D02*
X127761906Y-97709656D01*
X127761906Y-97709656D02*
X127714287Y-97757275D01*
X127714287Y-97757275D02*
X127666668Y-97709656D01*
X127666668Y-97709656D02*
X127714287Y-97662036D01*
X127714287Y-97662036D02*
X127714287Y-97757275D01*
X128190477Y-97757275D02*
X128190477Y-96757275D01*
X128190477Y-97138227D02*
X128285715Y-97090608D01*
X128285715Y-97090608D02*
X128476191Y-97090608D01*
X128476191Y-97090608D02*
X128571429Y-97138227D01*
X128571429Y-97138227D02*
X128619048Y-97185846D01*
X128619048Y-97185846D02*
X128666667Y-97281084D01*
X128666667Y-97281084D02*
X128666667Y-97566798D01*
X128666667Y-97566798D02*
X128619048Y-97662036D01*
X128619048Y-97662036D02*
X128571429Y-97709656D01*
X128571429Y-97709656D02*
X128476191Y-97757275D01*
X128476191Y-97757275D02*
X128285715Y-97757275D01*
X128285715Y-97757275D02*
X128190477Y-97709656D01*
X129095239Y-97757275D02*
X129095239Y-97090608D01*
X129095239Y-97281084D02*
X129142858Y-97185846D01*
X129142858Y-97185846D02*
X129190477Y-97138227D01*
X129190477Y-97138227D02*
X129285715Y-97090608D01*
X129285715Y-97090608D02*
X129380953Y-97090608D01*
X105999999Y-99367219D02*
X105999999Y-98367219D01*
X106428570Y-99367219D02*
X106428570Y-98843409D01*
X106428570Y-98843409D02*
X106380951Y-98748171D01*
X106380951Y-98748171D02*
X106285713Y-98700552D01*
X106285713Y-98700552D02*
X106142856Y-98700552D01*
X106142856Y-98700552D02*
X106047618Y-98748171D01*
X106047618Y-98748171D02*
X105999999Y-98795790D01*
X106761904Y-98700552D02*
X107142856Y-98700552D01*
X106904761Y-98367219D02*
X106904761Y-99224361D01*
X106904761Y-99224361D02*
X106952380Y-99319600D01*
X106952380Y-99319600D02*
X107047618Y-99367219D01*
X107047618Y-99367219D02*
X107142856Y-99367219D01*
X107333333Y-98700552D02*
X107714285Y-98700552D01*
X107476190Y-98367219D02*
X107476190Y-99224361D01*
X107476190Y-99224361D02*
X107523809Y-99319600D01*
X107523809Y-99319600D02*
X107619047Y-99367219D01*
X107619047Y-99367219D02*
X107714285Y-99367219D01*
X108047619Y-98700552D02*
X108047619Y-99700552D01*
X108047619Y-98748171D02*
X108142857Y-98700552D01*
X108142857Y-98700552D02*
X108333333Y-98700552D01*
X108333333Y-98700552D02*
X108428571Y-98748171D01*
X108428571Y-98748171D02*
X108476190Y-98795790D01*
X108476190Y-98795790D02*
X108523809Y-98891028D01*
X108523809Y-98891028D02*
X108523809Y-99176742D01*
X108523809Y-99176742D02*
X108476190Y-99271980D01*
X108476190Y-99271980D02*
X108428571Y-99319600D01*
X108428571Y-99319600D02*
X108333333Y-99367219D01*
X108333333Y-99367219D02*
X108142857Y-99367219D01*
X108142857Y-99367219D02*
X108047619Y-99319600D01*
X108904762Y-99319600D02*
X109000000Y-99367219D01*
X109000000Y-99367219D02*
X109190476Y-99367219D01*
X109190476Y-99367219D02*
X109285714Y-99319600D01*
X109285714Y-99319600D02*
X109333333Y-99224361D01*
X109333333Y-99224361D02*
X109333333Y-99176742D01*
X109333333Y-99176742D02*
X109285714Y-99081504D01*
X109285714Y-99081504D02*
X109190476Y-99033885D01*
X109190476Y-99033885D02*
X109047619Y-99033885D01*
X109047619Y-99033885D02*
X108952381Y-98986266D01*
X108952381Y-98986266D02*
X108904762Y-98891028D01*
X108904762Y-98891028D02*
X108904762Y-98843409D01*
X108904762Y-98843409D02*
X108952381Y-98748171D01*
X108952381Y-98748171D02*
X109047619Y-98700552D01*
X109047619Y-98700552D02*
X109190476Y-98700552D01*
X109190476Y-98700552D02*
X109285714Y-98748171D01*
X109761905Y-99271980D02*
X109809524Y-99319600D01*
X109809524Y-99319600D02*
X109761905Y-99367219D01*
X109761905Y-99367219D02*
X109714286Y-99319600D01*
X109714286Y-99319600D02*
X109761905Y-99271980D01*
X109761905Y-99271980D02*
X109761905Y-99367219D01*
X109761905Y-98748171D02*
X109809524Y-98795790D01*
X109809524Y-98795790D02*
X109761905Y-98843409D01*
X109761905Y-98843409D02*
X109714286Y-98795790D01*
X109714286Y-98795790D02*
X109761905Y-98748171D01*
X109761905Y-98748171D02*
X109761905Y-98843409D01*
X110952380Y-98319600D02*
X110095238Y-99605314D01*
X111999999Y-98319600D02*
X111142857Y-99605314D01*
X112761904Y-99319600D02*
X112666666Y-99367219D01*
X112666666Y-99367219D02*
X112476190Y-99367219D01*
X112476190Y-99367219D02*
X112380952Y-99319600D01*
X112380952Y-99319600D02*
X112333333Y-99271980D01*
X112333333Y-99271980D02*
X112285714Y-99176742D01*
X112285714Y-99176742D02*
X112285714Y-98891028D01*
X112285714Y-98891028D02*
X112333333Y-98795790D01*
X112333333Y-98795790D02*
X112380952Y-98748171D01*
X112380952Y-98748171D02*
X112476190Y-98700552D01*
X112476190Y-98700552D02*
X112666666Y-98700552D01*
X112666666Y-98700552D02*
X112761904Y-98748171D01*
X113619047Y-99367219D02*
X113619047Y-98843409D01*
X113619047Y-98843409D02*
X113571428Y-98748171D01*
X113571428Y-98748171D02*
X113476190Y-98700552D01*
X113476190Y-98700552D02*
X113285714Y-98700552D01*
X113285714Y-98700552D02*
X113190476Y-98748171D01*
X113619047Y-99319600D02*
X113523809Y-99367219D01*
X113523809Y-99367219D02*
X113285714Y-99367219D01*
X113285714Y-99367219D02*
X113190476Y-99319600D01*
X113190476Y-99319600D02*
X113142857Y-99224361D01*
X113142857Y-99224361D02*
X113142857Y-99129123D01*
X113142857Y-99129123D02*
X113190476Y-99033885D01*
X113190476Y-99033885D02*
X113285714Y-98986266D01*
X113285714Y-98986266D02*
X113523809Y-98986266D01*
X113523809Y-98986266D02*
X113619047Y-98938647D01*
X114095238Y-99367219D02*
X114095238Y-98700552D01*
X114095238Y-98891028D02*
X114142857Y-98795790D01*
X114142857Y-98795790D02*
X114190476Y-98748171D01*
X114190476Y-98748171D02*
X114285714Y-98700552D01*
X114285714Y-98700552D02*
X114380952Y-98700552D01*
X114857143Y-99367219D02*
X114761905Y-99319600D01*
X114761905Y-99319600D02*
X114714286Y-99224361D01*
X114714286Y-99224361D02*
X114714286Y-98367219D01*
X115380953Y-99367219D02*
X115285715Y-99319600D01*
X115285715Y-99319600D02*
X115238096Y-99271980D01*
X115238096Y-99271980D02*
X115190477Y-99176742D01*
X115190477Y-99176742D02*
X115190477Y-98891028D01*
X115190477Y-98891028D02*
X115238096Y-98795790D01*
X115238096Y-98795790D02*
X115285715Y-98748171D01*
X115285715Y-98748171D02*
X115380953Y-98700552D01*
X115380953Y-98700552D02*
X115523810Y-98700552D01*
X115523810Y-98700552D02*
X115619048Y-98748171D01*
X115619048Y-98748171D02*
X115666667Y-98795790D01*
X115666667Y-98795790D02*
X115714286Y-98891028D01*
X115714286Y-98891028D02*
X115714286Y-99176742D01*
X115714286Y-99176742D02*
X115666667Y-99271980D01*
X115666667Y-99271980D02*
X115619048Y-99319600D01*
X115619048Y-99319600D02*
X115523810Y-99367219D01*
X115523810Y-99367219D02*
X115380953Y-99367219D01*
X116095239Y-99319600D02*
X116190477Y-99367219D01*
X116190477Y-99367219D02*
X116380953Y-99367219D01*
X116380953Y-99367219D02*
X116476191Y-99319600D01*
X116476191Y-99319600D02*
X116523810Y-99224361D01*
X116523810Y-99224361D02*
X116523810Y-99176742D01*
X116523810Y-99176742D02*
X116476191Y-99081504D01*
X116476191Y-99081504D02*
X116380953Y-99033885D01*
X116380953Y-99033885D02*
X116238096Y-99033885D01*
X116238096Y-99033885D02*
X116142858Y-98986266D01*
X116142858Y-98986266D02*
X116095239Y-98891028D01*
X116095239Y-98891028D02*
X116095239Y-98843409D01*
X116095239Y-98843409D02*
X116142858Y-98748171D01*
X116142858Y-98748171D02*
X116238096Y-98700552D01*
X116238096Y-98700552D02*
X116380953Y-98700552D01*
X116380953Y-98700552D02*
X116476191Y-98748171D01*
X117380953Y-99367219D02*
X117380953Y-98367219D01*
X117380953Y-99319600D02*
X117285715Y-99367219D01*
X117285715Y-99367219D02*
X117095239Y-99367219D01*
X117095239Y-99367219D02*
X117000001Y-99319600D01*
X117000001Y-99319600D02*
X116952382Y-99271980D01*
X116952382Y-99271980D02*
X116904763Y-99176742D01*
X116904763Y-99176742D02*
X116904763Y-98891028D01*
X116904763Y-98891028D02*
X116952382Y-98795790D01*
X116952382Y-98795790D02*
X117000001Y-98748171D01*
X117000001Y-98748171D02*
X117095239Y-98700552D01*
X117095239Y-98700552D02*
X117285715Y-98700552D01*
X117285715Y-98700552D02*
X117380953Y-98748171D01*
X118238096Y-99319600D02*
X118142858Y-99367219D01*
X118142858Y-99367219D02*
X117952382Y-99367219D01*
X117952382Y-99367219D02*
X117857144Y-99319600D01*
X117857144Y-99319600D02*
X117809525Y-99224361D01*
X117809525Y-99224361D02*
X117809525Y-98843409D01*
X117809525Y-98843409D02*
X117857144Y-98748171D01*
X117857144Y-98748171D02*
X117952382Y-98700552D01*
X117952382Y-98700552D02*
X118142858Y-98700552D01*
X118142858Y-98700552D02*
X118238096Y-98748171D01*
X118238096Y-98748171D02*
X118285715Y-98843409D01*
X118285715Y-98843409D02*
X118285715Y-98938647D01*
X118285715Y-98938647D02*
X117809525Y-99033885D01*
X118857144Y-99367219D02*
X118761906Y-99319600D01*
X118761906Y-99319600D02*
X118714287Y-99224361D01*
X118714287Y-99224361D02*
X118714287Y-98367219D01*
X119095240Y-98700552D02*
X119476192Y-98700552D01*
X119238097Y-99367219D02*
X119238097Y-98510076D01*
X119238097Y-98510076D02*
X119285716Y-98414838D01*
X119285716Y-98414838D02*
X119380954Y-98367219D01*
X119380954Y-98367219D02*
X119476192Y-98367219D01*
X119809526Y-99367219D02*
X119809526Y-98700552D01*
X119809526Y-98367219D02*
X119761907Y-98414838D01*
X119761907Y-98414838D02*
X119809526Y-98462457D01*
X119809526Y-98462457D02*
X119857145Y-98414838D01*
X119857145Y-98414838D02*
X119809526Y-98367219D01*
X119809526Y-98367219D02*
X119809526Y-98462457D01*
X120285716Y-98700552D02*
X120285716Y-99367219D01*
X120285716Y-98795790D02*
X120333335Y-98748171D01*
X120333335Y-98748171D02*
X120428573Y-98700552D01*
X120428573Y-98700552D02*
X120571430Y-98700552D01*
X120571430Y-98700552D02*
X120666668Y-98748171D01*
X120666668Y-98748171D02*
X120714287Y-98843409D01*
X120714287Y-98843409D02*
X120714287Y-99367219D01*
X121333335Y-99367219D02*
X121238097Y-99319600D01*
X121238097Y-99319600D02*
X121190478Y-99271980D01*
X121190478Y-99271980D02*
X121142859Y-99176742D01*
X121142859Y-99176742D02*
X121142859Y-98891028D01*
X121142859Y-98891028D02*
X121190478Y-98795790D01*
X121190478Y-98795790D02*
X121238097Y-98748171D01*
X121238097Y-98748171D02*
X121333335Y-98700552D01*
X121333335Y-98700552D02*
X121476192Y-98700552D01*
X121476192Y-98700552D02*
X121571430Y-98748171D01*
X121571430Y-98748171D02*
X121619049Y-98795790D01*
X121619049Y-98795790D02*
X121666668Y-98891028D01*
X121666668Y-98891028D02*
X121666668Y-99176742D01*
X121666668Y-99176742D02*
X121619049Y-99271980D01*
X121619049Y-99271980D02*
X121571430Y-99319600D01*
X121571430Y-99319600D02*
X121476192Y-99367219D01*
X121476192Y-99367219D02*
X121333335Y-99367219D01*
X122095240Y-99271980D02*
X122142859Y-99319600D01*
X122142859Y-99319600D02*
X122095240Y-99367219D01*
X122095240Y-99367219D02*
X122047621Y-99319600D01*
X122047621Y-99319600D02*
X122095240Y-99271980D01*
X122095240Y-99271980D02*
X122095240Y-99367219D01*
X122952382Y-99319600D02*
X122857144Y-99367219D01*
X122857144Y-99367219D02*
X122666668Y-99367219D01*
X122666668Y-99367219D02*
X122571430Y-99319600D01*
X122571430Y-99319600D02*
X122523811Y-99224361D01*
X122523811Y-99224361D02*
X122523811Y-98843409D01*
X122523811Y-98843409D02*
X122571430Y-98748171D01*
X122571430Y-98748171D02*
X122666668Y-98700552D01*
X122666668Y-98700552D02*
X122857144Y-98700552D01*
X122857144Y-98700552D02*
X122952382Y-98748171D01*
X122952382Y-98748171D02*
X123000001Y-98843409D01*
X123000001Y-98843409D02*
X123000001Y-98938647D01*
X123000001Y-98938647D02*
X122523811Y-99033885D01*
X123285716Y-98700552D02*
X123666668Y-98700552D01*
X123428573Y-98367219D02*
X123428573Y-99224361D01*
X123428573Y-99224361D02*
X123476192Y-99319600D01*
X123476192Y-99319600D02*
X123571430Y-99367219D01*
X123571430Y-99367219D02*
X123666668Y-99367219D01*
X124000002Y-99367219D02*
X124000002Y-98700552D01*
X124000002Y-98367219D02*
X123952383Y-98414838D01*
X123952383Y-98414838D02*
X124000002Y-98462457D01*
X124000002Y-98462457D02*
X124047621Y-98414838D01*
X124047621Y-98414838D02*
X124000002Y-98367219D01*
X124000002Y-98367219D02*
X124000002Y-98462457D01*
X124476192Y-99271980D02*
X124523811Y-99319600D01*
X124523811Y-99319600D02*
X124476192Y-99367219D01*
X124476192Y-99367219D02*
X124428573Y-99319600D01*
X124428573Y-99319600D02*
X124476192Y-99271980D01*
X124476192Y-99271980D02*
X124476192Y-99367219D01*
X124952382Y-99367219D02*
X124952382Y-98367219D01*
X124952382Y-98748171D02*
X125047620Y-98700552D01*
X125047620Y-98700552D02*
X125238096Y-98700552D01*
X125238096Y-98700552D02*
X125333334Y-98748171D01*
X125333334Y-98748171D02*
X125380953Y-98795790D01*
X125380953Y-98795790D02*
X125428572Y-98891028D01*
X125428572Y-98891028D02*
X125428572Y-99176742D01*
X125428572Y-99176742D02*
X125380953Y-99271980D01*
X125380953Y-99271980D02*
X125333334Y-99319600D01*
X125333334Y-99319600D02*
X125238096Y-99367219D01*
X125238096Y-99367219D02*
X125047620Y-99367219D01*
X125047620Y-99367219D02*
X124952382Y-99319600D01*
X125857144Y-99367219D02*
X125857144Y-98700552D01*
X125857144Y-98891028D02*
X125904763Y-98795790D01*
X125904763Y-98795790D02*
X125952382Y-98748171D01*
X125952382Y-98748171D02*
X126047620Y-98700552D01*
X126047620Y-98700552D02*
X126142858Y-98700552D01*
G36*
X132160266Y-70863430D02*
G01*
X132179718Y-70882882D01*
X132209523Y-70942492D01*
X132209523Y-71038135D01*
X132179718Y-71097743D01*
X132155049Y-71122413D01*
X132095440Y-71152219D01*
X131838095Y-71152219D01*
X131838095Y-70828409D01*
X132055201Y-70828409D01*
X132160266Y-70863430D01*
G37*
G36*
X132107430Y-70382024D02*
G01*
X132132099Y-70406692D01*
X132161904Y-70466302D01*
X132161904Y-70514326D01*
X132132099Y-70573935D01*
X132107430Y-70598603D01*
X132047821Y-70628409D01*
X131838095Y-70628409D01*
X131838095Y-70352219D01*
X132047821Y-70352219D01*
X132107430Y-70382024D01*
G37*
G36*
X132520634Y-71463330D02*
G01*
X127528905Y-71463330D01*
X127528905Y-70851757D01*
X127640016Y-70851757D01*
X127640016Y-70890775D01*
X127654948Y-70926823D01*
X127682538Y-70954413D01*
X127718586Y-70969345D01*
X127738095Y-70971266D01*
X128019047Y-70971266D01*
X128019047Y-71252219D01*
X128020968Y-71271728D01*
X128035900Y-71307776D01*
X128063490Y-71335366D01*
X128099538Y-71350298D01*
X128138556Y-71350298D01*
X128174604Y-71335366D01*
X128202194Y-71307776D01*
X128217126Y-71271728D01*
X128219047Y-71252219D01*
X128219047Y-70971266D01*
X128500000Y-70971266D01*
X128519509Y-70969345D01*
X128555557Y-70954413D01*
X128583147Y-70926823D01*
X128598079Y-70890775D01*
X128598079Y-70851757D01*
X128583147Y-70815709D01*
X128555557Y-70788119D01*
X128519509Y-70773187D01*
X128500000Y-70771266D01*
X128219047Y-70771266D01*
X128219047Y-70738062D01*
X128829038Y-70738062D01*
X128830492Y-70742880D01*
X128830492Y-70747918D01*
X128836088Y-70761427D01*
X128840309Y-70775417D01*
X128843496Y-70779313D01*
X128845424Y-70783966D01*
X128855760Y-70794302D01*
X128865016Y-70805615D01*
X128869453Y-70807995D01*
X128873014Y-70811556D01*
X128886519Y-70817150D01*
X128899400Y-70824060D01*
X128904409Y-70824560D01*
X128909062Y-70826488D01*
X128923683Y-70826488D01*
X128938224Y-70827942D01*
X128943043Y-70826488D01*
X128948080Y-70826488D01*
X128961589Y-70820891D01*
X128975579Y-70816671D01*
X128979475Y-70813483D01*
X128984128Y-70811556D01*
X128999282Y-70799120D01*
X129035425Y-70762975D01*
X129095035Y-70733171D01*
X129285916Y-70733171D01*
X129345525Y-70762976D01*
X129370194Y-70787644D01*
X129399999Y-70847254D01*
X129399999Y-71038135D01*
X129370194Y-71097743D01*
X129345525Y-71122413D01*
X129285916Y-71152219D01*
X129095035Y-71152219D01*
X129035425Y-71122414D01*
X128999282Y-71086270D01*
X128984129Y-71073833D01*
X128948081Y-71058902D01*
X128909063Y-71058901D01*
X128873014Y-71073832D01*
X128845424Y-71101422D01*
X128830493Y-71137470D01*
X128830492Y-71176488D01*
X128845423Y-71212537D01*
X128857860Y-71227690D01*
X128905478Y-71275310D01*
X128913146Y-71281603D01*
X128914878Y-71283600D01*
X128917886Y-71285493D01*
X128920632Y-71287747D01*
X128923072Y-71288757D01*
X128931469Y-71294043D01*
X129026706Y-71341662D01*
X129045015Y-71348668D01*
X129048598Y-71348922D01*
X129051919Y-71350298D01*
X129071428Y-71352219D01*
X129309523Y-71352219D01*
X129329032Y-71350298D01*
X129332352Y-71348922D01*
X129335936Y-71348668D01*
X129354244Y-71341662D01*
X129449482Y-71294043D01*
X129457877Y-71288758D01*
X129460319Y-71287747D01*
X129463066Y-71285491D01*
X129466072Y-71283600D01*
X129467802Y-71281605D01*
X129475472Y-71275310D01*
X129523091Y-71227690D01*
X129529383Y-71220023D01*
X129531380Y-71218292D01*
X129533273Y-71215284D01*
X129535528Y-71212537D01*
X129536539Y-71210095D01*
X129541823Y-71201701D01*
X129589442Y-71106464D01*
X129596448Y-71088155D01*
X129596702Y-71084571D01*
X129598078Y-71081251D01*
X129599999Y-71061742D01*
X129599999Y-70823647D01*
X129598078Y-70804138D01*
X129596702Y-70800817D01*
X129596448Y-70797234D01*
X129589442Y-70778925D01*
X129541823Y-70683688D01*
X129536537Y-70675291D01*
X129535527Y-70672851D01*
X129533273Y-70670105D01*
X129531380Y-70667097D01*
X129529382Y-70665364D01*
X129523090Y-70657698D01*
X129475472Y-70610079D01*
X129467801Y-70603784D01*
X129466072Y-70601790D01*
X129463064Y-70599896D01*
X129460318Y-70597643D01*
X129457878Y-70596632D01*
X129449482Y-70591347D01*
X129354244Y-70543728D01*
X129335936Y-70536722D01*
X129332352Y-70536467D01*
X129329032Y-70535092D01*
X129309523Y-70533171D01*
X129071428Y-70533171D01*
X129051919Y-70535092D01*
X129048598Y-70536467D01*
X129048261Y-70536491D01*
X129066689Y-70352219D01*
X129452380Y-70352219D01*
X129471889Y-70350298D01*
X129507937Y-70335366D01*
X129535527Y-70307776D01*
X129550459Y-70271728D01*
X129550459Y-70264726D01*
X129686499Y-70264726D01*
X129690846Y-70283842D01*
X130024179Y-71283841D01*
X130032170Y-71301742D01*
X130036853Y-71307141D01*
X130040048Y-71313531D01*
X130049519Y-71321746D01*
X130057735Y-71331218D01*
X130064123Y-71334412D01*
X130069524Y-71339096D01*
X130081425Y-71343063D01*
X130092634Y-71348667D01*
X130099758Y-71349173D01*
X130106540Y-71351434D01*
X130119049Y-71350544D01*
X130131554Y-71351434D01*
X130138332Y-71349174D01*
X130145460Y-71348668D01*
X130156676Y-71343059D01*
X130168570Y-71339095D01*
X130173967Y-71334414D01*
X130180359Y-71331218D01*
X130188577Y-71321742D01*
X130198046Y-71313530D01*
X130201239Y-71307143D01*
X130205924Y-71301742D01*
X130213915Y-71283842D01*
X130494297Y-70442695D01*
X130638095Y-70442695D01*
X130638095Y-70537933D01*
X130640016Y-70557442D01*
X130641391Y-70560762D01*
X130641646Y-70564346D01*
X130648652Y-70582654D01*
X130696271Y-70677892D01*
X130701556Y-70686288D01*
X130702567Y-70688728D01*
X130704820Y-70691474D01*
X130706714Y-70694482D01*
X130708708Y-70696211D01*
X130715003Y-70703882D01*
X130762622Y-70751500D01*
X130770288Y-70757792D01*
X130772021Y-70759790D01*
X130775029Y-70761683D01*
X130777775Y-70763937D01*
X130780215Y-70764947D01*
X130788612Y-70770233D01*
X130883849Y-70817852D01*
X130885277Y-70818398D01*
X130885857Y-70818828D01*
X130894033Y-70821749D01*
X130902158Y-70824858D01*
X130902878Y-70824909D01*
X130904317Y-70825423D01*
X131084142Y-70870379D01*
X131155049Y-70905833D01*
X131179718Y-70930501D01*
X131209523Y-70990111D01*
X131209523Y-71038135D01*
X131179718Y-71097743D01*
X131155049Y-71122413D01*
X131095440Y-71152219D01*
X130897178Y-71152219D01*
X130769718Y-71109732D01*
X130750602Y-71105385D01*
X130711682Y-71108151D01*
X130676783Y-71125601D01*
X130651218Y-71155077D01*
X130638880Y-71192093D01*
X130641646Y-71231013D01*
X130659096Y-71265912D01*
X130688572Y-71291477D01*
X130706472Y-71299468D01*
X130849329Y-71347087D01*
X130859001Y-71349286D01*
X130861443Y-71350298D01*
X130864980Y-71350646D01*
X130868444Y-71351434D01*
X130871078Y-71351246D01*
X130880952Y-71352219D01*
X131119047Y-71352219D01*
X131138556Y-71350298D01*
X131141876Y-71348922D01*
X131145460Y-71348668D01*
X131163768Y-71341662D01*
X131259006Y-71294043D01*
X131267401Y-71288758D01*
X131269843Y-71287747D01*
X131272590Y-71285491D01*
X131275596Y-71283600D01*
X131277326Y-71281605D01*
X131284996Y-71275310D01*
X131332615Y-71227690D01*
X131338907Y-71220023D01*
X131340904Y-71218292D01*
X131342797Y-71215284D01*
X131345052Y-71212537D01*
X131346063Y-71210095D01*
X131351347Y-71201701D01*
X131398966Y-71106464D01*
X131405972Y-71088155D01*
X131406226Y-71084571D01*
X131407602Y-71081251D01*
X131409523Y-71061742D01*
X131409523Y-70966504D01*
X131407602Y-70946995D01*
X131406226Y-70943674D01*
X131405972Y-70940091D01*
X131398966Y-70921782D01*
X131351347Y-70826545D01*
X131346061Y-70818148D01*
X131345051Y-70815708D01*
X131342797Y-70812962D01*
X131340904Y-70809954D01*
X131338906Y-70808221D01*
X131332614Y-70800555D01*
X131284996Y-70752936D01*
X131277325Y-70746641D01*
X131275596Y-70744647D01*
X131272588Y-70742753D01*
X131269842Y-70740500D01*
X131267402Y-70739489D01*
X131259006Y-70734204D01*
X131163768Y-70686585D01*
X131162341Y-70686039D01*
X131161761Y-70685609D01*
X131153584Y-70682687D01*
X131145460Y-70679579D01*
X131144737Y-70679527D01*
X131143300Y-70679014D01*
X130963475Y-70634057D01*
X130892568Y-70598604D01*
X130867900Y-70573935D01*
X130838095Y-70514325D01*
X130838095Y-70466302D01*
X130867900Y-70406692D01*
X130892568Y-70382023D01*
X130952178Y-70352219D01*
X131150439Y-70352219D01*
X131277900Y-70394706D01*
X131297015Y-70399053D01*
X131335935Y-70396287D01*
X131370834Y-70378837D01*
X131396399Y-70349361D01*
X131408738Y-70312345D01*
X131405971Y-70273425D01*
X131395368Y-70252219D01*
X131638095Y-70252219D01*
X131638095Y-71252219D01*
X131640016Y-71271728D01*
X131654948Y-71307776D01*
X131682538Y-71335366D01*
X131718586Y-71350298D01*
X131738095Y-71352219D01*
X132119047Y-71352219D01*
X132138556Y-71350298D01*
X132141876Y-71348922D01*
X132145460Y-71348668D01*
X132163768Y-71341662D01*
X132259006Y-71294043D01*
X132267401Y-71288758D01*
X132269843Y-71287747D01*
X132272590Y-71285491D01*
X132275596Y-71283600D01*
X132277326Y-71281605D01*
X132284996Y-71275310D01*
X132332615Y-71227690D01*
X132338907Y-71220023D01*
X132340904Y-71218292D01*
X132342797Y-71215284D01*
X132345052Y-71212537D01*
X132346063Y-71210095D01*
X132351347Y-71201701D01*
X132398966Y-71106464D01*
X132405972Y-71088155D01*
X132406226Y-71084571D01*
X132407602Y-71081251D01*
X132409523Y-71061742D01*
X132409523Y-70918885D01*
X132407602Y-70899376D01*
X132406226Y-70896055D01*
X132405972Y-70892472D01*
X132398966Y-70874163D01*
X132351347Y-70778926D01*
X132346061Y-70770529D01*
X132345051Y-70768089D01*
X132342797Y-70765343D01*
X132340904Y-70762335D01*
X132338906Y-70760602D01*
X132332614Y-70752936D01*
X132284996Y-70705317D01*
X132284207Y-70704669D01*
X132284995Y-70703882D01*
X132291287Y-70696215D01*
X132293285Y-70694483D01*
X132295178Y-70691474D01*
X132297432Y-70688729D01*
X132298442Y-70686288D01*
X132303728Y-70677892D01*
X132351347Y-70582655D01*
X132358353Y-70564346D01*
X132358607Y-70560762D01*
X132359983Y-70557442D01*
X132361904Y-70537933D01*
X132361904Y-70442695D01*
X132359983Y-70423186D01*
X132358607Y-70419865D01*
X132358353Y-70416282D01*
X132351347Y-70397973D01*
X132303728Y-70302736D01*
X132298442Y-70294339D01*
X132297432Y-70291899D01*
X132295178Y-70289153D01*
X132293285Y-70286145D01*
X132291287Y-70284412D01*
X132284995Y-70276746D01*
X132237377Y-70229127D01*
X132229706Y-70222832D01*
X132227977Y-70220838D01*
X132224969Y-70218944D01*
X132222223Y-70216691D01*
X132219783Y-70215680D01*
X132211387Y-70210395D01*
X132116149Y-70162776D01*
X132097841Y-70155770D01*
X132094257Y-70155515D01*
X132090937Y-70154140D01*
X132071428Y-70152219D01*
X131738095Y-70152219D01*
X131718586Y-70154140D01*
X131682538Y-70169072D01*
X131654948Y-70196662D01*
X131640016Y-70232710D01*
X131638095Y-70252219D01*
X131395368Y-70252219D01*
X131388522Y-70238526D01*
X131359046Y-70212961D01*
X131341145Y-70204970D01*
X131198289Y-70157351D01*
X131188617Y-70155151D01*
X131186175Y-70154140D01*
X131182636Y-70153791D01*
X131179173Y-70153004D01*
X131176539Y-70153191D01*
X131166666Y-70152219D01*
X130928571Y-70152219D01*
X130909062Y-70154140D01*
X130905741Y-70155515D01*
X130902158Y-70155770D01*
X130883849Y-70162776D01*
X130788612Y-70210395D01*
X130780215Y-70215680D01*
X130777775Y-70216691D01*
X130775029Y-70218944D01*
X130772021Y-70220838D01*
X130770288Y-70222835D01*
X130762622Y-70229128D01*
X130715003Y-70276746D01*
X130708708Y-70284416D01*
X130706714Y-70286146D01*
X130704820Y-70289153D01*
X130702567Y-70291900D01*
X130701556Y-70294339D01*
X130696271Y-70302736D01*
X130648652Y-70397974D01*
X130641646Y-70416282D01*
X130641391Y-70419865D01*
X130640016Y-70423186D01*
X130638095Y-70442695D01*
X130494297Y-70442695D01*
X130547248Y-70283842D01*
X130551595Y-70264727D01*
X130548829Y-70225807D01*
X130531379Y-70190908D01*
X130501903Y-70165343D01*
X130464887Y-70153004D01*
X130425967Y-70155771D01*
X130391068Y-70173220D01*
X130365503Y-70202696D01*
X130357512Y-70220597D01*
X130119047Y-70935991D01*
X129880582Y-70220596D01*
X129872591Y-70202696D01*
X129847026Y-70173220D01*
X129812127Y-70155770D01*
X129773207Y-70153004D01*
X129736191Y-70165342D01*
X129706715Y-70190907D01*
X129689265Y-70225806D01*
X129686499Y-70264726D01*
X129550459Y-70264726D01*
X129550459Y-70232710D01*
X129535527Y-70196662D01*
X129507937Y-70169072D01*
X129471889Y-70154140D01*
X129452380Y-70152219D01*
X128976190Y-70152219D01*
X128968973Y-70152929D01*
X128966537Y-70152686D01*
X128964158Y-70153403D01*
X128956681Y-70154140D01*
X128943171Y-70159736D01*
X128929182Y-70163957D01*
X128925285Y-70167144D01*
X128920633Y-70169072D01*
X128910296Y-70179408D01*
X128898984Y-70188664D01*
X128896603Y-70193101D01*
X128893043Y-70196662D01*
X128887448Y-70210167D01*
X128880539Y-70223048D01*
X128879062Y-70230412D01*
X128878111Y-70232710D01*
X128878111Y-70235160D01*
X128876686Y-70242269D01*
X128829067Y-70718459D01*
X128829038Y-70738062D01*
X128219047Y-70738062D01*
X128219047Y-70490314D01*
X128217126Y-70470805D01*
X128202194Y-70434757D01*
X128174604Y-70407167D01*
X128138556Y-70392235D01*
X128099538Y-70392235D01*
X128063490Y-70407167D01*
X128035900Y-70434757D01*
X128020968Y-70470805D01*
X128019047Y-70490314D01*
X128019047Y-70771266D01*
X127738095Y-70771266D01*
X127718586Y-70773187D01*
X127682538Y-70788119D01*
X127654948Y-70815709D01*
X127640016Y-70851757D01*
X127528905Y-70851757D01*
X127528905Y-70041108D01*
X132520634Y-70041108D01*
X132520634Y-71463330D01*
G37*
G36*
X132115087Y-92463330D02*
G01*
X128028905Y-92463330D01*
X128028905Y-91851757D01*
X128140016Y-91851757D01*
X128140016Y-91890775D01*
X128154948Y-91926823D01*
X128182538Y-91954413D01*
X128218586Y-91969345D01*
X128238095Y-91971266D01*
X129000000Y-91971266D01*
X129019509Y-91969345D01*
X129055557Y-91954413D01*
X129083147Y-91926823D01*
X129098079Y-91890775D01*
X129098079Y-91851757D01*
X129083147Y-91815709D01*
X129055557Y-91788119D01*
X129019509Y-91773187D01*
X129000000Y-91771266D01*
X128238095Y-91771266D01*
X128218586Y-91773187D01*
X128182538Y-91788119D01*
X128154948Y-91815709D01*
X128140016Y-91851757D01*
X128028905Y-91851757D01*
X128028905Y-91525426D01*
X129329356Y-91525426D01*
X129332122Y-91564346D01*
X129349571Y-91599245D01*
X129379048Y-91624809D01*
X129416064Y-91637148D01*
X129454984Y-91634382D01*
X129473292Y-91627376D01*
X129568530Y-91579757D01*
X129576926Y-91574471D01*
X129579366Y-91573461D01*
X129582112Y-91571207D01*
X129585120Y-91569314D01*
X129586849Y-91567319D01*
X129594520Y-91561025D01*
X129614285Y-91541260D01*
X129614285Y-92152219D01*
X129428571Y-92152219D01*
X129409062Y-92154140D01*
X129373014Y-92169072D01*
X129345424Y-92196662D01*
X129330492Y-92232710D01*
X129330492Y-92271728D01*
X129345424Y-92307776D01*
X129373014Y-92335366D01*
X129409062Y-92350298D01*
X129428571Y-92352219D01*
X129999999Y-92352219D01*
X130019508Y-92350298D01*
X130055556Y-92335366D01*
X130083146Y-92307776D01*
X130098078Y-92271728D01*
X130098078Y-92232710D01*
X130235254Y-92232710D01*
X130235254Y-92271728D01*
X130250186Y-92307776D01*
X130277776Y-92335366D01*
X130313824Y-92350298D01*
X130333333Y-92352219D01*
X130952380Y-92352219D01*
X130971889Y-92350298D01*
X131007937Y-92335366D01*
X131035527Y-92307776D01*
X131050459Y-92271728D01*
X131050459Y-92232710D01*
X131035527Y-92196662D01*
X131007937Y-92169072D01*
X130971889Y-92154140D01*
X130952380Y-92152219D01*
X130574755Y-92152219D01*
X130975472Y-91751501D01*
X130987908Y-91736347D01*
X130989282Y-91733028D01*
X130991638Y-91730313D01*
X130999629Y-91712413D01*
X131047248Y-91569556D01*
X131049447Y-91559883D01*
X131050459Y-91557442D01*
X131050807Y-91553904D01*
X131051595Y-91550441D01*
X131051407Y-91547806D01*
X131052380Y-91537933D01*
X131052380Y-91442695D01*
X131050459Y-91423186D01*
X131049083Y-91419865D01*
X131048829Y-91416282D01*
X131041823Y-91397973D01*
X130994204Y-91302736D01*
X130988918Y-91294339D01*
X130987908Y-91291899D01*
X130985654Y-91289153D01*
X130983761Y-91286145D01*
X130981763Y-91284412D01*
X130975471Y-91276746D01*
X130963451Y-91264726D01*
X131138880Y-91264726D01*
X131143227Y-91283842D01*
X131476560Y-92283841D01*
X131484551Y-92301742D01*
X131489234Y-92307141D01*
X131492429Y-92313531D01*
X131501900Y-92321746D01*
X131510116Y-92331218D01*
X131516504Y-92334412D01*
X131521905Y-92339096D01*
X131533806Y-92343063D01*
X131545015Y-92348667D01*
X131552139Y-92349173D01*
X131558921Y-92351434D01*
X131571430Y-92350544D01*
X131583935Y-92351434D01*
X131590713Y-92349174D01*
X131597841Y-92348668D01*
X131609057Y-92343059D01*
X131620951Y-92339095D01*
X131626348Y-92334414D01*
X131632740Y-92331218D01*
X131640958Y-92321742D01*
X131650427Y-92313530D01*
X131653620Y-92307143D01*
X131658305Y-92301742D01*
X131666296Y-92283842D01*
X131999629Y-91283842D01*
X132003976Y-91264727D01*
X132001210Y-91225807D01*
X131983760Y-91190908D01*
X131954284Y-91165343D01*
X131917268Y-91153004D01*
X131878348Y-91155771D01*
X131843449Y-91173220D01*
X131817884Y-91202696D01*
X131809893Y-91220597D01*
X131571428Y-91935991D01*
X131332963Y-91220596D01*
X131324972Y-91202696D01*
X131299407Y-91173220D01*
X131264508Y-91155770D01*
X131225588Y-91153004D01*
X131188572Y-91165342D01*
X131159096Y-91190907D01*
X131141646Y-91225806D01*
X131138880Y-91264726D01*
X130963451Y-91264726D01*
X130927853Y-91229127D01*
X130920182Y-91222832D01*
X130918453Y-91220838D01*
X130915445Y-91218944D01*
X130912699Y-91216691D01*
X130910259Y-91215680D01*
X130901863Y-91210395D01*
X130806625Y-91162776D01*
X130788317Y-91155770D01*
X130784733Y-91155515D01*
X130781413Y-91154140D01*
X130761904Y-91152219D01*
X130523809Y-91152219D01*
X130504300Y-91154140D01*
X130500979Y-91155515D01*
X130497396Y-91155770D01*
X130479087Y-91162776D01*
X130383850Y-91210395D01*
X130375453Y-91215680D01*
X130373013Y-91216691D01*
X130370267Y-91218944D01*
X130367259Y-91220838D01*
X130365526Y-91222835D01*
X130357860Y-91229128D01*
X130310241Y-91276746D01*
X130297805Y-91291900D01*
X130282873Y-91327948D01*
X130282873Y-91366966D01*
X130297805Y-91403014D01*
X130325395Y-91430604D01*
X130361443Y-91445536D01*
X130400461Y-91445536D01*
X130436509Y-91430604D01*
X130451663Y-91418168D01*
X130487806Y-91382023D01*
X130547416Y-91352219D01*
X130738297Y-91352219D01*
X130797906Y-91382024D01*
X130822575Y-91406692D01*
X130852380Y-91466302D01*
X130852380Y-91521706D01*
X130817358Y-91626770D01*
X130262622Y-92181508D01*
X130250186Y-92196662D01*
X130235254Y-92232710D01*
X130098078Y-92232710D01*
X130083146Y-92196662D01*
X130055556Y-92169072D01*
X130019508Y-92154140D01*
X129999999Y-92152219D01*
X129814285Y-92152219D01*
X129814285Y-91252219D01*
X129814278Y-91252148D01*
X129814285Y-91252114D01*
X129814264Y-91252012D01*
X129812364Y-91232710D01*
X129808574Y-91223561D01*
X129806633Y-91213854D01*
X129801181Y-91205713D01*
X129797432Y-91196662D01*
X129790432Y-91189662D01*
X129784922Y-91181434D01*
X129776767Y-91175997D01*
X129769842Y-91169072D01*
X129760698Y-91165284D01*
X129752457Y-91159790D01*
X129742843Y-91157888D01*
X129733794Y-91154140D01*
X129723893Y-91154140D01*
X129714181Y-91152219D01*
X129704576Y-91154140D01*
X129694776Y-91154140D01*
X129685627Y-91157929D01*
X129675920Y-91159871D01*
X129667779Y-91165322D01*
X129658728Y-91169072D01*
X129651728Y-91176071D01*
X129643500Y-91181582D01*
X129631211Y-91196588D01*
X129631138Y-91196662D01*
X129631124Y-91196694D01*
X129631080Y-91196749D01*
X129541336Y-91331365D01*
X129464572Y-91408128D01*
X129383850Y-91448490D01*
X129367259Y-91458933D01*
X129341695Y-91488410D01*
X129329356Y-91525426D01*
X128028905Y-91525426D01*
X128028905Y-91041108D01*
X132115087Y-91041108D01*
X132115087Y-92463330D01*
G37*
G36*
X132020634Y-84063330D02*
G01*
X128028905Y-84063330D01*
X128028905Y-83451757D01*
X128140016Y-83451757D01*
X128140016Y-83490775D01*
X128154948Y-83526823D01*
X128182538Y-83554413D01*
X128218586Y-83569345D01*
X128238095Y-83571266D01*
X128519047Y-83571266D01*
X128519047Y-83852219D01*
X128520968Y-83871728D01*
X128535900Y-83907776D01*
X128563490Y-83935366D01*
X128599538Y-83950298D01*
X128638556Y-83950298D01*
X128674604Y-83935366D01*
X128702194Y-83907776D01*
X128717126Y-83871728D01*
X128719047Y-83852219D01*
X128719047Y-83571266D01*
X129000000Y-83571266D01*
X129019509Y-83569345D01*
X129055557Y-83554413D01*
X129083147Y-83526823D01*
X129098079Y-83490775D01*
X129098079Y-83451757D01*
X129083147Y-83415709D01*
X129055557Y-83388119D01*
X129019509Y-83373187D01*
X129000000Y-83371266D01*
X128719047Y-83371266D01*
X128719047Y-83090314D01*
X128717126Y-83070805D01*
X128702194Y-83034757D01*
X128674604Y-83007167D01*
X128638556Y-82992235D01*
X128599538Y-82992235D01*
X128563490Y-83007167D01*
X128535900Y-83034757D01*
X128520968Y-83070805D01*
X128519047Y-83090314D01*
X128519047Y-83371266D01*
X128238095Y-83371266D01*
X128218586Y-83373187D01*
X128182538Y-83388119D01*
X128154948Y-83415709D01*
X128140016Y-83451757D01*
X128028905Y-83451757D01*
X128028905Y-82832710D01*
X129282873Y-82832710D01*
X129282873Y-82871728D01*
X129297805Y-82907776D01*
X129325395Y-82935366D01*
X129361443Y-82950298D01*
X129380952Y-82952219D01*
X129779622Y-82952219D01*
X129591408Y-83167321D01*
X129585378Y-83175754D01*
X129583519Y-83177614D01*
X129582788Y-83179377D01*
X129580007Y-83183268D01*
X129574802Y-83198656D01*
X129568587Y-83213662D01*
X129568587Y-83217035D01*
X129567507Y-83220229D01*
X129568587Y-83236431D01*
X129568587Y-83252680D01*
X129569877Y-83255795D01*
X129570102Y-83259161D01*
X129577302Y-83273721D01*
X129583519Y-83288728D01*
X129585903Y-83291112D01*
X129587399Y-83294136D01*
X129599624Y-83304833D01*
X129611109Y-83316318D01*
X129614223Y-83317608D01*
X129616763Y-83319830D01*
X129632151Y-83325034D01*
X129647157Y-83331250D01*
X129651916Y-83331718D01*
X129653724Y-83332330D01*
X129656348Y-83332155D01*
X129666666Y-83333171D01*
X129785916Y-83333171D01*
X129845525Y-83362976D01*
X129870194Y-83387644D01*
X129899999Y-83447254D01*
X129899999Y-83638135D01*
X129870194Y-83697743D01*
X129845525Y-83722413D01*
X129785916Y-83752219D01*
X129547416Y-83752219D01*
X129487806Y-83722414D01*
X129451663Y-83686270D01*
X129436510Y-83673833D01*
X129400462Y-83658902D01*
X129361444Y-83658901D01*
X129325395Y-83673832D01*
X129297805Y-83701422D01*
X129282874Y-83737470D01*
X129282873Y-83776488D01*
X129297804Y-83812537D01*
X129310241Y-83827690D01*
X129357859Y-83875310D01*
X129365527Y-83881603D01*
X129367259Y-83883600D01*
X129370267Y-83885493D01*
X129373013Y-83887747D01*
X129375453Y-83888757D01*
X129383850Y-83894043D01*
X129479087Y-83941662D01*
X129497396Y-83948668D01*
X129500979Y-83948922D01*
X129504300Y-83950298D01*
X129523809Y-83952219D01*
X129809523Y-83952219D01*
X129829032Y-83950298D01*
X129832352Y-83948922D01*
X129835936Y-83948668D01*
X129854244Y-83941662D01*
X129949482Y-83894043D01*
X129957877Y-83888758D01*
X129960319Y-83887747D01*
X129963066Y-83885491D01*
X129966072Y-83883600D01*
X129967802Y-83881605D01*
X129975472Y-83875310D01*
X130023091Y-83827690D01*
X130029383Y-83820023D01*
X130031380Y-83818292D01*
X130033273Y-83815284D01*
X130035528Y-83812537D01*
X130036539Y-83810095D01*
X130041823Y-83801701D01*
X130089442Y-83706464D01*
X130096448Y-83688155D01*
X130096702Y-83684571D01*
X130098078Y-83681251D01*
X130099999Y-83661742D01*
X130099999Y-83423647D01*
X130098078Y-83404138D01*
X130096702Y-83400817D01*
X130096448Y-83397234D01*
X130089442Y-83378925D01*
X130041823Y-83283688D01*
X130036537Y-83275291D01*
X130035527Y-83272851D01*
X130033273Y-83270105D01*
X130031380Y-83267097D01*
X130029382Y-83265364D01*
X130023090Y-83257698D01*
X129975472Y-83210079D01*
X129967801Y-83203784D01*
X129966072Y-83201790D01*
X129963064Y-83199896D01*
X129960318Y-83197643D01*
X129957878Y-83196632D01*
X129949482Y-83191347D01*
X129870634Y-83151923D01*
X130075257Y-82918069D01*
X130081286Y-82909635D01*
X130083146Y-82907776D01*
X130083876Y-82906012D01*
X130086658Y-82902122D01*
X130091862Y-82886733D01*
X130098078Y-82871728D01*
X130098078Y-82868354D01*
X130099158Y-82865161D01*
X130099129Y-82864726D01*
X130186499Y-82864726D01*
X130190846Y-82883842D01*
X130524179Y-83883841D01*
X130532170Y-83901742D01*
X130536853Y-83907141D01*
X130540048Y-83913531D01*
X130549519Y-83921746D01*
X130557735Y-83931218D01*
X130564123Y-83934412D01*
X130569524Y-83939096D01*
X130581425Y-83943063D01*
X130592634Y-83948667D01*
X130599758Y-83949173D01*
X130606540Y-83951434D01*
X130619049Y-83950544D01*
X130631554Y-83951434D01*
X130638332Y-83949174D01*
X130645460Y-83948668D01*
X130656676Y-83943059D01*
X130668570Y-83939095D01*
X130673967Y-83934414D01*
X130680359Y-83931218D01*
X130688577Y-83921742D01*
X130698046Y-83913530D01*
X130701239Y-83907143D01*
X130705924Y-83901742D01*
X130713915Y-83883842D01*
X131047248Y-82883842D01*
X131051595Y-82864727D01*
X131049320Y-82832710D01*
X131092397Y-82832710D01*
X131092397Y-82871728D01*
X131107329Y-82907776D01*
X131134919Y-82935366D01*
X131170967Y-82950298D01*
X131190476Y-82952219D01*
X131589146Y-82952219D01*
X131400932Y-83167321D01*
X131394902Y-83175754D01*
X131393043Y-83177614D01*
X131392312Y-83179377D01*
X131389531Y-83183268D01*
X131384326Y-83198656D01*
X131378111Y-83213662D01*
X131378111Y-83217035D01*
X131377031Y-83220229D01*
X131378111Y-83236431D01*
X131378111Y-83252680D01*
X131379401Y-83255795D01*
X131379626Y-83259161D01*
X131386826Y-83273721D01*
X131393043Y-83288728D01*
X131395427Y-83291112D01*
X131396923Y-83294136D01*
X131409148Y-83304833D01*
X131420633Y-83316318D01*
X131423747Y-83317608D01*
X131426287Y-83319830D01*
X131441675Y-83325034D01*
X131456681Y-83331250D01*
X131461440Y-83331718D01*
X131463248Y-83332330D01*
X131465872Y-83332155D01*
X131476190Y-83333171D01*
X131595440Y-83333171D01*
X131655049Y-83362976D01*
X131679718Y-83387644D01*
X131709523Y-83447254D01*
X131709523Y-83638135D01*
X131679718Y-83697743D01*
X131655049Y-83722413D01*
X131595440Y-83752219D01*
X131356940Y-83752219D01*
X131297330Y-83722414D01*
X131261187Y-83686270D01*
X131246034Y-83673833D01*
X131209986Y-83658902D01*
X131170968Y-83658901D01*
X131134919Y-83673832D01*
X131107329Y-83701422D01*
X131092398Y-83737470D01*
X131092397Y-83776488D01*
X131107328Y-83812537D01*
X131119765Y-83827690D01*
X131167383Y-83875310D01*
X131175051Y-83881603D01*
X131176783Y-83883600D01*
X131179791Y-83885493D01*
X131182537Y-83887747D01*
X131184977Y-83888757D01*
X131193374Y-83894043D01*
X131288611Y-83941662D01*
X131306920Y-83948668D01*
X131310503Y-83948922D01*
X131313824Y-83950298D01*
X131333333Y-83952219D01*
X131619047Y-83952219D01*
X131638556Y-83950298D01*
X131641876Y-83948922D01*
X131645460Y-83948668D01*
X131663768Y-83941662D01*
X131759006Y-83894043D01*
X131767401Y-83888758D01*
X131769843Y-83887747D01*
X131772590Y-83885491D01*
X131775596Y-83883600D01*
X131777326Y-83881605D01*
X131784996Y-83875310D01*
X131832615Y-83827690D01*
X131838907Y-83820023D01*
X131840904Y-83818292D01*
X131842797Y-83815284D01*
X131845052Y-83812537D01*
X131846063Y-83810095D01*
X131851347Y-83801701D01*
X131898966Y-83706464D01*
X131905972Y-83688155D01*
X131906226Y-83684571D01*
X131907602Y-83681251D01*
X131909523Y-83661742D01*
X131909523Y-83423647D01*
X131907602Y-83404138D01*
X131906226Y-83400817D01*
X131905972Y-83397234D01*
X131898966Y-83378925D01*
X131851347Y-83283688D01*
X131846061Y-83275291D01*
X131845051Y-83272851D01*
X131842797Y-83270105D01*
X131840904Y-83267097D01*
X131838906Y-83265364D01*
X131832614Y-83257698D01*
X131784996Y-83210079D01*
X131777325Y-83203784D01*
X131775596Y-83201790D01*
X131772588Y-83199896D01*
X131769842Y-83197643D01*
X131767402Y-83196632D01*
X131759006Y-83191347D01*
X131680158Y-83151923D01*
X131884781Y-82918069D01*
X131890810Y-82909635D01*
X131892670Y-82907776D01*
X131893400Y-82906012D01*
X131896182Y-82902122D01*
X131901386Y-82886733D01*
X131907602Y-82871728D01*
X131907602Y-82868354D01*
X131908682Y-82865161D01*
X131907602Y-82848958D01*
X131907602Y-82832710D01*
X131906311Y-82829594D01*
X131906087Y-82826229D01*
X131898884Y-82811663D01*
X131892670Y-82796662D01*
X131890286Y-82794278D01*
X131888791Y-82791254D01*
X131876557Y-82780549D01*
X131865080Y-82769072D01*
X131861966Y-82767782D01*
X131859427Y-82765560D01*
X131844035Y-82760354D01*
X131829032Y-82754140D01*
X131824272Y-82753671D01*
X131822465Y-82753060D01*
X131819840Y-82753234D01*
X131809523Y-82752219D01*
X131190476Y-82752219D01*
X131170967Y-82754140D01*
X131134919Y-82769072D01*
X131107329Y-82796662D01*
X131092397Y-82832710D01*
X131049320Y-82832710D01*
X131048829Y-82825807D01*
X131031379Y-82790908D01*
X131001903Y-82765343D01*
X130964887Y-82753004D01*
X130925967Y-82755771D01*
X130891068Y-82773220D01*
X130865503Y-82802696D01*
X130857512Y-82820597D01*
X130619047Y-83535991D01*
X130380582Y-82820596D01*
X130372591Y-82802696D01*
X130347026Y-82773220D01*
X130312127Y-82755770D01*
X130273207Y-82753004D01*
X130236191Y-82765342D01*
X130206715Y-82790907D01*
X130189265Y-82825806D01*
X130186499Y-82864726D01*
X130099129Y-82864726D01*
X130098078Y-82848958D01*
X130098078Y-82832710D01*
X130096787Y-82829594D01*
X130096563Y-82826229D01*
X130089360Y-82811663D01*
X130083146Y-82796662D01*
X130080762Y-82794278D01*
X130079267Y-82791254D01*
X130067033Y-82780549D01*
X130055556Y-82769072D01*
X130052442Y-82767782D01*
X130049903Y-82765560D01*
X130034511Y-82760354D01*
X130019508Y-82754140D01*
X130014748Y-82753671D01*
X130012941Y-82753060D01*
X130010316Y-82753234D01*
X129999999Y-82752219D01*
X129380952Y-82752219D01*
X129361443Y-82754140D01*
X129325395Y-82769072D01*
X129297805Y-82796662D01*
X129282873Y-82832710D01*
X128028905Y-82832710D01*
X128028905Y-82641108D01*
X132020634Y-82641108D01*
X132020634Y-84063330D01*
G37*
G36*
X132115087Y-75663330D02*
G01*
X128028905Y-75663330D01*
X128028905Y-75051757D01*
X128140016Y-75051757D01*
X128140016Y-75090775D01*
X128154948Y-75126823D01*
X128182538Y-75154413D01*
X128218586Y-75169345D01*
X128238095Y-75171266D01*
X128519047Y-75171266D01*
X128519047Y-75452219D01*
X128520968Y-75471728D01*
X128535900Y-75507776D01*
X128563490Y-75535366D01*
X128599538Y-75550298D01*
X128638556Y-75550298D01*
X128674604Y-75535366D01*
X128702194Y-75507776D01*
X128717126Y-75471728D01*
X128719047Y-75452219D01*
X128719047Y-75171266D01*
X129000000Y-75171266D01*
X129019509Y-75169345D01*
X129055557Y-75154413D01*
X129083147Y-75126823D01*
X129098079Y-75090775D01*
X129098079Y-75051757D01*
X129083147Y-75015709D01*
X129055557Y-74988119D01*
X129019509Y-74973187D01*
X129000000Y-74971266D01*
X128719047Y-74971266D01*
X128719047Y-74725426D01*
X129329356Y-74725426D01*
X129332122Y-74764346D01*
X129349571Y-74799245D01*
X129379048Y-74824809D01*
X129416064Y-74837148D01*
X129454984Y-74834382D01*
X129473292Y-74827376D01*
X129568530Y-74779757D01*
X129576926Y-74774471D01*
X129579366Y-74773461D01*
X129582112Y-74771207D01*
X129585120Y-74769314D01*
X129586849Y-74767319D01*
X129594520Y-74761025D01*
X129614285Y-74741260D01*
X129614285Y-75352219D01*
X129428571Y-75352219D01*
X129409062Y-75354140D01*
X129373014Y-75369072D01*
X129345424Y-75396662D01*
X129330492Y-75432710D01*
X129330492Y-75471728D01*
X129345424Y-75507776D01*
X129373014Y-75535366D01*
X129409062Y-75550298D01*
X129428571Y-75552219D01*
X129999999Y-75552219D01*
X130019508Y-75550298D01*
X130055556Y-75535366D01*
X130083146Y-75507776D01*
X130098078Y-75471728D01*
X130098078Y-75432710D01*
X130235254Y-75432710D01*
X130235254Y-75471728D01*
X130250186Y-75507776D01*
X130277776Y-75535366D01*
X130313824Y-75550298D01*
X130333333Y-75552219D01*
X130952380Y-75552219D01*
X130971889Y-75550298D01*
X131007937Y-75535366D01*
X131035527Y-75507776D01*
X131050459Y-75471728D01*
X131050459Y-75432710D01*
X131035527Y-75396662D01*
X131007937Y-75369072D01*
X130971889Y-75354140D01*
X130952380Y-75352219D01*
X130574755Y-75352219D01*
X130975472Y-74951501D01*
X130987908Y-74936347D01*
X130989282Y-74933028D01*
X130991638Y-74930313D01*
X130999629Y-74912413D01*
X131047248Y-74769556D01*
X131049447Y-74759883D01*
X131050459Y-74757442D01*
X131050807Y-74753904D01*
X131051595Y-74750441D01*
X131051407Y-74747806D01*
X131052380Y-74737933D01*
X131052380Y-74642695D01*
X131050459Y-74623186D01*
X131049083Y-74619865D01*
X131048829Y-74616282D01*
X131041823Y-74597973D01*
X130994204Y-74502736D01*
X130988918Y-74494339D01*
X130987908Y-74491899D01*
X130985654Y-74489153D01*
X130983761Y-74486145D01*
X130981763Y-74484412D01*
X130975471Y-74476746D01*
X130963451Y-74464726D01*
X131138880Y-74464726D01*
X131143227Y-74483842D01*
X131476560Y-75483841D01*
X131484551Y-75501742D01*
X131489234Y-75507141D01*
X131492429Y-75513531D01*
X131501900Y-75521746D01*
X131510116Y-75531218D01*
X131516504Y-75534412D01*
X131521905Y-75539096D01*
X131533806Y-75543063D01*
X131545015Y-75548667D01*
X131552139Y-75549173D01*
X131558921Y-75551434D01*
X131571430Y-75550544D01*
X131583935Y-75551434D01*
X131590713Y-75549174D01*
X131597841Y-75548668D01*
X131609057Y-75543059D01*
X131620951Y-75539095D01*
X131626348Y-75534414D01*
X131632740Y-75531218D01*
X131640958Y-75521742D01*
X131650427Y-75513530D01*
X131653620Y-75507143D01*
X131658305Y-75501742D01*
X131666296Y-75483842D01*
X131999629Y-74483842D01*
X132003976Y-74464727D01*
X132001210Y-74425807D01*
X131983760Y-74390908D01*
X131954284Y-74365343D01*
X131917268Y-74353004D01*
X131878348Y-74355771D01*
X131843449Y-74373220D01*
X131817884Y-74402696D01*
X131809893Y-74420597D01*
X131571428Y-75135991D01*
X131332963Y-74420596D01*
X131324972Y-74402696D01*
X131299407Y-74373220D01*
X131264508Y-74355770D01*
X131225588Y-74353004D01*
X131188572Y-74365342D01*
X131159096Y-74390907D01*
X131141646Y-74425806D01*
X131138880Y-74464726D01*
X130963451Y-74464726D01*
X130927853Y-74429127D01*
X130920182Y-74422832D01*
X130918453Y-74420838D01*
X130915445Y-74418944D01*
X130912699Y-74416691D01*
X130910259Y-74415680D01*
X130901863Y-74410395D01*
X130806625Y-74362776D01*
X130788317Y-74355770D01*
X130784733Y-74355515D01*
X130781413Y-74354140D01*
X130761904Y-74352219D01*
X130523809Y-74352219D01*
X130504300Y-74354140D01*
X130500979Y-74355515D01*
X130497396Y-74355770D01*
X130479087Y-74362776D01*
X130383850Y-74410395D01*
X130375453Y-74415680D01*
X130373013Y-74416691D01*
X130370267Y-74418944D01*
X130367259Y-74420838D01*
X130365526Y-74422835D01*
X130357860Y-74429128D01*
X130310241Y-74476746D01*
X130297805Y-74491900D01*
X130282873Y-74527948D01*
X130282873Y-74566966D01*
X130297805Y-74603014D01*
X130325395Y-74630604D01*
X130361443Y-74645536D01*
X130400461Y-74645536D01*
X130436509Y-74630604D01*
X130451663Y-74618168D01*
X130487806Y-74582023D01*
X130547416Y-74552219D01*
X130738297Y-74552219D01*
X130797906Y-74582024D01*
X130822575Y-74606692D01*
X130852380Y-74666302D01*
X130852380Y-74721706D01*
X130817358Y-74826770D01*
X130262622Y-75381508D01*
X130250186Y-75396662D01*
X130235254Y-75432710D01*
X130098078Y-75432710D01*
X130083146Y-75396662D01*
X130055556Y-75369072D01*
X130019508Y-75354140D01*
X129999999Y-75352219D01*
X129814285Y-75352219D01*
X129814285Y-74452219D01*
X129814278Y-74452148D01*
X129814285Y-74452114D01*
X129814264Y-74452012D01*
X129812364Y-74432710D01*
X129808574Y-74423561D01*
X129806633Y-74413854D01*
X129801181Y-74405713D01*
X129797432Y-74396662D01*
X129790432Y-74389662D01*
X129784922Y-74381434D01*
X129776767Y-74375997D01*
X129769842Y-74369072D01*
X129760698Y-74365284D01*
X129752457Y-74359790D01*
X129742843Y-74357888D01*
X129733794Y-74354140D01*
X129723893Y-74354140D01*
X129714181Y-74352219D01*
X129704576Y-74354140D01*
X129694776Y-74354140D01*
X129685627Y-74357929D01*
X129675920Y-74359871D01*
X129667779Y-74365322D01*
X129658728Y-74369072D01*
X129651728Y-74376071D01*
X129643500Y-74381582D01*
X129631211Y-74396588D01*
X129631138Y-74396662D01*
X129631124Y-74396694D01*
X129631080Y-74396749D01*
X129541336Y-74531365D01*
X129464572Y-74608128D01*
X129383850Y-74648490D01*
X129367259Y-74658933D01*
X129341695Y-74688410D01*
X129329356Y-74725426D01*
X128719047Y-74725426D01*
X128719047Y-74690314D01*
X128717126Y-74670805D01*
X128702194Y-74634757D01*
X128674604Y-74607167D01*
X128638556Y-74592235D01*
X128599538Y-74592235D01*
X128563490Y-74607167D01*
X128535900Y-74634757D01*
X128520968Y-74670805D01*
X128519047Y-74690314D01*
X128519047Y-74971266D01*
X128238095Y-74971266D01*
X128218586Y-74973187D01*
X128182538Y-74988119D01*
X128154948Y-75015709D01*
X128140016Y-75051757D01*
X128028905Y-75051757D01*
X128028905Y-74241108D01*
X132115087Y-74241108D01*
X132115087Y-75663330D01*
G37*
G36*
X129178859Y-66182024D02*
G01*
X129203528Y-66206692D01*
X129233333Y-66266302D01*
X129233333Y-66361945D01*
X129203528Y-66421554D01*
X129178859Y-66446222D01*
X129119250Y-66476028D01*
X128861905Y-66476028D01*
X128861905Y-66152219D01*
X129119250Y-66152219D01*
X129178859Y-66182024D01*
G37*
G36*
X131494904Y-67263330D02*
G01*
X128550794Y-67263330D01*
X128550794Y-66052219D01*
X128661905Y-66052219D01*
X128661905Y-67052219D01*
X128663826Y-67071728D01*
X128678758Y-67107776D01*
X128706348Y-67135366D01*
X128742396Y-67150298D01*
X128781414Y-67150298D01*
X128817462Y-67135366D01*
X128845052Y-67107776D01*
X128859984Y-67071728D01*
X128861905Y-67052219D01*
X128861905Y-66985091D01*
X129616207Y-66985091D01*
X129616207Y-67024109D01*
X129619067Y-67031013D01*
X129631139Y-67060158D01*
X129631143Y-67060162D01*
X129643575Y-67075311D01*
X129691194Y-67122929D01*
X129706347Y-67135366D01*
X129716905Y-67139739D01*
X129742396Y-67150298D01*
X129781414Y-67150298D01*
X129817462Y-67135366D01*
X129832616Y-67122930D01*
X129880234Y-67075311D01*
X129892671Y-67060158D01*
X129904040Y-67032710D01*
X129907602Y-67024110D01*
X129907603Y-66985092D01*
X129892672Y-66949043D01*
X129880235Y-66933890D01*
X129832616Y-66886270D01*
X129817463Y-66873833D01*
X129795266Y-66864639D01*
X129781414Y-66858901D01*
X129742396Y-66858901D01*
X129731838Y-66863274D01*
X129706348Y-66873832D01*
X129706347Y-66873833D01*
X129691193Y-66886270D01*
X129643575Y-66933890D01*
X129631138Y-66949043D01*
X129622842Y-66969072D01*
X129616207Y-66985091D01*
X128861905Y-66985091D01*
X128861905Y-66676028D01*
X129142857Y-66676028D01*
X129162366Y-66674107D01*
X129165686Y-66672731D01*
X129169270Y-66672477D01*
X129187578Y-66665471D01*
X129282816Y-66617852D01*
X129291212Y-66612566D01*
X129293652Y-66611556D01*
X129296398Y-66609302D01*
X129299406Y-66607409D01*
X129301135Y-66605414D01*
X129308806Y-66599120D01*
X129356424Y-66551501D01*
X129362716Y-66543834D01*
X129364714Y-66542102D01*
X129366607Y-66539093D01*
X129368861Y-66536348D01*
X129369871Y-66533907D01*
X129375157Y-66525511D01*
X129397518Y-66480790D01*
X130090476Y-66480790D01*
X130090476Y-66623647D01*
X130090811Y-66627049D01*
X130090594Y-66628508D01*
X130091673Y-66635805D01*
X130092397Y-66643156D01*
X130092961Y-66644519D01*
X130093462Y-66647901D01*
X130141081Y-66838376D01*
X130141594Y-66839813D01*
X130141646Y-66840536D01*
X130144754Y-66848660D01*
X130147676Y-66856837D01*
X130148106Y-66857417D01*
X130148652Y-66858844D01*
X130196271Y-66954082D01*
X130201553Y-66962474D01*
X130202566Y-66964918D01*
X130204822Y-66967667D01*
X130206714Y-66970672D01*
X130208708Y-66972401D01*
X130215003Y-66980071D01*
X130310241Y-67075311D01*
X130325394Y-67087747D01*
X130328713Y-67089122D01*
X130331429Y-67091477D01*
X130349329Y-67099468D01*
X130492186Y-67147087D01*
X130501858Y-67149286D01*
X130504300Y-67150298D01*
X130507837Y-67150646D01*
X130511301Y-67151434D01*
X130513935Y-67151246D01*
X130523809Y-67152219D01*
X130619047Y-67152219D01*
X130628920Y-67151246D01*
X130631554Y-67151434D01*
X130635017Y-67150646D01*
X130638556Y-67150298D01*
X130640998Y-67149286D01*
X130650670Y-67147087D01*
X130793526Y-67099468D01*
X130811427Y-67091477D01*
X130814142Y-67089122D01*
X130817462Y-67087747D01*
X130832615Y-67075310D01*
X130880234Y-67027690D01*
X130892671Y-67012537D01*
X130904039Y-66985091D01*
X131092397Y-66985091D01*
X131092397Y-67024109D01*
X131095257Y-67031013D01*
X131107329Y-67060158D01*
X131107333Y-67060162D01*
X131119765Y-67075311D01*
X131167384Y-67122929D01*
X131182537Y-67135366D01*
X131193095Y-67139739D01*
X131218586Y-67150298D01*
X131257604Y-67150298D01*
X131293652Y-67135366D01*
X131308806Y-67122930D01*
X131356424Y-67075311D01*
X131368861Y-67060158D01*
X131380230Y-67032710D01*
X131383792Y-67024110D01*
X131383793Y-66985092D01*
X131368862Y-66949043D01*
X131356425Y-66933890D01*
X131308806Y-66886270D01*
X131293653Y-66873833D01*
X131271456Y-66864639D01*
X131257604Y-66858901D01*
X131218586Y-66858901D01*
X131208028Y-66863274D01*
X131182538Y-66873832D01*
X131182537Y-66873833D01*
X131167383Y-66886270D01*
X131119765Y-66933890D01*
X131107328Y-66949043D01*
X131099032Y-66969072D01*
X131092397Y-66985091D01*
X130904039Y-66985091D01*
X130907602Y-66976488D01*
X130909523Y-66956980D01*
X130909523Y-66623647D01*
X130907602Y-66604138D01*
X130892670Y-66568090D01*
X130865080Y-66540500D01*
X130829032Y-66525568D01*
X130809523Y-66523647D01*
X130619047Y-66523647D01*
X130599538Y-66525568D01*
X130563490Y-66540500D01*
X130535900Y-66568090D01*
X130520968Y-66604138D01*
X130520968Y-66643156D01*
X130535900Y-66679204D01*
X130563490Y-66706794D01*
X130599538Y-66721726D01*
X130619047Y-66723647D01*
X130709523Y-66723647D01*
X130709523Y-66915559D01*
X130707884Y-66917197D01*
X130602820Y-66952219D01*
X130540035Y-66952219D01*
X130434970Y-66917197D01*
X130367900Y-66850127D01*
X130332446Y-66779218D01*
X130290476Y-66611337D01*
X130290476Y-66493100D01*
X130332446Y-66325218D01*
X130367899Y-66254312D01*
X130434971Y-66187240D01*
X130540035Y-66152219D01*
X130643059Y-66152219D01*
X130717182Y-66189281D01*
X130735491Y-66196287D01*
X130774411Y-66199053D01*
X130811427Y-66186714D01*
X130840904Y-66161149D01*
X130858353Y-66126251D01*
X130861118Y-66087331D01*
X130848780Y-66050315D01*
X130823215Y-66020838D01*
X130806625Y-66010395D01*
X130711387Y-65962776D01*
X130693079Y-65955770D01*
X130689495Y-65955515D01*
X130686175Y-65954140D01*
X130666666Y-65952219D01*
X130523809Y-65952219D01*
X130513935Y-65953191D01*
X130511301Y-65953004D01*
X130507837Y-65953791D01*
X130504300Y-65954140D01*
X130501858Y-65955151D01*
X130492186Y-65957351D01*
X130349329Y-66004970D01*
X130331429Y-66012961D01*
X130328713Y-66015316D01*
X130325395Y-66016691D01*
X130310241Y-66029127D01*
X130215003Y-66124365D01*
X130208708Y-66132035D01*
X130206714Y-66133765D01*
X130204820Y-66136772D01*
X130202567Y-66139519D01*
X130201556Y-66141958D01*
X130196271Y-66150355D01*
X130148652Y-66245593D01*
X130148106Y-66247019D01*
X130147676Y-66247600D01*
X130144754Y-66255776D01*
X130141646Y-66263901D01*
X130141594Y-66264623D01*
X130141081Y-66266061D01*
X130093462Y-66456536D01*
X130092961Y-66459917D01*
X130092397Y-66461281D01*
X130091673Y-66468631D01*
X130090594Y-66475929D01*
X130090811Y-66477387D01*
X130090476Y-66480790D01*
X129397518Y-66480790D01*
X129422776Y-66430274D01*
X129429782Y-66411965D01*
X129430036Y-66408381D01*
X129431412Y-66405061D01*
X129433333Y-66385552D01*
X129433333Y-66242695D01*
X129431412Y-66223186D01*
X129430036Y-66219865D01*
X129429782Y-66216282D01*
X129422776Y-66197973D01*
X129375157Y-66102736D01*
X129369871Y-66094339D01*
X129368861Y-66091899D01*
X129366607Y-66089153D01*
X129364714Y-66086145D01*
X129362716Y-66084412D01*
X129356424Y-66076746D01*
X129308806Y-66029127D01*
X129301135Y-66022832D01*
X129299406Y-66020838D01*
X129296398Y-66018944D01*
X129293652Y-66016691D01*
X129291212Y-66015680D01*
X129282816Y-66010395D01*
X129187578Y-65962776D01*
X129169270Y-65955770D01*
X129165686Y-65955515D01*
X129162366Y-65954140D01*
X129142857Y-65952219D01*
X128761905Y-65952219D01*
X128742396Y-65954140D01*
X128706348Y-65969072D01*
X128678758Y-65996662D01*
X128663826Y-66032710D01*
X128661905Y-66052219D01*
X128550794Y-66052219D01*
X128550794Y-65841108D01*
X131494904Y-65841108D01*
X131494904Y-67263330D01*
G37*
G36*
X130964572Y-54782023D02*
G01*
X131028751Y-54846202D01*
X131066666Y-54997861D01*
X131066666Y-55306575D01*
X131028750Y-55458235D01*
X130964574Y-55522413D01*
X130904964Y-55552219D01*
X130761702Y-55552219D01*
X130702092Y-55522414D01*
X130637915Y-55458236D01*
X130600000Y-55306575D01*
X130600000Y-54997862D01*
X130637915Y-54846202D01*
X130702094Y-54782023D01*
X130761702Y-54752219D01*
X130904964Y-54752219D01*
X130964572Y-54782023D01*
G37*
G36*
X128250287Y-54782024D02*
G01*
X128274956Y-54806692D01*
X128304761Y-54866302D01*
X128304761Y-54961945D01*
X128274956Y-55021554D01*
X128250287Y-55046222D01*
X128190678Y-55076028D01*
X127933333Y-55076028D01*
X127933333Y-54752219D01*
X128190678Y-54752219D01*
X128250287Y-54782024D01*
G37*
G36*
X132377777Y-55958568D02*
G01*
X127622222Y-55958568D01*
X127622222Y-54652219D01*
X127733333Y-54652219D01*
X127733333Y-55652219D01*
X127735254Y-55671728D01*
X127750186Y-55707776D01*
X127777776Y-55735366D01*
X127813824Y-55750298D01*
X127852842Y-55750298D01*
X127888890Y-55735366D01*
X127916480Y-55707776D01*
X127931412Y-55671728D01*
X127933333Y-55652219D01*
X127933333Y-55276028D01*
X128214285Y-55276028D01*
X128233794Y-55274107D01*
X128237114Y-55272731D01*
X128240698Y-55272477D01*
X128259006Y-55265471D01*
X128354244Y-55217852D01*
X128362640Y-55212566D01*
X128365080Y-55211556D01*
X128367826Y-55209302D01*
X128370834Y-55207409D01*
X128372563Y-55205414D01*
X128380234Y-55199120D01*
X128427852Y-55151501D01*
X128434144Y-55143834D01*
X128436142Y-55142102D01*
X128438035Y-55139093D01*
X128440289Y-55136348D01*
X128441299Y-55133907D01*
X128446585Y-55125511D01*
X128494204Y-55030274D01*
X128501210Y-55011965D01*
X128501464Y-55008381D01*
X128502840Y-55005061D01*
X128504761Y-54985552D01*
X128504761Y-54842695D01*
X128685714Y-54842695D01*
X128685714Y-54937933D01*
X128687635Y-54957442D01*
X128689010Y-54960762D01*
X128689265Y-54964346D01*
X128696271Y-54982654D01*
X128743890Y-55077892D01*
X128749175Y-55086288D01*
X128750186Y-55088728D01*
X128752439Y-55091474D01*
X128754333Y-55094482D01*
X128756327Y-55096211D01*
X128762622Y-55103882D01*
X128810241Y-55151500D01*
X128817907Y-55157792D01*
X128819640Y-55159790D01*
X128822648Y-55161683D01*
X128825394Y-55163937D01*
X128827834Y-55164947D01*
X128836231Y-55170233D01*
X128931468Y-55217852D01*
X128932896Y-55218398D01*
X128933476Y-55218828D01*
X128941652Y-55221749D01*
X128949777Y-55224858D01*
X128950497Y-55224909D01*
X128951936Y-55225423D01*
X129131761Y-55270379D01*
X129202668Y-55305833D01*
X129227337Y-55330501D01*
X129257142Y-55390111D01*
X129257142Y-55438135D01*
X129227337Y-55497743D01*
X129202668Y-55522413D01*
X129143059Y-55552219D01*
X128944797Y-55552219D01*
X128817337Y-55509732D01*
X128798221Y-55505385D01*
X128759301Y-55508151D01*
X128724402Y-55525601D01*
X128698837Y-55555077D01*
X128686499Y-55592093D01*
X128689265Y-55631013D01*
X128706715Y-55665912D01*
X128736191Y-55691477D01*
X128754091Y-55699468D01*
X128896948Y-55747087D01*
X128906620Y-55749286D01*
X128909062Y-55750298D01*
X128912599Y-55750646D01*
X128916063Y-55751434D01*
X128918697Y-55751246D01*
X128928571Y-55752219D01*
X129166666Y-55752219D01*
X129186175Y-55750298D01*
X129189495Y-55748922D01*
X129193079Y-55748668D01*
X129211387Y-55741662D01*
X129238815Y-55727948D01*
X129449540Y-55727948D01*
X129449540Y-55766966D01*
X129464472Y-55803014D01*
X129492062Y-55830604D01*
X129528110Y-55845536D01*
X129547619Y-55847457D01*
X130309523Y-55847457D01*
X130329032Y-55845536D01*
X130365080Y-55830604D01*
X130392670Y-55803014D01*
X130407602Y-55766966D01*
X130407602Y-55727948D01*
X130392670Y-55691900D01*
X130365080Y-55664310D01*
X130329032Y-55649378D01*
X130309523Y-55647457D01*
X129547619Y-55647457D01*
X129528110Y-55649378D01*
X129492062Y-55664310D01*
X129464472Y-55691900D01*
X129449540Y-55727948D01*
X129238815Y-55727948D01*
X129306625Y-55694043D01*
X129315020Y-55688758D01*
X129317462Y-55687747D01*
X129320209Y-55685491D01*
X129323215Y-55683600D01*
X129324945Y-55681605D01*
X129332615Y-55675310D01*
X129380234Y-55627690D01*
X129386526Y-55620023D01*
X129388523Y-55618292D01*
X129390416Y-55615284D01*
X129392671Y-55612537D01*
X129393682Y-55610095D01*
X129398966Y-55601701D01*
X129446585Y-55506464D01*
X129453591Y-55488155D01*
X129453845Y-55484571D01*
X129455221Y-55481251D01*
X129457142Y-55461742D01*
X129457142Y-55366504D01*
X129455221Y-55346995D01*
X129453845Y-55343674D01*
X129453591Y-55340091D01*
X129446585Y-55321782D01*
X129398966Y-55226545D01*
X129393680Y-55218148D01*
X129392670Y-55215708D01*
X129390416Y-55212962D01*
X129388523Y-55209954D01*
X129386525Y-55208221D01*
X129380233Y-55200555D01*
X129332615Y-55152936D01*
X129324944Y-55146641D01*
X129323215Y-55144647D01*
X129320207Y-55142753D01*
X129317461Y-55140500D01*
X129315021Y-55139489D01*
X129306625Y-55134204D01*
X129211387Y-55086585D01*
X129209960Y-55086039D01*
X129209380Y-55085609D01*
X129201203Y-55082687D01*
X129193079Y-55079579D01*
X129192356Y-55079527D01*
X129190919Y-55079014D01*
X129011094Y-55034057D01*
X128940187Y-54998604D01*
X128927136Y-54985552D01*
X130400000Y-54985552D01*
X130400000Y-55318885D01*
X130400335Y-55322287D01*
X130400118Y-55323746D01*
X130401197Y-55331043D01*
X130401921Y-55338394D01*
X130402485Y-55339757D01*
X130402986Y-55343139D01*
X130450605Y-55533614D01*
X130457200Y-55552075D01*
X130461625Y-55558047D01*
X130464471Y-55564918D01*
X130476908Y-55580071D01*
X130572146Y-55675311D01*
X130579814Y-55681604D01*
X130581545Y-55683600D01*
X130584552Y-55685493D01*
X130587299Y-55687747D01*
X130589739Y-55688757D01*
X130598136Y-55694043D01*
X130693373Y-55741662D01*
X130711682Y-55748668D01*
X130715265Y-55748922D01*
X130718586Y-55750298D01*
X130738095Y-55752219D01*
X130928571Y-55752219D01*
X130948080Y-55750298D01*
X130951400Y-55748922D01*
X130954984Y-55748668D01*
X130973292Y-55741662D01*
X131068530Y-55694043D01*
X131076925Y-55688758D01*
X131079367Y-55687747D01*
X131082114Y-55685491D01*
X131085120Y-55683600D01*
X131086850Y-55681605D01*
X131094520Y-55675310D01*
X131189758Y-55580071D01*
X131202195Y-55564918D01*
X131205040Y-55558047D01*
X131209466Y-55552075D01*
X131216061Y-55533615D01*
X131263680Y-55343139D01*
X131264180Y-55339757D01*
X131264745Y-55338394D01*
X131265468Y-55331043D01*
X131266548Y-55323746D01*
X131266330Y-55322287D01*
X131266666Y-55318885D01*
X131266666Y-54985552D01*
X131266330Y-54982149D01*
X131266548Y-54980691D01*
X131265468Y-54973393D01*
X131264745Y-54966043D01*
X131264180Y-54964679D01*
X131263680Y-54961298D01*
X131216061Y-54770822D01*
X131209466Y-54752362D01*
X131205039Y-54746387D01*
X131202194Y-54739519D01*
X131189758Y-54724365D01*
X131117612Y-54652219D01*
X131495238Y-54652219D01*
X131495238Y-55652219D01*
X131497159Y-55671728D01*
X131512091Y-55707776D01*
X131539681Y-55735366D01*
X131575729Y-55750298D01*
X131614747Y-55750298D01*
X131650795Y-55735366D01*
X131678385Y-55707776D01*
X131693317Y-55671728D01*
X131695238Y-55652219D01*
X131695238Y-55028775D01*
X132079842Y-55701833D01*
X132082760Y-55705943D01*
X132083519Y-55707776D01*
X132085385Y-55709642D01*
X132091189Y-55717818D01*
X132101705Y-55725962D01*
X132111109Y-55735366D01*
X132116996Y-55737804D01*
X132122038Y-55741709D01*
X132134870Y-55745208D01*
X132147157Y-55750298D01*
X132153533Y-55750298D01*
X132159682Y-55751975D01*
X132172875Y-55750298D01*
X132186175Y-55750298D01*
X132192063Y-55747858D01*
X132198388Y-55747055D01*
X132209937Y-55740454D01*
X132222223Y-55735366D01*
X132226730Y-55730858D01*
X132232265Y-55727696D01*
X132240409Y-55717179D01*
X132249813Y-55707776D01*
X132252251Y-55701888D01*
X132256156Y-55696847D01*
X132259655Y-55684014D01*
X132264745Y-55671728D01*
X132265727Y-55661750D01*
X132266422Y-55659204D01*
X132266171Y-55657236D01*
X132266666Y-55652219D01*
X132266666Y-54652219D01*
X132264745Y-54632710D01*
X132249813Y-54596662D01*
X132222223Y-54569072D01*
X132186175Y-54554140D01*
X132147157Y-54554140D01*
X132111109Y-54569072D01*
X132083519Y-54596662D01*
X132068587Y-54632710D01*
X132066666Y-54652219D01*
X132066666Y-55275662D01*
X131682062Y-54602605D01*
X131679143Y-54598494D01*
X131678385Y-54596662D01*
X131676518Y-54594795D01*
X131670715Y-54586620D01*
X131660200Y-54578477D01*
X131650795Y-54569072D01*
X131644904Y-54566632D01*
X131639866Y-54562730D01*
X131627037Y-54559231D01*
X131614747Y-54554140D01*
X131608372Y-54554140D01*
X131602223Y-54552463D01*
X131589030Y-54554140D01*
X131575729Y-54554140D01*
X131569840Y-54556579D01*
X131563516Y-54557383D01*
X131551966Y-54563983D01*
X131539681Y-54569072D01*
X131535173Y-54573579D01*
X131529639Y-54576742D01*
X131521496Y-54587256D01*
X131512091Y-54596662D01*
X131509651Y-54602552D01*
X131505749Y-54607591D01*
X131502250Y-54620419D01*
X131497159Y-54632710D01*
X131496176Y-54642687D01*
X131495482Y-54645234D01*
X131495732Y-54647201D01*
X131495238Y-54652219D01*
X131117612Y-54652219D01*
X131094520Y-54629127D01*
X131086849Y-54622832D01*
X131085120Y-54620838D01*
X131082112Y-54618944D01*
X131079366Y-54616691D01*
X131076926Y-54615680D01*
X131068530Y-54610395D01*
X130973292Y-54562776D01*
X130954984Y-54555770D01*
X130951400Y-54555515D01*
X130948080Y-54554140D01*
X130928571Y-54552219D01*
X130738095Y-54552219D01*
X130718586Y-54554140D01*
X130715265Y-54555515D01*
X130711682Y-54555770D01*
X130693373Y-54562776D01*
X130598136Y-54610395D01*
X130589737Y-54615681D01*
X130587300Y-54616691D01*
X130584556Y-54618942D01*
X130581545Y-54620838D01*
X130579812Y-54622835D01*
X130572146Y-54629127D01*
X130476908Y-54724365D01*
X130464472Y-54739519D01*
X130461626Y-54746387D01*
X130457200Y-54752362D01*
X130450605Y-54770823D01*
X130402986Y-54961298D01*
X130402485Y-54964679D01*
X130401921Y-54966043D01*
X130401197Y-54973393D01*
X130400118Y-54980691D01*
X130400335Y-54982149D01*
X130400000Y-54985552D01*
X128927136Y-54985552D01*
X128915519Y-54973935D01*
X128885714Y-54914325D01*
X128885714Y-54866302D01*
X128915519Y-54806692D01*
X128940187Y-54782023D01*
X128999797Y-54752219D01*
X129198058Y-54752219D01*
X129325519Y-54794706D01*
X129344634Y-54799053D01*
X129383554Y-54796287D01*
X129418453Y-54778837D01*
X129444018Y-54749361D01*
X129456357Y-54712345D01*
X129453590Y-54673425D01*
X129436141Y-54638526D01*
X129406665Y-54612961D01*
X129388764Y-54604970D01*
X129245908Y-54557351D01*
X129236236Y-54555151D01*
X129233794Y-54554140D01*
X129230255Y-54553791D01*
X129226792Y-54553004D01*
X129224158Y-54553191D01*
X129214285Y-54552219D01*
X128976190Y-54552219D01*
X128956681Y-54554140D01*
X128953360Y-54555515D01*
X128949777Y-54555770D01*
X128931468Y-54562776D01*
X128836231Y-54610395D01*
X128827834Y-54615680D01*
X128825394Y-54616691D01*
X128822648Y-54618944D01*
X128819640Y-54620838D01*
X128817907Y-54622835D01*
X128810241Y-54629128D01*
X128762622Y-54676746D01*
X128756327Y-54684416D01*
X128754333Y-54686146D01*
X128752439Y-54689153D01*
X128750186Y-54691900D01*
X128749175Y-54694339D01*
X128743890Y-54702736D01*
X128696271Y-54797974D01*
X128689265Y-54816282D01*
X128689010Y-54819865D01*
X128687635Y-54823186D01*
X128685714Y-54842695D01*
X128504761Y-54842695D01*
X128502840Y-54823186D01*
X128501464Y-54819865D01*
X128501210Y-54816282D01*
X128494204Y-54797973D01*
X128446585Y-54702736D01*
X128441299Y-54694339D01*
X128440289Y-54691899D01*
X128438035Y-54689153D01*
X128436142Y-54686145D01*
X128434144Y-54684412D01*
X128427852Y-54676746D01*
X128380234Y-54629127D01*
X128372563Y-54622832D01*
X128370834Y-54620838D01*
X128367826Y-54618944D01*
X128365080Y-54616691D01*
X128362640Y-54615680D01*
X128354244Y-54610395D01*
X128259006Y-54562776D01*
X128240698Y-54555770D01*
X128237114Y-54555515D01*
X128233794Y-54554140D01*
X128214285Y-54552219D01*
X127833333Y-54552219D01*
X127813824Y-54554140D01*
X127777776Y-54569072D01*
X127750186Y-54596662D01*
X127735254Y-54632710D01*
X127733333Y-54652219D01*
X127622222Y-54652219D01*
X127622222Y-54441108D01*
X132377777Y-54441108D01*
X132377777Y-55958568D01*
G37*
X122737905Y-69052219D02*
X122737905Y-68052219D01*
X122737905Y-68052219D02*
X122976000Y-68052219D01*
X122976000Y-68052219D02*
X123118857Y-68099838D01*
X123118857Y-68099838D02*
X123214095Y-68195076D01*
X123214095Y-68195076D02*
X123261714Y-68290314D01*
X123261714Y-68290314D02*
X123309333Y-68480790D01*
X123309333Y-68480790D02*
X123309333Y-68623647D01*
X123309333Y-68623647D02*
X123261714Y-68814123D01*
X123261714Y-68814123D02*
X123214095Y-68909361D01*
X123214095Y-68909361D02*
X123118857Y-69004600D01*
X123118857Y-69004600D02*
X122976000Y-69052219D01*
X122976000Y-69052219D02*
X122737905Y-69052219D01*
X124261714Y-69052219D02*
X123690286Y-69052219D01*
X123976000Y-69052219D02*
X123976000Y-68052219D01*
X123976000Y-68052219D02*
X123880762Y-68195076D01*
X123880762Y-68195076D02*
X123785524Y-68290314D01*
X123785524Y-68290314D02*
X123690286Y-68337933D01*
X122737905Y-81652219D02*
X122737905Y-80652219D01*
X122737905Y-80652219D02*
X122976000Y-80652219D01*
X122976000Y-80652219D02*
X123118857Y-80699838D01*
X123118857Y-80699838D02*
X123214095Y-80795076D01*
X123214095Y-80795076D02*
X123261714Y-80890314D01*
X123261714Y-80890314D02*
X123309333Y-81080790D01*
X123309333Y-81080790D02*
X123309333Y-81223647D01*
X123309333Y-81223647D02*
X123261714Y-81414123D01*
X123261714Y-81414123D02*
X123214095Y-81509361D01*
X123214095Y-81509361D02*
X123118857Y-81604600D01*
X123118857Y-81604600D02*
X122976000Y-81652219D01*
X122976000Y-81652219D02*
X122737905Y-81652219D01*
X124166476Y-80985552D02*
X124166476Y-81652219D01*
X123928381Y-80604600D02*
X123690286Y-81318885D01*
X123690286Y-81318885D02*
X124309333Y-81318885D01*
X122737905Y-85852219D02*
X122737905Y-84852219D01*
X122737905Y-84852219D02*
X122976000Y-84852219D01*
X122976000Y-84852219D02*
X123118857Y-84899838D01*
X123118857Y-84899838D02*
X123214095Y-84995076D01*
X123214095Y-84995076D02*
X123261714Y-85090314D01*
X123261714Y-85090314D02*
X123309333Y-85280790D01*
X123309333Y-85280790D02*
X123309333Y-85423647D01*
X123309333Y-85423647D02*
X123261714Y-85614123D01*
X123261714Y-85614123D02*
X123214095Y-85709361D01*
X123214095Y-85709361D02*
X123118857Y-85804600D01*
X123118857Y-85804600D02*
X122976000Y-85852219D01*
X122976000Y-85852219D02*
X122737905Y-85852219D01*
X124214095Y-84852219D02*
X123737905Y-84852219D01*
X123737905Y-84852219D02*
X123690286Y-85328409D01*
X123690286Y-85328409D02*
X123737905Y-85280790D01*
X123737905Y-85280790D02*
X123833143Y-85233171D01*
X123833143Y-85233171D02*
X124071238Y-85233171D01*
X124071238Y-85233171D02*
X124166476Y-85280790D01*
X124166476Y-85280790D02*
X124214095Y-85328409D01*
X124214095Y-85328409D02*
X124261714Y-85423647D01*
X124261714Y-85423647D02*
X124261714Y-85661742D01*
X124261714Y-85661742D02*
X124214095Y-85756980D01*
X124214095Y-85756980D02*
X124166476Y-85804600D01*
X124166476Y-85804600D02*
X124071238Y-85852219D01*
X124071238Y-85852219D02*
X123833143Y-85852219D01*
X123833143Y-85852219D02*
X123737905Y-85804600D01*
X123737905Y-85804600D02*
X123690286Y-85756980D01*
X117309333Y-81652219D02*
X116976000Y-81176028D01*
X116737905Y-81652219D02*
X116737905Y-80652219D01*
X116737905Y-80652219D02*
X117118857Y-80652219D01*
X117118857Y-80652219D02*
X117214095Y-80699838D01*
X117214095Y-80699838D02*
X117261714Y-80747457D01*
X117261714Y-80747457D02*
X117309333Y-80842695D01*
X117309333Y-80842695D02*
X117309333Y-80985552D01*
X117309333Y-80985552D02*
X117261714Y-81080790D01*
X117261714Y-81080790D02*
X117214095Y-81128409D01*
X117214095Y-81128409D02*
X117118857Y-81176028D01*
X117118857Y-81176028D02*
X116737905Y-81176028D01*
X118166476Y-80985552D02*
X118166476Y-81652219D01*
X117928381Y-80604600D02*
X117690286Y-81318885D01*
X117690286Y-81318885D02*
X118309333Y-81318885D01*
X117309333Y-77452219D02*
X116976000Y-76976028D01*
X116737905Y-77452219D02*
X116737905Y-76452219D01*
X116737905Y-76452219D02*
X117118857Y-76452219D01*
X117118857Y-76452219D02*
X117214095Y-76499838D01*
X117214095Y-76499838D02*
X117261714Y-76547457D01*
X117261714Y-76547457D02*
X117309333Y-76642695D01*
X117309333Y-76642695D02*
X117309333Y-76785552D01*
X117309333Y-76785552D02*
X117261714Y-76880790D01*
X117261714Y-76880790D02*
X117214095Y-76928409D01*
X117214095Y-76928409D02*
X117118857Y-76976028D01*
X117118857Y-76976028D02*
X116737905Y-76976028D01*
X117642667Y-76452219D02*
X118261714Y-76452219D01*
X118261714Y-76452219D02*
X117928381Y-76833171D01*
X117928381Y-76833171D02*
X118071238Y-76833171D01*
X118071238Y-76833171D02*
X118166476Y-76880790D01*
X118166476Y-76880790D02*
X118214095Y-76928409D01*
X118214095Y-76928409D02*
X118261714Y-77023647D01*
X118261714Y-77023647D02*
X118261714Y-77261742D01*
X118261714Y-77261742D02*
X118214095Y-77356980D01*
X118214095Y-77356980D02*
X118166476Y-77404600D01*
X118166476Y-77404600D02*
X118071238Y-77452219D01*
X118071238Y-77452219D02*
X117785524Y-77452219D01*
X117785524Y-77452219D02*
X117690286Y-77404600D01*
X117690286Y-77404600D02*
X117642667Y-77356980D01*
X117309333Y-90052219D02*
X116976000Y-89576028D01*
X116737905Y-90052219D02*
X116737905Y-89052219D01*
X116737905Y-89052219D02*
X117118857Y-89052219D01*
X117118857Y-89052219D02*
X117214095Y-89099838D01*
X117214095Y-89099838D02*
X117261714Y-89147457D01*
X117261714Y-89147457D02*
X117309333Y-89242695D01*
X117309333Y-89242695D02*
X117309333Y-89385552D01*
X117309333Y-89385552D02*
X117261714Y-89480790D01*
X117261714Y-89480790D02*
X117214095Y-89528409D01*
X117214095Y-89528409D02*
X117118857Y-89576028D01*
X117118857Y-89576028D02*
X116737905Y-89576028D01*
X118166476Y-89052219D02*
X117976000Y-89052219D01*
X117976000Y-89052219D02*
X117880762Y-89099838D01*
X117880762Y-89099838D02*
X117833143Y-89147457D01*
X117833143Y-89147457D02*
X117737905Y-89290314D01*
X117737905Y-89290314D02*
X117690286Y-89480790D01*
X117690286Y-89480790D02*
X117690286Y-89861742D01*
X117690286Y-89861742D02*
X117737905Y-89956980D01*
X117737905Y-89956980D02*
X117785524Y-90004600D01*
X117785524Y-90004600D02*
X117880762Y-90052219D01*
X117880762Y-90052219D02*
X118071238Y-90052219D01*
X118071238Y-90052219D02*
X118166476Y-90004600D01*
X118166476Y-90004600D02*
X118214095Y-89956980D01*
X118214095Y-89956980D02*
X118261714Y-89861742D01*
X118261714Y-89861742D02*
X118261714Y-89623647D01*
X118261714Y-89623647D02*
X118214095Y-89528409D01*
X118214095Y-89528409D02*
X118166476Y-89480790D01*
X118166476Y-89480790D02*
X118071238Y-89433171D01*
X118071238Y-89433171D02*
X117880762Y-89433171D01*
X117880762Y-89433171D02*
X117785524Y-89480790D01*
X117785524Y-89480790D02*
X117737905Y-89528409D01*
X117737905Y-89528409D02*
X117690286Y-89623647D01*
X122737905Y-94252219D02*
X122737905Y-93252219D01*
X122737905Y-93252219D02*
X122976000Y-93252219D01*
X122976000Y-93252219D02*
X123118857Y-93299838D01*
X123118857Y-93299838D02*
X123214095Y-93395076D01*
X123214095Y-93395076D02*
X123261714Y-93490314D01*
X123261714Y-93490314D02*
X123309333Y-93680790D01*
X123309333Y-93680790D02*
X123309333Y-93823647D01*
X123309333Y-93823647D02*
X123261714Y-94014123D01*
X123261714Y-94014123D02*
X123214095Y-94109361D01*
X123214095Y-94109361D02*
X123118857Y-94204600D01*
X123118857Y-94204600D02*
X122976000Y-94252219D01*
X122976000Y-94252219D02*
X122737905Y-94252219D01*
X123642667Y-93252219D02*
X124309333Y-93252219D01*
X124309333Y-93252219D02*
X123880762Y-94252219D01*
X117309333Y-94252219D02*
X116976000Y-93776028D01*
X116737905Y-94252219D02*
X116737905Y-93252219D01*
X116737905Y-93252219D02*
X117118857Y-93252219D01*
X117118857Y-93252219D02*
X117214095Y-93299838D01*
X117214095Y-93299838D02*
X117261714Y-93347457D01*
X117261714Y-93347457D02*
X117309333Y-93442695D01*
X117309333Y-93442695D02*
X117309333Y-93585552D01*
X117309333Y-93585552D02*
X117261714Y-93680790D01*
X117261714Y-93680790D02*
X117214095Y-93728409D01*
X117214095Y-93728409D02*
X117118857Y-93776028D01*
X117118857Y-93776028D02*
X116737905Y-93776028D01*
X117642667Y-93252219D02*
X118309333Y-93252219D01*
X118309333Y-93252219D02*
X117880762Y-94252219D01*
X117309333Y-69052219D02*
X116976000Y-68576028D01*
X116737905Y-69052219D02*
X116737905Y-68052219D01*
X116737905Y-68052219D02*
X117118857Y-68052219D01*
X117118857Y-68052219D02*
X117214095Y-68099838D01*
X117214095Y-68099838D02*
X117261714Y-68147457D01*
X117261714Y-68147457D02*
X117309333Y-68242695D01*
X117309333Y-68242695D02*
X117309333Y-68385552D01*
X117309333Y-68385552D02*
X117261714Y-68480790D01*
X117261714Y-68480790D02*
X117214095Y-68528409D01*
X117214095Y-68528409D02*
X117118857Y-68576028D01*
X117118857Y-68576028D02*
X116737905Y-68576028D01*
X118261714Y-69052219D02*
X117690286Y-69052219D01*
X117976000Y-69052219D02*
X117976000Y-68052219D01*
X117976000Y-68052219D02*
X117880762Y-68195076D01*
X117880762Y-68195076D02*
X117785524Y-68290314D01*
X117785524Y-68290314D02*
X117690286Y-68337933D01*
X112309523Y-94156980D02*
X112261904Y-94204600D01*
X112261904Y-94204600D02*
X112119047Y-94252219D01*
X112119047Y-94252219D02*
X112023809Y-94252219D01*
X112023809Y-94252219D02*
X111880952Y-94204600D01*
X111880952Y-94204600D02*
X111785714Y-94109361D01*
X111785714Y-94109361D02*
X111738095Y-94014123D01*
X111738095Y-94014123D02*
X111690476Y-93823647D01*
X111690476Y-93823647D02*
X111690476Y-93680790D01*
X111690476Y-93680790D02*
X111738095Y-93490314D01*
X111738095Y-93490314D02*
X111785714Y-93395076D01*
X111785714Y-93395076D02*
X111880952Y-93299838D01*
X111880952Y-93299838D02*
X112023809Y-93252219D01*
X112023809Y-93252219D02*
X112119047Y-93252219D01*
X112119047Y-93252219D02*
X112261904Y-93299838D01*
X112261904Y-93299838D02*
X112309523Y-93347457D01*
X112738095Y-94252219D02*
X112738095Y-93252219D01*
X112738095Y-93252219D02*
X113309523Y-94252219D01*
X113309523Y-94252219D02*
X113309523Y-93252219D01*
X114309523Y-94252219D02*
X113738095Y-94252219D01*
X114023809Y-94252219D02*
X114023809Y-93252219D01*
X114023809Y-93252219D02*
X113928571Y-93395076D01*
X113928571Y-93395076D02*
X113833333Y-93490314D01*
X113833333Y-93490314D02*
X113738095Y-93537933D01*
X117309333Y-73252219D02*
X116976000Y-72776028D01*
X116737905Y-73252219D02*
X116737905Y-72252219D01*
X116737905Y-72252219D02*
X117118857Y-72252219D01*
X117118857Y-72252219D02*
X117214095Y-72299838D01*
X117214095Y-72299838D02*
X117261714Y-72347457D01*
X117261714Y-72347457D02*
X117309333Y-72442695D01*
X117309333Y-72442695D02*
X117309333Y-72585552D01*
X117309333Y-72585552D02*
X117261714Y-72680790D01*
X117261714Y-72680790D02*
X117214095Y-72728409D01*
X117214095Y-72728409D02*
X117118857Y-72776028D01*
X117118857Y-72776028D02*
X116737905Y-72776028D01*
X117690286Y-72347457D02*
X117737905Y-72299838D01*
X117737905Y-72299838D02*
X117833143Y-72252219D01*
X117833143Y-72252219D02*
X118071238Y-72252219D01*
X118071238Y-72252219D02*
X118166476Y-72299838D01*
X118166476Y-72299838D02*
X118214095Y-72347457D01*
X118214095Y-72347457D02*
X118261714Y-72442695D01*
X118261714Y-72442695D02*
X118261714Y-72537933D01*
X118261714Y-72537933D02*
X118214095Y-72680790D01*
X118214095Y-72680790D02*
X117642667Y-73252219D01*
X117642667Y-73252219D02*
X118261714Y-73252219D01*
X122737905Y-90052219D02*
X122737905Y-89052219D01*
X122737905Y-89052219D02*
X122976000Y-89052219D01*
X122976000Y-89052219D02*
X123118857Y-89099838D01*
X123118857Y-89099838D02*
X123214095Y-89195076D01*
X123214095Y-89195076D02*
X123261714Y-89290314D01*
X123261714Y-89290314D02*
X123309333Y-89480790D01*
X123309333Y-89480790D02*
X123309333Y-89623647D01*
X123309333Y-89623647D02*
X123261714Y-89814123D01*
X123261714Y-89814123D02*
X123214095Y-89909361D01*
X123214095Y-89909361D02*
X123118857Y-90004600D01*
X123118857Y-90004600D02*
X122976000Y-90052219D01*
X122976000Y-90052219D02*
X122737905Y-90052219D01*
X124166476Y-89052219D02*
X123976000Y-89052219D01*
X123976000Y-89052219D02*
X123880762Y-89099838D01*
X123880762Y-89099838D02*
X123833143Y-89147457D01*
X123833143Y-89147457D02*
X123737905Y-89290314D01*
X123737905Y-89290314D02*
X123690286Y-89480790D01*
X123690286Y-89480790D02*
X123690286Y-89861742D01*
X123690286Y-89861742D02*
X123737905Y-89956980D01*
X123737905Y-89956980D02*
X123785524Y-90004600D01*
X123785524Y-90004600D02*
X123880762Y-90052219D01*
X123880762Y-90052219D02*
X124071238Y-90052219D01*
X124071238Y-90052219D02*
X124166476Y-90004600D01*
X124166476Y-90004600D02*
X124214095Y-89956980D01*
X124214095Y-89956980D02*
X124261714Y-89861742D01*
X124261714Y-89861742D02*
X124261714Y-89623647D01*
X124261714Y-89623647D02*
X124214095Y-89528409D01*
X124214095Y-89528409D02*
X124166476Y-89480790D01*
X124166476Y-89480790D02*
X124071238Y-89433171D01*
X124071238Y-89433171D02*
X123880762Y-89433171D01*
X123880762Y-89433171D02*
X123785524Y-89480790D01*
X123785524Y-89480790D02*
X123737905Y-89528409D01*
X123737905Y-89528409D02*
X123690286Y-89623647D01*
X122737905Y-73252219D02*
X122737905Y-72252219D01*
X122737905Y-72252219D02*
X122976000Y-72252219D01*
X122976000Y-72252219D02*
X123118857Y-72299838D01*
X123118857Y-72299838D02*
X123214095Y-72395076D01*
X123214095Y-72395076D02*
X123261714Y-72490314D01*
X123261714Y-72490314D02*
X123309333Y-72680790D01*
X123309333Y-72680790D02*
X123309333Y-72823647D01*
X123309333Y-72823647D02*
X123261714Y-73014123D01*
X123261714Y-73014123D02*
X123214095Y-73109361D01*
X123214095Y-73109361D02*
X123118857Y-73204600D01*
X123118857Y-73204600D02*
X122976000Y-73252219D01*
X122976000Y-73252219D02*
X122737905Y-73252219D01*
X123690286Y-72347457D02*
X123737905Y-72299838D01*
X123737905Y-72299838D02*
X123833143Y-72252219D01*
X123833143Y-72252219D02*
X124071238Y-72252219D01*
X124071238Y-72252219D02*
X124166476Y-72299838D01*
X124166476Y-72299838D02*
X124214095Y-72347457D01*
X124214095Y-72347457D02*
X124261714Y-72442695D01*
X124261714Y-72442695D02*
X124261714Y-72537933D01*
X124261714Y-72537933D02*
X124214095Y-72680790D01*
X124214095Y-72680790D02*
X123642667Y-73252219D01*
X123642667Y-73252219D02*
X124261714Y-73252219D01*
X122737905Y-77452219D02*
X122737905Y-76452219D01*
X122737905Y-76452219D02*
X122976000Y-76452219D01*
X122976000Y-76452219D02*
X123118857Y-76499838D01*
X123118857Y-76499838D02*
X123214095Y-76595076D01*
X123214095Y-76595076D02*
X123261714Y-76690314D01*
X123261714Y-76690314D02*
X123309333Y-76880790D01*
X123309333Y-76880790D02*
X123309333Y-77023647D01*
X123309333Y-77023647D02*
X123261714Y-77214123D01*
X123261714Y-77214123D02*
X123214095Y-77309361D01*
X123214095Y-77309361D02*
X123118857Y-77404600D01*
X123118857Y-77404600D02*
X122976000Y-77452219D01*
X122976000Y-77452219D02*
X122737905Y-77452219D01*
X123642667Y-76452219D02*
X124261714Y-76452219D01*
X124261714Y-76452219D02*
X123928381Y-76833171D01*
X123928381Y-76833171D02*
X124071238Y-76833171D01*
X124071238Y-76833171D02*
X124166476Y-76880790D01*
X124166476Y-76880790D02*
X124214095Y-76928409D01*
X124214095Y-76928409D02*
X124261714Y-77023647D01*
X124261714Y-77023647D02*
X124261714Y-77261742D01*
X124261714Y-77261742D02*
X124214095Y-77356980D01*
X124214095Y-77356980D02*
X124166476Y-77404600D01*
X124166476Y-77404600D02*
X124071238Y-77452219D01*
X124071238Y-77452219D02*
X123785524Y-77452219D01*
X123785524Y-77452219D02*
X123690286Y-77404600D01*
X123690286Y-77404600D02*
X123642667Y-77356980D01*
X117309333Y-85852219D02*
X116976000Y-85376028D01*
X116737905Y-85852219D02*
X116737905Y-84852219D01*
X116737905Y-84852219D02*
X117118857Y-84852219D01*
X117118857Y-84852219D02*
X117214095Y-84899838D01*
X117214095Y-84899838D02*
X117261714Y-84947457D01*
X117261714Y-84947457D02*
X117309333Y-85042695D01*
X117309333Y-85042695D02*
X117309333Y-85185552D01*
X117309333Y-85185552D02*
X117261714Y-85280790D01*
X117261714Y-85280790D02*
X117214095Y-85328409D01*
X117214095Y-85328409D02*
X117118857Y-85376028D01*
X117118857Y-85376028D02*
X116737905Y-85376028D01*
X118214095Y-84852219D02*
X117737905Y-84852219D01*
X117737905Y-84852219D02*
X117690286Y-85328409D01*
X117690286Y-85328409D02*
X117737905Y-85280790D01*
X117737905Y-85280790D02*
X117833143Y-85233171D01*
X117833143Y-85233171D02*
X118071238Y-85233171D01*
X118071238Y-85233171D02*
X118166476Y-85280790D01*
X118166476Y-85280790D02*
X118214095Y-85328409D01*
X118214095Y-85328409D02*
X118261714Y-85423647D01*
X118261714Y-85423647D02*
X118261714Y-85661742D01*
X118261714Y-85661742D02*
X118214095Y-85756980D01*
X118214095Y-85756980D02*
X118166476Y-85804600D01*
X118166476Y-85804600D02*
X118071238Y-85852219D01*
X118071238Y-85852219D02*
X117833143Y-85852219D01*
X117833143Y-85852219D02*
X117737905Y-85804600D01*
X117737905Y-85804600D02*
X117690286Y-85756980D01*
X119091667Y-59904600D02*
X119234524Y-59952219D01*
X119234524Y-59952219D02*
X119472619Y-59952219D01*
X119472619Y-59952219D02*
X119567857Y-59904600D01*
X119567857Y-59904600D02*
X119615476Y-59856980D01*
X119615476Y-59856980D02*
X119663095Y-59761742D01*
X119663095Y-59761742D02*
X119663095Y-59666504D01*
X119663095Y-59666504D02*
X119615476Y-59571266D01*
X119615476Y-59571266D02*
X119567857Y-59523647D01*
X119567857Y-59523647D02*
X119472619Y-59476028D01*
X119472619Y-59476028D02*
X119282143Y-59428409D01*
X119282143Y-59428409D02*
X119186905Y-59380790D01*
X119186905Y-59380790D02*
X119139286Y-59333171D01*
X119139286Y-59333171D02*
X119091667Y-59237933D01*
X119091667Y-59237933D02*
X119091667Y-59142695D01*
X119091667Y-59142695D02*
X119139286Y-59047457D01*
X119139286Y-59047457D02*
X119186905Y-58999838D01*
X119186905Y-58999838D02*
X119282143Y-58952219D01*
X119282143Y-58952219D02*
X119520238Y-58952219D01*
X119520238Y-58952219D02*
X119663095Y-58999838D01*
X119996429Y-58952219D02*
X120234524Y-59952219D01*
X120234524Y-59952219D02*
X120425000Y-59237933D01*
X120425000Y-59237933D02*
X120615476Y-59952219D01*
X120615476Y-59952219D02*
X120853572Y-58952219D01*
X121758333Y-59952219D02*
X121186905Y-59952219D01*
X121472619Y-59952219D02*
X121472619Y-58952219D01*
X121472619Y-58952219D02*
X121377381Y-59095076D01*
X121377381Y-59095076D02*
X121282143Y-59190314D01*
X121282143Y-59190314D02*
X121186905Y-59237933D01*
D12*
X121952000Y-67743000D02*
X126143000Y-67743000D01*
D13*
X123222000Y-66346000D02*
X123730000Y-66600000D01*
X123222000Y-66600000D02*
X122841000Y-66600000D01*
X123222000Y-66854000D02*
X123222000Y-66346000D01*
X123730000Y-66600000D02*
X123222000Y-66854000D01*
X123730000Y-66854000D02*
X123730000Y-66346000D01*
X124111000Y-66600000D02*
X123730000Y-66600000D01*
D12*
X126143000Y-65457000D02*
X121952000Y-65457000D01*
X126143000Y-67743000D02*
X126143000Y-65457000D01*
X121952000Y-80343000D02*
X126143000Y-80343000D01*
D13*
X123222000Y-78946000D02*
X123730000Y-79200000D01*
X123222000Y-79200000D02*
X122841000Y-79200000D01*
X123222000Y-79454000D02*
X123222000Y-78946000D01*
X123730000Y-79200000D02*
X123222000Y-79454000D01*
X123730000Y-79454000D02*
X123730000Y-78946000D01*
X124111000Y-79200000D02*
X123730000Y-79200000D01*
D12*
X126143000Y-78057000D02*
X121952000Y-78057000D01*
X126143000Y-80343000D02*
X126143000Y-78057000D01*
X121952000Y-84543000D02*
X126143000Y-84543000D01*
D13*
X123222000Y-83146000D02*
X123730000Y-83400000D01*
X123222000Y-83400000D02*
X122841000Y-83400000D01*
X123222000Y-83654000D02*
X123222000Y-83146000D01*
X123730000Y-83400000D02*
X123222000Y-83654000D01*
X123730000Y-83654000D02*
X123730000Y-83146000D01*
X124111000Y-83400000D02*
X123730000Y-83400000D01*
D12*
X126143000Y-82257000D02*
X121952000Y-82257000D01*
X126143000Y-84543000D02*
X126143000Y-82257000D01*
X116714000Y-78290000D02*
X118238000Y-78290000D01*
X116714000Y-80110000D02*
X118238000Y-80110000D01*
D13*
X116841000Y-79200000D02*
X116968000Y-79200000D01*
X116968000Y-79200000D02*
X117095000Y-79200000D01*
X117095000Y-79200000D02*
X117222000Y-78946000D01*
X117222000Y-78946000D02*
X117476000Y-79454000D01*
X117476000Y-79454000D02*
X117730000Y-78946000D01*
X117730000Y-78946000D02*
X117857000Y-79200000D01*
X117857000Y-79200000D02*
X118111000Y-79200000D01*
D12*
X116714000Y-74090000D02*
X118238000Y-74090000D01*
X116714000Y-75910000D02*
X118238000Y-75910000D01*
D13*
X116841000Y-75000000D02*
X116968000Y-75000000D01*
X116968000Y-75000000D02*
X117095000Y-75000000D01*
X117095000Y-75000000D02*
X117222000Y-74746000D01*
X117222000Y-74746000D02*
X117476000Y-75254000D01*
X117476000Y-75254000D02*
X117730000Y-74746000D01*
X117730000Y-74746000D02*
X117857000Y-75000000D01*
X117857000Y-75000000D02*
X118111000Y-75000000D01*
D12*
X116714000Y-86690000D02*
X118238000Y-86690000D01*
X116714000Y-88510000D02*
X118238000Y-88510000D01*
D13*
X116841000Y-87600000D02*
X116968000Y-87600000D01*
X116968000Y-87600000D02*
X117095000Y-87600000D01*
X117095000Y-87600000D02*
X117222000Y-87346000D01*
X117222000Y-87346000D02*
X117476000Y-87854000D01*
X117476000Y-87854000D02*
X117730000Y-87346000D01*
X117730000Y-87346000D02*
X117857000Y-87600000D01*
X117857000Y-87600000D02*
X118111000Y-87600000D01*
D12*
X120809000Y-90657000D02*
X120809000Y-92943000D01*
X120809000Y-92943000D02*
X125000000Y-92943000D01*
D13*
X122841000Y-91800000D02*
X123222000Y-91800000D01*
X123222000Y-91546000D02*
X123222000Y-92054000D01*
X123222000Y-91800000D02*
X123730000Y-91546000D01*
X123730000Y-91546000D02*
X123730000Y-92054000D01*
X123730000Y-91800000D02*
X124111000Y-91800000D01*
X123730000Y-92054000D02*
X123222000Y-91800000D01*
D12*
X125000000Y-90657000D02*
X120809000Y-90657000D01*
X116714000Y-90890000D02*
X118238000Y-90890000D01*
X116714000Y-92710000D02*
X118238000Y-92710000D01*
D13*
X116841000Y-91800000D02*
X116968000Y-91800000D01*
X116968000Y-91800000D02*
X117095000Y-91800000D01*
X117095000Y-91800000D02*
X117222000Y-91546000D01*
X117222000Y-91546000D02*
X117476000Y-92054000D01*
X117476000Y-92054000D02*
X117730000Y-91546000D01*
X117730000Y-91546000D02*
X117857000Y-91800000D01*
X117857000Y-91800000D02*
X118111000Y-91800000D01*
D12*
X116714000Y-65690000D02*
X118238000Y-65690000D01*
X116714000Y-67510000D02*
X118238000Y-67510000D01*
D13*
X116841000Y-66600000D02*
X116968000Y-66600000D01*
X116968000Y-66600000D02*
X117095000Y-66600000D01*
X117095000Y-66600000D02*
X117222000Y-66346000D01*
X117222000Y-66346000D02*
X117476000Y-66854000D01*
X117476000Y-66854000D02*
X117730000Y-66346000D01*
X117730000Y-66346000D02*
X117857000Y-66600000D01*
X117857000Y-66600000D02*
X118111000Y-66600000D01*
D14*
X99350000Y-70900000D02*
X100750000Y-70900000D01*
X99350000Y-74700000D02*
X99350000Y-70900000D01*
X99350000Y-74700000D02*
X100750000Y-74700000D01*
X100750000Y-51100000D02*
X110750000Y-51100000D01*
X100750000Y-70900000D02*
X100750000Y-51100000D01*
X100750000Y-94700000D02*
X100750000Y-74700000D01*
X110750000Y-51100000D02*
X110750000Y-94700000D01*
X110750000Y-94700000D02*
X100750000Y-94700000D01*
X112500000Y-92300000D02*
X111500000Y-91800000D01*
X112500000Y-91300000D01*
X112500000Y-92300000D01*
G36*
X112500000Y-92300000D02*
G01*
X111500000Y-91800000D01*
X112500000Y-91300000D01*
X112500000Y-92300000D01*
G37*
D12*
X116714000Y-69890000D02*
X118238000Y-69890000D01*
X116714000Y-71710000D02*
X118238000Y-71710000D01*
D13*
X116841000Y-70800000D02*
X116968000Y-70800000D01*
X116968000Y-70800000D02*
X117095000Y-70800000D01*
X117095000Y-70800000D02*
X117222000Y-70546000D01*
X117222000Y-70546000D02*
X117476000Y-71054000D01*
X117476000Y-71054000D02*
X117730000Y-70546000D01*
X117730000Y-70546000D02*
X117857000Y-70800000D01*
X117857000Y-70800000D02*
X118111000Y-70800000D01*
D12*
X120809000Y-86457000D02*
X120809000Y-88743000D01*
X120809000Y-88743000D02*
X125000000Y-88743000D01*
D13*
X122841000Y-87600000D02*
X123222000Y-87600000D01*
X123222000Y-87346000D02*
X123222000Y-87854000D01*
X123222000Y-87600000D02*
X123730000Y-87346000D01*
X123730000Y-87346000D02*
X123730000Y-87854000D01*
X123730000Y-87600000D02*
X124111000Y-87600000D01*
X123730000Y-87854000D02*
X123222000Y-87600000D01*
D12*
X125000000Y-86457000D02*
X120809000Y-86457000D01*
X121952000Y-71943000D02*
X126143000Y-71943000D01*
D13*
X123222000Y-70546000D02*
X123730000Y-70800000D01*
X123222000Y-70800000D02*
X122841000Y-70800000D01*
X123222000Y-71054000D02*
X123222000Y-70546000D01*
X123730000Y-70800000D02*
X123222000Y-71054000D01*
X123730000Y-71054000D02*
X123730000Y-70546000D01*
X124111000Y-70800000D02*
X123730000Y-70800000D01*
D12*
X126143000Y-69657000D02*
X121952000Y-69657000D01*
X126143000Y-71943000D02*
X126143000Y-69657000D01*
X121952000Y-76143000D02*
X126143000Y-76143000D01*
D13*
X123222000Y-74746000D02*
X123730000Y-75000000D01*
X123222000Y-75000000D02*
X122841000Y-75000000D01*
X123222000Y-75254000D02*
X123222000Y-74746000D01*
X123730000Y-75000000D02*
X123222000Y-75254000D01*
X123730000Y-75254000D02*
X123730000Y-74746000D01*
X124111000Y-75000000D02*
X123730000Y-75000000D01*
D12*
X126143000Y-73857000D02*
X121952000Y-73857000D01*
X126143000Y-76143000D02*
X126143000Y-73857000D01*
X116714000Y-82490000D02*
X118238000Y-82490000D01*
X116714000Y-84310000D02*
X118238000Y-84310000D01*
D13*
X116841000Y-83400000D02*
X116968000Y-83400000D01*
X116968000Y-83400000D02*
X117095000Y-83400000D01*
X117095000Y-83400000D02*
X117222000Y-83146000D01*
X117222000Y-83146000D02*
X117476000Y-83654000D01*
X117476000Y-83654000D02*
X117730000Y-83146000D01*
X117730000Y-83146000D02*
X117857000Y-83400000D01*
X117857000Y-83400000D02*
X118111000Y-83400000D01*
D14*
X117195000Y-56300000D02*
X117195000Y-53700000D01*
X123655000Y-51770000D02*
X117195000Y-51770000D01*
X123655000Y-56300000D02*
X123655000Y-53700000D01*
X123655000Y-58230000D02*
X117195000Y-58230000D01*
D15*
X122175714Y-55000000D02*
G75*
G02*
X118674286Y-55000000I-1750714J0D01*
G01*
X118674286Y-55000000D02*
G75*
G02*
X122175714Y-55000000I1750714J0D01*
G01*
%LPC*%
D16*
X125127000Y-66600000D03*
X121825000Y-66600000D03*
X125127000Y-79200000D03*
X121825000Y-79200000D03*
X125127000Y-83400000D03*
X121825000Y-83400000D03*
D17*
X115825000Y-79200000D03*
X119127000Y-79200000D03*
X115825000Y-75000000D03*
X119127000Y-75000000D03*
X115825000Y-87600000D03*
X119127000Y-87600000D03*
X121825000Y-91800000D03*
X125127000Y-91800000D03*
X115825000Y-91800000D03*
X119127000Y-91800000D03*
X115825000Y-66600000D03*
X119127000Y-66600000D03*
D18*
X108500000Y-91800000D03*
D19*
X108500000Y-87600000D03*
X108500000Y-83400000D03*
X108500000Y-79200000D03*
X108500000Y-75000000D03*
X108500000Y-70800000D03*
X108500000Y-66600000D03*
X108500000Y-62400000D03*
X108500000Y-58200000D03*
X108500000Y-54000000D03*
X103000000Y-91800000D03*
X103000000Y-87600000D03*
X103000000Y-83400000D03*
X103000000Y-79200000D03*
X103000000Y-75000000D03*
X103000000Y-70800000D03*
X103000000Y-66600000D03*
X103000000Y-62400000D03*
X103000000Y-58200000D03*
X103000000Y-54000000D03*
D17*
X115825000Y-70800000D03*
X119127000Y-70800000D03*
X121825000Y-87600000D03*
X125127000Y-87600000D03*
D16*
X125127000Y-70800000D03*
X121825000Y-70800000D03*
X125127000Y-75000000D03*
X121825000Y-75000000D03*
D17*
X115825000Y-83400000D03*
X119127000Y-83400000D03*
D20*
X124908000Y-57250000D03*
X115942000Y-57250000D03*
X124908000Y-52750000D03*
X115942000Y-52750000D03*
%LPD*%
M02*
