G04 #@! TF.GenerationSoftware,KiCad,Pcbnew,8.0.5*
G04 #@! TF.CreationDate,2024-11-12T19:45:38-03:00*
G04 #@! TF.ProjectId,Teste R_pido Fonte Chaveada,54657374-6520-452e-9170-69646f20466f,rev?*
G04 #@! TF.SameCoordinates,Original*
G04 #@! TF.FileFunction,Copper,L1,Top*
G04 #@! TF.FilePolarity,Positive*
%FSLAX46Y46*%
G04 Gerber Fmt 4.6, Leading zero omitted, Abs format (unit mm)*
G04 Created by KiCad (PCBNEW 8.0.5) date 2024-11-12 19:45:38*
%MOMM*%
%LPD*%
G01*
G04 APERTURE LIST*
G04 Aperture macros list*
%AMRoundRect*
0 Rectangle with rounded corners*
0 $1 Rounding radius*
0 $2 $3 $4 $5 $6 $7 $8 $9 X,Y pos of 4 corners*
0 Add a 4 corners polygon primitive as box body*
4,1,4,$2,$3,$4,$5,$6,$7,$8,$9,$2,$3,0*
0 Add four circle primitives for the rounded corners*
1,1,$1+$1,$2,$3*
1,1,$1+$1,$4,$5*
1,1,$1+$1,$6,$7*
1,1,$1+$1,$8,$9*
0 Add four rect primitives between the rounded corners*
20,1,$1+$1,$2,$3,$4,$5,0*
20,1,$1+$1,$4,$5,$6,$7,0*
20,1,$1+$1,$6,$7,$8,$9,0*
20,1,$1+$1,$8,$9,$2,$3,0*%
G04 Aperture macros list end*
G04 #@! TA.AperFunction,SMDPad,CuDef*
%ADD10RoundRect,0.228600X0.533400X0.660400X-0.533400X0.660400X-0.533400X-0.660400X0.533400X-0.660400X0*%
G04 #@! TD*
G04 #@! TA.AperFunction,SMDPad,CuDef*
%ADD11RoundRect,0.228600X-0.533400X-0.660400X0.533400X-0.660400X0.533400X0.660400X-0.533400X0.660400X0*%
G04 #@! TD*
G04 #@! TA.AperFunction,ComponentPad*
%ADD12RoundRect,0.315000X0.735000X0.735000X-0.735000X0.735000X-0.735000X-0.735000X0.735000X-0.735000X0*%
G04 #@! TD*
G04 #@! TA.AperFunction,ComponentPad*
%ADD13C,2.100000*%
G04 #@! TD*
G04 #@! TA.AperFunction,SMDPad,CuDef*
%ADD14RoundRect,0.190500X0.825500X0.444500X-0.825500X0.444500X-0.825500X-0.444500X0.825500X-0.444500X0*%
G04 #@! TD*
G04 #@! TA.AperFunction,ViaPad*
%ADD15C,0.600000*%
G04 #@! TD*
G04 #@! TA.AperFunction,Conductor*
%ADD16C,0.500000*%
G04 #@! TD*
G04 APERTURE END LIST*
D10*
X125127000Y-66600000D03*
X121825000Y-66600000D03*
X125127000Y-79200000D03*
X121825000Y-79200000D03*
X125127000Y-83400000D03*
X121825000Y-83400000D03*
D11*
X115825000Y-79200000D03*
X119127000Y-79200000D03*
X115825000Y-75000000D03*
X119127000Y-75000000D03*
X115825000Y-87600000D03*
X119127000Y-87600000D03*
X121825000Y-91800000D03*
X125127000Y-91800000D03*
X115825000Y-91800000D03*
X119127000Y-91800000D03*
X115825000Y-66600000D03*
X119127000Y-66600000D03*
D12*
X108500000Y-91800000D03*
D13*
X108500000Y-87600000D03*
X108500000Y-83400000D03*
X108500000Y-79200000D03*
X108500000Y-75000000D03*
X108500000Y-70800000D03*
X108500000Y-66600000D03*
X108500000Y-62400000D03*
X108500000Y-58200000D03*
X108500000Y-54000000D03*
X103000000Y-91800000D03*
X103000000Y-87600000D03*
X103000000Y-83400000D03*
X103000000Y-79200000D03*
X103000000Y-75000000D03*
X103000000Y-70800000D03*
X103000000Y-66600000D03*
X103000000Y-62400000D03*
X103000000Y-58200000D03*
X103000000Y-54000000D03*
D11*
X115825000Y-70800000D03*
X119127000Y-70800000D03*
X121825000Y-87600000D03*
X125127000Y-87600000D03*
D10*
X125127000Y-70800000D03*
X121825000Y-70800000D03*
X125127000Y-75000000D03*
X121825000Y-75000000D03*
D11*
X115825000Y-83400000D03*
X119127000Y-83400000D03*
D14*
X124908000Y-57250000D03*
X115942000Y-57250000D03*
X124908000Y-52750000D03*
X115942000Y-52750000D03*
D15*
X126800000Y-83400000D03*
X126800000Y-91800000D03*
X126800000Y-79200000D03*
X126800000Y-66600000D03*
X126800000Y-75000000D03*
X126800000Y-57300000D03*
X126800000Y-87600000D03*
X126800000Y-70800000D03*
X113000000Y-75000000D03*
X111000000Y-70800000D03*
D16*
X119000000Y-66600000D02*
X121952000Y-66600000D01*
X125000000Y-91800000D02*
X126800000Y-91800000D01*
X125000000Y-87600000D02*
X126800000Y-87600000D01*
X126750000Y-57250000D02*
X126800000Y-57300000D01*
X124400000Y-57250000D02*
X126750000Y-57250000D01*
X125000000Y-75000000D02*
X126800000Y-75000000D01*
X116450000Y-57250000D02*
X124400000Y-57250000D01*
X125000000Y-79200000D02*
X126800000Y-79200000D01*
X125000000Y-66600000D02*
X126800000Y-66600000D01*
X125000000Y-83400000D02*
X126800000Y-83400000D01*
X125000000Y-70800000D02*
X126800000Y-70800000D01*
X119000000Y-70800000D02*
X121952000Y-70800000D01*
X101600000Y-94600000D02*
X110000000Y-94600000D01*
X103000000Y-87600000D02*
X102500000Y-87600000D01*
X100400000Y-93400000D02*
X101600000Y-94600000D01*
X100400000Y-89700000D02*
X100400000Y-93400000D01*
X102500000Y-87600000D02*
X100400000Y-89700000D01*
X112800000Y-91800000D02*
X116152000Y-91800000D01*
X110000000Y-94600000D02*
X112800000Y-91800000D01*
X114600000Y-87600000D02*
X115876000Y-87600000D01*
X112600000Y-89600000D02*
X114600000Y-87600000D01*
X105600000Y-65000000D02*
X105600000Y-88200000D01*
X107000000Y-89600000D02*
X112600000Y-89600000D01*
X105600000Y-88200000D02*
X107000000Y-89600000D01*
X103000000Y-62400000D02*
X105600000Y-65000000D01*
X113000000Y-75000000D02*
X115952000Y-75000000D01*
X108500000Y-79200000D02*
X115876000Y-79200000D01*
X110200000Y-87600000D02*
X114400000Y-83400000D01*
X114400000Y-83400000D02*
X116076000Y-83400000D01*
X108500000Y-87600000D02*
X110200000Y-87600000D01*
X102042000Y-51208000D02*
X111108000Y-51208000D01*
X100400000Y-77600000D02*
X100400000Y-52850000D01*
X102000000Y-79200000D02*
X100400000Y-77600000D01*
X112650000Y-52750000D02*
X116450000Y-52750000D01*
X111108000Y-51208000D02*
X112650000Y-52750000D01*
X103000000Y-79200000D02*
X102000000Y-79200000D01*
X124400000Y-52750000D02*
X116450000Y-52750000D01*
X100400000Y-52850000D02*
X102042000Y-51208000D01*
X119000000Y-79200000D02*
X121952000Y-79200000D01*
X119000000Y-75000000D02*
X121952000Y-75000000D01*
X119000000Y-87600000D02*
X121952000Y-87600000D01*
X119000000Y-83400000D02*
X121952000Y-83400000D01*
X119000000Y-91800000D02*
X121952000Y-91800000D01*
X110200000Y-62400000D02*
X108500000Y-62400000D01*
X115952000Y-66600000D02*
X114400000Y-66600000D01*
X114400000Y-66600000D02*
X110200000Y-62400000D01*
X115952000Y-70800000D02*
X111000000Y-70800000D01*
G04 #@! TA.AperFunction,Conductor*
G36*
X102039083Y-87201965D02*
G01*
X102993469Y-87596302D01*
X102999806Y-87602628D01*
X103000701Y-87607123D01*
X103000006Y-88640299D01*
X102996574Y-88648570D01*
X102990465Y-88651790D01*
X101533002Y-88925477D01*
X101524239Y-88923636D01*
X101522570Y-88922251D01*
X101179955Y-88579636D01*
X101176528Y-88571363D01*
X101178297Y-88565176D01*
X101775158Y-87607123D01*
X102024687Y-87206591D01*
X102031970Y-87201382D01*
X102039083Y-87201965D01*
G37*
G04 #@! TD.AperFunction*
G04 #@! TA.AperFunction,Conductor*
G36*
X108935110Y-61451622D02*
G01*
X108936379Y-61452285D01*
X108945084Y-61457537D01*
X110611465Y-62462988D01*
X110616779Y-62470196D01*
X110615439Y-62479050D01*
X110613694Y-62481279D01*
X110272413Y-62822560D01*
X110268473Y-62825155D01*
X108912538Y-63365799D01*
X108903584Y-63365680D01*
X108897397Y-63359412D01*
X108501220Y-62403942D01*
X108501218Y-62394990D01*
X108501324Y-62394741D01*
X108919659Y-61457534D01*
X108926158Y-61451379D01*
X108935110Y-61451622D01*
G37*
G04 #@! TD.AperFunction*
G04 #@! TA.AperFunction,Conductor*
G36*
X108912540Y-78234612D02*
G01*
X108912698Y-78234679D01*
X110542985Y-78946935D01*
X110549193Y-78953386D01*
X110550000Y-78957655D01*
X110550000Y-79442344D01*
X110546573Y-79450617D01*
X110542984Y-79453065D01*
X108912737Y-80165303D01*
X108903784Y-80165475D01*
X108897332Y-80159266D01*
X108897248Y-80159069D01*
X108500863Y-79204487D01*
X108500855Y-79195532D01*
X108500863Y-79195513D01*
X108604084Y-78946934D01*
X108897249Y-78240928D01*
X108903585Y-78234604D01*
X108912540Y-78234612D01*
G37*
G04 #@! TD.AperFunction*
G04 #@! TA.AperFunction,Conductor*
G36*
X110268473Y-87174844D02*
G01*
X110272413Y-87177439D01*
X110613694Y-87518720D01*
X110617121Y-87526993D01*
X110613694Y-87535266D01*
X110611465Y-87537011D01*
X108936385Y-88547710D01*
X108927531Y-88549050D01*
X108920323Y-88543736D01*
X108919662Y-88542471D01*
X108501344Y-87605304D01*
X108501102Y-87596353D01*
X108501197Y-87596114D01*
X108897397Y-86640586D01*
X108903732Y-86634257D01*
X108912537Y-86634200D01*
X110268473Y-87174844D01*
G37*
G04 #@! TD.AperFunction*
G04 #@! TA.AperFunction,Conductor*
G36*
X103968015Y-62002740D02*
G01*
X103974341Y-62009077D01*
X103974421Y-62009276D01*
X104623551Y-63665663D01*
X104623379Y-63674616D01*
X104620931Y-63678205D01*
X104278205Y-64020931D01*
X104269932Y-64024358D01*
X104265663Y-64023551D01*
X102609276Y-63374421D01*
X102602824Y-63368212D01*
X102602652Y-63359259D01*
X102602702Y-63359132D01*
X102997439Y-62403779D01*
X103003761Y-62397446D01*
X103959061Y-62002732D01*
X103968015Y-62002740D01*
G37*
G04 #@! TD.AperFunction*
G04 #@! TA.AperFunction,Conductor*
G36*
X102995903Y-78153762D02*
G01*
X102999972Y-78161739D01*
X103000008Y-78162654D01*
X103000703Y-79195849D01*
X102997282Y-79204125D01*
X102997268Y-79204138D01*
X102266257Y-79933759D01*
X102257981Y-79937178D01*
X102249711Y-79933743D01*
X102249296Y-79933305D01*
X101081838Y-78636215D01*
X101078850Y-78627773D01*
X101082260Y-78620116D01*
X101424915Y-78277461D01*
X101432261Y-78274071D01*
X102987385Y-78150998D01*
X102995903Y-78153762D01*
G37*
G04 #@! TD.AperFunction*
G04 #@! TA.AperFunction,Conductor*
G36*
X133442539Y-50520185D02*
G01*
X133488294Y-50572989D01*
X133499500Y-50624500D01*
X133499500Y-99375500D01*
X133479815Y-99442539D01*
X133427011Y-99488294D01*
X133375500Y-99499500D01*
X99624500Y-99499500D01*
X99557461Y-99479815D01*
X99511706Y-99427011D01*
X99500500Y-99375500D01*
X99500500Y-93811969D01*
X99520185Y-93744930D01*
X99572989Y-93699175D01*
X99642147Y-93689231D01*
X99705703Y-93718256D01*
X99731440Y-93750489D01*
X99731531Y-93750429D01*
X99732241Y-93751491D01*
X99733859Y-93753518D01*
X99734914Y-93755492D01*
X99767812Y-93804727D01*
X99767813Y-93804730D01*
X99817046Y-93878414D01*
X99817052Y-93878421D01*
X101121580Y-95182948D01*
X101121584Y-95182951D01*
X101244498Y-95265080D01*
X101244511Y-95265087D01*
X101381082Y-95321656D01*
X101381087Y-95321658D01*
X101381091Y-95321658D01*
X101381092Y-95321659D01*
X101526079Y-95350500D01*
X101526082Y-95350500D01*
X110073920Y-95350500D01*
X110171462Y-95331096D01*
X110218913Y-95321658D01*
X110355495Y-95265084D01*
X110404729Y-95232186D01*
X110478416Y-95182952D01*
X113074549Y-92586819D01*
X113135872Y-92553334D01*
X113162230Y-92550500D01*
X114463829Y-92550500D01*
X114530868Y-92570185D01*
X114576623Y-92622989D01*
X114581534Y-92635494D01*
X114626313Y-92770628D01*
X114715789Y-92915692D01*
X114836308Y-93036211D01*
X114981372Y-93125687D01*
X115143160Y-93179298D01*
X115243021Y-93189500D01*
X116406978Y-93189499D01*
X116506840Y-93179298D01*
X116668628Y-93125687D01*
X116813692Y-93036211D01*
X116934211Y-92915692D01*
X117023687Y-92770628D01*
X117077298Y-92608840D01*
X117087500Y-92508979D01*
X117087499Y-91091022D01*
X117087498Y-91091013D01*
X117864500Y-91091013D01*
X117864500Y-92508971D01*
X117864501Y-92508988D01*
X117874701Y-92608839D01*
X117874702Y-92608842D01*
X117887617Y-92647816D01*
X117928313Y-92770628D01*
X118017789Y-92915692D01*
X118138308Y-93036211D01*
X118283372Y-93125687D01*
X118445160Y-93179298D01*
X118545021Y-93189500D01*
X119708978Y-93189499D01*
X119808840Y-93179298D01*
X119970628Y-93125687D01*
X120115692Y-93036211D01*
X120236211Y-92915692D01*
X120325687Y-92770628D01*
X120358294Y-92672225D01*
X120398067Y-92614781D01*
X120462583Y-92587958D01*
X120531358Y-92600273D01*
X120582558Y-92647816D01*
X120593705Y-92672225D01*
X120626313Y-92770628D01*
X120715789Y-92915692D01*
X120836308Y-93036211D01*
X120981372Y-93125687D01*
X121143160Y-93179298D01*
X121243021Y-93189500D01*
X122406978Y-93189499D01*
X122506840Y-93179298D01*
X122668628Y-93125687D01*
X122813692Y-93036211D01*
X122934211Y-92915692D01*
X123023687Y-92770628D01*
X123077298Y-92608840D01*
X123087500Y-92508979D01*
X123087500Y-92508956D01*
X123865001Y-92508956D01*
X123875195Y-92608740D01*
X123928768Y-92770413D01*
X123928770Y-92770418D01*
X124018185Y-92915381D01*
X124138618Y-93035814D01*
X124283581Y-93125229D01*
X124283588Y-93125232D01*
X124445263Y-93178805D01*
X124445262Y-93178805D01*
X124545049Y-93188999D01*
X124876999Y-93188999D01*
X125377000Y-93188999D01*
X125708942Y-93188999D01*
X125708956Y-93188998D01*
X125808740Y-93178804D01*
X125970413Y-93125231D01*
X125970418Y-93125229D01*
X126115381Y-93035814D01*
X126235814Y-92915381D01*
X126325229Y-92770418D01*
X126325232Y-92770411D01*
X126378805Y-92608737D01*
X126388999Y-92508956D01*
X126389000Y-92508943D01*
X126389000Y-92050000D01*
X125377000Y-92050000D01*
X125377000Y-93188999D01*
X124876999Y-93188999D01*
X124877000Y-93188998D01*
X124877000Y-92050000D01*
X123865001Y-92050000D01*
X123865001Y-92508956D01*
X123087500Y-92508956D01*
X123087499Y-91091043D01*
X123865000Y-91091043D01*
X123865000Y-91550000D01*
X124877000Y-91550000D01*
X125377000Y-91550000D01*
X126388999Y-91550000D01*
X126388999Y-91091058D01*
X126388998Y-91091043D01*
X126378804Y-90991259D01*
X126325231Y-90829586D01*
X126325229Y-90829581D01*
X126235814Y-90684618D01*
X126115381Y-90564185D01*
X125970418Y-90474770D01*
X125970411Y-90474767D01*
X125808736Y-90421194D01*
X125808737Y-90421194D01*
X125708956Y-90411000D01*
X125377000Y-90411000D01*
X125377000Y-91550000D01*
X124877000Y-91550000D01*
X124877000Y-90411000D01*
X124545058Y-90411000D01*
X124545042Y-90411001D01*
X124445259Y-90421195D01*
X124283586Y-90474768D01*
X124283581Y-90474770D01*
X124138618Y-90564185D01*
X124018185Y-90684618D01*
X123928770Y-90829581D01*
X123928767Y-90829588D01*
X123875194Y-90991262D01*
X123865000Y-91091043D01*
X123087499Y-91091043D01*
X123087499Y-91091022D01*
X123083257Y-91049500D01*
X123077298Y-90991160D01*
X123077297Y-90991157D01*
X123056294Y-90927774D01*
X123023687Y-90829372D01*
X122934211Y-90684308D01*
X122813692Y-90563789D01*
X122668628Y-90474313D01*
X122506840Y-90420702D01*
X122506833Y-90420701D01*
X122406980Y-90410500D01*
X121243028Y-90410500D01*
X121243011Y-90410501D01*
X121143160Y-90420701D01*
X121143157Y-90420702D01*
X120981374Y-90474312D01*
X120981369Y-90474314D01*
X120836306Y-90563790D01*
X120715790Y-90684306D01*
X120626314Y-90829369D01*
X120626313Y-90829372D01*
X120593706Y-90927774D01*
X120553933Y-90985218D01*
X120489417Y-91012041D01*
X120420641Y-90999726D01*
X120369441Y-90952183D01*
X120358294Y-90927774D01*
X120325687Y-90829372D01*
X120236211Y-90684308D01*
X120115692Y-90563789D01*
X119970628Y-90474313D01*
X119808840Y-90420702D01*
X119808833Y-90420701D01*
X119708980Y-90410500D01*
X118545028Y-90410500D01*
X118545011Y-90410501D01*
X118445160Y-90420701D01*
X118445157Y-90420702D01*
X118283374Y-90474312D01*
X118283369Y-90474314D01*
X118138306Y-90563790D01*
X118017790Y-90684306D01*
X117928314Y-90829369D01*
X117928312Y-90829374D01*
X117874702Y-90991159D01*
X117874701Y-90991166D01*
X117864500Y-91091013D01*
X117087498Y-91091013D01*
X117083257Y-91049500D01*
X117077298Y-90991160D01*
X117077297Y-90991157D01*
X117056294Y-90927774D01*
X117023687Y-90829372D01*
X116934211Y-90684308D01*
X116813692Y-90563789D01*
X116668628Y-90474313D01*
X116506840Y-90420702D01*
X116506833Y-90420701D01*
X116406980Y-90410500D01*
X115243028Y-90410500D01*
X115243011Y-90410501D01*
X115143160Y-90420701D01*
X115143157Y-90420702D01*
X114981374Y-90474312D01*
X114981369Y-90474314D01*
X114836306Y-90563790D01*
X114715790Y-90684306D01*
X114626314Y-90829369D01*
X114626312Y-90829374D01*
X114581535Y-90964504D01*
X114541762Y-91021949D01*
X114477247Y-91048772D01*
X114463829Y-91049500D01*
X112726080Y-91049500D01*
X112581092Y-91078340D01*
X112581086Y-91078342D01*
X112444508Y-91134914D01*
X112444496Y-91134921D01*
X112395269Y-91167813D01*
X112321588Y-91217044D01*
X112321580Y-91217050D01*
X109725451Y-93813181D01*
X109664128Y-93846666D01*
X109637770Y-93849500D01*
X101962229Y-93849500D01*
X101895190Y-93829815D01*
X101874548Y-93813181D01*
X101186819Y-93125451D01*
X101153334Y-93064128D01*
X101150500Y-93037770D01*
X101150500Y-91800000D01*
X101444706Y-91800000D01*
X101463853Y-92043297D01*
X101520830Y-92280619D01*
X101614222Y-92506089D01*
X101741737Y-92714173D01*
X101741738Y-92714176D01*
X101789768Y-92770411D01*
X101900241Y-92899759D01*
X102043897Y-93022453D01*
X102085823Y-93058261D01*
X102085826Y-93058262D01*
X102293910Y-93185777D01*
X102475347Y-93260930D01*
X102507838Y-93274388D01*
X102519381Y-93279169D01*
X102519378Y-93279169D01*
X102519384Y-93279170D01*
X102519388Y-93279172D01*
X102756698Y-93336146D01*
X103000000Y-93355294D01*
X103243302Y-93336146D01*
X103480612Y-93279172D01*
X103706089Y-93185777D01*
X103914179Y-93058259D01*
X104099759Y-92899759D01*
X104258259Y-92714179D01*
X104385777Y-92506089D01*
X104479172Y-92280612D01*
X104536146Y-92043302D01*
X104555294Y-91800000D01*
X104536146Y-91556698D01*
X104479172Y-91319388D01*
X104479169Y-91319380D01*
X104385777Y-91093910D01*
X104258262Y-90885826D01*
X104258261Y-90885823D01*
X104222453Y-90843897D01*
X104099759Y-90700241D01*
X103927748Y-90553330D01*
X103914176Y-90541738D01*
X103914173Y-90541737D01*
X103706089Y-90414222D01*
X103480618Y-90320830D01*
X103480621Y-90320830D01*
X103374992Y-90295470D01*
X103243302Y-90263854D01*
X103243300Y-90263853D01*
X103243297Y-90263853D01*
X103000000Y-90244706D01*
X102756702Y-90263853D01*
X102519380Y-90320830D01*
X102293910Y-90414222D01*
X102085826Y-90541737D01*
X102085823Y-90541738D01*
X101900241Y-90700241D01*
X101741738Y-90885823D01*
X101741737Y-90885826D01*
X101614222Y-91093910D01*
X101520830Y-91319380D01*
X101463853Y-91556702D01*
X101444706Y-91800000D01*
X101150500Y-91800000D01*
X101150500Y-90062228D01*
X101170185Y-89995189D01*
X101186815Y-89974551D01*
X101738037Y-89423328D01*
X101799358Y-89389845D01*
X101802778Y-89389151D01*
X103076358Y-89149995D01*
X103089487Y-89148250D01*
X103243302Y-89136146D01*
X103480612Y-89079172D01*
X103706089Y-88985777D01*
X103914179Y-88858259D01*
X104099759Y-88699759D01*
X104258259Y-88514179D01*
X104385777Y-88306089D01*
X104479172Y-88080612D01*
X104536146Y-87843302D01*
X104555294Y-87600000D01*
X104536146Y-87356698D01*
X104479172Y-87119388D01*
X104436782Y-87017048D01*
X104385777Y-86893910D01*
X104258262Y-86685826D01*
X104258261Y-86685823D01*
X104222453Y-86643897D01*
X104099759Y-86500241D01*
X103939994Y-86363789D01*
X103914176Y-86341738D01*
X103914173Y-86341737D01*
X103706089Y-86214222D01*
X103480618Y-86120830D01*
X103480621Y-86120830D01*
X103374992Y-86095470D01*
X103243302Y-86063854D01*
X103243300Y-86063853D01*
X103243297Y-86063853D01*
X103000000Y-86044706D01*
X102756702Y-86063853D01*
X102519380Y-86120830D01*
X102293910Y-86214222D01*
X102085826Y-86341737D01*
X102085823Y-86341738D01*
X101900241Y-86500241D01*
X101741738Y-86685823D01*
X101741737Y-86685826D01*
X101614226Y-86893904D01*
X101614223Y-86893910D01*
X101598912Y-86930873D01*
X101589599Y-86948985D01*
X101346108Y-87339828D01*
X101346107Y-87339828D01*
X100770797Y-88263285D01*
X100753232Y-88285398D01*
X99817048Y-89221583D01*
X99797570Y-89250734D01*
X99778222Y-89279693D01*
X99734914Y-89344506D01*
X99733859Y-89346481D01*
X99733033Y-89347321D01*
X99731531Y-89349570D01*
X99731104Y-89349285D01*
X99684898Y-89396326D01*
X99616761Y-89411788D01*
X99551080Y-89387958D01*
X99508711Y-89332401D01*
X99500500Y-89288030D01*
X99500500Y-83400000D01*
X101445207Y-83400000D01*
X101464348Y-83643219D01*
X101521303Y-83880457D01*
X101614668Y-84105861D01*
X101738504Y-84307941D01*
X102360689Y-83685755D01*
X102379668Y-83731574D01*
X102456274Y-83846224D01*
X102553776Y-83943726D01*
X102668426Y-84020332D01*
X102714242Y-84039309D01*
X102092057Y-84661494D01*
X102294138Y-84785331D01*
X102519542Y-84878696D01*
X102756780Y-84935651D01*
X102756779Y-84935651D01*
X103000000Y-84954792D01*
X103243219Y-84935651D01*
X103480457Y-84878696D01*
X103705861Y-84785331D01*
X103907941Y-84661495D01*
X103907941Y-84661494D01*
X103285757Y-84039309D01*
X103331574Y-84020332D01*
X103446224Y-83943726D01*
X103543726Y-83846224D01*
X103620332Y-83731574D01*
X103639309Y-83685756D01*
X104261494Y-84307941D01*
X104261495Y-84307941D01*
X104385331Y-84105861D01*
X104478696Y-83880457D01*
X104535651Y-83643219D01*
X104554792Y-83400000D01*
X104535651Y-83156780D01*
X104478696Y-82919542D01*
X104385331Y-82694138D01*
X104261494Y-82492057D01*
X103639309Y-83114242D01*
X103620332Y-83068426D01*
X103543726Y-82953776D01*
X103446224Y-82856274D01*
X103331574Y-82779668D01*
X103285756Y-82760689D01*
X103907941Y-82138504D01*
X103705861Y-82014668D01*
X103480457Y-81921303D01*
X103243219Y-81864348D01*
X103243220Y-81864348D01*
X103000000Y-81845207D01*
X102756780Y-81864348D01*
X102519542Y-81921303D01*
X102294138Y-82014668D01*
X102092057Y-82138504D01*
X102714243Y-82760689D01*
X102668426Y-82779668D01*
X102553776Y-82856274D01*
X102456274Y-82953776D01*
X102379668Y-83068426D01*
X102360690Y-83114243D01*
X101738504Y-82492057D01*
X101614668Y-82694138D01*
X101521303Y-82919542D01*
X101464348Y-83156780D01*
X101445207Y-83400000D01*
X99500500Y-83400000D01*
X99500500Y-78011969D01*
X99520185Y-77944930D01*
X99572989Y-77899175D01*
X99642147Y-77889231D01*
X99705703Y-77918256D01*
X99731446Y-77950494D01*
X99731535Y-77950435D01*
X99732231Y-77951476D01*
X99733857Y-77953513D01*
X99734919Y-77955501D01*
X99740458Y-77963790D01*
X99817049Y-78078418D01*
X99817052Y-78078421D01*
X100683521Y-78944889D01*
X100698873Y-78963576D01*
X100706114Y-78974389D01*
X101547307Y-79908986D01*
X101873605Y-80271516D01*
X101882356Y-80280991D01*
X101882753Y-80281410D01*
X101882754Y-80281411D01*
X101882758Y-80281414D01*
X101882764Y-80281421D01*
X101885989Y-80284400D01*
X101896117Y-80294932D01*
X101900239Y-80299757D01*
X101900241Y-80299759D01*
X101924662Y-80320616D01*
X101929839Y-80325038D01*
X101933364Y-80328170D01*
X101935535Y-80329903D01*
X102085821Y-80458259D01*
X102085823Y-80458260D01*
X102085824Y-80458261D01*
X102085826Y-80458262D01*
X102293910Y-80585777D01*
X102519381Y-80679169D01*
X102519378Y-80679169D01*
X102519384Y-80679170D01*
X102519388Y-80679172D01*
X102756698Y-80736146D01*
X103000000Y-80755294D01*
X103243302Y-80736146D01*
X103480612Y-80679172D01*
X103706089Y-80585777D01*
X103914179Y-80458259D01*
X104099759Y-80299759D01*
X104258259Y-80114179D01*
X104385777Y-79906089D01*
X104479172Y-79680612D01*
X104536146Y-79443302D01*
X104555294Y-79200000D01*
X104536146Y-78956698D01*
X104479172Y-78719388D01*
X104385777Y-78493911D01*
X104385777Y-78493910D01*
X104258262Y-78285826D01*
X104258261Y-78285823D01*
X104222453Y-78243897D01*
X104099759Y-78100241D01*
X103930283Y-77955495D01*
X103914176Y-77941738D01*
X103914173Y-77941737D01*
X103706089Y-77814222D01*
X103480618Y-77720830D01*
X103480621Y-77720830D01*
X103374992Y-77695470D01*
X103243302Y-77663854D01*
X103243300Y-77663853D01*
X103243297Y-77663853D01*
X103068171Y-77650071D01*
X103000000Y-77644706D01*
X102999998Y-77644706D01*
X102999997Y-77644706D01*
X102968679Y-77647170D01*
X102951059Y-77647300D01*
X102947511Y-77647073D01*
X101670995Y-77748096D01*
X101602611Y-77733761D01*
X101573531Y-77712163D01*
X101186819Y-77325451D01*
X101153334Y-77264128D01*
X101150500Y-77237770D01*
X101150500Y-75000000D01*
X101445207Y-75000000D01*
X101464348Y-75243219D01*
X101521303Y-75480457D01*
X101614668Y-75705861D01*
X101738504Y-75907941D01*
X102360689Y-75285755D01*
X102379668Y-75331574D01*
X102456274Y-75446224D01*
X102553776Y-75543726D01*
X102668426Y-75620332D01*
X102714242Y-75639309D01*
X102092057Y-76261494D01*
X102294138Y-76385331D01*
X102519542Y-76478696D01*
X102756780Y-76535651D01*
X102756779Y-76535651D01*
X103000000Y-76554792D01*
X103243219Y-76535651D01*
X103480457Y-76478696D01*
X103705861Y-76385331D01*
X103907941Y-76261495D01*
X103907941Y-76261494D01*
X103285757Y-75639309D01*
X103331574Y-75620332D01*
X103446224Y-75543726D01*
X103543726Y-75446224D01*
X103620332Y-75331574D01*
X103639309Y-75285756D01*
X104261494Y-75907941D01*
X104261495Y-75907941D01*
X104385331Y-75705861D01*
X104478696Y-75480457D01*
X104535651Y-75243219D01*
X104554792Y-75000000D01*
X104535651Y-74756780D01*
X104478696Y-74519542D01*
X104385331Y-74294138D01*
X104261494Y-74092057D01*
X103639309Y-74714242D01*
X103620332Y-74668426D01*
X103543726Y-74553776D01*
X103446224Y-74456274D01*
X103331574Y-74379668D01*
X103285756Y-74360689D01*
X103907941Y-73738504D01*
X103705861Y-73614668D01*
X103480457Y-73521303D01*
X103243219Y-73464348D01*
X103243220Y-73464348D01*
X103000000Y-73445207D01*
X102756780Y-73464348D01*
X102519542Y-73521303D01*
X102294138Y-73614668D01*
X102092057Y-73738504D01*
X102714243Y-74360689D01*
X102668426Y-74379668D01*
X102553776Y-74456274D01*
X102456274Y-74553776D01*
X102379668Y-74668426D01*
X102360690Y-74714243D01*
X101738504Y-74092057D01*
X101614668Y-74294138D01*
X101521303Y-74519542D01*
X101464348Y-74756780D01*
X101445207Y-75000000D01*
X101150500Y-75000000D01*
X101150500Y-70800000D01*
X101445207Y-70800000D01*
X101464348Y-71043219D01*
X101521303Y-71280457D01*
X101614668Y-71505861D01*
X101738504Y-71707941D01*
X102360689Y-71085755D01*
X102379668Y-71131574D01*
X102456274Y-71246224D01*
X102553776Y-71343726D01*
X102668426Y-71420332D01*
X102714242Y-71439309D01*
X102092057Y-72061494D01*
X102294138Y-72185331D01*
X102519542Y-72278696D01*
X102756780Y-72335651D01*
X102756779Y-72335651D01*
X103000000Y-72354792D01*
X103243219Y-72335651D01*
X103480457Y-72278696D01*
X103705861Y-72185331D01*
X103907941Y-72061495D01*
X103907941Y-72061494D01*
X103285757Y-71439309D01*
X103331574Y-71420332D01*
X103446224Y-71343726D01*
X103543726Y-71246224D01*
X103620332Y-71131574D01*
X103639309Y-71085756D01*
X104261494Y-71707941D01*
X104261495Y-71707941D01*
X104385331Y-71505861D01*
X104478696Y-71280457D01*
X104535651Y-71043219D01*
X104554792Y-70800000D01*
X104535651Y-70556780D01*
X104478696Y-70319542D01*
X104385331Y-70094138D01*
X104261494Y-69892057D01*
X103639309Y-70514242D01*
X103620332Y-70468426D01*
X103543726Y-70353776D01*
X103446224Y-70256274D01*
X103331574Y-70179668D01*
X103285756Y-70160689D01*
X103907941Y-69538504D01*
X103705861Y-69414668D01*
X103480457Y-69321303D01*
X103243219Y-69264348D01*
X103243220Y-69264348D01*
X103000000Y-69245207D01*
X102756780Y-69264348D01*
X102519542Y-69321303D01*
X102294138Y-69414668D01*
X102092057Y-69538504D01*
X102714243Y-70160689D01*
X102668426Y-70179668D01*
X102553776Y-70256274D01*
X102456274Y-70353776D01*
X102379668Y-70468426D01*
X102360690Y-70514243D01*
X101738504Y-69892057D01*
X101614668Y-70094138D01*
X101521303Y-70319542D01*
X101464348Y-70556780D01*
X101445207Y-70800000D01*
X101150500Y-70800000D01*
X101150500Y-66600000D01*
X101445207Y-66600000D01*
X101464348Y-66843219D01*
X101521303Y-67080457D01*
X101614668Y-67305861D01*
X101738504Y-67507941D01*
X102360689Y-66885755D01*
X102379668Y-66931574D01*
X102456274Y-67046224D01*
X102553776Y-67143726D01*
X102668426Y-67220332D01*
X102714242Y-67239309D01*
X102092057Y-67861494D01*
X102294138Y-67985331D01*
X102519542Y-68078696D01*
X102756780Y-68135651D01*
X102756779Y-68135651D01*
X103000000Y-68154792D01*
X103243219Y-68135651D01*
X103480457Y-68078696D01*
X103705861Y-67985331D01*
X103907941Y-67861495D01*
X103907941Y-67861494D01*
X103285757Y-67239309D01*
X103331574Y-67220332D01*
X103446224Y-67143726D01*
X103543726Y-67046224D01*
X103620332Y-66931574D01*
X103639309Y-66885756D01*
X104261494Y-67507941D01*
X104261495Y-67507941D01*
X104385331Y-67305861D01*
X104478696Y-67080457D01*
X104535651Y-66843219D01*
X104554792Y-66600000D01*
X104535651Y-66356780D01*
X104478696Y-66119542D01*
X104385331Y-65894138D01*
X104261494Y-65692057D01*
X103639309Y-66314242D01*
X103620332Y-66268426D01*
X103543726Y-66153776D01*
X103446224Y-66056274D01*
X103331574Y-65979668D01*
X103285756Y-65960689D01*
X103907941Y-65338504D01*
X103705861Y-65214668D01*
X103480457Y-65121303D01*
X103243219Y-65064348D01*
X103243220Y-65064348D01*
X103000000Y-65045207D01*
X102756780Y-65064348D01*
X102519542Y-65121303D01*
X102294138Y-65214668D01*
X102092057Y-65338504D01*
X102714243Y-65960689D01*
X102668426Y-65979668D01*
X102553776Y-66056274D01*
X102456274Y-66153776D01*
X102379668Y-66268426D01*
X102360690Y-66314243D01*
X101738504Y-65692057D01*
X101614668Y-65894138D01*
X101521303Y-66119542D01*
X101464348Y-66356780D01*
X101445207Y-66600000D01*
X101150500Y-66600000D01*
X101150500Y-62400000D01*
X101444706Y-62400000D01*
X101463853Y-62643297D01*
X101520830Y-62880619D01*
X101614222Y-63106089D01*
X101741737Y-63314173D01*
X101741738Y-63314176D01*
X101741741Y-63314179D01*
X101900241Y-63499759D01*
X102043897Y-63622453D01*
X102085823Y-63658261D01*
X102085825Y-63658261D01*
X102293911Y-63785777D01*
X102384746Y-63823401D01*
X102398497Y-63830121D01*
X102424831Y-63845070D01*
X103977533Y-64453565D01*
X104019968Y-64481335D01*
X104813181Y-65274548D01*
X104846666Y-65335871D01*
X104849500Y-65362229D01*
X104849500Y-88273918D01*
X104849500Y-88273920D01*
X104849499Y-88273920D01*
X104878340Y-88418907D01*
X104878343Y-88418917D01*
X104934913Y-88555490D01*
X104934918Y-88555499D01*
X104945028Y-88570629D01*
X104945030Y-88570631D01*
X105017051Y-88678420D01*
X105017052Y-88678421D01*
X106521584Y-90182952D01*
X106521586Y-90182954D01*
X106551058Y-90202645D01*
X106595270Y-90232186D01*
X106644505Y-90265084D01*
X106644506Y-90265084D01*
X106644507Y-90265085D01*
X106644509Y-90265086D01*
X106779083Y-90320828D01*
X106781087Y-90321658D01*
X106781091Y-90321658D01*
X106781092Y-90321659D01*
X106926079Y-90350500D01*
X106926082Y-90350500D01*
X106926083Y-90350500D01*
X107027643Y-90350500D01*
X107094682Y-90370185D01*
X107140437Y-90422989D01*
X107150381Y-90492147D01*
X107126612Y-90547132D01*
X107127087Y-90547431D01*
X107125153Y-90550508D01*
X107124588Y-90551816D01*
X107123379Y-90553330D01*
X107025611Y-90708927D01*
X106964914Y-90882391D01*
X106949500Y-91019199D01*
X106949500Y-92580800D01*
X106964914Y-92717608D01*
X107025611Y-92891072D01*
X107116559Y-93035814D01*
X107123382Y-93046673D01*
X107253327Y-93176618D01*
X107408929Y-93274389D01*
X107582386Y-93335084D01*
X107582389Y-93335084D01*
X107582391Y-93335085D01*
X107650795Y-93342792D01*
X107719199Y-93350499D01*
X107719200Y-93350500D01*
X107719204Y-93350500D01*
X109280800Y-93350500D01*
X109280800Y-93350499D01*
X109366856Y-93340803D01*
X109417608Y-93335085D01*
X109417609Y-93335084D01*
X109417614Y-93335084D01*
X109591071Y-93274389D01*
X109746673Y-93176618D01*
X109876618Y-93046673D01*
X109974389Y-92891071D01*
X110035084Y-92717614D01*
X110035472Y-92714176D01*
X110040803Y-92666856D01*
X110050500Y-92580796D01*
X110050500Y-91019204D01*
X110035472Y-90885826D01*
X110035085Y-90882391D01*
X110035084Y-90882389D01*
X110035084Y-90882386D01*
X109974389Y-90708929D01*
X109959113Y-90684618D01*
X109876620Y-90553330D01*
X109875412Y-90551816D01*
X109874936Y-90550651D01*
X109872913Y-90547431D01*
X109873477Y-90547076D01*
X109849002Y-90487130D01*
X109861756Y-90418434D01*
X109909625Y-90367539D01*
X109972357Y-90350500D01*
X112673920Y-90350500D01*
X112771462Y-90331096D01*
X112818913Y-90321658D01*
X112955495Y-90265084D01*
X113004729Y-90232186D01*
X113004734Y-90232183D01*
X113029071Y-90215921D01*
X113078416Y-90182952D01*
X114543052Y-88718313D01*
X114604373Y-88684830D01*
X114674064Y-88689814D01*
X114718412Y-88718315D01*
X114836308Y-88836211D01*
X114981372Y-88925687D01*
X115143160Y-88979298D01*
X115243021Y-88989500D01*
X116406978Y-88989499D01*
X116506840Y-88979298D01*
X116668628Y-88925687D01*
X116813692Y-88836211D01*
X116934211Y-88715692D01*
X117023687Y-88570628D01*
X117077298Y-88408840D01*
X117087500Y-88308979D01*
X117087499Y-86891022D01*
X117087498Y-86891013D01*
X117864500Y-86891013D01*
X117864500Y-88308971D01*
X117864501Y-88308988D01*
X117874701Y-88408839D01*
X117874702Y-88408842D01*
X117895706Y-88472226D01*
X117928313Y-88570628D01*
X118017789Y-88715692D01*
X118138308Y-88836211D01*
X118283372Y-88925687D01*
X118445160Y-88979298D01*
X118545021Y-88989500D01*
X119708978Y-88989499D01*
X119808840Y-88979298D01*
X119970628Y-88925687D01*
X120115692Y-88836211D01*
X120236211Y-88715692D01*
X120325687Y-88570628D01*
X120358294Y-88472225D01*
X120398067Y-88414781D01*
X120462583Y-88387958D01*
X120531358Y-88400273D01*
X120582558Y-88447816D01*
X120593705Y-88472225D01*
X120626313Y-88570628D01*
X120715789Y-88715692D01*
X120836308Y-88836211D01*
X120981372Y-88925687D01*
X121143160Y-88979298D01*
X121243021Y-88989500D01*
X122406978Y-88989499D01*
X122506840Y-88979298D01*
X122668628Y-88925687D01*
X122813692Y-88836211D01*
X122934211Y-88715692D01*
X123023687Y-88570628D01*
X123077298Y-88408840D01*
X123087500Y-88308979D01*
X123087500Y-88308956D01*
X123865001Y-88308956D01*
X123875195Y-88408740D01*
X123928768Y-88570413D01*
X123928770Y-88570418D01*
X124018185Y-88715381D01*
X124138618Y-88835814D01*
X124283581Y-88925229D01*
X124283588Y-88925232D01*
X124445263Y-88978805D01*
X124445262Y-88978805D01*
X124545049Y-88988999D01*
X124876999Y-88988999D01*
X125377000Y-88988999D01*
X125708942Y-88988999D01*
X125708956Y-88988998D01*
X125808740Y-88978804D01*
X125970413Y-88925231D01*
X125970418Y-88925229D01*
X126115381Y-88835814D01*
X126235814Y-88715381D01*
X126325229Y-88570418D01*
X126325232Y-88570411D01*
X126378805Y-88408737D01*
X126388999Y-88308956D01*
X126389000Y-88308943D01*
X126389000Y-87850000D01*
X125377000Y-87850000D01*
X125377000Y-88988999D01*
X124876999Y-88988999D01*
X124877000Y-88988998D01*
X124877000Y-87850000D01*
X123865001Y-87850000D01*
X123865001Y-88308956D01*
X123087500Y-88308956D01*
X123087499Y-86891043D01*
X123865000Y-86891043D01*
X123865000Y-87350000D01*
X124877000Y-87350000D01*
X125377000Y-87350000D01*
X126388999Y-87350000D01*
X126388999Y-86891058D01*
X126388998Y-86891043D01*
X126378804Y-86791259D01*
X126325231Y-86629586D01*
X126325229Y-86629581D01*
X126235814Y-86484618D01*
X126115381Y-86364185D01*
X125970418Y-86274770D01*
X125970411Y-86274767D01*
X125808736Y-86221194D01*
X125808737Y-86221194D01*
X125708956Y-86211000D01*
X125377000Y-86211000D01*
X125377000Y-87350000D01*
X124877000Y-87350000D01*
X124877000Y-86211000D01*
X124545058Y-86211000D01*
X124545042Y-86211001D01*
X124445259Y-86221195D01*
X124283586Y-86274768D01*
X124283581Y-86274770D01*
X124138618Y-86364185D01*
X124018185Y-86484618D01*
X123928770Y-86629581D01*
X123928767Y-86629588D01*
X123875194Y-86791262D01*
X123865000Y-86891043D01*
X123087499Y-86891043D01*
X123087499Y-86891022D01*
X123083257Y-86849500D01*
X123077298Y-86791160D01*
X123077297Y-86791157D01*
X123056294Y-86727774D01*
X123023687Y-86629372D01*
X122934211Y-86484308D01*
X122813692Y-86363789D01*
X122668628Y-86274313D01*
X122506840Y-86220702D01*
X122506833Y-86220701D01*
X122406980Y-86210500D01*
X121243028Y-86210500D01*
X121243011Y-86210501D01*
X121143160Y-86220701D01*
X121143157Y-86220702D01*
X120981374Y-86274312D01*
X120981369Y-86274314D01*
X120836306Y-86363790D01*
X120715790Y-86484306D01*
X120626314Y-86629369D01*
X120626313Y-86629372D01*
X120593706Y-86727774D01*
X120553933Y-86785218D01*
X120489417Y-86812041D01*
X120420641Y-86799726D01*
X120369441Y-86752183D01*
X120358294Y-86727774D01*
X120325687Y-86629372D01*
X120236211Y-86484308D01*
X120115692Y-86363789D01*
X119970628Y-86274313D01*
X119808840Y-86220702D01*
X119808833Y-86220701D01*
X119708980Y-86210500D01*
X118545028Y-86210500D01*
X118545011Y-86210501D01*
X118445160Y-86220701D01*
X118445157Y-86220702D01*
X118283374Y-86274312D01*
X118283369Y-86274314D01*
X118138306Y-86363790D01*
X118017790Y-86484306D01*
X117928314Y-86629369D01*
X117928312Y-86629374D01*
X117874702Y-86791159D01*
X117874701Y-86791166D01*
X117864500Y-86891013D01*
X117087498Y-86891013D01*
X117083257Y-86849500D01*
X117077298Y-86791160D01*
X117077297Y-86791157D01*
X117056294Y-86727774D01*
X117023687Y-86629372D01*
X116934211Y-86484308D01*
X116813692Y-86363789D01*
X116668628Y-86274313D01*
X116506840Y-86220702D01*
X116506833Y-86220701D01*
X116406980Y-86210500D01*
X115243028Y-86210500D01*
X115243011Y-86210501D01*
X115143160Y-86220701D01*
X115143157Y-86220702D01*
X114981374Y-86274312D01*
X114981369Y-86274314D01*
X114836306Y-86363790D01*
X114715790Y-86484306D01*
X114626314Y-86629369D01*
X114626313Y-86629372D01*
X114578003Y-86775161D01*
X114538230Y-86832605D01*
X114484489Y-86857773D01*
X114381092Y-86878340D01*
X114381082Y-86878343D01*
X114244511Y-86934912D01*
X114244498Y-86934919D01*
X114121584Y-87017048D01*
X114121580Y-87017051D01*
X112325451Y-88813181D01*
X112264128Y-88846666D01*
X112237770Y-88849500D01*
X109860225Y-88849500D01*
X109793186Y-88829815D01*
X109747431Y-88777011D01*
X109737487Y-88707853D01*
X109766512Y-88644297D01*
X109796165Y-88619329D01*
X110212161Y-88368329D01*
X110268023Y-88352781D01*
X110267858Y-88351097D01*
X110273920Y-88350500D01*
X110371462Y-88331096D01*
X110418913Y-88321658D01*
X110555495Y-88265084D01*
X110609201Y-88229199D01*
X110609201Y-88229198D01*
X110609203Y-88229198D01*
X110643808Y-88206075D01*
X110678416Y-88182952D01*
X114463702Y-84397664D01*
X114525023Y-84364181D01*
X114594715Y-84369165D01*
X114650648Y-84411037D01*
X114656919Y-84420250D01*
X114715786Y-84515688D01*
X114715789Y-84515692D01*
X114836308Y-84636211D01*
X114981372Y-84725687D01*
X115143160Y-84779298D01*
X115243021Y-84789500D01*
X116406978Y-84789499D01*
X116506840Y-84779298D01*
X116668628Y-84725687D01*
X116813692Y-84636211D01*
X116934211Y-84515692D01*
X117023687Y-84370628D01*
X117077298Y-84208840D01*
X117087500Y-84108979D01*
X117087499Y-82691022D01*
X117087498Y-82691013D01*
X117864500Y-82691013D01*
X117864500Y-84108971D01*
X117864501Y-84108988D01*
X117874701Y-84208839D01*
X117874702Y-84208842D01*
X117926177Y-84364181D01*
X117928313Y-84370628D01*
X118017789Y-84515692D01*
X118138308Y-84636211D01*
X118283372Y-84725687D01*
X118445160Y-84779298D01*
X118545021Y-84789500D01*
X119708978Y-84789499D01*
X119808840Y-84779298D01*
X119970628Y-84725687D01*
X120115692Y-84636211D01*
X120236211Y-84515692D01*
X120325687Y-84370628D01*
X120358294Y-84272225D01*
X120398067Y-84214781D01*
X120462583Y-84187958D01*
X120531358Y-84200273D01*
X120582558Y-84247816D01*
X120593705Y-84272225D01*
X120626313Y-84370628D01*
X120715789Y-84515692D01*
X120836308Y-84636211D01*
X120981372Y-84725687D01*
X121143160Y-84779298D01*
X121243021Y-84789500D01*
X122406978Y-84789499D01*
X122506840Y-84779298D01*
X122668628Y-84725687D01*
X122813692Y-84636211D01*
X122934211Y-84515692D01*
X123023687Y-84370628D01*
X123077298Y-84208840D01*
X123087500Y-84108979D01*
X123087500Y-84108956D01*
X123865001Y-84108956D01*
X123875195Y-84208740D01*
X123928768Y-84370413D01*
X123928770Y-84370418D01*
X124018185Y-84515381D01*
X124138618Y-84635814D01*
X124283581Y-84725229D01*
X124283588Y-84725232D01*
X124445263Y-84778805D01*
X124445262Y-84778805D01*
X124545049Y-84788999D01*
X124876999Y-84788999D01*
X125377000Y-84788999D01*
X125708942Y-84788999D01*
X125708956Y-84788998D01*
X125808740Y-84778804D01*
X125970413Y-84725231D01*
X125970418Y-84725229D01*
X126115381Y-84635814D01*
X126235814Y-84515381D01*
X126325229Y-84370418D01*
X126325232Y-84370411D01*
X126378805Y-84208737D01*
X126388999Y-84108956D01*
X126389000Y-84108943D01*
X126389000Y-83650000D01*
X125377000Y-83650000D01*
X125377000Y-84788999D01*
X124876999Y-84788999D01*
X124877000Y-84788998D01*
X124877000Y-83650000D01*
X123865001Y-83650000D01*
X123865001Y-84108956D01*
X123087500Y-84108956D01*
X123087499Y-82691043D01*
X123865000Y-82691043D01*
X123865000Y-83150000D01*
X124877000Y-83150000D01*
X125377000Y-83150000D01*
X126388999Y-83150000D01*
X126388999Y-82691058D01*
X126388998Y-82691043D01*
X126378804Y-82591259D01*
X126325231Y-82429586D01*
X126325229Y-82429581D01*
X126235814Y-82284618D01*
X126115381Y-82164185D01*
X125970418Y-82074770D01*
X125970411Y-82074767D01*
X125808736Y-82021194D01*
X125808737Y-82021194D01*
X125708956Y-82011000D01*
X125377000Y-82011000D01*
X125377000Y-83150000D01*
X124877000Y-83150000D01*
X124877000Y-82011000D01*
X124545058Y-82011000D01*
X124545042Y-82011001D01*
X124445259Y-82021195D01*
X124283586Y-82074768D01*
X124283581Y-82074770D01*
X124138618Y-82164185D01*
X124018185Y-82284618D01*
X123928770Y-82429581D01*
X123928767Y-82429588D01*
X123875194Y-82591262D01*
X123865000Y-82691043D01*
X123087499Y-82691043D01*
X123087499Y-82691022D01*
X123083257Y-82649500D01*
X123077298Y-82591160D01*
X123077297Y-82591157D01*
X123056294Y-82527774D01*
X123023687Y-82429372D01*
X122934211Y-82284308D01*
X122813692Y-82163789D01*
X122668628Y-82074313D01*
X122506840Y-82020702D01*
X122506833Y-82020701D01*
X122406980Y-82010500D01*
X121243028Y-82010500D01*
X121243011Y-82010501D01*
X121143160Y-82020701D01*
X121143157Y-82020702D01*
X120981374Y-82074312D01*
X120981369Y-82074314D01*
X120836306Y-82163790D01*
X120715790Y-82284306D01*
X120626314Y-82429369D01*
X120626313Y-82429372D01*
X120593706Y-82527774D01*
X120553933Y-82585218D01*
X120489417Y-82612041D01*
X120420641Y-82599726D01*
X120369441Y-82552183D01*
X120358294Y-82527774D01*
X120325687Y-82429372D01*
X120236211Y-82284308D01*
X120115692Y-82163789D01*
X119970628Y-82074313D01*
X119808840Y-82020702D01*
X119808833Y-82020701D01*
X119708980Y-82010500D01*
X118545028Y-82010500D01*
X118545011Y-82010501D01*
X118445160Y-82020701D01*
X118445157Y-82020702D01*
X118283374Y-82074312D01*
X118283369Y-82074314D01*
X118138306Y-82163790D01*
X118017790Y-82284306D01*
X117928314Y-82429369D01*
X117928312Y-82429374D01*
X117874702Y-82591159D01*
X117874701Y-82591166D01*
X117864500Y-82691013D01*
X117087498Y-82691013D01*
X117083257Y-82649500D01*
X117077298Y-82591160D01*
X117077297Y-82591157D01*
X117056294Y-82527774D01*
X117023687Y-82429372D01*
X116934211Y-82284308D01*
X116813692Y-82163789D01*
X116668628Y-82074313D01*
X116506840Y-82020702D01*
X116506833Y-82020701D01*
X116406980Y-82010500D01*
X115243028Y-82010500D01*
X115243011Y-82010501D01*
X115143160Y-82020701D01*
X115143157Y-82020702D01*
X114981374Y-82074312D01*
X114981369Y-82074314D01*
X114836306Y-82163790D01*
X114715790Y-82284306D01*
X114626314Y-82429369D01*
X114626312Y-82429374D01*
X114581535Y-82564504D01*
X114541762Y-82621949D01*
X114477247Y-82648772D01*
X114463829Y-82649500D01*
X114326080Y-82649500D01*
X114181092Y-82678340D01*
X114181086Y-82678342D01*
X114044508Y-82734914D01*
X114044496Y-82734921D01*
X113995269Y-82767813D01*
X113921588Y-82817044D01*
X113921580Y-82817050D01*
X110211483Y-86527147D01*
X110150160Y-86560632D01*
X110080468Y-86555648D01*
X110077876Y-86554648D01*
X109099758Y-86164649D01*
X109099754Y-86164647D01*
X109099750Y-86164646D01*
X109051798Y-86148261D01*
X109049870Y-86147804D01*
X109031042Y-86141715D01*
X108980612Y-86120827D01*
X108782917Y-86073365D01*
X108743302Y-86063854D01*
X108743300Y-86063853D01*
X108743299Y-86063853D01*
X108500000Y-86044706D01*
X108256702Y-86063853D01*
X108019380Y-86120830D01*
X107793910Y-86214222D01*
X107585826Y-86341737D01*
X107585823Y-86341738D01*
X107400241Y-86500241D01*
X107241738Y-86685823D01*
X107241737Y-86685826D01*
X107114222Y-86893910D01*
X107020830Y-87119380D01*
X106963853Y-87356702D01*
X106944706Y-87600000D01*
X106963853Y-87843297D01*
X107020830Y-88080619D01*
X107114222Y-88306089D01*
X107115627Y-88308381D01*
X107115894Y-88309370D01*
X107116433Y-88310427D01*
X107116210Y-88310540D01*
X107133869Y-88375828D01*
X107112751Y-88442430D01*
X107058978Y-88487041D01*
X106989622Y-88495499D01*
X106926704Y-88465118D01*
X106922217Y-88460849D01*
X106386819Y-87925451D01*
X106353334Y-87864128D01*
X106350500Y-87837770D01*
X106350500Y-83400000D01*
X106945207Y-83400000D01*
X106964348Y-83643219D01*
X107021303Y-83880457D01*
X107114668Y-84105861D01*
X107238504Y-84307941D01*
X107860689Y-83685755D01*
X107879668Y-83731574D01*
X107956274Y-83846224D01*
X108053776Y-83943726D01*
X108168426Y-84020332D01*
X108214242Y-84039309D01*
X107592057Y-84661494D01*
X107794138Y-84785331D01*
X108019542Y-84878696D01*
X108256780Y-84935651D01*
X108256779Y-84935651D01*
X108500000Y-84954792D01*
X108743219Y-84935651D01*
X108980457Y-84878696D01*
X109205861Y-84785331D01*
X109407941Y-84661495D01*
X109407941Y-84661494D01*
X108785757Y-84039309D01*
X108831574Y-84020332D01*
X108946224Y-83943726D01*
X109043726Y-83846224D01*
X109120332Y-83731574D01*
X109139309Y-83685756D01*
X109761494Y-84307941D01*
X109761495Y-84307941D01*
X109885331Y-84105861D01*
X109978696Y-83880457D01*
X110035651Y-83643219D01*
X110054792Y-83400000D01*
X110035651Y-83156780D01*
X109978696Y-82919542D01*
X109885331Y-82694138D01*
X109761494Y-82492057D01*
X109139309Y-83114242D01*
X109120332Y-83068426D01*
X109043726Y-82953776D01*
X108946224Y-82856274D01*
X108831574Y-82779668D01*
X108785756Y-82760689D01*
X109407941Y-82138504D01*
X109205861Y-82014668D01*
X108980457Y-81921303D01*
X108743219Y-81864348D01*
X108743220Y-81864348D01*
X108500000Y-81845207D01*
X108256780Y-81864348D01*
X108019542Y-81921303D01*
X107794138Y-82014668D01*
X107592057Y-82138504D01*
X108214243Y-82760689D01*
X108168426Y-82779668D01*
X108053776Y-82856274D01*
X107956274Y-82953776D01*
X107879668Y-83068426D01*
X107860690Y-83114243D01*
X107238504Y-82492057D01*
X107114668Y-82694138D01*
X107021303Y-82919542D01*
X106964348Y-83156780D01*
X106945207Y-83400000D01*
X106350500Y-83400000D01*
X106350500Y-79200000D01*
X106944706Y-79200000D01*
X106963853Y-79443297D01*
X107020830Y-79680619D01*
X107114222Y-79906089D01*
X107241737Y-80114173D01*
X107241738Y-80114176D01*
X107241741Y-80114179D01*
X107400241Y-80299759D01*
X107543897Y-80422453D01*
X107585823Y-80458261D01*
X107585826Y-80458262D01*
X107793910Y-80585777D01*
X108019381Y-80679169D01*
X108019378Y-80679169D01*
X108019384Y-80679170D01*
X108019388Y-80679172D01*
X108256698Y-80736146D01*
X108500000Y-80755294D01*
X108743302Y-80736146D01*
X108980612Y-80679172D01*
X109071454Y-80641543D01*
X109085923Y-80636573D01*
X109115114Y-80628524D01*
X110643310Y-79960871D01*
X110692953Y-79950500D01*
X114463829Y-79950500D01*
X114530868Y-79970185D01*
X114576623Y-80022989D01*
X114581534Y-80035494D01*
X114626313Y-80170628D01*
X114715789Y-80315692D01*
X114836308Y-80436211D01*
X114981372Y-80525687D01*
X115143160Y-80579298D01*
X115243021Y-80589500D01*
X116406978Y-80589499D01*
X116506840Y-80579298D01*
X116668628Y-80525687D01*
X116813692Y-80436211D01*
X116934211Y-80315692D01*
X117023687Y-80170628D01*
X117077298Y-80008840D01*
X117087500Y-79908979D01*
X117087499Y-78491022D01*
X117087498Y-78491013D01*
X117864500Y-78491013D01*
X117864500Y-79908971D01*
X117864501Y-79908988D01*
X117874701Y-80008839D01*
X117874702Y-80008842D01*
X117887617Y-80047816D01*
X117928313Y-80170628D01*
X118017789Y-80315692D01*
X118138308Y-80436211D01*
X118283372Y-80525687D01*
X118445160Y-80579298D01*
X118545021Y-80589500D01*
X119708978Y-80589499D01*
X119808840Y-80579298D01*
X119970628Y-80525687D01*
X120115692Y-80436211D01*
X120236211Y-80315692D01*
X120325687Y-80170628D01*
X120358294Y-80072225D01*
X120398067Y-80014781D01*
X120462583Y-79987958D01*
X120531358Y-80000273D01*
X120582558Y-80047816D01*
X120593705Y-80072225D01*
X120626313Y-80170628D01*
X120715789Y-80315692D01*
X120836308Y-80436211D01*
X120981372Y-80525687D01*
X121143160Y-80579298D01*
X121243021Y-80589500D01*
X122406978Y-80589499D01*
X122506840Y-80579298D01*
X122668628Y-80525687D01*
X122813692Y-80436211D01*
X122934211Y-80315692D01*
X123023687Y-80170628D01*
X123077298Y-80008840D01*
X123087500Y-79908979D01*
X123087500Y-79908956D01*
X123865001Y-79908956D01*
X123875195Y-80008740D01*
X123928768Y-80170413D01*
X123928770Y-80170418D01*
X124018185Y-80315381D01*
X124138618Y-80435814D01*
X124283581Y-80525229D01*
X124283588Y-80525232D01*
X124445263Y-80578805D01*
X124445262Y-80578805D01*
X124545049Y-80588999D01*
X124876999Y-80588999D01*
X125377000Y-80588999D01*
X125708942Y-80588999D01*
X125708956Y-80588998D01*
X125808740Y-80578804D01*
X125970413Y-80525231D01*
X125970418Y-80525229D01*
X126115381Y-80435814D01*
X126235814Y-80315381D01*
X126325229Y-80170418D01*
X126325232Y-80170411D01*
X126378805Y-80008737D01*
X126388999Y-79908956D01*
X126389000Y-79908943D01*
X126389000Y-79450000D01*
X125377000Y-79450000D01*
X125377000Y-80588999D01*
X124876999Y-80588999D01*
X124877000Y-80588998D01*
X124877000Y-79450000D01*
X123865001Y-79450000D01*
X123865001Y-79908956D01*
X123087500Y-79908956D01*
X123087499Y-78491043D01*
X123865000Y-78491043D01*
X123865000Y-78950000D01*
X124877000Y-78950000D01*
X125377000Y-78950000D01*
X126388999Y-78950000D01*
X126388999Y-78491058D01*
X126388998Y-78491043D01*
X126378804Y-78391259D01*
X126325231Y-78229586D01*
X126325229Y-78229581D01*
X126235814Y-78084618D01*
X126115381Y-77964185D01*
X125970418Y-77874770D01*
X125970411Y-77874767D01*
X125808736Y-77821194D01*
X125808737Y-77821194D01*
X125708956Y-77811000D01*
X125377000Y-77811000D01*
X125377000Y-78950000D01*
X124877000Y-78950000D01*
X124877000Y-77811000D01*
X124545058Y-77811000D01*
X124545042Y-77811001D01*
X124445259Y-77821195D01*
X124283586Y-77874768D01*
X124283581Y-77874770D01*
X124138618Y-77964185D01*
X124018185Y-78084618D01*
X123928770Y-78229581D01*
X123928767Y-78229588D01*
X123875194Y-78391262D01*
X123865000Y-78491043D01*
X123087499Y-78491043D01*
X123087499Y-78491022D01*
X123083257Y-78449500D01*
X123077298Y-78391160D01*
X123077297Y-78391157D01*
X123056294Y-78327774D01*
X123023687Y-78229372D01*
X122934211Y-78084308D01*
X122813692Y-77963789D01*
X122668628Y-77874313D01*
X122506840Y-77820702D01*
X122506833Y-77820701D01*
X122406980Y-77810500D01*
X121243028Y-77810500D01*
X121243011Y-77810501D01*
X121143160Y-77820701D01*
X121143157Y-77820702D01*
X120981374Y-77874312D01*
X120981369Y-77874314D01*
X120836306Y-77963790D01*
X120715790Y-78084306D01*
X120626314Y-78229369D01*
X120626313Y-78229372D01*
X120593706Y-78327774D01*
X120553933Y-78385218D01*
X120489417Y-78412041D01*
X120420641Y-78399726D01*
X120369441Y-78352183D01*
X120358294Y-78327774D01*
X120325687Y-78229372D01*
X120236211Y-78084308D01*
X120115692Y-77963789D01*
X119970628Y-77874313D01*
X119808840Y-77820702D01*
X119808833Y-77820701D01*
X119708980Y-77810500D01*
X118545028Y-77810500D01*
X118545011Y-77810501D01*
X118445160Y-77820701D01*
X118445157Y-77820702D01*
X118283374Y-77874312D01*
X118283369Y-77874314D01*
X118138306Y-77963790D01*
X118017790Y-78084306D01*
X117928314Y-78229369D01*
X117928312Y-78229374D01*
X117874702Y-78391159D01*
X117874701Y-78391166D01*
X117864500Y-78491013D01*
X117087498Y-78491013D01*
X117083257Y-78449500D01*
X117077298Y-78391160D01*
X117077297Y-78391157D01*
X117056294Y-78327774D01*
X117023687Y-78229372D01*
X116934211Y-78084308D01*
X116813692Y-77963789D01*
X116668628Y-77874313D01*
X116506840Y-77820702D01*
X116506833Y-77820701D01*
X116406980Y-77810500D01*
X115243028Y-77810500D01*
X115243011Y-77810501D01*
X115143160Y-77820701D01*
X115143157Y-77820702D01*
X114981374Y-77874312D01*
X114981369Y-77874314D01*
X114836306Y-77963790D01*
X114715790Y-78084306D01*
X114626314Y-78229369D01*
X114626312Y-78229374D01*
X114581535Y-78364504D01*
X114541762Y-78421949D01*
X114477247Y-78448772D01*
X114463829Y-78449500D01*
X110692954Y-78449500D01*
X110643311Y-78439129D01*
X109115162Y-77771496D01*
X109115160Y-77771495D01*
X109115075Y-77771458D01*
X109111803Y-77770049D01*
X109109976Y-77769263D01*
X109109900Y-77769231D01*
X109109883Y-77769224D01*
X109055386Y-77749715D01*
X109051766Y-77748815D01*
X109034247Y-77743043D01*
X109006729Y-77731646D01*
X108980618Y-77720830D01*
X108980615Y-77720829D01*
X108980613Y-77720828D01*
X108980612Y-77720828D01*
X108743302Y-77663854D01*
X108743300Y-77663853D01*
X108743297Y-77663853D01*
X108500000Y-77644706D01*
X108256702Y-77663853D01*
X108019380Y-77720830D01*
X107793910Y-77814222D01*
X107585826Y-77941737D01*
X107585823Y-77941738D01*
X107400241Y-78100241D01*
X107241738Y-78285823D01*
X107241737Y-78285826D01*
X107114222Y-78493910D01*
X107020830Y-78719380D01*
X106963853Y-78956702D01*
X106944706Y-79200000D01*
X106350500Y-79200000D01*
X106350500Y-75000000D01*
X106945207Y-75000000D01*
X106964348Y-75243219D01*
X107021303Y-75480457D01*
X107114668Y-75705861D01*
X107238504Y-75907941D01*
X107860689Y-75285755D01*
X107879668Y-75331574D01*
X107956274Y-75446224D01*
X108053776Y-75543726D01*
X108168426Y-75620332D01*
X108214242Y-75639309D01*
X107592057Y-76261494D01*
X107794138Y-76385331D01*
X108019542Y-76478696D01*
X108256780Y-76535651D01*
X108256779Y-76535651D01*
X108500000Y-76554792D01*
X108743219Y-76535651D01*
X108980457Y-76478696D01*
X109205861Y-76385331D01*
X109407941Y-76261495D01*
X109407941Y-76261494D01*
X108785757Y-75639309D01*
X108831574Y-75620332D01*
X108946224Y-75543726D01*
X109043726Y-75446224D01*
X109120332Y-75331574D01*
X109139309Y-75285756D01*
X109761494Y-75907941D01*
X109761495Y-75907941D01*
X109885331Y-75705861D01*
X109978696Y-75480457D01*
X110035651Y-75243219D01*
X110054792Y-75000000D01*
X110054792Y-74999996D01*
X112194435Y-74999996D01*
X112194435Y-75000003D01*
X112214630Y-75179249D01*
X112214631Y-75179254D01*
X112274211Y-75349523D01*
X112334973Y-75446224D01*
X112370184Y-75502262D01*
X112497738Y-75629816D01*
X112650478Y-75725789D01*
X112820745Y-75785368D01*
X112820750Y-75785369D01*
X112999996Y-75805565D01*
X113000000Y-75805565D01*
X113000004Y-75805565D01*
X113179249Y-75785369D01*
X113179252Y-75785368D01*
X113179255Y-75785368D01*
X113259017Y-75757457D01*
X113299972Y-75750500D01*
X114463829Y-75750500D01*
X114530868Y-75770185D01*
X114576623Y-75822989D01*
X114581534Y-75835494D01*
X114626313Y-75970628D01*
X114715789Y-76115692D01*
X114836308Y-76236211D01*
X114981372Y-76325687D01*
X115143160Y-76379298D01*
X115243021Y-76389500D01*
X116406978Y-76389499D01*
X116506840Y-76379298D01*
X116668628Y-76325687D01*
X116813692Y-76236211D01*
X116934211Y-76115692D01*
X117023687Y-75970628D01*
X117077298Y-75808840D01*
X117087500Y-75708979D01*
X117087499Y-74291022D01*
X117087498Y-74291013D01*
X117864500Y-74291013D01*
X117864500Y-75708971D01*
X117864501Y-75708988D01*
X117874701Y-75808839D01*
X117874702Y-75808842D01*
X117928241Y-75970411D01*
X117928313Y-75970628D01*
X118017789Y-76115692D01*
X118138308Y-76236211D01*
X118283372Y-76325687D01*
X118445160Y-76379298D01*
X118545021Y-76389500D01*
X119708978Y-76389499D01*
X119808840Y-76379298D01*
X119970628Y-76325687D01*
X120115692Y-76236211D01*
X120236211Y-76115692D01*
X120325687Y-75970628D01*
X120358294Y-75872225D01*
X120398067Y-75814781D01*
X120462583Y-75787958D01*
X120531358Y-75800273D01*
X120582558Y-75847816D01*
X120593705Y-75872225D01*
X120626313Y-75970628D01*
X120715789Y-76115692D01*
X120836308Y-76236211D01*
X120981372Y-76325687D01*
X121143160Y-76379298D01*
X121243021Y-76389500D01*
X122406978Y-76389499D01*
X122506840Y-76379298D01*
X122668628Y-76325687D01*
X122813692Y-76236211D01*
X122934211Y-76115692D01*
X123023687Y-75970628D01*
X123077298Y-75808840D01*
X123087500Y-75708979D01*
X123087500Y-75708956D01*
X123865001Y-75708956D01*
X123875195Y-75808740D01*
X123928768Y-75970413D01*
X123928770Y-75970418D01*
X124018185Y-76115381D01*
X124138618Y-76235814D01*
X124283581Y-76325229D01*
X124283588Y-76325232D01*
X124445263Y-76378805D01*
X124445262Y-76378805D01*
X124545049Y-76388999D01*
X124876999Y-76388999D01*
X125377000Y-76388999D01*
X125708942Y-76388999D01*
X125708956Y-76388998D01*
X125808740Y-76378804D01*
X125970413Y-76325231D01*
X125970418Y-76325229D01*
X126115381Y-76235814D01*
X126235814Y-76115381D01*
X126325229Y-75970418D01*
X126325232Y-75970411D01*
X126378805Y-75808737D01*
X126388999Y-75708956D01*
X126389000Y-75708943D01*
X126389000Y-75250000D01*
X125377000Y-75250000D01*
X125377000Y-76388999D01*
X124876999Y-76388999D01*
X124877000Y-76388998D01*
X124877000Y-75250000D01*
X123865001Y-75250000D01*
X123865001Y-75708956D01*
X123087500Y-75708956D01*
X123087499Y-74291043D01*
X123865000Y-74291043D01*
X123865000Y-74750000D01*
X124877000Y-74750000D01*
X125377000Y-74750000D01*
X126388999Y-74750000D01*
X126388999Y-74291058D01*
X126388998Y-74291043D01*
X126378804Y-74191259D01*
X126325231Y-74029586D01*
X126325229Y-74029581D01*
X126235814Y-73884618D01*
X126115381Y-73764185D01*
X125970418Y-73674770D01*
X125970411Y-73674767D01*
X125808736Y-73621194D01*
X125808737Y-73621194D01*
X125708956Y-73611000D01*
X125377000Y-73611000D01*
X125377000Y-74750000D01*
X124877000Y-74750000D01*
X124877000Y-73611000D01*
X124545058Y-73611000D01*
X124545042Y-73611001D01*
X124445259Y-73621195D01*
X124283586Y-73674768D01*
X124283581Y-73674770D01*
X124138618Y-73764185D01*
X124018185Y-73884618D01*
X123928770Y-74029581D01*
X123928767Y-74029588D01*
X123875194Y-74191262D01*
X123865000Y-74291043D01*
X123087499Y-74291043D01*
X123087499Y-74291022D01*
X123083257Y-74249500D01*
X123077298Y-74191160D01*
X123077297Y-74191157D01*
X123056294Y-74127774D01*
X123023687Y-74029372D01*
X122934211Y-73884308D01*
X122813692Y-73763789D01*
X122668628Y-73674313D01*
X122506840Y-73620702D01*
X122506833Y-73620701D01*
X122406980Y-73610500D01*
X121243028Y-73610500D01*
X121243011Y-73610501D01*
X121143160Y-73620701D01*
X121143157Y-73620702D01*
X120981374Y-73674312D01*
X120981369Y-73674314D01*
X120836306Y-73763790D01*
X120715790Y-73884306D01*
X120626314Y-74029369D01*
X120626313Y-74029372D01*
X120593706Y-74127774D01*
X120553933Y-74185218D01*
X120489417Y-74212041D01*
X120420641Y-74199726D01*
X120369441Y-74152183D01*
X120358294Y-74127774D01*
X120325687Y-74029372D01*
X120236211Y-73884308D01*
X120115692Y-73763789D01*
X119970628Y-73674313D01*
X119808840Y-73620702D01*
X119808833Y-73620701D01*
X119708980Y-73610500D01*
X118545028Y-73610500D01*
X118545011Y-73610501D01*
X118445160Y-73620701D01*
X118445157Y-73620702D01*
X118283374Y-73674312D01*
X118283369Y-73674314D01*
X118138306Y-73763790D01*
X118017790Y-73884306D01*
X117928314Y-74029369D01*
X117928312Y-74029374D01*
X117874702Y-74191159D01*
X117874701Y-74191166D01*
X117864500Y-74291013D01*
X117087498Y-74291013D01*
X117083257Y-74249500D01*
X117077298Y-74191160D01*
X117077297Y-74191157D01*
X117056294Y-74127774D01*
X117023687Y-74029372D01*
X116934211Y-73884308D01*
X116813692Y-73763789D01*
X116668628Y-73674313D01*
X116506840Y-73620702D01*
X116506833Y-73620701D01*
X116406980Y-73610500D01*
X115243028Y-73610500D01*
X115243011Y-73610501D01*
X115143160Y-73620701D01*
X115143157Y-73620702D01*
X114981374Y-73674312D01*
X114981369Y-73674314D01*
X114836306Y-73763790D01*
X114715790Y-73884306D01*
X114626314Y-74029369D01*
X114626312Y-74029374D01*
X114581535Y-74164504D01*
X114541762Y-74221949D01*
X114477247Y-74248772D01*
X114463829Y-74249500D01*
X113299972Y-74249500D01*
X113259017Y-74242542D01*
X113179254Y-74214631D01*
X113179249Y-74214630D01*
X113000004Y-74194435D01*
X112999996Y-74194435D01*
X112820750Y-74214630D01*
X112820745Y-74214631D01*
X112650476Y-74274211D01*
X112497737Y-74370184D01*
X112370184Y-74497737D01*
X112274211Y-74650476D01*
X112214631Y-74820745D01*
X112214630Y-74820750D01*
X112194435Y-74999996D01*
X110054792Y-74999996D01*
X110035651Y-74756780D01*
X109978696Y-74519542D01*
X109885331Y-74294138D01*
X109761494Y-74092057D01*
X109139309Y-74714242D01*
X109120332Y-74668426D01*
X109043726Y-74553776D01*
X108946224Y-74456274D01*
X108831574Y-74379668D01*
X108785756Y-74360689D01*
X109407941Y-73738504D01*
X109205861Y-73614668D01*
X108980457Y-73521303D01*
X108743219Y-73464348D01*
X108743220Y-73464348D01*
X108500000Y-73445207D01*
X108256780Y-73464348D01*
X108019542Y-73521303D01*
X107794138Y-73614668D01*
X107592057Y-73738504D01*
X108214243Y-74360689D01*
X108168426Y-74379668D01*
X108053776Y-74456274D01*
X107956274Y-74553776D01*
X107879668Y-74668426D01*
X107860690Y-74714243D01*
X107238504Y-74092057D01*
X107114668Y-74294138D01*
X107021303Y-74519542D01*
X106964348Y-74756780D01*
X106945207Y-75000000D01*
X106350500Y-75000000D01*
X106350500Y-70800000D01*
X106944706Y-70800000D01*
X106963853Y-71043297D01*
X106963853Y-71043300D01*
X106963854Y-71043302D01*
X106990323Y-71153553D01*
X107020830Y-71280619D01*
X107114222Y-71506089D01*
X107241737Y-71714173D01*
X107241738Y-71714176D01*
X107241741Y-71714179D01*
X107400241Y-71899759D01*
X107543897Y-72022453D01*
X107585823Y-72058261D01*
X107585826Y-72058262D01*
X107793910Y-72185777D01*
X108019381Y-72279169D01*
X108019378Y-72279169D01*
X108019384Y-72279170D01*
X108019388Y-72279172D01*
X108256698Y-72336146D01*
X108500000Y-72355294D01*
X108743302Y-72336146D01*
X108980612Y-72279172D01*
X109206089Y-72185777D01*
X109414179Y-72058259D01*
X109599759Y-71899759D01*
X109758259Y-71714179D01*
X109885777Y-71506089D01*
X109979172Y-71280612D01*
X110019495Y-71112655D01*
X110054285Y-71052066D01*
X110116311Y-71019902D01*
X110185880Y-71026378D01*
X110240904Y-71069438D01*
X110257110Y-71100650D01*
X110274211Y-71149523D01*
X110334973Y-71246224D01*
X110370184Y-71302262D01*
X110497738Y-71429816D01*
X110588080Y-71486582D01*
X110619125Y-71506089D01*
X110650478Y-71525789D01*
X110820745Y-71585368D01*
X110820750Y-71585369D01*
X110999996Y-71605565D01*
X111000000Y-71605565D01*
X111000004Y-71605565D01*
X111179249Y-71585369D01*
X111179252Y-71585368D01*
X111179255Y-71585368D01*
X111259017Y-71557457D01*
X111299972Y-71550500D01*
X114463829Y-71550500D01*
X114530868Y-71570185D01*
X114576623Y-71622989D01*
X114581534Y-71635494D01*
X114626313Y-71770628D01*
X114715789Y-71915692D01*
X114836308Y-72036211D01*
X114981372Y-72125687D01*
X115143160Y-72179298D01*
X115243021Y-72189500D01*
X116406978Y-72189499D01*
X116506840Y-72179298D01*
X116668628Y-72125687D01*
X116813692Y-72036211D01*
X116934211Y-71915692D01*
X117023687Y-71770628D01*
X117077298Y-71608840D01*
X117087500Y-71508979D01*
X117087499Y-70091022D01*
X117087498Y-70091013D01*
X117864500Y-70091013D01*
X117864500Y-71508971D01*
X117864501Y-71508988D01*
X117874701Y-71608839D01*
X117874702Y-71608842D01*
X117909606Y-71714173D01*
X117928313Y-71770628D01*
X118017789Y-71915692D01*
X118138308Y-72036211D01*
X118283372Y-72125687D01*
X118445160Y-72179298D01*
X118545021Y-72189500D01*
X119708978Y-72189499D01*
X119808840Y-72179298D01*
X119970628Y-72125687D01*
X120115692Y-72036211D01*
X120236211Y-71915692D01*
X120325687Y-71770628D01*
X120358294Y-71672225D01*
X120398067Y-71614781D01*
X120462583Y-71587958D01*
X120531358Y-71600273D01*
X120582558Y-71647816D01*
X120593705Y-71672225D01*
X120626313Y-71770628D01*
X120715789Y-71915692D01*
X120836308Y-72036211D01*
X120981372Y-72125687D01*
X121143160Y-72179298D01*
X121243021Y-72189500D01*
X122406978Y-72189499D01*
X122506840Y-72179298D01*
X122668628Y-72125687D01*
X122813692Y-72036211D01*
X122934211Y-71915692D01*
X123023687Y-71770628D01*
X123077298Y-71608840D01*
X123087500Y-71508979D01*
X123087500Y-71508956D01*
X123865001Y-71508956D01*
X123875195Y-71608740D01*
X123928768Y-71770413D01*
X123928770Y-71770418D01*
X124018185Y-71915381D01*
X124138618Y-72035814D01*
X124283581Y-72125229D01*
X124283588Y-72125232D01*
X124445263Y-72178805D01*
X124445262Y-72178805D01*
X124545049Y-72188999D01*
X124876999Y-72188999D01*
X125377000Y-72188999D01*
X125708942Y-72188999D01*
X125708956Y-72188998D01*
X125808740Y-72178804D01*
X125970413Y-72125231D01*
X125970418Y-72125229D01*
X126115381Y-72035814D01*
X126235814Y-71915381D01*
X126325229Y-71770418D01*
X126325232Y-71770411D01*
X126378805Y-71608737D01*
X126388999Y-71508956D01*
X126389000Y-71508943D01*
X126389000Y-71050000D01*
X125377000Y-71050000D01*
X125377000Y-72188999D01*
X124876999Y-72188999D01*
X124877000Y-72188998D01*
X124877000Y-71050000D01*
X123865001Y-71050000D01*
X123865001Y-71508956D01*
X123087500Y-71508956D01*
X123087499Y-70091043D01*
X123865000Y-70091043D01*
X123865000Y-70550000D01*
X124877000Y-70550000D01*
X125377000Y-70550000D01*
X126388999Y-70550000D01*
X126388999Y-70091058D01*
X126388998Y-70091043D01*
X126378804Y-69991259D01*
X126325231Y-69829586D01*
X126325229Y-69829581D01*
X126235814Y-69684618D01*
X126115381Y-69564185D01*
X125970418Y-69474770D01*
X125970411Y-69474767D01*
X125808736Y-69421194D01*
X125808737Y-69421194D01*
X125708956Y-69411000D01*
X125377000Y-69411000D01*
X125377000Y-70550000D01*
X124877000Y-70550000D01*
X124877000Y-69411000D01*
X124545058Y-69411000D01*
X124545042Y-69411001D01*
X124445259Y-69421195D01*
X124283586Y-69474768D01*
X124283581Y-69474770D01*
X124138618Y-69564185D01*
X124018185Y-69684618D01*
X123928770Y-69829581D01*
X123928767Y-69829588D01*
X123875194Y-69991262D01*
X123865000Y-70091043D01*
X123087499Y-70091043D01*
X123087499Y-70091022D01*
X123083257Y-70049500D01*
X123077298Y-69991160D01*
X123077297Y-69991157D01*
X123056294Y-69927774D01*
X123023687Y-69829372D01*
X122934211Y-69684308D01*
X122813692Y-69563789D01*
X122668628Y-69474313D01*
X122506840Y-69420702D01*
X122506833Y-69420701D01*
X122406980Y-69410500D01*
X121243028Y-69410500D01*
X121243011Y-69410501D01*
X121143160Y-69420701D01*
X121143157Y-69420702D01*
X120981374Y-69474312D01*
X120981369Y-69474314D01*
X120836306Y-69563790D01*
X120715790Y-69684306D01*
X120626314Y-69829369D01*
X120626313Y-69829372D01*
X120593706Y-69927774D01*
X120553933Y-69985218D01*
X120489417Y-70012041D01*
X120420641Y-69999726D01*
X120369441Y-69952183D01*
X120358294Y-69927774D01*
X120325687Y-69829372D01*
X120236211Y-69684308D01*
X120115692Y-69563789D01*
X119970628Y-69474313D01*
X119808840Y-69420702D01*
X119808833Y-69420701D01*
X119708980Y-69410500D01*
X118545028Y-69410500D01*
X118545011Y-69410501D01*
X118445160Y-69420701D01*
X118445157Y-69420702D01*
X118283374Y-69474312D01*
X118283369Y-69474314D01*
X118138306Y-69563790D01*
X118017790Y-69684306D01*
X117928314Y-69829369D01*
X117928312Y-69829374D01*
X117874702Y-69991159D01*
X117874701Y-69991166D01*
X117864500Y-70091013D01*
X117087498Y-70091013D01*
X117083257Y-70049500D01*
X117077298Y-69991160D01*
X117077297Y-69991157D01*
X117056294Y-69927774D01*
X117023687Y-69829372D01*
X116934211Y-69684308D01*
X116813692Y-69563789D01*
X116668628Y-69474313D01*
X116506840Y-69420702D01*
X116506833Y-69420701D01*
X116406980Y-69410500D01*
X115243028Y-69410500D01*
X115243011Y-69410501D01*
X115143160Y-69420701D01*
X115143157Y-69420702D01*
X114981374Y-69474312D01*
X114981369Y-69474314D01*
X114836306Y-69563790D01*
X114715790Y-69684306D01*
X114626314Y-69829369D01*
X114626312Y-69829374D01*
X114581535Y-69964504D01*
X114541762Y-70021949D01*
X114477247Y-70048772D01*
X114463829Y-70049500D01*
X111299972Y-70049500D01*
X111259017Y-70042542D01*
X111179254Y-70014631D01*
X111179249Y-70014630D01*
X111000004Y-69994435D01*
X110999996Y-69994435D01*
X110820750Y-70014630D01*
X110820745Y-70014631D01*
X110650476Y-70074211D01*
X110497737Y-70170184D01*
X110370184Y-70297737D01*
X110274209Y-70450480D01*
X110257109Y-70499349D01*
X110216387Y-70556125D01*
X110151435Y-70581872D01*
X110082873Y-70568415D01*
X110032470Y-70520028D01*
X110019496Y-70487347D01*
X109979172Y-70319388D01*
X109979169Y-70319380D01*
X109885777Y-70093910D01*
X109758262Y-69885826D01*
X109758261Y-69885823D01*
X109722453Y-69843897D01*
X109599759Y-69700241D01*
X109439994Y-69563789D01*
X109414176Y-69541738D01*
X109414173Y-69541737D01*
X109206089Y-69414222D01*
X108980618Y-69320830D01*
X108980621Y-69320830D01*
X108874992Y-69295470D01*
X108743302Y-69263854D01*
X108743300Y-69263853D01*
X108743297Y-69263853D01*
X108500000Y-69244706D01*
X108256702Y-69263853D01*
X108019380Y-69320830D01*
X107793910Y-69414222D01*
X107585826Y-69541737D01*
X107585823Y-69541738D01*
X107400241Y-69700241D01*
X107241738Y-69885823D01*
X107241737Y-69885826D01*
X107114222Y-70093910D01*
X107020830Y-70319380D01*
X106963853Y-70556702D01*
X106944706Y-70800000D01*
X106350500Y-70800000D01*
X106350500Y-66600000D01*
X106945207Y-66600000D01*
X106964348Y-66843219D01*
X107021303Y-67080457D01*
X107114668Y-67305861D01*
X107238504Y-67507941D01*
X107860689Y-66885755D01*
X107879668Y-66931574D01*
X107956274Y-67046224D01*
X108053776Y-67143726D01*
X108168426Y-67220332D01*
X108214242Y-67239309D01*
X107592057Y-67861494D01*
X107794138Y-67985331D01*
X108019542Y-68078696D01*
X108256780Y-68135651D01*
X108256779Y-68135651D01*
X108500000Y-68154792D01*
X108743219Y-68135651D01*
X108980457Y-68078696D01*
X109205861Y-67985331D01*
X109407941Y-67861495D01*
X109407941Y-67861494D01*
X108785757Y-67239309D01*
X108831574Y-67220332D01*
X108946224Y-67143726D01*
X109043726Y-67046224D01*
X109120332Y-66931574D01*
X109139309Y-66885756D01*
X109761494Y-67507941D01*
X109761495Y-67507941D01*
X109885331Y-67305861D01*
X109978696Y-67080457D01*
X110035651Y-66843219D01*
X110054792Y-66600000D01*
X110035651Y-66356780D01*
X109978696Y-66119542D01*
X109885331Y-65894138D01*
X109761494Y-65692057D01*
X109139309Y-66314242D01*
X109120332Y-66268426D01*
X109043726Y-66153776D01*
X108946224Y-66056274D01*
X108831574Y-65979668D01*
X108785756Y-65960689D01*
X109407941Y-65338504D01*
X109205861Y-65214668D01*
X108980457Y-65121303D01*
X108743219Y-65064348D01*
X108743220Y-65064348D01*
X108500000Y-65045207D01*
X108256780Y-65064348D01*
X108019542Y-65121303D01*
X107794138Y-65214668D01*
X107592057Y-65338504D01*
X108214243Y-65960689D01*
X108168426Y-65979668D01*
X108053776Y-66056274D01*
X107956274Y-66153776D01*
X107879668Y-66268426D01*
X107860690Y-66314243D01*
X107238504Y-65692057D01*
X107114668Y-65894138D01*
X107021303Y-66119542D01*
X106964348Y-66356780D01*
X106945207Y-66600000D01*
X106350500Y-66600000D01*
X106350500Y-64926079D01*
X106321659Y-64781092D01*
X106321658Y-64781091D01*
X106321658Y-64781087D01*
X106321656Y-64781082D01*
X106265087Y-64644511D01*
X106265080Y-64644498D01*
X106182952Y-64521585D01*
X106142702Y-64481335D01*
X106078416Y-64417049D01*
X105081335Y-63419968D01*
X105053565Y-63377532D01*
X105028737Y-63314179D01*
X104670475Y-62400000D01*
X106944706Y-62400000D01*
X106963853Y-62643297D01*
X107020830Y-62880619D01*
X107114222Y-63106089D01*
X107241737Y-63314173D01*
X107241738Y-63314176D01*
X107241741Y-63314179D01*
X107400241Y-63499759D01*
X107543897Y-63622453D01*
X107585823Y-63658261D01*
X107585826Y-63658262D01*
X107793910Y-63785777D01*
X108019381Y-63879169D01*
X108019378Y-63879169D01*
X108019384Y-63879170D01*
X108019388Y-63879172D01*
X108256698Y-63936146D01*
X108500000Y-63955294D01*
X108743302Y-63936146D01*
X108980612Y-63879172D01*
X109058856Y-63846761D01*
X109077227Y-63840782D01*
X109099759Y-63835350D01*
X110077879Y-63445348D01*
X110147438Y-63438805D01*
X110209496Y-63470907D01*
X110211482Y-63472850D01*
X113921586Y-67182954D01*
X113951058Y-67202645D01*
X113995270Y-67232186D01*
X114044505Y-67265084D01*
X114044506Y-67265084D01*
X114044507Y-67265085D01*
X114044509Y-67265086D01*
X114150477Y-67308979D01*
X114181087Y-67321658D01*
X114181091Y-67321658D01*
X114181092Y-67321659D01*
X114326079Y-67350500D01*
X114326082Y-67350500D01*
X114326083Y-67350500D01*
X114463829Y-67350500D01*
X114530868Y-67370185D01*
X114576623Y-67422989D01*
X114581534Y-67435494D01*
X114626313Y-67570628D01*
X114715789Y-67715692D01*
X114836308Y-67836211D01*
X114981372Y-67925687D01*
X115143160Y-67979298D01*
X115243021Y-67989500D01*
X116406978Y-67989499D01*
X116506840Y-67979298D01*
X116668628Y-67925687D01*
X116813692Y-67836211D01*
X116934211Y-67715692D01*
X117023687Y-67570628D01*
X117077298Y-67408840D01*
X117087500Y-67308979D01*
X117087499Y-65891022D01*
X117087498Y-65891013D01*
X117864500Y-65891013D01*
X117864500Y-67308971D01*
X117864501Y-67308988D01*
X117874701Y-67408839D01*
X117874702Y-67408842D01*
X117928241Y-67570411D01*
X117928313Y-67570628D01*
X118017789Y-67715692D01*
X118138308Y-67836211D01*
X118283372Y-67925687D01*
X118445160Y-67979298D01*
X118545021Y-67989500D01*
X119708978Y-67989499D01*
X119808840Y-67979298D01*
X119970628Y-67925687D01*
X120115692Y-67836211D01*
X120236211Y-67715692D01*
X120325687Y-67570628D01*
X120358294Y-67472225D01*
X120398067Y-67414781D01*
X120462583Y-67387958D01*
X120531358Y-67400273D01*
X120582558Y-67447816D01*
X120593705Y-67472225D01*
X120626313Y-67570628D01*
X120715789Y-67715692D01*
X120836308Y-67836211D01*
X120981372Y-67925687D01*
X121143160Y-67979298D01*
X121243021Y-67989500D01*
X122406978Y-67989499D01*
X122506840Y-67979298D01*
X122668628Y-67925687D01*
X122813692Y-67836211D01*
X122934211Y-67715692D01*
X123023687Y-67570628D01*
X123077298Y-67408840D01*
X123087500Y-67308979D01*
X123087500Y-67308956D01*
X123865001Y-67308956D01*
X123875195Y-67408740D01*
X123928768Y-67570413D01*
X123928770Y-67570418D01*
X124018185Y-67715381D01*
X124138618Y-67835814D01*
X124283581Y-67925229D01*
X124283588Y-67925232D01*
X124445263Y-67978805D01*
X124445262Y-67978805D01*
X124545049Y-67988999D01*
X124876999Y-67988999D01*
X125377000Y-67988999D01*
X125708942Y-67988999D01*
X125708956Y-67988998D01*
X125808740Y-67978804D01*
X125970413Y-67925231D01*
X125970418Y-67925229D01*
X126115381Y-67835814D01*
X126235814Y-67715381D01*
X126325229Y-67570418D01*
X126325232Y-67570411D01*
X126378805Y-67408737D01*
X126388999Y-67308956D01*
X126389000Y-67308943D01*
X126389000Y-66850000D01*
X125377000Y-66850000D01*
X125377000Y-67988999D01*
X124876999Y-67988999D01*
X124877000Y-67988998D01*
X124877000Y-66850000D01*
X123865001Y-66850000D01*
X123865001Y-67308956D01*
X123087500Y-67308956D01*
X123087499Y-65891043D01*
X123865000Y-65891043D01*
X123865000Y-66350000D01*
X124877000Y-66350000D01*
X125377000Y-66350000D01*
X126388999Y-66350000D01*
X126388999Y-65891058D01*
X126388998Y-65891043D01*
X126378804Y-65791259D01*
X126325231Y-65629586D01*
X126325229Y-65629581D01*
X126235814Y-65484618D01*
X126115381Y-65364185D01*
X125970418Y-65274770D01*
X125970411Y-65274767D01*
X125808736Y-65221194D01*
X125808737Y-65221194D01*
X125708956Y-65211000D01*
X125377000Y-65211000D01*
X125377000Y-66350000D01*
X124877000Y-66350000D01*
X124877000Y-65211000D01*
X124545058Y-65211000D01*
X124545042Y-65211001D01*
X124445259Y-65221195D01*
X124283586Y-65274768D01*
X124283581Y-65274770D01*
X124138618Y-65364185D01*
X124018185Y-65484618D01*
X123928770Y-65629581D01*
X123928767Y-65629588D01*
X123875194Y-65791262D01*
X123865000Y-65891043D01*
X123087499Y-65891043D01*
X123087499Y-65891022D01*
X123083257Y-65849500D01*
X123077298Y-65791160D01*
X123077297Y-65791157D01*
X123056294Y-65727774D01*
X123023687Y-65629372D01*
X122934211Y-65484308D01*
X122813692Y-65363789D01*
X122668628Y-65274313D01*
X122506840Y-65220702D01*
X122506833Y-65220701D01*
X122406980Y-65210500D01*
X121243028Y-65210500D01*
X121243011Y-65210501D01*
X121143160Y-65220701D01*
X121143157Y-65220702D01*
X120981374Y-65274312D01*
X120981369Y-65274314D01*
X120836306Y-65363790D01*
X120715790Y-65484306D01*
X120626314Y-65629369D01*
X120626313Y-65629372D01*
X120593706Y-65727774D01*
X120553933Y-65785218D01*
X120489417Y-65812041D01*
X120420641Y-65799726D01*
X120369441Y-65752183D01*
X120358294Y-65727774D01*
X120325687Y-65629372D01*
X120236211Y-65484308D01*
X120115692Y-65363789D01*
X119970628Y-65274313D01*
X119808840Y-65220702D01*
X119808833Y-65220701D01*
X119708980Y-65210500D01*
X118545028Y-65210500D01*
X118545011Y-65210501D01*
X118445160Y-65220701D01*
X118445157Y-65220702D01*
X118283374Y-65274312D01*
X118283369Y-65274314D01*
X118138306Y-65363790D01*
X118017790Y-65484306D01*
X117928314Y-65629369D01*
X117928312Y-65629374D01*
X117874702Y-65791159D01*
X117874701Y-65791166D01*
X117864500Y-65891013D01*
X117087498Y-65891013D01*
X117083257Y-65849500D01*
X117077298Y-65791160D01*
X117077297Y-65791157D01*
X117056294Y-65727774D01*
X117023687Y-65629372D01*
X116934211Y-65484308D01*
X116813692Y-65363789D01*
X116668628Y-65274313D01*
X116506840Y-65220702D01*
X116506833Y-65220701D01*
X116406980Y-65210500D01*
X115243028Y-65210500D01*
X115243011Y-65210501D01*
X115143160Y-65220701D01*
X115143157Y-65220702D01*
X114981374Y-65274312D01*
X114981369Y-65274314D01*
X114836306Y-65363790D01*
X114715790Y-65484306D01*
X114656921Y-65579749D01*
X114604973Y-65626473D01*
X114536010Y-65637696D01*
X114471928Y-65609852D01*
X114463701Y-65602333D01*
X110994415Y-62133047D01*
X110986365Y-62124179D01*
X110983982Y-62121284D01*
X110983968Y-62121270D01*
X110981447Y-62119208D01*
X110972285Y-62110917D01*
X110678421Y-61817052D01*
X110678418Y-61817049D01*
X110603815Y-61767202D01*
X110574376Y-61747532D01*
X110555495Y-61734916D01*
X110555492Y-61734914D01*
X110555491Y-61734914D01*
X110418917Y-61678343D01*
X110418907Y-61678340D01*
X110273920Y-61649499D01*
X110267858Y-61648903D01*
X110268023Y-61647217D01*
X110212163Y-61631671D01*
X109456593Y-61175779D01*
X109440124Y-61163899D01*
X109414186Y-61141746D01*
X109414170Y-61141735D01*
X109206089Y-61014222D01*
X108980618Y-60920830D01*
X108980621Y-60920830D01*
X108874992Y-60895470D01*
X108743302Y-60863854D01*
X108743300Y-60863853D01*
X108743297Y-60863853D01*
X108500000Y-60844706D01*
X108256702Y-60863853D01*
X108019380Y-60920830D01*
X107793910Y-61014222D01*
X107585826Y-61141737D01*
X107585823Y-61141738D01*
X107400241Y-61300241D01*
X107241738Y-61485823D01*
X107241737Y-61485826D01*
X107114222Y-61693910D01*
X107020830Y-61919380D01*
X106963853Y-62156702D01*
X106944706Y-62400000D01*
X104670475Y-62400000D01*
X104445070Y-61824831D01*
X104445051Y-61824783D01*
X104443420Y-61820674D01*
X104443366Y-61820542D01*
X104443360Y-61820527D01*
X104418218Y-61767202D01*
X104418214Y-61767197D01*
X104416265Y-61763952D01*
X104407988Y-61747532D01*
X104385779Y-61693914D01*
X104385777Y-61693911D01*
X104258262Y-61485826D01*
X104258261Y-61485823D01*
X104222453Y-61443897D01*
X104099759Y-61300241D01*
X103977063Y-61195449D01*
X103914176Y-61141738D01*
X103914173Y-61141737D01*
X103706089Y-61014222D01*
X103480618Y-60920830D01*
X103480621Y-60920830D01*
X103374992Y-60895470D01*
X103243302Y-60863854D01*
X103243300Y-60863853D01*
X103243297Y-60863853D01*
X103000000Y-60844706D01*
X102756702Y-60863853D01*
X102519380Y-60920830D01*
X102293910Y-61014222D01*
X102085826Y-61141737D01*
X102085823Y-61141738D01*
X101900241Y-61300241D01*
X101741738Y-61485823D01*
X101741737Y-61485826D01*
X101614222Y-61693910D01*
X101520830Y-61919380D01*
X101463853Y-62156702D01*
X101444706Y-62400000D01*
X101150500Y-62400000D01*
X101150500Y-58200000D01*
X101444706Y-58200000D01*
X101463853Y-58443297D01*
X101520830Y-58680619D01*
X101614222Y-58906089D01*
X101741737Y-59114173D01*
X101741738Y-59114176D01*
X101741741Y-59114179D01*
X101900241Y-59299759D01*
X102043897Y-59422453D01*
X102085823Y-59458261D01*
X102085826Y-59458262D01*
X102293910Y-59585777D01*
X102519381Y-59679169D01*
X102519378Y-59679169D01*
X102519384Y-59679170D01*
X102519388Y-59679172D01*
X102756698Y-59736146D01*
X103000000Y-59755294D01*
X103243302Y-59736146D01*
X103480612Y-59679172D01*
X103706089Y-59585777D01*
X103914179Y-59458259D01*
X104099759Y-59299759D01*
X104258259Y-59114179D01*
X104385777Y-58906089D01*
X104479172Y-58680612D01*
X104536146Y-58443302D01*
X104555294Y-58200000D01*
X106944706Y-58200000D01*
X106963853Y-58443297D01*
X107020830Y-58680619D01*
X107114222Y-58906089D01*
X107241737Y-59114173D01*
X107241738Y-59114176D01*
X107241741Y-59114179D01*
X107400241Y-59299759D01*
X107543897Y-59422453D01*
X107585823Y-59458261D01*
X107585826Y-59458262D01*
X107793910Y-59585777D01*
X108019381Y-59679169D01*
X108019378Y-59679169D01*
X108019384Y-59679170D01*
X108019388Y-59679172D01*
X108256698Y-59736146D01*
X108500000Y-59755294D01*
X108743302Y-59736146D01*
X108980612Y-59679172D01*
X109206089Y-59585777D01*
X109414179Y-59458259D01*
X109599759Y-59299759D01*
X109758259Y-59114179D01*
X109885777Y-58906089D01*
X109979172Y-58680612D01*
X110036146Y-58443302D01*
X110055294Y-58200000D01*
X110036146Y-57956698D01*
X109986595Y-57750308D01*
X114426001Y-57750308D01*
X114432321Y-57819875D01*
X114432323Y-57819883D01*
X114482208Y-57979970D01*
X114482209Y-57979972D01*
X114568954Y-58123467D01*
X114568957Y-58123471D01*
X114687528Y-58242042D01*
X114687532Y-58242045D01*
X114831026Y-58328789D01*
X114991123Y-58378677D01*
X115060701Y-58384999D01*
X115691999Y-58384999D01*
X116192000Y-58384999D01*
X116823307Y-58384999D01*
X116892875Y-58378678D01*
X116892883Y-58378676D01*
X117052970Y-58328791D01*
X117052972Y-58328790D01*
X117196467Y-58242045D01*
X117196471Y-58242042D01*
X117315042Y-58123471D01*
X117315045Y-58123467D01*
X117401789Y-57979973D01*
X117451677Y-57819876D01*
X117457999Y-57750308D01*
X123392001Y-57750308D01*
X123398321Y-57819875D01*
X123398323Y-57819883D01*
X123448208Y-57979970D01*
X123448209Y-57979972D01*
X123534954Y-58123467D01*
X123534957Y-58123471D01*
X123653528Y-58242042D01*
X123653532Y-58242045D01*
X123797026Y-58328789D01*
X123957123Y-58378677D01*
X124026701Y-58384999D01*
X124657999Y-58384999D01*
X125158000Y-58384999D01*
X125789307Y-58384999D01*
X125858875Y-58378678D01*
X125858883Y-58378676D01*
X126018970Y-58328791D01*
X126018972Y-58328790D01*
X126162467Y-58242045D01*
X126162471Y-58242042D01*
X126281042Y-58123471D01*
X126281045Y-58123467D01*
X126367789Y-57979973D01*
X126417677Y-57819876D01*
X126424000Y-57750298D01*
X126424000Y-57500000D01*
X125158000Y-57500000D01*
X125158000Y-58384999D01*
X124657999Y-58384999D01*
X124658000Y-58384998D01*
X124658000Y-57500000D01*
X123392001Y-57500000D01*
X123392001Y-57750308D01*
X117457999Y-57750308D01*
X117458000Y-57750298D01*
X117458000Y-57500000D01*
X116192000Y-57500000D01*
X116192000Y-58384999D01*
X115691999Y-58384999D01*
X115692000Y-58384998D01*
X115692000Y-57500000D01*
X114426001Y-57500000D01*
X114426001Y-57750308D01*
X109986595Y-57750308D01*
X109979172Y-57719388D01*
X109979169Y-57719380D01*
X109885777Y-57493910D01*
X109758262Y-57285826D01*
X109758261Y-57285823D01*
X109722453Y-57243897D01*
X109599759Y-57100241D01*
X109477063Y-56995449D01*
X109414176Y-56941738D01*
X109414173Y-56941737D01*
X109206089Y-56814222D01*
X109050320Y-56749701D01*
X114426000Y-56749701D01*
X114426000Y-57000000D01*
X115692000Y-57000000D01*
X116192000Y-57000000D01*
X117457999Y-57000000D01*
X117457999Y-56749701D01*
X123392000Y-56749701D01*
X123392000Y-57000000D01*
X124658000Y-57000000D01*
X125158000Y-57000000D01*
X126423999Y-57000000D01*
X126423999Y-56749691D01*
X126417678Y-56680124D01*
X126417676Y-56680116D01*
X126367791Y-56520029D01*
X126367790Y-56520027D01*
X126281045Y-56376532D01*
X126281042Y-56376528D01*
X126162471Y-56257957D01*
X126162467Y-56257954D01*
X126018973Y-56171210D01*
X125858876Y-56121322D01*
X125789298Y-56115000D01*
X125158000Y-56115000D01*
X125158000Y-57000000D01*
X124658000Y-57000000D01*
X124658000Y-56115000D01*
X124026691Y-56115000D01*
X123957123Y-56121321D01*
X123957116Y-56121323D01*
X123797029Y-56171208D01*
X123797027Y-56171209D01*
X123653532Y-56257954D01*
X123653528Y-56257957D01*
X123534957Y-56376528D01*
X123534954Y-56376532D01*
X123448210Y-56520026D01*
X123398322Y-56680123D01*
X123392000Y-56749701D01*
X117457999Y-56749701D01*
X117457999Y-56749691D01*
X117451678Y-56680124D01*
X117451676Y-56680116D01*
X117401791Y-56520029D01*
X117401790Y-56520027D01*
X117315045Y-56376532D01*
X117315042Y-56376528D01*
X117196471Y-56257957D01*
X117196467Y-56257954D01*
X117052973Y-56171210D01*
X116892876Y-56121322D01*
X116823298Y-56115000D01*
X116192000Y-56115000D01*
X116192000Y-57000000D01*
X115692000Y-57000000D01*
X115692000Y-56115000D01*
X115060691Y-56115000D01*
X114991123Y-56121321D01*
X114991116Y-56121323D01*
X114831029Y-56171208D01*
X114831027Y-56171209D01*
X114687532Y-56257954D01*
X114687528Y-56257957D01*
X114568957Y-56376528D01*
X114568954Y-56376532D01*
X114482210Y-56520026D01*
X114432322Y-56680123D01*
X114426000Y-56749701D01*
X109050320Y-56749701D01*
X108980618Y-56720830D01*
X108980621Y-56720830D01*
X108811037Y-56680116D01*
X108743302Y-56663854D01*
X108743300Y-56663853D01*
X108743297Y-56663853D01*
X108500000Y-56644706D01*
X108256702Y-56663853D01*
X108019380Y-56720830D01*
X107793910Y-56814222D01*
X107585826Y-56941737D01*
X107585823Y-56941738D01*
X107400241Y-57100241D01*
X107241738Y-57285823D01*
X107241737Y-57285826D01*
X107114222Y-57493910D01*
X107020830Y-57719380D01*
X106963853Y-57956702D01*
X106944706Y-58200000D01*
X104555294Y-58200000D01*
X104536146Y-57956698D01*
X104479172Y-57719388D01*
X104479169Y-57719380D01*
X104385777Y-57493910D01*
X104258262Y-57285826D01*
X104258261Y-57285823D01*
X104222453Y-57243897D01*
X104099759Y-57100241D01*
X103977063Y-56995449D01*
X103914176Y-56941738D01*
X103914173Y-56941737D01*
X103706089Y-56814222D01*
X103480618Y-56720830D01*
X103480621Y-56720830D01*
X103311037Y-56680116D01*
X103243302Y-56663854D01*
X103243300Y-56663853D01*
X103243297Y-56663853D01*
X103000000Y-56644706D01*
X102756702Y-56663853D01*
X102519380Y-56720830D01*
X102293910Y-56814222D01*
X102085826Y-56941737D01*
X102085823Y-56941738D01*
X101900241Y-57100241D01*
X101741738Y-57285823D01*
X101741737Y-57285826D01*
X101614222Y-57493910D01*
X101520830Y-57719380D01*
X101463853Y-57956702D01*
X101444706Y-58200000D01*
X101150500Y-58200000D01*
X101150500Y-54000000D01*
X101444706Y-54000000D01*
X101463853Y-54243297D01*
X101520830Y-54480619D01*
X101614222Y-54706089D01*
X101741737Y-54914173D01*
X101741738Y-54914176D01*
X101741741Y-54914179D01*
X101900241Y-55099759D01*
X102043897Y-55222453D01*
X102085823Y-55258261D01*
X102085826Y-55258262D01*
X102293910Y-55385777D01*
X102519381Y-55479169D01*
X102519378Y-55479169D01*
X102519384Y-55479170D01*
X102519388Y-55479172D01*
X102756698Y-55536146D01*
X103000000Y-55555294D01*
X103243302Y-55536146D01*
X103480612Y-55479172D01*
X103706089Y-55385777D01*
X103914179Y-55258259D01*
X104099759Y-55099759D01*
X104258259Y-54914179D01*
X104385777Y-54706089D01*
X104479172Y-54480612D01*
X104536146Y-54243302D01*
X104555294Y-54000000D01*
X106944706Y-54000000D01*
X106963853Y-54243297D01*
X107020830Y-54480619D01*
X107114222Y-54706089D01*
X107241737Y-54914173D01*
X107241738Y-54914176D01*
X107241741Y-54914179D01*
X107400241Y-55099759D01*
X107543897Y-55222453D01*
X107585823Y-55258261D01*
X107585826Y-55258262D01*
X107793910Y-55385777D01*
X108019381Y-55479169D01*
X108019378Y-55479169D01*
X108019384Y-55479170D01*
X108019388Y-55479172D01*
X108256698Y-55536146D01*
X108500000Y-55555294D01*
X108743302Y-55536146D01*
X108980612Y-55479172D01*
X109206089Y-55385777D01*
X109414179Y-55258259D01*
X109599759Y-55099759D01*
X109758259Y-54914179D01*
X109885777Y-54706089D01*
X109979172Y-54480612D01*
X110036146Y-54243302D01*
X110055294Y-54000000D01*
X110036146Y-53756698D01*
X109979172Y-53519388D01*
X109976594Y-53513163D01*
X109885777Y-53293910D01*
X109758262Y-53085826D01*
X109758261Y-53085823D01*
X109722453Y-53043897D01*
X109599759Y-52900241D01*
X109454387Y-52776082D01*
X109414176Y-52741738D01*
X109414173Y-52741737D01*
X109206089Y-52614222D01*
X108980618Y-52520830D01*
X108980621Y-52520830D01*
X108870971Y-52494505D01*
X108743302Y-52463854D01*
X108743300Y-52463853D01*
X108743297Y-52463853D01*
X108500000Y-52444706D01*
X108256702Y-52463853D01*
X108256698Y-52463854D01*
X108109116Y-52499286D01*
X108019380Y-52520830D01*
X107793910Y-52614222D01*
X107585826Y-52741737D01*
X107585823Y-52741738D01*
X107400241Y-52900241D01*
X107241738Y-53085823D01*
X107241737Y-53085826D01*
X107114222Y-53293910D01*
X107020830Y-53519380D01*
X106963853Y-53756702D01*
X106944706Y-54000000D01*
X104555294Y-54000000D01*
X104536146Y-53756698D01*
X104479172Y-53519388D01*
X104476594Y-53513163D01*
X104385777Y-53293910D01*
X104258262Y-53085826D01*
X104258261Y-53085823D01*
X104222453Y-53043897D01*
X104099759Y-52900241D01*
X103954387Y-52776082D01*
X103914176Y-52741738D01*
X103914173Y-52741737D01*
X103706089Y-52614222D01*
X103480618Y-52520830D01*
X103480621Y-52520830D01*
X103370971Y-52494505D01*
X103243302Y-52463854D01*
X103243300Y-52463853D01*
X103243297Y-52463853D01*
X103000000Y-52444706D01*
X102756702Y-52463853D01*
X102756698Y-52463854D01*
X102609116Y-52499286D01*
X102519380Y-52520830D01*
X102293910Y-52614222D01*
X102085826Y-52741737D01*
X102085823Y-52741738D01*
X101900241Y-52900241D01*
X101741738Y-53085823D01*
X101741737Y-53085826D01*
X101614222Y-53293910D01*
X101520830Y-53519380D01*
X101463853Y-53756702D01*
X101444706Y-54000000D01*
X101150500Y-54000000D01*
X101150500Y-53212229D01*
X101170185Y-53145190D01*
X101186819Y-53124548D01*
X102316548Y-51994819D01*
X102377871Y-51961334D01*
X102404229Y-51958500D01*
X110745770Y-51958500D01*
X110812809Y-51978185D01*
X110833451Y-51994819D01*
X112171580Y-53332948D01*
X112171584Y-53332951D01*
X112294498Y-53415080D01*
X112294511Y-53415087D01*
X112431082Y-53471656D01*
X112431087Y-53471658D01*
X112431091Y-53471658D01*
X112431092Y-53471659D01*
X112576079Y-53500500D01*
X112576082Y-53500500D01*
X112723917Y-53500500D01*
X114424097Y-53500500D01*
X114491136Y-53520185D01*
X114530214Y-53560350D01*
X114568559Y-53623781D01*
X114687217Y-53742439D01*
X114687222Y-53742443D01*
X114807815Y-53815343D01*
X114830822Y-53829251D01*
X114991029Y-53879173D01*
X115060653Y-53885500D01*
X116823346Y-53885499D01*
X116823353Y-53885499D01*
X116892966Y-53879174D01*
X116892969Y-53879173D01*
X116892971Y-53879173D01*
X117053178Y-53829251D01*
X117173196Y-53756698D01*
X117196777Y-53742443D01*
X117196778Y-53742441D01*
X117196783Y-53742439D01*
X117315439Y-53623783D01*
X117326697Y-53605158D01*
X117353786Y-53560350D01*
X117405314Y-53513163D01*
X117459903Y-53500500D01*
X123390097Y-53500500D01*
X123457136Y-53520185D01*
X123496214Y-53560350D01*
X123534559Y-53623781D01*
X123653217Y-53742439D01*
X123653222Y-53742443D01*
X123773815Y-53815343D01*
X123796822Y-53829251D01*
X123957029Y-53879173D01*
X124026653Y-53885500D01*
X125789346Y-53885499D01*
X125789353Y-53885499D01*
X125858966Y-53879174D01*
X125858969Y-53879173D01*
X125858971Y-53879173D01*
X126019178Y-53829251D01*
X126139196Y-53756698D01*
X126162777Y-53742443D01*
X126162778Y-53742441D01*
X126162783Y-53742439D01*
X126281439Y-53623783D01*
X126368251Y-53480178D01*
X126418173Y-53319971D01*
X126424500Y-53250347D01*
X126424499Y-52249654D01*
X126424499Y-52249645D01*
X126418174Y-52180033D01*
X126418171Y-52180022D01*
X126368252Y-52019824D01*
X126368250Y-52019820D01*
X126281443Y-51876222D01*
X126281439Y-51876217D01*
X126162782Y-51757560D01*
X126162777Y-51757556D01*
X126019180Y-51670750D01*
X126019179Y-51670749D01*
X126019178Y-51670749D01*
X125858971Y-51620827D01*
X125858969Y-51620826D01*
X125858967Y-51620826D01*
X125810221Y-51616396D01*
X125789347Y-51614500D01*
X125789344Y-51614500D01*
X124026645Y-51614500D01*
X123957033Y-51620825D01*
X123957022Y-51620828D01*
X123796824Y-51670747D01*
X123796820Y-51670749D01*
X123653222Y-51757556D01*
X123653217Y-51757560D01*
X123534559Y-51876218D01*
X123496214Y-51939650D01*
X123444686Y-51986837D01*
X123390097Y-51999500D01*
X117459903Y-51999500D01*
X117392864Y-51979815D01*
X117353786Y-51939650D01*
X117315440Y-51876218D01*
X117196782Y-51757560D01*
X117196777Y-51757556D01*
X117053180Y-51670750D01*
X117053179Y-51670749D01*
X117053178Y-51670749D01*
X116892971Y-51620827D01*
X116892969Y-51620826D01*
X116892967Y-51620826D01*
X116844221Y-51616396D01*
X116823347Y-51614500D01*
X116823344Y-51614500D01*
X115060645Y-51614500D01*
X114991033Y-51620825D01*
X114991022Y-51620828D01*
X114830824Y-51670747D01*
X114830820Y-51670749D01*
X114687222Y-51757556D01*
X114687217Y-51757560D01*
X114568559Y-51876218D01*
X114530214Y-51939650D01*
X114478686Y-51986837D01*
X114424097Y-51999500D01*
X113012229Y-51999500D01*
X112945190Y-51979815D01*
X112924548Y-51963181D01*
X111673550Y-50712181D01*
X111640065Y-50650858D01*
X111645049Y-50581166D01*
X111686921Y-50525233D01*
X111752385Y-50500816D01*
X111761231Y-50500500D01*
X133375500Y-50500500D01*
X133442539Y-50520185D01*
G37*
G04 #@! TD.AperFunction*
M02*
