G04 #@! TF.GenerationSoftware,KiCad,Pcbnew,8.0.5*
G04 #@! TF.CreationDate,2024-11-12T19:42:50-03:00*
G04 #@! TF.ProjectId,Teste R_pido Fonte Chaveada,54657374-6520-452e-9170-69646f20466f,rev?*
G04 #@! TF.SameCoordinates,Original*
G04 #@! TF.FileFunction,Copper,L1,Top*
G04 #@! TF.FilePolarity,Positive*
%FSLAX46Y46*%
G04 Gerber Fmt 4.6, Leading zero omitted, Abs format (unit mm)*
G04 Created by KiCad (PCBNEW 8.0.5) date 2024-11-12 19:42:50*
%MOMM*%
%LPD*%
G01*
G04 APERTURE LIST*
G04 Aperture macros list*
%AMRoundRect*
0 Rectangle with rounded corners*
0 $1 Rounding radius*
0 $2 $3 $4 $5 $6 $7 $8 $9 X,Y pos of 4 corners*
0 Add a 4 corners polygon primitive as box body*
4,1,4,$2,$3,$4,$5,$6,$7,$8,$9,$2,$3,0*
0 Add four circle primitives for the rounded corners*
1,1,$1+$1,$2,$3*
1,1,$1+$1,$4,$5*
1,1,$1+$1,$6,$7*
1,1,$1+$1,$8,$9*
0 Add four rect primitives between the rounded corners*
20,1,$1+$1,$2,$3,$4,$5,0*
20,1,$1+$1,$4,$5,$6,$7,0*
20,1,$1+$1,$6,$7,$8,$9,0*
20,1,$1+$1,$8,$9,$2,$3,0*%
G04 Aperture macros list end*
G04 #@! TA.AperFunction,ComponentPad*
%ADD10R,1.800000X1.800000*%
G04 #@! TD*
G04 #@! TA.AperFunction,ComponentPad*
%ADD11C,1.800000*%
G04 #@! TD*
G04 #@! TA.AperFunction,ComponentPad*
%ADD12C,1.600000*%
G04 #@! TD*
G04 #@! TA.AperFunction,ComponentPad*
%ADD13O,1.600000X1.600000*%
G04 #@! TD*
G04 #@! TA.AperFunction,ComponentPad*
%ADD14RoundRect,0.315000X0.735000X0.735000X-0.735000X0.735000X-0.735000X-0.735000X0.735000X-0.735000X0*%
G04 #@! TD*
G04 #@! TA.AperFunction,ComponentPad*
%ADD15C,2.100000*%
G04 #@! TD*
G04 #@! TA.AperFunction,ComponentPad*
%ADD16C,2.000000*%
G04 #@! TD*
G04 #@! TA.AperFunction,ViaPad*
%ADD17C,0.600000*%
G04 #@! TD*
G04 #@! TA.AperFunction,Conductor*
%ADD18C,0.500000*%
G04 #@! TD*
G04 APERTURE END LIST*
D10*
X131000000Y-65400000D03*
D11*
X128460000Y-65400000D03*
D10*
X131000000Y-79200000D03*
D11*
X128460000Y-79200000D03*
D10*
X131000000Y-83800000D03*
D11*
X128460000Y-83800000D03*
D12*
X115000000Y-79200000D03*
D13*
X125160000Y-79200000D03*
D12*
X115000000Y-74600000D03*
D13*
X125160000Y-74600000D03*
D12*
X115000000Y-88400000D03*
D13*
X125160000Y-88400000D03*
D10*
X128450000Y-93000000D03*
D11*
X130990000Y-93000000D03*
D12*
X115000000Y-93000000D03*
D13*
X125160000Y-93000000D03*
D12*
X115000000Y-65400000D03*
D13*
X125160000Y-65400000D03*
D14*
X108500000Y-91800000D03*
D15*
X108500000Y-87600000D03*
X108500000Y-83400000D03*
X108500000Y-79200000D03*
X108500000Y-75000000D03*
X108500000Y-70800000D03*
X108500000Y-66600000D03*
X108500000Y-62400000D03*
X108500000Y-58200000D03*
X108500000Y-54000000D03*
X103000000Y-91800000D03*
X103000000Y-87600000D03*
X103000000Y-83400000D03*
X103000000Y-79200000D03*
X103000000Y-75000000D03*
X103000000Y-70800000D03*
X103000000Y-66600000D03*
X103000000Y-62400000D03*
X103000000Y-58200000D03*
X103000000Y-54000000D03*
D12*
X115000000Y-70000000D03*
D13*
X125160000Y-70000000D03*
D10*
X128450000Y-88400000D03*
D11*
X130990000Y-88400000D03*
D10*
X131000000Y-70000000D03*
D11*
X128460000Y-70000000D03*
D10*
X131000000Y-74600000D03*
D11*
X128460000Y-74600000D03*
D12*
X115000000Y-83800000D03*
D13*
X125160000Y-83800000D03*
D16*
X131000000Y-57850000D03*
X124500000Y-57850000D03*
X131000000Y-53350000D03*
X124500000Y-53350000D03*
D17*
X113000000Y-74600000D03*
X111000000Y-70000000D03*
D18*
X125160000Y-65400000D02*
X128000000Y-65400000D01*
X125160000Y-70000000D02*
X128000000Y-70000000D01*
X100400000Y-93400000D02*
X101600000Y-94600000D01*
X102500000Y-87600000D02*
X100400000Y-89700000D01*
X110000000Y-94600000D02*
X111600000Y-93000000D01*
X103000000Y-87600000D02*
X102500000Y-87600000D01*
X111600000Y-93000000D02*
X115000000Y-93000000D01*
X101600000Y-94600000D02*
X110000000Y-94600000D01*
X100400000Y-89700000D02*
X100400000Y-93400000D01*
X103000000Y-62400000D02*
X105600000Y-65000000D01*
X111800000Y-89600000D02*
X113000000Y-88400000D01*
X105600000Y-65000000D02*
X105600000Y-88200000D01*
X113000000Y-88400000D02*
X115000000Y-88400000D01*
X105600000Y-88200000D02*
X107000000Y-89600000D01*
X107000000Y-89600000D02*
X111800000Y-89600000D01*
X113000000Y-74600000D02*
X115000000Y-74600000D01*
X108500000Y-79200000D02*
X115000000Y-79200000D01*
X114000000Y-83800000D02*
X115000000Y-83800000D01*
X110200000Y-87600000D02*
X114000000Y-83800000D01*
X108500000Y-87600000D02*
X110200000Y-87600000D01*
X111108000Y-51208000D02*
X113250000Y-53350000D01*
X103000000Y-79200000D02*
X102000000Y-79200000D01*
X123750000Y-53350000D02*
X130250000Y-53350000D01*
X100400000Y-52850000D02*
X102042000Y-51208000D01*
X113250000Y-53350000D02*
X123750000Y-53350000D01*
X102000000Y-79200000D02*
X100400000Y-77600000D01*
X100400000Y-77600000D02*
X100400000Y-52850000D01*
X102042000Y-51208000D02*
X111108000Y-51208000D01*
X125160000Y-79200000D02*
X128000000Y-79200000D01*
X125160000Y-74600000D02*
X128000000Y-74600000D01*
X125160000Y-88400000D02*
X128000000Y-88400000D01*
X125160000Y-83800000D02*
X128000000Y-83800000D01*
X125160000Y-93000000D02*
X128000000Y-93000000D01*
X110200000Y-62400000D02*
X108500000Y-62400000D01*
X115000000Y-65400000D02*
X113200000Y-65400000D01*
X113200000Y-65400000D02*
X110200000Y-62400000D01*
X111000000Y-70000000D02*
X115000000Y-70000000D01*
G04 #@! TA.AperFunction,Conductor*
G36*
X114692208Y-69265180D02*
G01*
X114698199Y-69271354D01*
X114999134Y-69995510D01*
X114999144Y-70004463D01*
X114999135Y-70004485D01*
X114999134Y-70004490D01*
X114698199Y-70728645D01*
X114691860Y-70734970D01*
X114683258Y-70735099D01*
X113407563Y-70252858D01*
X113401036Y-70246727D01*
X113400000Y-70241914D01*
X113400000Y-69758085D01*
X113403427Y-69749812D01*
X113407563Y-69747141D01*
X114683260Y-69264900D01*
X114692208Y-69265180D01*
G37*
G04 #@! TD.AperFunction*
G04 #@! TA.AperFunction,Conductor*
G36*
X124121804Y-52436925D02*
G01*
X124121809Y-52436938D01*
X124499136Y-53345513D01*
X124499145Y-53354467D01*
X124499136Y-53354487D01*
X124121809Y-54263061D01*
X124115471Y-54269388D01*
X124106517Y-54269379D01*
X124106504Y-54269374D01*
X122507200Y-53602999D01*
X122500881Y-53596654D01*
X122500000Y-53592199D01*
X122500000Y-53107800D01*
X122503427Y-53099527D01*
X122507200Y-53097000D01*
X124106504Y-52430624D01*
X124115459Y-52430606D01*
X124121804Y-52436925D01*
G37*
G04 #@! TD.AperFunction*
G04 #@! TA.AperFunction,Conductor*
G36*
X110268473Y-87174844D02*
G01*
X110272413Y-87177439D01*
X110613694Y-87518720D01*
X110617121Y-87526993D01*
X110613694Y-87535266D01*
X110611465Y-87537011D01*
X108936385Y-88547710D01*
X108927531Y-88549050D01*
X108920323Y-88543736D01*
X108919662Y-88542471D01*
X108501344Y-87605304D01*
X108501102Y-87596353D01*
X108501197Y-87596114D01*
X108897397Y-86640586D01*
X108903732Y-86634257D01*
X108912537Y-86634200D01*
X110268473Y-87174844D01*
G37*
G04 #@! TD.AperFunction*
G04 #@! TA.AperFunction,Conductor*
G36*
X126752437Y-83547141D02*
G01*
X126758964Y-83553272D01*
X126760000Y-83558085D01*
X126760000Y-84041914D01*
X126756573Y-84050187D01*
X126752437Y-84052858D01*
X125476741Y-84535099D01*
X125467791Y-84534819D01*
X125461801Y-84528646D01*
X125160864Y-83804487D01*
X125160854Y-83795538D01*
X125461801Y-83071352D01*
X125468139Y-83065029D01*
X125476739Y-83064900D01*
X126752437Y-83547141D01*
G37*
G04 #@! TD.AperFunction*
G04 #@! TA.AperFunction,Conductor*
G36*
X102995903Y-78153762D02*
G01*
X102999972Y-78161739D01*
X103000008Y-78162654D01*
X103000703Y-79195849D01*
X102997282Y-79204125D01*
X102997268Y-79204138D01*
X102266257Y-79933759D01*
X102257981Y-79937178D01*
X102249711Y-79933743D01*
X102249296Y-79933305D01*
X101081838Y-78636215D01*
X101078850Y-78627773D01*
X101082260Y-78620116D01*
X101424915Y-78277461D01*
X101432261Y-78274071D01*
X102987385Y-78150998D01*
X102995903Y-78153762D01*
G37*
G04 #@! TD.AperFunction*
G04 #@! TA.AperFunction,Conductor*
G36*
X126752437Y-78947141D02*
G01*
X126758964Y-78953272D01*
X126760000Y-78958085D01*
X126760000Y-79441914D01*
X126756573Y-79450187D01*
X126752437Y-79452858D01*
X125476741Y-79935099D01*
X125467791Y-79934819D01*
X125461801Y-79928646D01*
X125160864Y-79204487D01*
X125160854Y-79195538D01*
X125461801Y-78471352D01*
X125468139Y-78465029D01*
X125476739Y-78464900D01*
X126752437Y-78947141D01*
G37*
G04 #@! TD.AperFunction*
G04 #@! TA.AperFunction,Conductor*
G36*
X108912540Y-78234612D02*
G01*
X108912698Y-78234679D01*
X110542985Y-78946935D01*
X110549193Y-78953386D01*
X110550000Y-78957655D01*
X110550000Y-79442344D01*
X110546573Y-79450617D01*
X110542984Y-79453065D01*
X108912737Y-80165303D01*
X108903784Y-80165475D01*
X108897332Y-80159266D01*
X108897248Y-80159069D01*
X108500863Y-79204487D01*
X108500855Y-79195532D01*
X108500863Y-79195513D01*
X108604084Y-78946934D01*
X108897249Y-78240928D01*
X108903585Y-78234604D01*
X108912540Y-78234612D01*
G37*
G04 #@! TD.AperFunction*
G04 #@! TA.AperFunction,Conductor*
G36*
X127557045Y-87507037D02*
G01*
X128442712Y-88391722D01*
X128446143Y-88399994D01*
X128442721Y-88408269D01*
X128442712Y-88408278D01*
X127557045Y-89292962D01*
X127548770Y-89296384D01*
X127541926Y-89294169D01*
X126654850Y-88653502D01*
X126650149Y-88645880D01*
X126650000Y-88644017D01*
X126650000Y-88155982D01*
X126653427Y-88147709D01*
X126654850Y-88146497D01*
X127541928Y-87505829D01*
X127550639Y-87503764D01*
X127557045Y-87507037D01*
G37*
G04 #@! TD.AperFunction*
G04 #@! TA.AperFunction,Conductor*
G36*
X130621804Y-52436925D02*
G01*
X130621809Y-52436938D01*
X130999136Y-53345513D01*
X130999145Y-53354467D01*
X130999136Y-53354487D01*
X130621809Y-54263061D01*
X130615471Y-54269388D01*
X130606517Y-54269379D01*
X130606504Y-54269374D01*
X129007200Y-53602999D01*
X129000881Y-53596654D01*
X129000000Y-53592199D01*
X129000000Y-53107800D01*
X129003427Y-53099527D01*
X129007200Y-53097000D01*
X130606504Y-52430624D01*
X130615459Y-52430606D01*
X130621804Y-52436925D01*
G37*
G04 #@! TD.AperFunction*
G04 #@! TA.AperFunction,Conductor*
G36*
X127557045Y-92107037D02*
G01*
X128442712Y-92991722D01*
X128446143Y-92999994D01*
X128442721Y-93008269D01*
X128442712Y-93008278D01*
X127557045Y-93892962D01*
X127548770Y-93896384D01*
X127541926Y-93894169D01*
X126654850Y-93253502D01*
X126650149Y-93245880D01*
X126650000Y-93244017D01*
X126650000Y-92755982D01*
X126653427Y-92747709D01*
X126654850Y-92746497D01*
X127541928Y-92105829D01*
X127550639Y-92103764D01*
X127557045Y-92107037D01*
G37*
G04 #@! TD.AperFunction*
G04 #@! TA.AperFunction,Conductor*
G36*
X114692208Y-64665180D02*
G01*
X114698199Y-64671354D01*
X114999134Y-65395510D01*
X114999144Y-65404463D01*
X114999135Y-65404485D01*
X114999134Y-65404490D01*
X114698199Y-66128645D01*
X114691860Y-66134970D01*
X114683258Y-66135099D01*
X113407563Y-65652858D01*
X113401036Y-65646727D01*
X113400000Y-65641914D01*
X113400000Y-65158085D01*
X113403427Y-65149812D01*
X113407563Y-65147141D01*
X114683260Y-64664900D01*
X114692208Y-64665180D01*
G37*
G04 #@! TD.AperFunction*
G04 #@! TA.AperFunction,Conductor*
G36*
X114692208Y-92265180D02*
G01*
X114698199Y-92271354D01*
X114999134Y-92995510D01*
X114999144Y-93004463D01*
X114999135Y-93004485D01*
X114999134Y-93004490D01*
X114698199Y-93728645D01*
X114691860Y-93734970D01*
X114683258Y-93735099D01*
X113407563Y-93252858D01*
X113401036Y-93246727D01*
X113400000Y-93241914D01*
X113400000Y-92758085D01*
X113403427Y-92749812D01*
X113407563Y-92747141D01*
X114683260Y-92264900D01*
X114692208Y-92265180D01*
G37*
G04 #@! TD.AperFunction*
G04 #@! TA.AperFunction,Conductor*
G36*
X108935110Y-61451622D02*
G01*
X108936379Y-61452285D01*
X108945084Y-61457537D01*
X110611465Y-62462988D01*
X110616779Y-62470196D01*
X110615439Y-62479050D01*
X110613694Y-62481279D01*
X110272413Y-62822560D01*
X110268473Y-62825155D01*
X108912538Y-63365799D01*
X108903584Y-63365680D01*
X108897397Y-63359412D01*
X108501220Y-62403942D01*
X108501218Y-62394990D01*
X108501324Y-62394741D01*
X108919659Y-61457534D01*
X108926158Y-61451379D01*
X108935110Y-61451622D01*
G37*
G04 #@! TD.AperFunction*
G04 #@! TA.AperFunction,Conductor*
G36*
X114692208Y-78465180D02*
G01*
X114698199Y-78471354D01*
X114999134Y-79195510D01*
X114999144Y-79204463D01*
X114999135Y-79204485D01*
X114999134Y-79204490D01*
X114698199Y-79928645D01*
X114691860Y-79934970D01*
X114683258Y-79935099D01*
X113407563Y-79452858D01*
X113401036Y-79446727D01*
X113400000Y-79441914D01*
X113400000Y-78958085D01*
X113403427Y-78949812D01*
X113407563Y-78947141D01*
X114683260Y-78464900D01*
X114692208Y-78465180D01*
G37*
G04 #@! TD.AperFunction*
G04 #@! TA.AperFunction,Conductor*
G36*
X114441653Y-83241635D02*
G01*
X114997265Y-83795860D01*
X115000702Y-83804128D01*
X115000702Y-83804153D01*
X115000012Y-84586297D01*
X114996578Y-84594567D01*
X114988302Y-84597987D01*
X114986469Y-84597841D01*
X113756259Y-84401637D01*
X113749829Y-84398356D01*
X113408287Y-84056814D01*
X113404860Y-84048541D01*
X113408287Y-84040268D01*
X113409333Y-84039340D01*
X113719339Y-83795860D01*
X114426164Y-83240716D01*
X114434786Y-83238302D01*
X114441653Y-83241635D01*
G37*
G04 #@! TD.AperFunction*
G04 #@! TA.AperFunction,Conductor*
G36*
X126752437Y-88147141D02*
G01*
X126758964Y-88153272D01*
X126760000Y-88158085D01*
X126760000Y-88641914D01*
X126756573Y-88650187D01*
X126752437Y-88652858D01*
X125476741Y-89135099D01*
X125467791Y-89134819D01*
X125461801Y-89128646D01*
X125160864Y-88404487D01*
X125160854Y-88395538D01*
X125461801Y-87671352D01*
X125468139Y-87665029D01*
X125476739Y-87664900D01*
X126752437Y-88147141D01*
G37*
G04 #@! TD.AperFunction*
G04 #@! TA.AperFunction,Conductor*
G36*
X126752437Y-92747141D02*
G01*
X126758964Y-92753272D01*
X126760000Y-92758085D01*
X126760000Y-93241914D01*
X126756573Y-93250187D01*
X126752437Y-93252858D01*
X125476741Y-93735099D01*
X125467791Y-93734819D01*
X125461801Y-93728646D01*
X125160864Y-93004487D01*
X125160854Y-92995538D01*
X125461801Y-92271352D01*
X125468139Y-92265029D01*
X125476739Y-92264900D01*
X126752437Y-92747141D01*
G37*
G04 #@! TD.AperFunction*
G04 #@! TA.AperFunction,Conductor*
G36*
X114692208Y-73865180D02*
G01*
X114698199Y-73871354D01*
X114999134Y-74595510D01*
X114999144Y-74604463D01*
X114999135Y-74604485D01*
X114999134Y-74604490D01*
X114698199Y-75328645D01*
X114691860Y-75334970D01*
X114683258Y-75335099D01*
X113407563Y-74852858D01*
X113401036Y-74846727D01*
X113400000Y-74841914D01*
X113400000Y-74358085D01*
X113403427Y-74349812D01*
X113407563Y-74347141D01*
X114683260Y-73864900D01*
X114692208Y-73865180D01*
G37*
G04 #@! TD.AperFunction*
G04 #@! TA.AperFunction,Conductor*
G36*
X102039083Y-87201965D02*
G01*
X102993469Y-87596302D01*
X102999806Y-87602628D01*
X103000701Y-87607123D01*
X103000006Y-88640299D01*
X102996574Y-88648570D01*
X102990465Y-88651790D01*
X101533002Y-88925477D01*
X101524239Y-88923636D01*
X101522570Y-88922251D01*
X101179955Y-88579636D01*
X101176528Y-88571363D01*
X101178297Y-88565176D01*
X101775158Y-87607123D01*
X102024687Y-87206591D01*
X102031970Y-87201382D01*
X102039083Y-87201965D01*
G37*
G04 #@! TD.AperFunction*
G04 #@! TA.AperFunction,Conductor*
G36*
X126752437Y-74347141D02*
G01*
X126758964Y-74353272D01*
X126760000Y-74358085D01*
X126760000Y-74841914D01*
X126756573Y-74850187D01*
X126752437Y-74852858D01*
X125476741Y-75335099D01*
X125467791Y-75334819D01*
X125461801Y-75328646D01*
X125160864Y-74604487D01*
X125160854Y-74595538D01*
X125461801Y-73871352D01*
X125468139Y-73865029D01*
X125476739Y-73864900D01*
X126752437Y-74347141D01*
G37*
G04 #@! TD.AperFunction*
G04 #@! TA.AperFunction,Conductor*
G36*
X124893482Y-52430620D02*
G01*
X124893495Y-52430625D01*
X126492800Y-53097000D01*
X126499119Y-53103345D01*
X126500000Y-53107800D01*
X126500000Y-53592199D01*
X126496573Y-53600472D01*
X126492800Y-53602999D01*
X124893495Y-54269374D01*
X124884540Y-54269393D01*
X124878195Y-54263074D01*
X124878190Y-54263061D01*
X124500863Y-53354487D01*
X124500854Y-53345535D01*
X124878190Y-52436937D01*
X124884528Y-52430611D01*
X124893482Y-52430620D01*
G37*
G04 #@! TD.AperFunction*
G04 #@! TA.AperFunction,Conductor*
G36*
X126752437Y-65147141D02*
G01*
X126758964Y-65153272D01*
X126760000Y-65158085D01*
X126760000Y-65641914D01*
X126756573Y-65650187D01*
X126752437Y-65652858D01*
X125476741Y-66135099D01*
X125467791Y-66134819D01*
X125461801Y-66128646D01*
X125160864Y-65404487D01*
X125160854Y-65395538D01*
X125461801Y-64671352D01*
X125468139Y-64665029D01*
X125476739Y-64664900D01*
X126752437Y-65147141D01*
G37*
G04 #@! TD.AperFunction*
G04 #@! TA.AperFunction,Conductor*
G36*
X103968015Y-62002740D02*
G01*
X103974341Y-62009077D01*
X103974421Y-62009276D01*
X104623551Y-63665663D01*
X104623379Y-63674616D01*
X104620931Y-63678205D01*
X104278205Y-64020931D01*
X104269932Y-64024358D01*
X104265663Y-64023551D01*
X102609276Y-63374421D01*
X102602824Y-63368212D01*
X102602652Y-63359259D01*
X102602702Y-63359132D01*
X102997439Y-62403779D01*
X103003761Y-62397446D01*
X103959061Y-62002732D01*
X103968015Y-62002740D01*
G37*
G04 #@! TD.AperFunction*
G04 #@! TA.AperFunction,Conductor*
G36*
X114692208Y-87665180D02*
G01*
X114698199Y-87671354D01*
X114999134Y-88395510D01*
X114999144Y-88404463D01*
X114999135Y-88404485D01*
X114999134Y-88404490D01*
X114698199Y-89128645D01*
X114691860Y-89134970D01*
X114683258Y-89135099D01*
X113407563Y-88652858D01*
X113401036Y-88646727D01*
X113400000Y-88641914D01*
X113400000Y-88158085D01*
X113403427Y-88149812D01*
X113407563Y-88147141D01*
X114683260Y-87664900D01*
X114692208Y-87665180D01*
G37*
G04 #@! TD.AperFunction*
G04 #@! TA.AperFunction,Conductor*
G36*
X126752437Y-69747141D02*
G01*
X126758964Y-69753272D01*
X126760000Y-69758085D01*
X126760000Y-70241914D01*
X126756573Y-70250187D01*
X126752437Y-70252858D01*
X125476741Y-70735099D01*
X125467791Y-70734819D01*
X125461801Y-70728646D01*
X125160864Y-70004487D01*
X125160854Y-69995538D01*
X125461801Y-69271352D01*
X125468139Y-69265029D01*
X125476739Y-69264900D01*
X126752437Y-69747141D01*
G37*
G04 #@! TD.AperFunction*
G04 #@! TA.AperFunction,Conductor*
G36*
X134442539Y-50520185D02*
G01*
X134488294Y-50572989D01*
X134499500Y-50624500D01*
X134499500Y-99375500D01*
X134479815Y-99442539D01*
X134427011Y-99488294D01*
X134375500Y-99499500D01*
X99624500Y-99499500D01*
X99557461Y-99479815D01*
X99511706Y-99427011D01*
X99500500Y-99375500D01*
X99500500Y-93811969D01*
X99520185Y-93744930D01*
X99572989Y-93699175D01*
X99642147Y-93689231D01*
X99705703Y-93718256D01*
X99731442Y-93750489D01*
X99731532Y-93750430D01*
X99732233Y-93751480D01*
X99733857Y-93753513D01*
X99734914Y-93755491D01*
X99734916Y-93755495D01*
X99744787Y-93770268D01*
X99763326Y-93798013D01*
X99763327Y-93798015D01*
X99817043Y-93878410D01*
X99817047Y-93878415D01*
X99817048Y-93878416D01*
X101017049Y-95078416D01*
X101121583Y-95182950D01*
X101121585Y-95182952D01*
X101244498Y-95265080D01*
X101244511Y-95265087D01*
X101381082Y-95321656D01*
X101381087Y-95321658D01*
X101381091Y-95321658D01*
X101381092Y-95321659D01*
X101526079Y-95350500D01*
X101526082Y-95350500D01*
X110073920Y-95350500D01*
X110171462Y-95331096D01*
X110218913Y-95321658D01*
X110355495Y-95265084D01*
X110404729Y-95232186D01*
X110478416Y-95182952D01*
X111874549Y-93786819D01*
X111935872Y-93753334D01*
X111962230Y-93750500D01*
X113271766Y-93750500D01*
X113315610Y-93758510D01*
X114504513Y-94207942D01*
X114526470Y-94215121D01*
X114540330Y-94220596D01*
X114553502Y-94226738D01*
X114553504Y-94226739D01*
X114773308Y-94285635D01*
X114935230Y-94299801D01*
X114999998Y-94305468D01*
X115000000Y-94305468D01*
X115000002Y-94305468D01*
X115056673Y-94300509D01*
X115226692Y-94285635D01*
X115446496Y-94226739D01*
X115652734Y-94130568D01*
X115839139Y-94000047D01*
X116000047Y-93839139D01*
X116130568Y-93652734D01*
X116226739Y-93446496D01*
X116285635Y-93226692D01*
X116305468Y-93000000D01*
X116305468Y-92999998D01*
X123854532Y-92999998D01*
X123854532Y-93000001D01*
X123874364Y-93226686D01*
X123874366Y-93226697D01*
X123933258Y-93446488D01*
X123933261Y-93446497D01*
X124029431Y-93652732D01*
X124029432Y-93652734D01*
X124159954Y-93839141D01*
X124320858Y-94000045D01*
X124320861Y-94000047D01*
X124507266Y-94130568D01*
X124713504Y-94226739D01*
X124933308Y-94285635D01*
X125095230Y-94299801D01*
X125159998Y-94305468D01*
X125160000Y-94305468D01*
X125160002Y-94305468D01*
X125216673Y-94300509D01*
X125386692Y-94285635D01*
X125606496Y-94226739D01*
X125626623Y-94217353D01*
X125652150Y-94208683D01*
X125655486Y-94207942D01*
X126549850Y-93869852D01*
X126619514Y-93864560D01*
X126666292Y-93885317D01*
X127245960Y-94303967D01*
X127245973Y-94303976D01*
X127257079Y-94311773D01*
X127257082Y-94311774D01*
X127257083Y-94311775D01*
X127269288Y-94317758D01*
X127289011Y-94329829D01*
X127307669Y-94343796D01*
X127307673Y-94343798D01*
X127363516Y-94364626D01*
X127374765Y-94369467D01*
X127386262Y-94375103D01*
X127386269Y-94375105D01*
X127386274Y-94375108D01*
X127389696Y-94376215D01*
X127393111Y-94377321D01*
X127393114Y-94377321D01*
X127393118Y-94377323D01*
X127400029Y-94379058D01*
X127413151Y-94383138D01*
X127442517Y-94394091D01*
X127502127Y-94400500D01*
X129397872Y-94400499D01*
X129457483Y-94394091D01*
X129592331Y-94343796D01*
X129707546Y-94257546D01*
X129793796Y-94142331D01*
X129844091Y-94007483D01*
X129850500Y-93947873D01*
X129850499Y-93837304D01*
X129870183Y-93770268D01*
X129886818Y-93749626D01*
X130547861Y-93088584D01*
X130570667Y-93173694D01*
X130629910Y-93276306D01*
X130713694Y-93360090D01*
X130816306Y-93419333D01*
X130901414Y-93442138D01*
X130191201Y-94152351D01*
X130221649Y-94176050D01*
X130425697Y-94286476D01*
X130425706Y-94286479D01*
X130645139Y-94361811D01*
X130873993Y-94400000D01*
X131106007Y-94400000D01*
X131334860Y-94361811D01*
X131554293Y-94286479D01*
X131554301Y-94286476D01*
X131758355Y-94176047D01*
X131788797Y-94152351D01*
X131788798Y-94152350D01*
X131078585Y-93442137D01*
X131163694Y-93419333D01*
X131266306Y-93360090D01*
X131350090Y-93276306D01*
X131409333Y-93173694D01*
X131432138Y-93088585D01*
X132141186Y-93797633D01*
X132225482Y-93668611D01*
X132318682Y-93456135D01*
X132375638Y-93231218D01*
X132394798Y-93000005D01*
X132394798Y-92999994D01*
X132375638Y-92768781D01*
X132318682Y-92543864D01*
X132225484Y-92331393D01*
X132141186Y-92202365D01*
X131432137Y-92911414D01*
X131409333Y-92826306D01*
X131350090Y-92723694D01*
X131266306Y-92639910D01*
X131163694Y-92580667D01*
X131078584Y-92557861D01*
X131788797Y-91847647D01*
X131788797Y-91847645D01*
X131758360Y-91823955D01*
X131758354Y-91823951D01*
X131554302Y-91713523D01*
X131554293Y-91713520D01*
X131334860Y-91638188D01*
X131106007Y-91600000D01*
X130873993Y-91600000D01*
X130645139Y-91638188D01*
X130425706Y-91713520D01*
X130425697Y-91713523D01*
X130221650Y-91823949D01*
X130191200Y-91847647D01*
X130901415Y-92557861D01*
X130816306Y-92580667D01*
X130713694Y-92639910D01*
X130629910Y-92723694D01*
X130570667Y-92826306D01*
X130547861Y-92911415D01*
X129886818Y-92250372D01*
X129853333Y-92189049D01*
X129850499Y-92162691D01*
X129850499Y-92052129D01*
X129850498Y-92052123D01*
X129849549Y-92043297D01*
X129844091Y-91992517D01*
X129798183Y-91869432D01*
X129793797Y-91857671D01*
X129793793Y-91857664D01*
X129707547Y-91742455D01*
X129707544Y-91742452D01*
X129592335Y-91656206D01*
X129592328Y-91656202D01*
X129457482Y-91605908D01*
X129457483Y-91605908D01*
X129397883Y-91599501D01*
X129397881Y-91599500D01*
X129397873Y-91599500D01*
X129397865Y-91599500D01*
X127590651Y-91599500D01*
X127584117Y-91599328D01*
X127577331Y-91598969D01*
X127576986Y-91599001D01*
X127565878Y-91599500D01*
X127502131Y-91599500D01*
X127502124Y-91599501D01*
X127442513Y-91605909D01*
X127408552Y-91618575D01*
X127400248Y-91621343D01*
X127373407Y-91629246D01*
X127364164Y-91634089D01*
X127349952Y-91640432D01*
X127307671Y-91656202D01*
X127307668Y-91656203D01*
X127282256Y-91675225D01*
X127265517Y-91685781D01*
X127245963Y-91696029D01*
X126666293Y-92114680D01*
X126600420Y-92137973D01*
X126549846Y-92130145D01*
X125655491Y-91792059D01*
X125646407Y-91789088D01*
X125633533Y-91784879D01*
X125619675Y-91779406D01*
X125606495Y-91773260D01*
X125386697Y-91714366D01*
X125386693Y-91714365D01*
X125386692Y-91714365D01*
X125386691Y-91714364D01*
X125386686Y-91714364D01*
X125160002Y-91694532D01*
X125159998Y-91694532D01*
X124933313Y-91714364D01*
X124933302Y-91714366D01*
X124713511Y-91773258D01*
X124713502Y-91773261D01*
X124507267Y-91869431D01*
X124507265Y-91869432D01*
X124320858Y-91999954D01*
X124159954Y-92160858D01*
X124029432Y-92347265D01*
X124029431Y-92347267D01*
X123933261Y-92553502D01*
X123933258Y-92553511D01*
X123874366Y-92773302D01*
X123874364Y-92773313D01*
X123854532Y-92999998D01*
X116305468Y-92999998D01*
X116305467Y-92999994D01*
X116295938Y-92891071D01*
X116285635Y-92773308D01*
X116226739Y-92553504D01*
X116130568Y-92347266D01*
X116000047Y-92160861D01*
X116000045Y-92160858D01*
X115839141Y-91999954D01*
X115652734Y-91869432D01*
X115652732Y-91869431D01*
X115446497Y-91773261D01*
X115446488Y-91773258D01*
X115226697Y-91714366D01*
X115226693Y-91714365D01*
X115226692Y-91714365D01*
X115226691Y-91714364D01*
X115226686Y-91714364D01*
X115000002Y-91694532D01*
X114999998Y-91694532D01*
X114773313Y-91714364D01*
X114773302Y-91714366D01*
X114553502Y-91773261D01*
X114533371Y-91782648D01*
X114507879Y-91791309D01*
X114504525Y-91792054D01*
X114504499Y-91792062D01*
X113315609Y-92241489D01*
X113271763Y-92249500D01*
X111526076Y-92249500D01*
X111497242Y-92255234D01*
X111497243Y-92255235D01*
X111381093Y-92278339D01*
X111381083Y-92278342D01*
X111301081Y-92311479D01*
X111301082Y-92311480D01*
X111244506Y-92334915D01*
X111204474Y-92361664D01*
X111121582Y-92417049D01*
X111121581Y-92417050D01*
X109725451Y-93813181D01*
X109664128Y-93846666D01*
X109637770Y-93849500D01*
X101962229Y-93849500D01*
X101895190Y-93829815D01*
X101874548Y-93813181D01*
X101186819Y-93125451D01*
X101153334Y-93064128D01*
X101150500Y-93037770D01*
X101150500Y-91800000D01*
X101444706Y-91800000D01*
X101463853Y-92043297D01*
X101463853Y-92043300D01*
X101463854Y-92043302D01*
X101520282Y-92278339D01*
X101520830Y-92280619D01*
X101614222Y-92506089D01*
X101741737Y-92714173D01*
X101741738Y-92714176D01*
X101788375Y-92768781D01*
X101900241Y-92899759D01*
X102017610Y-93000001D01*
X102085823Y-93058261D01*
X102085826Y-93058262D01*
X102293910Y-93185777D01*
X102392689Y-93226692D01*
X102507838Y-93274388D01*
X102519381Y-93279169D01*
X102519378Y-93279169D01*
X102519384Y-93279170D01*
X102519388Y-93279172D01*
X102756698Y-93336146D01*
X103000000Y-93355294D01*
X103243302Y-93336146D01*
X103480612Y-93279172D01*
X103706089Y-93185777D01*
X103914179Y-93058259D01*
X104099759Y-92899759D01*
X104258259Y-92714179D01*
X104385777Y-92506089D01*
X104479172Y-92280612D01*
X104536146Y-92043302D01*
X104555294Y-91800000D01*
X104536146Y-91556698D01*
X104479172Y-91319388D01*
X104385777Y-91093911D01*
X104385777Y-91093910D01*
X104258262Y-90885826D01*
X104258261Y-90885823D01*
X104222453Y-90843897D01*
X104099759Y-90700241D01*
X103927748Y-90553330D01*
X103914176Y-90541738D01*
X103914173Y-90541737D01*
X103706089Y-90414222D01*
X103480618Y-90320830D01*
X103480621Y-90320830D01*
X103374992Y-90295470D01*
X103243302Y-90263854D01*
X103243300Y-90263853D01*
X103243297Y-90263853D01*
X103000000Y-90244706D01*
X102756702Y-90263853D01*
X102519380Y-90320830D01*
X102293910Y-90414222D01*
X102085826Y-90541737D01*
X102085823Y-90541738D01*
X101900241Y-90700241D01*
X101741738Y-90885823D01*
X101741737Y-90885826D01*
X101614222Y-91093910D01*
X101520830Y-91319380D01*
X101463853Y-91556702D01*
X101444706Y-91800000D01*
X101150500Y-91800000D01*
X101150500Y-90062228D01*
X101170185Y-89995189D01*
X101186815Y-89974551D01*
X101738037Y-89423328D01*
X101799358Y-89389845D01*
X101802778Y-89389151D01*
X103076358Y-89149995D01*
X103089487Y-89148250D01*
X103243302Y-89136146D01*
X103480612Y-89079172D01*
X103706089Y-88985777D01*
X103914179Y-88858259D01*
X104099759Y-88699759D01*
X104258259Y-88514179D01*
X104385777Y-88306089D01*
X104479172Y-88080612D01*
X104536146Y-87843302D01*
X104555294Y-87600000D01*
X104536146Y-87356698D01*
X104479172Y-87119388D01*
X104477092Y-87114366D01*
X104385777Y-86893910D01*
X104258262Y-86685826D01*
X104258261Y-86685823D01*
X104172060Y-86584895D01*
X104099759Y-86500241D01*
X103977063Y-86395449D01*
X103914176Y-86341738D01*
X103914173Y-86341737D01*
X103706089Y-86214222D01*
X103480618Y-86120830D01*
X103480621Y-86120830D01*
X103374992Y-86095470D01*
X103243302Y-86063854D01*
X103243300Y-86063853D01*
X103243297Y-86063853D01*
X103000000Y-86044706D01*
X102756702Y-86063853D01*
X102519380Y-86120830D01*
X102293910Y-86214222D01*
X102085826Y-86341737D01*
X102085823Y-86341738D01*
X101900241Y-86500241D01*
X101741738Y-86685823D01*
X101741737Y-86685826D01*
X101614226Y-86893904D01*
X101614223Y-86893910D01*
X101598912Y-86930873D01*
X101589599Y-86948985D01*
X101346108Y-87339828D01*
X101346107Y-87339828D01*
X100770797Y-88263285D01*
X100753232Y-88285398D01*
X99817047Y-89221584D01*
X99817045Y-89221586D01*
X99787444Y-89265891D01*
X99787442Y-89265894D01*
X99734913Y-89344508D01*
X99733856Y-89346487D01*
X99733029Y-89347328D01*
X99731531Y-89349571D01*
X99731105Y-89349286D01*
X99684892Y-89396330D01*
X99616754Y-89411788D01*
X99551075Y-89387954D01*
X99508708Y-89332395D01*
X99500500Y-89288030D01*
X99500500Y-83400000D01*
X101445207Y-83400000D01*
X101464348Y-83643219D01*
X101521303Y-83880457D01*
X101614668Y-84105861D01*
X101738504Y-84307941D01*
X102360689Y-83685755D01*
X102379668Y-83731574D01*
X102456274Y-83846224D01*
X102553776Y-83943726D01*
X102668426Y-84020332D01*
X102714242Y-84039309D01*
X102092057Y-84661494D01*
X102294138Y-84785331D01*
X102519542Y-84878696D01*
X102756780Y-84935651D01*
X102756779Y-84935651D01*
X103000000Y-84954792D01*
X103243219Y-84935651D01*
X103480457Y-84878696D01*
X103705861Y-84785331D01*
X103907941Y-84661495D01*
X103907941Y-84661494D01*
X103285757Y-84039309D01*
X103331574Y-84020332D01*
X103446224Y-83943726D01*
X103543726Y-83846224D01*
X103620332Y-83731574D01*
X103639309Y-83685756D01*
X104261494Y-84307941D01*
X104261495Y-84307941D01*
X104385331Y-84105861D01*
X104478696Y-83880457D01*
X104535651Y-83643219D01*
X104554792Y-83400000D01*
X104535651Y-83156780D01*
X104478696Y-82919542D01*
X104385331Y-82694138D01*
X104261494Y-82492057D01*
X103639309Y-83114242D01*
X103620332Y-83068426D01*
X103543726Y-82953776D01*
X103446224Y-82856274D01*
X103331574Y-82779668D01*
X103285756Y-82760689D01*
X103907941Y-82138504D01*
X103705861Y-82014668D01*
X103480457Y-81921303D01*
X103243219Y-81864348D01*
X103243220Y-81864348D01*
X103000000Y-81845207D01*
X102756780Y-81864348D01*
X102519542Y-81921303D01*
X102294138Y-82014668D01*
X102092057Y-82138504D01*
X102714243Y-82760689D01*
X102668426Y-82779668D01*
X102553776Y-82856274D01*
X102456274Y-82953776D01*
X102379668Y-83068426D01*
X102360690Y-83114243D01*
X101738504Y-82492057D01*
X101614668Y-82694138D01*
X101521303Y-82919542D01*
X101464348Y-83156780D01*
X101445207Y-83400000D01*
X99500500Y-83400000D01*
X99500500Y-78011969D01*
X99520185Y-77944930D01*
X99572989Y-77899175D01*
X99642147Y-77889231D01*
X99705703Y-77918256D01*
X99731439Y-77950488D01*
X99731530Y-77950428D01*
X99732243Y-77951495D01*
X99733863Y-77953524D01*
X99734914Y-77955491D01*
X99734916Y-77955495D01*
X99754527Y-77984845D01*
X99754528Y-77984848D01*
X99817046Y-78078414D01*
X99817052Y-78078421D01*
X100683521Y-78944889D01*
X100698873Y-78963576D01*
X100706114Y-78974389D01*
X101341757Y-79680612D01*
X101873605Y-80271516D01*
X101882356Y-80280991D01*
X101882753Y-80281410D01*
X101882754Y-80281411D01*
X101882758Y-80281414D01*
X101882764Y-80281421D01*
X101885989Y-80284400D01*
X101896117Y-80294932D01*
X101900239Y-80299757D01*
X101929839Y-80325038D01*
X101933364Y-80328170D01*
X101935535Y-80329903D01*
X102085821Y-80458259D01*
X102085823Y-80458260D01*
X102085824Y-80458261D01*
X102085826Y-80458262D01*
X102293910Y-80585777D01*
X102519381Y-80679169D01*
X102519378Y-80679169D01*
X102519384Y-80679170D01*
X102519388Y-80679172D01*
X102756698Y-80736146D01*
X103000000Y-80755294D01*
X103243302Y-80736146D01*
X103480612Y-80679172D01*
X103706089Y-80585777D01*
X103914179Y-80458259D01*
X104099759Y-80299759D01*
X104258259Y-80114179D01*
X104385777Y-79906089D01*
X104479172Y-79680612D01*
X104536146Y-79443302D01*
X104555294Y-79200000D01*
X104536146Y-78956698D01*
X104479172Y-78719388D01*
X104407878Y-78547267D01*
X104385777Y-78493910D01*
X104258262Y-78285826D01*
X104258261Y-78285823D01*
X104185318Y-78200418D01*
X104099759Y-78100241D01*
X103951081Y-77973258D01*
X103914176Y-77941738D01*
X103914173Y-77941737D01*
X103706089Y-77814222D01*
X103480618Y-77720830D01*
X103480621Y-77720830D01*
X103374992Y-77695470D01*
X103243302Y-77663854D01*
X103243300Y-77663853D01*
X103243297Y-77663853D01*
X103068171Y-77650071D01*
X103000000Y-77644706D01*
X102999998Y-77644706D01*
X102999997Y-77644706D01*
X102968679Y-77647170D01*
X102951059Y-77647300D01*
X102947511Y-77647073D01*
X101670995Y-77748096D01*
X101602611Y-77733761D01*
X101573531Y-77712163D01*
X101186819Y-77325451D01*
X101153334Y-77264128D01*
X101150500Y-77237770D01*
X101150500Y-75000000D01*
X101445207Y-75000000D01*
X101464348Y-75243219D01*
X101521303Y-75480457D01*
X101614668Y-75705861D01*
X101738504Y-75907941D01*
X102360689Y-75285755D01*
X102379668Y-75331574D01*
X102456274Y-75446224D01*
X102553776Y-75543726D01*
X102668426Y-75620332D01*
X102714242Y-75639309D01*
X102092057Y-76261494D01*
X102294138Y-76385331D01*
X102519542Y-76478696D01*
X102756780Y-76535651D01*
X102756779Y-76535651D01*
X103000000Y-76554792D01*
X103243219Y-76535651D01*
X103480457Y-76478696D01*
X103705861Y-76385331D01*
X103907941Y-76261495D01*
X103907941Y-76261494D01*
X103285757Y-75639309D01*
X103331574Y-75620332D01*
X103446224Y-75543726D01*
X103543726Y-75446224D01*
X103620332Y-75331574D01*
X103639309Y-75285756D01*
X104261494Y-75907941D01*
X104261495Y-75907941D01*
X104385331Y-75705861D01*
X104478696Y-75480457D01*
X104535651Y-75243219D01*
X104554792Y-75000000D01*
X104535651Y-74756780D01*
X104478696Y-74519542D01*
X104385331Y-74294138D01*
X104261494Y-74092057D01*
X103639309Y-74714242D01*
X103620332Y-74668426D01*
X103543726Y-74553776D01*
X103446224Y-74456274D01*
X103331574Y-74379668D01*
X103285756Y-74360689D01*
X103907941Y-73738504D01*
X103705861Y-73614668D01*
X103480457Y-73521303D01*
X103243219Y-73464348D01*
X103243220Y-73464348D01*
X103000000Y-73445207D01*
X102756780Y-73464348D01*
X102519542Y-73521303D01*
X102294138Y-73614668D01*
X102092057Y-73738504D01*
X102714243Y-74360689D01*
X102668426Y-74379668D01*
X102553776Y-74456274D01*
X102456274Y-74553776D01*
X102379668Y-74668426D01*
X102360690Y-74714243D01*
X101738504Y-74092057D01*
X101614668Y-74294138D01*
X101521303Y-74519542D01*
X101464348Y-74756780D01*
X101445207Y-75000000D01*
X101150500Y-75000000D01*
X101150500Y-70800000D01*
X101445207Y-70800000D01*
X101464348Y-71043219D01*
X101521303Y-71280457D01*
X101614668Y-71505861D01*
X101738504Y-71707941D01*
X102360689Y-71085755D01*
X102379668Y-71131574D01*
X102456274Y-71246224D01*
X102553776Y-71343726D01*
X102668426Y-71420332D01*
X102714242Y-71439309D01*
X102092057Y-72061494D01*
X102294138Y-72185331D01*
X102519542Y-72278696D01*
X102756780Y-72335651D01*
X102756779Y-72335651D01*
X103000000Y-72354792D01*
X103243219Y-72335651D01*
X103480457Y-72278696D01*
X103705861Y-72185331D01*
X103907941Y-72061495D01*
X103907941Y-72061494D01*
X103285757Y-71439309D01*
X103331574Y-71420332D01*
X103446224Y-71343726D01*
X103543726Y-71246224D01*
X103620332Y-71131574D01*
X103639309Y-71085756D01*
X104261494Y-71707941D01*
X104261495Y-71707941D01*
X104385331Y-71505861D01*
X104478696Y-71280457D01*
X104535651Y-71043219D01*
X104554792Y-70800000D01*
X104535651Y-70556780D01*
X104478696Y-70319542D01*
X104385331Y-70094138D01*
X104261494Y-69892057D01*
X103639309Y-70514242D01*
X103620332Y-70468426D01*
X103543726Y-70353776D01*
X103446224Y-70256274D01*
X103331574Y-70179668D01*
X103285756Y-70160689D01*
X103907941Y-69538504D01*
X103705861Y-69414668D01*
X103480457Y-69321303D01*
X103243219Y-69264348D01*
X103243220Y-69264348D01*
X103000000Y-69245207D01*
X102756780Y-69264348D01*
X102519542Y-69321303D01*
X102294138Y-69414668D01*
X102092057Y-69538504D01*
X102714243Y-70160689D01*
X102668426Y-70179668D01*
X102553776Y-70256274D01*
X102456274Y-70353776D01*
X102379668Y-70468426D01*
X102360690Y-70514243D01*
X101738504Y-69892057D01*
X101614668Y-70094138D01*
X101521303Y-70319542D01*
X101464348Y-70556780D01*
X101445207Y-70800000D01*
X101150500Y-70800000D01*
X101150500Y-66600000D01*
X101445207Y-66600000D01*
X101464348Y-66843219D01*
X101521303Y-67080457D01*
X101614668Y-67305861D01*
X101738504Y-67507941D01*
X102360689Y-66885755D01*
X102379668Y-66931574D01*
X102456274Y-67046224D01*
X102553776Y-67143726D01*
X102668426Y-67220332D01*
X102714242Y-67239309D01*
X102092057Y-67861494D01*
X102294138Y-67985331D01*
X102519542Y-68078696D01*
X102756780Y-68135651D01*
X102756779Y-68135651D01*
X103000000Y-68154792D01*
X103243219Y-68135651D01*
X103480457Y-68078696D01*
X103705861Y-67985331D01*
X103907941Y-67861495D01*
X103907941Y-67861494D01*
X103285757Y-67239309D01*
X103331574Y-67220332D01*
X103446224Y-67143726D01*
X103543726Y-67046224D01*
X103620332Y-66931574D01*
X103639309Y-66885756D01*
X104261494Y-67507941D01*
X104261495Y-67507941D01*
X104385331Y-67305861D01*
X104478696Y-67080457D01*
X104535651Y-66843219D01*
X104554792Y-66600000D01*
X104535651Y-66356780D01*
X104478696Y-66119542D01*
X104385331Y-65894138D01*
X104261494Y-65692057D01*
X103639309Y-66314242D01*
X103620332Y-66268426D01*
X103543726Y-66153776D01*
X103446224Y-66056274D01*
X103331574Y-65979668D01*
X103285756Y-65960689D01*
X103907941Y-65338504D01*
X103705861Y-65214668D01*
X103480457Y-65121303D01*
X103243219Y-65064348D01*
X103243220Y-65064348D01*
X103000000Y-65045207D01*
X102756780Y-65064348D01*
X102519542Y-65121303D01*
X102294138Y-65214668D01*
X102092057Y-65338504D01*
X102714243Y-65960689D01*
X102668426Y-65979668D01*
X102553776Y-66056274D01*
X102456274Y-66153776D01*
X102379668Y-66268426D01*
X102360690Y-66314243D01*
X101738504Y-65692057D01*
X101614668Y-65894138D01*
X101521303Y-66119542D01*
X101464348Y-66356780D01*
X101445207Y-66600000D01*
X101150500Y-66600000D01*
X101150500Y-62400000D01*
X101444706Y-62400000D01*
X101463853Y-62643297D01*
X101520830Y-62880619D01*
X101614222Y-63106089D01*
X101741737Y-63314173D01*
X101741738Y-63314176D01*
X101741741Y-63314179D01*
X101900241Y-63499759D01*
X102043897Y-63622453D01*
X102085823Y-63658261D01*
X102085825Y-63658261D01*
X102293911Y-63785777D01*
X102384746Y-63823401D01*
X102398497Y-63830121D01*
X102424831Y-63845070D01*
X103977533Y-64453565D01*
X104019968Y-64481335D01*
X104813181Y-65274548D01*
X104846666Y-65335871D01*
X104849500Y-65362229D01*
X104849500Y-88273918D01*
X104849500Y-88273920D01*
X104849499Y-88273920D01*
X104878340Y-88418907D01*
X104878343Y-88418917D01*
X104934913Y-88555490D01*
X104934914Y-88555492D01*
X104960090Y-88593170D01*
X104960091Y-88593172D01*
X105017043Y-88678410D01*
X105017047Y-88678415D01*
X106521586Y-90182954D01*
X106551058Y-90202645D01*
X106595270Y-90232186D01*
X106644505Y-90265084D01*
X106644506Y-90265084D01*
X106644507Y-90265085D01*
X106644509Y-90265086D01*
X106779083Y-90320828D01*
X106781087Y-90321658D01*
X106781091Y-90321658D01*
X106781092Y-90321659D01*
X106926079Y-90350500D01*
X106926082Y-90350500D01*
X106926083Y-90350500D01*
X107027643Y-90350500D01*
X107094682Y-90370185D01*
X107140437Y-90422989D01*
X107150381Y-90492147D01*
X107126612Y-90547132D01*
X107127087Y-90547431D01*
X107125153Y-90550508D01*
X107124588Y-90551816D01*
X107123379Y-90553330D01*
X107025611Y-90708927D01*
X106964914Y-90882391D01*
X106949500Y-91019199D01*
X106949500Y-92580800D01*
X106964914Y-92717608D01*
X106964915Y-92717613D01*
X106964916Y-92717614D01*
X106978350Y-92756007D01*
X107025611Y-92891072D01*
X107117788Y-93037770D01*
X107123382Y-93046673D01*
X107253327Y-93176618D01*
X107408929Y-93274389D01*
X107582386Y-93335084D01*
X107582389Y-93335084D01*
X107582391Y-93335085D01*
X107650795Y-93342792D01*
X107719199Y-93350499D01*
X107719200Y-93350500D01*
X107719204Y-93350500D01*
X109280800Y-93350500D01*
X109280800Y-93350499D01*
X109366856Y-93340803D01*
X109417608Y-93335085D01*
X109417609Y-93335084D01*
X109417614Y-93335084D01*
X109591071Y-93274389D01*
X109746673Y-93176618D01*
X109876618Y-93046673D01*
X109974389Y-92891071D01*
X110035084Y-92717614D01*
X110035472Y-92714176D01*
X110043839Y-92639910D01*
X110050500Y-92580796D01*
X110050500Y-91019204D01*
X110035472Y-90885826D01*
X110035085Y-90882391D01*
X110035084Y-90882389D01*
X110035084Y-90882386D01*
X109974389Y-90708929D01*
X109876618Y-90553327D01*
X109876616Y-90553325D01*
X109875412Y-90551816D01*
X109874936Y-90550651D01*
X109872913Y-90547431D01*
X109873477Y-90547076D01*
X109849002Y-90487130D01*
X109861756Y-90418434D01*
X109909625Y-90367539D01*
X109972357Y-90350500D01*
X111873920Y-90350500D01*
X111971462Y-90331096D01*
X112018913Y-90321658D01*
X112155495Y-90265084D01*
X112204729Y-90232186D01*
X112204734Y-90232183D01*
X112229071Y-90215921D01*
X112278416Y-90182952D01*
X113249733Y-89211632D01*
X113311054Y-89178149D01*
X113380745Y-89183133D01*
X113381094Y-89183264D01*
X114504513Y-89607942D01*
X114526470Y-89615121D01*
X114540330Y-89620596D01*
X114552095Y-89626082D01*
X114553504Y-89626739D01*
X114773308Y-89685635D01*
X114935230Y-89699801D01*
X114999998Y-89705468D01*
X115000000Y-89705468D01*
X115000002Y-89705468D01*
X115056673Y-89700509D01*
X115226692Y-89685635D01*
X115446496Y-89626739D01*
X115652734Y-89530568D01*
X115839139Y-89400047D01*
X116000047Y-89239139D01*
X116130568Y-89052734D01*
X116226739Y-88846496D01*
X116285635Y-88626692D01*
X116305468Y-88400000D01*
X116305468Y-88399998D01*
X123854532Y-88399998D01*
X123854532Y-88400001D01*
X123874364Y-88626686D01*
X123874366Y-88626697D01*
X123933258Y-88846488D01*
X123933261Y-88846497D01*
X124029431Y-89052732D01*
X124029432Y-89052734D01*
X124159954Y-89239141D01*
X124320858Y-89400045D01*
X124320861Y-89400047D01*
X124507266Y-89530568D01*
X124713504Y-89626739D01*
X124933308Y-89685635D01*
X125095230Y-89699801D01*
X125159998Y-89705468D01*
X125160000Y-89705468D01*
X125160002Y-89705468D01*
X125216673Y-89700509D01*
X125386692Y-89685635D01*
X125606496Y-89626739D01*
X125626623Y-89617353D01*
X125652150Y-89608683D01*
X125655486Y-89607942D01*
X126549850Y-89269852D01*
X126619514Y-89264560D01*
X126666292Y-89285317D01*
X127245960Y-89703967D01*
X127245973Y-89703976D01*
X127257079Y-89711773D01*
X127257082Y-89711774D01*
X127257083Y-89711775D01*
X127269288Y-89717758D01*
X127289011Y-89729829D01*
X127307669Y-89743796D01*
X127307673Y-89743798D01*
X127363516Y-89764626D01*
X127374765Y-89769467D01*
X127386262Y-89775103D01*
X127386269Y-89775105D01*
X127386274Y-89775108D01*
X127389696Y-89776215D01*
X127393111Y-89777321D01*
X127393114Y-89777321D01*
X127393118Y-89777323D01*
X127400029Y-89779058D01*
X127413151Y-89783138D01*
X127442517Y-89794091D01*
X127502127Y-89800500D01*
X129397872Y-89800499D01*
X129457483Y-89794091D01*
X129592331Y-89743796D01*
X129707546Y-89657546D01*
X129793796Y-89542331D01*
X129844091Y-89407483D01*
X129850500Y-89347873D01*
X129850499Y-89237304D01*
X129870183Y-89170268D01*
X129886818Y-89149626D01*
X130547861Y-88488584D01*
X130570667Y-88573694D01*
X130629910Y-88676306D01*
X130713694Y-88760090D01*
X130816306Y-88819333D01*
X130901414Y-88842138D01*
X130191201Y-89552351D01*
X130221649Y-89576050D01*
X130425697Y-89686476D01*
X130425706Y-89686479D01*
X130645139Y-89761811D01*
X130873993Y-89800000D01*
X131106007Y-89800000D01*
X131334860Y-89761811D01*
X131554293Y-89686479D01*
X131554301Y-89686476D01*
X131758355Y-89576047D01*
X131788797Y-89552351D01*
X131788798Y-89552350D01*
X131078585Y-88842137D01*
X131163694Y-88819333D01*
X131266306Y-88760090D01*
X131350090Y-88676306D01*
X131409333Y-88573694D01*
X131432138Y-88488585D01*
X132141186Y-89197633D01*
X132225482Y-89068611D01*
X132318682Y-88856135D01*
X132375638Y-88631218D01*
X132394798Y-88400005D01*
X132394798Y-88399994D01*
X132375638Y-88168781D01*
X132318682Y-87943864D01*
X132225484Y-87731393D01*
X132141186Y-87602365D01*
X131432137Y-88311414D01*
X131409333Y-88226306D01*
X131350090Y-88123694D01*
X131266306Y-88039910D01*
X131163694Y-87980667D01*
X131078584Y-87957861D01*
X131788797Y-87247647D01*
X131788797Y-87247645D01*
X131758360Y-87223955D01*
X131758354Y-87223951D01*
X131554302Y-87113523D01*
X131554293Y-87113520D01*
X131334860Y-87038188D01*
X131106007Y-87000000D01*
X130873993Y-87000000D01*
X130645139Y-87038188D01*
X130425706Y-87113520D01*
X130425697Y-87113523D01*
X130221650Y-87223949D01*
X130191200Y-87247647D01*
X130901415Y-87957861D01*
X130816306Y-87980667D01*
X130713694Y-88039910D01*
X130629910Y-88123694D01*
X130570667Y-88226306D01*
X130547861Y-88311415D01*
X129886818Y-87650372D01*
X129853333Y-87589049D01*
X129850499Y-87562691D01*
X129850499Y-87452129D01*
X129850498Y-87452123D01*
X129844091Y-87392516D01*
X129793797Y-87257671D01*
X129793793Y-87257664D01*
X129707547Y-87142455D01*
X129707544Y-87142452D01*
X129592335Y-87056206D01*
X129592328Y-87056202D01*
X129457482Y-87005908D01*
X129457483Y-87005908D01*
X129397883Y-86999501D01*
X129397881Y-86999500D01*
X129397873Y-86999500D01*
X129397865Y-86999500D01*
X127590651Y-86999500D01*
X127584117Y-86999328D01*
X127577331Y-86998969D01*
X127576986Y-86999001D01*
X127565878Y-86999500D01*
X127502131Y-86999500D01*
X127502124Y-86999501D01*
X127442513Y-87005909D01*
X127408552Y-87018575D01*
X127400248Y-87021343D01*
X127373407Y-87029246D01*
X127364164Y-87034089D01*
X127349952Y-87040432D01*
X127307671Y-87056202D01*
X127307668Y-87056203D01*
X127282256Y-87075225D01*
X127265517Y-87085781D01*
X127245963Y-87096029D01*
X126666293Y-87514680D01*
X126600420Y-87537973D01*
X126549846Y-87530145D01*
X125655491Y-87192059D01*
X125646407Y-87189088D01*
X125633533Y-87184879D01*
X125619675Y-87179406D01*
X125606495Y-87173260D01*
X125386697Y-87114366D01*
X125386693Y-87114365D01*
X125386692Y-87114365D01*
X125386691Y-87114364D01*
X125386686Y-87114364D01*
X125160002Y-87094532D01*
X125159998Y-87094532D01*
X124933313Y-87114364D01*
X124933302Y-87114366D01*
X124713511Y-87173258D01*
X124713502Y-87173261D01*
X124507267Y-87269431D01*
X124507265Y-87269432D01*
X124320858Y-87399954D01*
X124159954Y-87560858D01*
X124029432Y-87747265D01*
X124029431Y-87747267D01*
X123933261Y-87953502D01*
X123933258Y-87953511D01*
X123874366Y-88173302D01*
X123874364Y-88173313D01*
X123854532Y-88399998D01*
X116305468Y-88399998D01*
X116305467Y-88399994D01*
X116297252Y-88306089D01*
X116285635Y-88173308D01*
X116226739Y-87953504D01*
X116130568Y-87747266D01*
X116000047Y-87560861D01*
X116000045Y-87560858D01*
X115839141Y-87399954D01*
X115652734Y-87269432D01*
X115652732Y-87269431D01*
X115446497Y-87173261D01*
X115446488Y-87173258D01*
X115226697Y-87114366D01*
X115226693Y-87114365D01*
X115226692Y-87114365D01*
X115226691Y-87114364D01*
X115226686Y-87114364D01*
X115000002Y-87094532D01*
X114999998Y-87094532D01*
X114773313Y-87114364D01*
X114773302Y-87114366D01*
X114553502Y-87173261D01*
X114533371Y-87182648D01*
X114507879Y-87191309D01*
X114504525Y-87192054D01*
X114504499Y-87192062D01*
X113315609Y-87641489D01*
X113271763Y-87649500D01*
X112926080Y-87649500D01*
X112781092Y-87678340D01*
X112781082Y-87678343D01*
X112644511Y-87734912D01*
X112644498Y-87734919D01*
X112521584Y-87817048D01*
X112521580Y-87817051D01*
X111525451Y-88813181D01*
X111464128Y-88846666D01*
X111437770Y-88849500D01*
X109860225Y-88849500D01*
X109793186Y-88829815D01*
X109747431Y-88777011D01*
X109737487Y-88707853D01*
X109766512Y-88644297D01*
X109796165Y-88619329D01*
X110212161Y-88368329D01*
X110268023Y-88352781D01*
X110267858Y-88351097D01*
X110273920Y-88350500D01*
X110371462Y-88331096D01*
X110418913Y-88321658D01*
X110555495Y-88265084D01*
X110609201Y-88229199D01*
X110609201Y-88229198D01*
X110609203Y-88229198D01*
X110643808Y-88206075D01*
X110678416Y-88182952D01*
X113876755Y-84984610D01*
X113938076Y-84951127D01*
X113983963Y-84949841D01*
X114348258Y-85007942D01*
X114675653Y-85060158D01*
X114688216Y-85062835D01*
X114716905Y-85070521D01*
X114773308Y-85085635D01*
X114913903Y-85097935D01*
X114917768Y-85098335D01*
X114946324Y-85101744D01*
X114946325Y-85101744D01*
X114946333Y-85101745D01*
X114948166Y-85101891D01*
X114951409Y-85101847D01*
X114963885Y-85102307D01*
X115000000Y-85105468D01*
X115226692Y-85085635D01*
X115446496Y-85026739D01*
X115652734Y-84930568D01*
X115839139Y-84800047D01*
X116000047Y-84639139D01*
X116130568Y-84452734D01*
X116226739Y-84246496D01*
X116285635Y-84026692D01*
X116305468Y-83800000D01*
X116305468Y-83799998D01*
X123854532Y-83799998D01*
X123854532Y-83800001D01*
X123874364Y-84026686D01*
X123874366Y-84026697D01*
X123933258Y-84246488D01*
X123933261Y-84246497D01*
X124029431Y-84452732D01*
X124029432Y-84452734D01*
X124159954Y-84639141D01*
X124320858Y-84800045D01*
X124320861Y-84800047D01*
X124507266Y-84930568D01*
X124713504Y-85026739D01*
X124933308Y-85085635D01*
X125075841Y-85098105D01*
X125159998Y-85105468D01*
X125160000Y-85105468D01*
X125160002Y-85105468D01*
X125241530Y-85098335D01*
X125386692Y-85085635D01*
X125606496Y-85026739D01*
X125626623Y-85017353D01*
X125652150Y-85008683D01*
X125655482Y-85007943D01*
X125655482Y-85007942D01*
X125655486Y-85007942D01*
X126844388Y-84558510D01*
X126888234Y-84550500D01*
X127210315Y-84550500D01*
X127277354Y-84570185D01*
X127314123Y-84606678D01*
X127351015Y-84663145D01*
X127351017Y-84663147D01*
X127351021Y-84663153D01*
X127508216Y-84833913D01*
X127508219Y-84833915D01*
X127508222Y-84833918D01*
X127691365Y-84976464D01*
X127691371Y-84976468D01*
X127691374Y-84976470D01*
X127895497Y-85086936D01*
X127949479Y-85105468D01*
X128115015Y-85162297D01*
X128115017Y-85162297D01*
X128115019Y-85162298D01*
X128343951Y-85200500D01*
X128343952Y-85200500D01*
X128576048Y-85200500D01*
X128576049Y-85200500D01*
X128804981Y-85162298D01*
X129024503Y-85086936D01*
X129228626Y-84976470D01*
X129281071Y-84935651D01*
X129290129Y-84928600D01*
X129411784Y-84833913D01*
X129420511Y-84824432D01*
X129480394Y-84788441D01*
X129550232Y-84790538D01*
X129607850Y-84830060D01*
X129627924Y-84865080D01*
X129656645Y-84942086D01*
X129656649Y-84942093D01*
X129742809Y-85057187D01*
X129742812Y-85057190D01*
X129857906Y-85143350D01*
X129857913Y-85143354D01*
X129992620Y-85193596D01*
X129992627Y-85193598D01*
X130052155Y-85199999D01*
X130052172Y-85200000D01*
X130750000Y-85200000D01*
X130750000Y-84175277D01*
X130826306Y-84219333D01*
X130940756Y-84250000D01*
X131059244Y-84250000D01*
X131173694Y-84219333D01*
X131250000Y-84175277D01*
X131250000Y-85200000D01*
X131947828Y-85200000D01*
X131947844Y-85199999D01*
X132007372Y-85193598D01*
X132007379Y-85193596D01*
X132142086Y-85143354D01*
X132142093Y-85143350D01*
X132257187Y-85057190D01*
X132257190Y-85057187D01*
X132343350Y-84942093D01*
X132343354Y-84942086D01*
X132393596Y-84807379D01*
X132393598Y-84807372D01*
X132399999Y-84747844D01*
X132400000Y-84747827D01*
X132400000Y-84050000D01*
X131375278Y-84050000D01*
X131419333Y-83973694D01*
X131450000Y-83859244D01*
X131450000Y-83740756D01*
X131419333Y-83626306D01*
X131375278Y-83550000D01*
X132400000Y-83550000D01*
X132400000Y-82852172D01*
X132399999Y-82852155D01*
X132393598Y-82792627D01*
X132393596Y-82792620D01*
X132343354Y-82657913D01*
X132343350Y-82657906D01*
X132257190Y-82542812D01*
X132257187Y-82542809D01*
X132142093Y-82456649D01*
X132142086Y-82456645D01*
X132007379Y-82406403D01*
X132007372Y-82406401D01*
X131947844Y-82400000D01*
X131250000Y-82400000D01*
X131250000Y-83424722D01*
X131173694Y-83380667D01*
X131059244Y-83350000D01*
X130940756Y-83350000D01*
X130826306Y-83380667D01*
X130750000Y-83424722D01*
X130750000Y-82400000D01*
X130052155Y-82400000D01*
X129992627Y-82406401D01*
X129992620Y-82406403D01*
X129857913Y-82456645D01*
X129857906Y-82456649D01*
X129742812Y-82542809D01*
X129742809Y-82542812D01*
X129656649Y-82657906D01*
X129656646Y-82657911D01*
X129627924Y-82734920D01*
X129586052Y-82790853D01*
X129520588Y-82815270D01*
X129452315Y-82800418D01*
X129420514Y-82775571D01*
X129411784Y-82766087D01*
X129411779Y-82766083D01*
X129411777Y-82766081D01*
X129228634Y-82623535D01*
X129228628Y-82623531D01*
X129024504Y-82513064D01*
X129024495Y-82513061D01*
X128804984Y-82437702D01*
X128617404Y-82406401D01*
X128576049Y-82399500D01*
X128343951Y-82399500D01*
X128302596Y-82406401D01*
X128115015Y-82437702D01*
X127895504Y-82513061D01*
X127895495Y-82513064D01*
X127691371Y-82623531D01*
X127691365Y-82623535D01*
X127508222Y-82766081D01*
X127508219Y-82766084D01*
X127508216Y-82766086D01*
X127508216Y-82766087D01*
X127366952Y-82919542D01*
X127351015Y-82936854D01*
X127314123Y-82993322D01*
X127260977Y-83038678D01*
X127210315Y-83049500D01*
X126888237Y-83049500D01*
X126844391Y-83041489D01*
X125655491Y-82592059D01*
X125646407Y-82589088D01*
X125633533Y-82584879D01*
X125619675Y-82579406D01*
X125606495Y-82573260D01*
X125386697Y-82514366D01*
X125386693Y-82514365D01*
X125386692Y-82514365D01*
X125386691Y-82514364D01*
X125386686Y-82514364D01*
X125160002Y-82494532D01*
X125159998Y-82494532D01*
X124933313Y-82514364D01*
X124933302Y-82514366D01*
X124713511Y-82573258D01*
X124713502Y-82573261D01*
X124507267Y-82669431D01*
X124507265Y-82669432D01*
X124320858Y-82799954D01*
X124159954Y-82960858D01*
X124029432Y-83147265D01*
X124029431Y-83147267D01*
X123933261Y-83353502D01*
X123933258Y-83353511D01*
X123874366Y-83573302D01*
X123874364Y-83573313D01*
X123854532Y-83799998D01*
X116305468Y-83799998D01*
X116285635Y-83573308D01*
X116226739Y-83353504D01*
X116130568Y-83147266D01*
X116000047Y-82960861D01*
X116000045Y-82960858D01*
X115839141Y-82799954D01*
X115652734Y-82669432D01*
X115652732Y-82669431D01*
X115446497Y-82573261D01*
X115446488Y-82573258D01*
X115226697Y-82514366D01*
X115226693Y-82514365D01*
X115226692Y-82514365D01*
X115226691Y-82514364D01*
X115226686Y-82514364D01*
X115000002Y-82494532D01*
X114999998Y-82494532D01*
X114773313Y-82514364D01*
X114773302Y-82514366D01*
X114553511Y-82573258D01*
X114553502Y-82573261D01*
X114347267Y-82669431D01*
X114347265Y-82669432D01*
X114160866Y-82799948D01*
X114160861Y-82799953D01*
X114133773Y-82827039D01*
X114115535Y-82842088D01*
X114113927Y-82843174D01*
X113849159Y-83051124D01*
X113796761Y-83075223D01*
X113781094Y-83078339D01*
X113781090Y-83078340D01*
X113781088Y-83078341D01*
X113701080Y-83111481D01*
X113701078Y-83111481D01*
X113653594Y-83131151D01*
X113644505Y-83134916D01*
X113569808Y-83184827D01*
X113521586Y-83217047D01*
X113521582Y-83217050D01*
X113099435Y-83639196D01*
X113091238Y-83646690D01*
X113073863Y-83661199D01*
X113072804Y-83662139D01*
X113010482Y-83727486D01*
X113005971Y-83732660D01*
X110211483Y-86527147D01*
X110150160Y-86560632D01*
X110080468Y-86555648D01*
X110077876Y-86554648D01*
X109099758Y-86164649D01*
X109099754Y-86164647D01*
X109099750Y-86164646D01*
X109051798Y-86148261D01*
X109049870Y-86147804D01*
X109031042Y-86141715D01*
X108980612Y-86120827D01*
X108782917Y-86073365D01*
X108743302Y-86063854D01*
X108743300Y-86063853D01*
X108743299Y-86063853D01*
X108500000Y-86044706D01*
X108256702Y-86063853D01*
X108019380Y-86120830D01*
X107793910Y-86214222D01*
X107585826Y-86341737D01*
X107585823Y-86341738D01*
X107400241Y-86500241D01*
X107241738Y-86685823D01*
X107241737Y-86685826D01*
X107114222Y-86893910D01*
X107020830Y-87119380D01*
X106963853Y-87356702D01*
X106944706Y-87600000D01*
X106963853Y-87843297D01*
X106963853Y-87843300D01*
X106963854Y-87843302D01*
X107012625Y-88046446D01*
X107020830Y-88080619D01*
X107114222Y-88306089D01*
X107115627Y-88308381D01*
X107115894Y-88309370D01*
X107116433Y-88310427D01*
X107116210Y-88310540D01*
X107133869Y-88375828D01*
X107112751Y-88442430D01*
X107058978Y-88487041D01*
X106989622Y-88495499D01*
X106926704Y-88465118D01*
X106922217Y-88460849D01*
X106386819Y-87925451D01*
X106353334Y-87864128D01*
X106350500Y-87837770D01*
X106350500Y-83400000D01*
X106945207Y-83400000D01*
X106964348Y-83643219D01*
X107021303Y-83880457D01*
X107114668Y-84105861D01*
X107238504Y-84307941D01*
X107860689Y-83685755D01*
X107879668Y-83731574D01*
X107956274Y-83846224D01*
X108053776Y-83943726D01*
X108168426Y-84020332D01*
X108214242Y-84039309D01*
X107592057Y-84661494D01*
X107794138Y-84785331D01*
X108019542Y-84878696D01*
X108256780Y-84935651D01*
X108256779Y-84935651D01*
X108500000Y-84954792D01*
X108743219Y-84935651D01*
X108980457Y-84878696D01*
X109205861Y-84785331D01*
X109407941Y-84661495D01*
X109407941Y-84661494D01*
X108785757Y-84039309D01*
X108831574Y-84020332D01*
X108946224Y-83943726D01*
X109043726Y-83846224D01*
X109120332Y-83731574D01*
X109139309Y-83685756D01*
X109761494Y-84307941D01*
X109761495Y-84307941D01*
X109885331Y-84105861D01*
X109978696Y-83880457D01*
X110035651Y-83643219D01*
X110054792Y-83400000D01*
X110035651Y-83156780D01*
X109978696Y-82919542D01*
X109885331Y-82694138D01*
X109761494Y-82492057D01*
X109139309Y-83114242D01*
X109120332Y-83068426D01*
X109043726Y-82953776D01*
X108946224Y-82856274D01*
X108831574Y-82779668D01*
X108785756Y-82760689D01*
X109407941Y-82138504D01*
X109205861Y-82014668D01*
X108980457Y-81921303D01*
X108743219Y-81864348D01*
X108743220Y-81864348D01*
X108500000Y-81845207D01*
X108256780Y-81864348D01*
X108019542Y-81921303D01*
X107794138Y-82014668D01*
X107592057Y-82138504D01*
X108214243Y-82760689D01*
X108168426Y-82779668D01*
X108053776Y-82856274D01*
X107956274Y-82953776D01*
X107879668Y-83068426D01*
X107860690Y-83114243D01*
X107238504Y-82492057D01*
X107114668Y-82694138D01*
X107021303Y-82919542D01*
X106964348Y-83156780D01*
X106945207Y-83400000D01*
X106350500Y-83400000D01*
X106350500Y-79200000D01*
X106944706Y-79200000D01*
X106963853Y-79443297D01*
X106963853Y-79443300D01*
X106963854Y-79443302D01*
X107012637Y-79646496D01*
X107020830Y-79680619D01*
X107114222Y-79906089D01*
X107241737Y-80114173D01*
X107241738Y-80114176D01*
X107295449Y-80177063D01*
X107400241Y-80299759D01*
X107527775Y-80408683D01*
X107585823Y-80458261D01*
X107585826Y-80458262D01*
X107793910Y-80585777D01*
X108019381Y-80679169D01*
X108019378Y-80679169D01*
X108019384Y-80679170D01*
X108019388Y-80679172D01*
X108256698Y-80736146D01*
X108500000Y-80755294D01*
X108743302Y-80736146D01*
X108980612Y-80679172D01*
X109071454Y-80641543D01*
X109085923Y-80636573D01*
X109115114Y-80628524D01*
X110643310Y-79960871D01*
X110692953Y-79950500D01*
X113271766Y-79950500D01*
X113315610Y-79958510D01*
X114504513Y-80407942D01*
X114526470Y-80415121D01*
X114540330Y-80420596D01*
X114553502Y-80426738D01*
X114553504Y-80426739D01*
X114773308Y-80485635D01*
X114935230Y-80499801D01*
X114999998Y-80505468D01*
X115000000Y-80505468D01*
X115000002Y-80505468D01*
X115056673Y-80500509D01*
X115226692Y-80485635D01*
X115446496Y-80426739D01*
X115652734Y-80330568D01*
X115839139Y-80200047D01*
X116000047Y-80039139D01*
X116130568Y-79852734D01*
X116226739Y-79646496D01*
X116285635Y-79426692D01*
X116305468Y-79200000D01*
X116305468Y-79199998D01*
X123854532Y-79199998D01*
X123854532Y-79200001D01*
X123874364Y-79426686D01*
X123874366Y-79426697D01*
X123933258Y-79646488D01*
X123933261Y-79646497D01*
X124029431Y-79852732D01*
X124029432Y-79852734D01*
X124159954Y-80039141D01*
X124320858Y-80200045D01*
X124320861Y-80200047D01*
X124507266Y-80330568D01*
X124713504Y-80426739D01*
X124933308Y-80485635D01*
X125095230Y-80499801D01*
X125159998Y-80505468D01*
X125160000Y-80505468D01*
X125160002Y-80505468D01*
X125216673Y-80500509D01*
X125386692Y-80485635D01*
X125606496Y-80426739D01*
X125626623Y-80417353D01*
X125652150Y-80408683D01*
X125655482Y-80407943D01*
X125655482Y-80407942D01*
X125655486Y-80407942D01*
X126844388Y-79958510D01*
X126888234Y-79950500D01*
X127210315Y-79950500D01*
X127277354Y-79970185D01*
X127314123Y-80006678D01*
X127351015Y-80063145D01*
X127351017Y-80063147D01*
X127351021Y-80063153D01*
X127508216Y-80233913D01*
X127508219Y-80233915D01*
X127508222Y-80233918D01*
X127691365Y-80376464D01*
X127691371Y-80376468D01*
X127691374Y-80376470D01*
X127895497Y-80486936D01*
X127949479Y-80505468D01*
X128115015Y-80562297D01*
X128115017Y-80562297D01*
X128115019Y-80562298D01*
X128343951Y-80600500D01*
X128343952Y-80600500D01*
X128576048Y-80600500D01*
X128576049Y-80600500D01*
X128804981Y-80562298D01*
X129024503Y-80486936D01*
X129228626Y-80376470D01*
X129411784Y-80233913D01*
X129420511Y-80224432D01*
X129480394Y-80188441D01*
X129550232Y-80190538D01*
X129607850Y-80230060D01*
X129627924Y-80265080D01*
X129656645Y-80342086D01*
X129656649Y-80342093D01*
X129742809Y-80457187D01*
X129742812Y-80457190D01*
X129857906Y-80543350D01*
X129857913Y-80543354D01*
X129992620Y-80593596D01*
X129992627Y-80593598D01*
X130052155Y-80599999D01*
X130052172Y-80600000D01*
X130750000Y-80600000D01*
X130750000Y-79575277D01*
X130826306Y-79619333D01*
X130940756Y-79650000D01*
X131059244Y-79650000D01*
X131173694Y-79619333D01*
X131250000Y-79575277D01*
X131250000Y-80600000D01*
X131947828Y-80600000D01*
X131947844Y-80599999D01*
X132007372Y-80593598D01*
X132007379Y-80593596D01*
X132142086Y-80543354D01*
X132142093Y-80543350D01*
X132257187Y-80457190D01*
X132257190Y-80457187D01*
X132343350Y-80342093D01*
X132343354Y-80342086D01*
X132393596Y-80207379D01*
X132393598Y-80207372D01*
X132399999Y-80147844D01*
X132400000Y-80147827D01*
X132400000Y-79450000D01*
X131375278Y-79450000D01*
X131419333Y-79373694D01*
X131450000Y-79259244D01*
X131450000Y-79140756D01*
X131419333Y-79026306D01*
X131375278Y-78950000D01*
X132400000Y-78950000D01*
X132400000Y-78252172D01*
X132399999Y-78252155D01*
X132393598Y-78192627D01*
X132393596Y-78192620D01*
X132343354Y-78057913D01*
X132343350Y-78057906D01*
X132257190Y-77942812D01*
X132257187Y-77942809D01*
X132142093Y-77856649D01*
X132142086Y-77856645D01*
X132007379Y-77806403D01*
X132007372Y-77806401D01*
X131947844Y-77800000D01*
X131250000Y-77800000D01*
X131250000Y-78824722D01*
X131173694Y-78780667D01*
X131059244Y-78750000D01*
X130940756Y-78750000D01*
X130826306Y-78780667D01*
X130750000Y-78824722D01*
X130750000Y-77800000D01*
X130052155Y-77800000D01*
X129992627Y-77806401D01*
X129992620Y-77806403D01*
X129857913Y-77856645D01*
X129857906Y-77856649D01*
X129742812Y-77942809D01*
X129742809Y-77942812D01*
X129656649Y-78057906D01*
X129656646Y-78057911D01*
X129627924Y-78134920D01*
X129586052Y-78190853D01*
X129520588Y-78215270D01*
X129452315Y-78200418D01*
X129420514Y-78175571D01*
X129411784Y-78166087D01*
X129411779Y-78166083D01*
X129411777Y-78166081D01*
X129228634Y-78023535D01*
X129228628Y-78023531D01*
X129024504Y-77913064D01*
X129024495Y-77913061D01*
X128804984Y-77837702D01*
X128617404Y-77806401D01*
X128576049Y-77799500D01*
X128343951Y-77799500D01*
X128302596Y-77806401D01*
X128115015Y-77837702D01*
X127895504Y-77913061D01*
X127895495Y-77913064D01*
X127691371Y-78023531D01*
X127691365Y-78023535D01*
X127508222Y-78166081D01*
X127508219Y-78166084D01*
X127508216Y-78166086D01*
X127508216Y-78166087D01*
X127477040Y-78199954D01*
X127351015Y-78336854D01*
X127314123Y-78393322D01*
X127260977Y-78438678D01*
X127210315Y-78449500D01*
X126888237Y-78449500D01*
X126844391Y-78441489D01*
X125655491Y-77992059D01*
X125646407Y-77989088D01*
X125633533Y-77984879D01*
X125619675Y-77979406D01*
X125606495Y-77973260D01*
X125386697Y-77914366D01*
X125386693Y-77914365D01*
X125386692Y-77914365D01*
X125386691Y-77914364D01*
X125386686Y-77914364D01*
X125160002Y-77894532D01*
X125159998Y-77894532D01*
X124933313Y-77914364D01*
X124933302Y-77914366D01*
X124713511Y-77973258D01*
X124713502Y-77973261D01*
X124507267Y-78069431D01*
X124507265Y-78069432D01*
X124320858Y-78199954D01*
X124159954Y-78360858D01*
X124029432Y-78547265D01*
X124029431Y-78547267D01*
X123933261Y-78753502D01*
X123933258Y-78753511D01*
X123874366Y-78973302D01*
X123874364Y-78973313D01*
X123854532Y-79199998D01*
X116305468Y-79199998D01*
X116285635Y-78973308D01*
X116226739Y-78753504D01*
X116130568Y-78547266D01*
X116000047Y-78360861D01*
X116000045Y-78360858D01*
X115839141Y-78199954D01*
X115652734Y-78069432D01*
X115652732Y-78069431D01*
X115446497Y-77973261D01*
X115446488Y-77973258D01*
X115226697Y-77914366D01*
X115226693Y-77914365D01*
X115226692Y-77914365D01*
X115226691Y-77914364D01*
X115226686Y-77914364D01*
X115000002Y-77894532D01*
X114999998Y-77894532D01*
X114773313Y-77914364D01*
X114773302Y-77914366D01*
X114553502Y-77973261D01*
X114533371Y-77982648D01*
X114507879Y-77991309D01*
X114504525Y-77992054D01*
X114504499Y-77992062D01*
X113315609Y-78441489D01*
X113271763Y-78449500D01*
X110692954Y-78449500D01*
X110643311Y-78439129D01*
X109115162Y-77771496D01*
X109115160Y-77771495D01*
X109115075Y-77771458D01*
X109111803Y-77770049D01*
X109109976Y-77769263D01*
X109109900Y-77769231D01*
X109109883Y-77769224D01*
X109055386Y-77749715D01*
X109051766Y-77748815D01*
X109034247Y-77743043D01*
X109006729Y-77731646D01*
X108980618Y-77720830D01*
X108980615Y-77720829D01*
X108980613Y-77720828D01*
X108980612Y-77720828D01*
X108743302Y-77663854D01*
X108743300Y-77663853D01*
X108743297Y-77663853D01*
X108500000Y-77644706D01*
X108256702Y-77663853D01*
X108019380Y-77720830D01*
X107793910Y-77814222D01*
X107585826Y-77941737D01*
X107585823Y-77941738D01*
X107400241Y-78100241D01*
X107241738Y-78285823D01*
X107241737Y-78285826D01*
X107114222Y-78493910D01*
X107020830Y-78719380D01*
X106963853Y-78956702D01*
X106944706Y-79200000D01*
X106350500Y-79200000D01*
X106350500Y-75000000D01*
X106945207Y-75000000D01*
X106964348Y-75243219D01*
X107021303Y-75480457D01*
X107114668Y-75705861D01*
X107238504Y-75907941D01*
X107860689Y-75285755D01*
X107879668Y-75331574D01*
X107956274Y-75446224D01*
X108053776Y-75543726D01*
X108168426Y-75620332D01*
X108214242Y-75639309D01*
X107592057Y-76261494D01*
X107794138Y-76385331D01*
X108019542Y-76478696D01*
X108256780Y-76535651D01*
X108256779Y-76535651D01*
X108500000Y-76554792D01*
X108743219Y-76535651D01*
X108980457Y-76478696D01*
X109205861Y-76385331D01*
X109407941Y-76261495D01*
X109407941Y-76261494D01*
X108785757Y-75639309D01*
X108831574Y-75620332D01*
X108946224Y-75543726D01*
X109043726Y-75446224D01*
X109120332Y-75331574D01*
X109139309Y-75285756D01*
X109761494Y-75907941D01*
X109761495Y-75907941D01*
X109885331Y-75705861D01*
X109978696Y-75480457D01*
X110035651Y-75243219D01*
X110054792Y-75000000D01*
X110035651Y-74756780D01*
X109998011Y-74599996D01*
X112194435Y-74599996D01*
X112194435Y-74600003D01*
X112214630Y-74779249D01*
X112214631Y-74779254D01*
X112274211Y-74949523D01*
X112341304Y-75056300D01*
X112370184Y-75102262D01*
X112497738Y-75229816D01*
X112650478Y-75325789D01*
X112820742Y-75385367D01*
X112820745Y-75385368D01*
X112820750Y-75385369D01*
X112999996Y-75405565D01*
X113000000Y-75405565D01*
X113000004Y-75405565D01*
X113179249Y-75385369D01*
X113179252Y-75385368D01*
X113179255Y-75385368D01*
X113179256Y-75385367D01*
X113179259Y-75385367D01*
X113244368Y-75362584D01*
X113314147Y-75359021D01*
X113329161Y-75363633D01*
X114504513Y-75807942D01*
X114526470Y-75815121D01*
X114540330Y-75820596D01*
X114553502Y-75826738D01*
X114553504Y-75826739D01*
X114773308Y-75885635D01*
X114935230Y-75899801D01*
X114999998Y-75905468D01*
X115000000Y-75905468D01*
X115000002Y-75905468D01*
X115056673Y-75900509D01*
X115226692Y-75885635D01*
X115446496Y-75826739D01*
X115652734Y-75730568D01*
X115839139Y-75600047D01*
X116000047Y-75439139D01*
X116130568Y-75252734D01*
X116226739Y-75046496D01*
X116285635Y-74826692D01*
X116305468Y-74600000D01*
X116305468Y-74599998D01*
X123854532Y-74599998D01*
X123854532Y-74600001D01*
X123874364Y-74826686D01*
X123874366Y-74826697D01*
X123933258Y-75046488D01*
X123933261Y-75046497D01*
X124029431Y-75252732D01*
X124029432Y-75252734D01*
X124159954Y-75439141D01*
X124320858Y-75600045D01*
X124320861Y-75600047D01*
X124507266Y-75730568D01*
X124713504Y-75826739D01*
X124933308Y-75885635D01*
X125095230Y-75899801D01*
X125159998Y-75905468D01*
X125160000Y-75905468D01*
X125160002Y-75905468D01*
X125216673Y-75900509D01*
X125386692Y-75885635D01*
X125606496Y-75826739D01*
X125626623Y-75817353D01*
X125652150Y-75808683D01*
X125655482Y-75807943D01*
X125655482Y-75807942D01*
X125655486Y-75807942D01*
X126844388Y-75358510D01*
X126888234Y-75350500D01*
X127210315Y-75350500D01*
X127277354Y-75370185D01*
X127314123Y-75406678D01*
X127351015Y-75463145D01*
X127351017Y-75463147D01*
X127351021Y-75463153D01*
X127508216Y-75633913D01*
X127508219Y-75633915D01*
X127508222Y-75633918D01*
X127691365Y-75776464D01*
X127691371Y-75776468D01*
X127691374Y-75776470D01*
X127895497Y-75886936D01*
X128009487Y-75926068D01*
X128115015Y-75962297D01*
X128115017Y-75962297D01*
X128115019Y-75962298D01*
X128343951Y-76000500D01*
X128343952Y-76000500D01*
X128576048Y-76000500D01*
X128576049Y-76000500D01*
X128804981Y-75962298D01*
X129024503Y-75886936D01*
X129228626Y-75776470D01*
X129411784Y-75633913D01*
X129420511Y-75624432D01*
X129480394Y-75588441D01*
X129550232Y-75590538D01*
X129607850Y-75630060D01*
X129627924Y-75665080D01*
X129656645Y-75742086D01*
X129656649Y-75742093D01*
X129742809Y-75857187D01*
X129742812Y-75857190D01*
X129857906Y-75943350D01*
X129857913Y-75943354D01*
X129992620Y-75993596D01*
X129992627Y-75993598D01*
X130052155Y-75999999D01*
X130052172Y-76000000D01*
X130750000Y-76000000D01*
X130750000Y-74975277D01*
X130826306Y-75019333D01*
X130940756Y-75050000D01*
X131059244Y-75050000D01*
X131173694Y-75019333D01*
X131250000Y-74975277D01*
X131250000Y-76000000D01*
X131947828Y-76000000D01*
X131947844Y-75999999D01*
X132007372Y-75993598D01*
X132007379Y-75993596D01*
X132142086Y-75943354D01*
X132142093Y-75943350D01*
X132257187Y-75857190D01*
X132257190Y-75857187D01*
X132343350Y-75742093D01*
X132343354Y-75742086D01*
X132393596Y-75607379D01*
X132393598Y-75607372D01*
X132399999Y-75547844D01*
X132400000Y-75547827D01*
X132400000Y-74850000D01*
X131375278Y-74850000D01*
X131419333Y-74773694D01*
X131450000Y-74659244D01*
X131450000Y-74540756D01*
X131419333Y-74426306D01*
X131375278Y-74350000D01*
X132400000Y-74350000D01*
X132400000Y-73652172D01*
X132399999Y-73652155D01*
X132393598Y-73592627D01*
X132393596Y-73592620D01*
X132343354Y-73457913D01*
X132343350Y-73457906D01*
X132257190Y-73342812D01*
X132257187Y-73342809D01*
X132142093Y-73256649D01*
X132142086Y-73256645D01*
X132007379Y-73206403D01*
X132007372Y-73206401D01*
X131947844Y-73200000D01*
X131250000Y-73200000D01*
X131250000Y-74224722D01*
X131173694Y-74180667D01*
X131059244Y-74150000D01*
X130940756Y-74150000D01*
X130826306Y-74180667D01*
X130750000Y-74224722D01*
X130750000Y-73200000D01*
X130052155Y-73200000D01*
X129992627Y-73206401D01*
X129992620Y-73206403D01*
X129857913Y-73256645D01*
X129857906Y-73256649D01*
X129742812Y-73342809D01*
X129742809Y-73342812D01*
X129656649Y-73457906D01*
X129656646Y-73457911D01*
X129627924Y-73534920D01*
X129586052Y-73590853D01*
X129520588Y-73615270D01*
X129452315Y-73600418D01*
X129420514Y-73575571D01*
X129411784Y-73566087D01*
X129411779Y-73566083D01*
X129411777Y-73566081D01*
X129228634Y-73423535D01*
X129228628Y-73423531D01*
X129024504Y-73313064D01*
X129024495Y-73313061D01*
X128804984Y-73237702D01*
X128617404Y-73206401D01*
X128576049Y-73199500D01*
X128343951Y-73199500D01*
X128302596Y-73206401D01*
X128115015Y-73237702D01*
X127895504Y-73313061D01*
X127895495Y-73313064D01*
X127691371Y-73423531D01*
X127691365Y-73423535D01*
X127508222Y-73566081D01*
X127508219Y-73566084D01*
X127508216Y-73566086D01*
X127508216Y-73566087D01*
X127463495Y-73614668D01*
X127351015Y-73736854D01*
X127314123Y-73793322D01*
X127260977Y-73838678D01*
X127210315Y-73849500D01*
X126888237Y-73849500D01*
X126844391Y-73841489D01*
X125655491Y-73392059D01*
X125646407Y-73389088D01*
X125633533Y-73384879D01*
X125619675Y-73379406D01*
X125606495Y-73373260D01*
X125386697Y-73314366D01*
X125386693Y-73314365D01*
X125386692Y-73314365D01*
X125386691Y-73314364D01*
X125386686Y-73314364D01*
X125160002Y-73294532D01*
X125159998Y-73294532D01*
X124933313Y-73314364D01*
X124933302Y-73314366D01*
X124713511Y-73373258D01*
X124713502Y-73373261D01*
X124507267Y-73469431D01*
X124507265Y-73469432D01*
X124320858Y-73599954D01*
X124159954Y-73760858D01*
X124029432Y-73947265D01*
X124029431Y-73947267D01*
X123933261Y-74153502D01*
X123933258Y-74153511D01*
X123874366Y-74373302D01*
X123874364Y-74373313D01*
X123854532Y-74599998D01*
X116305468Y-74599998D01*
X116285635Y-74373308D01*
X116226739Y-74153504D01*
X116130568Y-73947266D01*
X116000047Y-73760861D01*
X116000045Y-73760858D01*
X115839141Y-73599954D01*
X115652734Y-73469432D01*
X115652732Y-73469431D01*
X115446497Y-73373261D01*
X115446488Y-73373258D01*
X115226697Y-73314366D01*
X115226693Y-73314365D01*
X115226692Y-73314365D01*
X115226691Y-73314364D01*
X115226686Y-73314364D01*
X115000002Y-73294532D01*
X114999998Y-73294532D01*
X114773313Y-73314364D01*
X114773302Y-73314366D01*
X114553502Y-73373261D01*
X114533371Y-73382648D01*
X114507879Y-73391309D01*
X114504525Y-73392054D01*
X114504499Y-73392062D01*
X113329168Y-73836363D01*
X113259499Y-73841655D01*
X113244367Y-73837415D01*
X113179262Y-73814633D01*
X113179249Y-73814630D01*
X113000004Y-73794435D01*
X112999996Y-73794435D01*
X112820750Y-73814630D01*
X112820745Y-73814631D01*
X112650476Y-73874211D01*
X112497737Y-73970184D01*
X112370184Y-74097737D01*
X112274211Y-74250476D01*
X112214631Y-74420745D01*
X112214630Y-74420750D01*
X112194435Y-74599996D01*
X109998011Y-74599996D01*
X109978696Y-74519542D01*
X109885331Y-74294138D01*
X109761494Y-74092057D01*
X109139309Y-74714242D01*
X109120332Y-74668426D01*
X109043726Y-74553776D01*
X108946224Y-74456274D01*
X108831574Y-74379668D01*
X108785756Y-74360689D01*
X109407941Y-73738504D01*
X109205861Y-73614668D01*
X108980457Y-73521303D01*
X108743219Y-73464348D01*
X108743220Y-73464348D01*
X108500000Y-73445207D01*
X108256780Y-73464348D01*
X108019542Y-73521303D01*
X107794138Y-73614668D01*
X107592057Y-73738504D01*
X108214243Y-74360689D01*
X108168426Y-74379668D01*
X108053776Y-74456274D01*
X107956274Y-74553776D01*
X107879668Y-74668426D01*
X107860690Y-74714243D01*
X107238504Y-74092057D01*
X107114668Y-74294138D01*
X107021303Y-74519542D01*
X106964348Y-74756780D01*
X106945207Y-75000000D01*
X106350500Y-75000000D01*
X106350500Y-70800000D01*
X106944706Y-70800000D01*
X106963853Y-71043297D01*
X106963853Y-71043300D01*
X106963854Y-71043302D01*
X107005641Y-71217356D01*
X107020830Y-71280619D01*
X107114222Y-71506089D01*
X107241737Y-71714173D01*
X107241738Y-71714176D01*
X107241741Y-71714179D01*
X107400241Y-71899759D01*
X107543897Y-72022453D01*
X107585823Y-72058261D01*
X107585826Y-72058262D01*
X107793910Y-72185777D01*
X108019381Y-72279169D01*
X108019378Y-72279169D01*
X108019384Y-72279170D01*
X108019388Y-72279172D01*
X108256698Y-72336146D01*
X108500000Y-72355294D01*
X108743302Y-72336146D01*
X108980612Y-72279172D01*
X109206089Y-72185777D01*
X109414179Y-72058259D01*
X109599759Y-71899759D01*
X109758259Y-71714179D01*
X109885777Y-71506089D01*
X109979172Y-71280612D01*
X110036146Y-71043302D01*
X110055294Y-70800000D01*
X110036146Y-70556698D01*
X109979172Y-70319388D01*
X109942687Y-70231305D01*
X109885777Y-70093910D01*
X109828226Y-69999996D01*
X110194435Y-69999996D01*
X110194435Y-70000003D01*
X110214630Y-70179249D01*
X110214631Y-70179254D01*
X110274211Y-70349523D01*
X110341304Y-70456300D01*
X110370184Y-70502262D01*
X110497738Y-70629816D01*
X110650478Y-70725789D01*
X110820745Y-70785368D01*
X110820750Y-70785369D01*
X110999996Y-70805565D01*
X111000000Y-70805565D01*
X111000004Y-70805565D01*
X111179249Y-70785369D01*
X111179252Y-70785368D01*
X111179255Y-70785368D01*
X111259017Y-70757457D01*
X111299972Y-70750500D01*
X113271766Y-70750500D01*
X113315610Y-70758510D01*
X114504513Y-71207942D01*
X114526470Y-71215121D01*
X114540330Y-71220596D01*
X114553502Y-71226738D01*
X114553504Y-71226739D01*
X114773308Y-71285635D01*
X114935230Y-71299801D01*
X114999998Y-71305468D01*
X115000000Y-71305468D01*
X115000002Y-71305468D01*
X115056673Y-71300509D01*
X115226692Y-71285635D01*
X115446496Y-71226739D01*
X115652734Y-71130568D01*
X115839139Y-71000047D01*
X116000047Y-70839139D01*
X116130568Y-70652734D01*
X116226739Y-70446496D01*
X116285635Y-70226692D01*
X116305468Y-70000000D01*
X116305468Y-69999998D01*
X123854532Y-69999998D01*
X123854532Y-70000001D01*
X123874364Y-70226686D01*
X123874366Y-70226697D01*
X123933258Y-70446488D01*
X123933261Y-70446497D01*
X124029431Y-70652732D01*
X124029432Y-70652734D01*
X124159954Y-70839141D01*
X124320858Y-71000045D01*
X124320861Y-71000047D01*
X124507266Y-71130568D01*
X124713504Y-71226739D01*
X124933308Y-71285635D01*
X125095230Y-71299801D01*
X125159998Y-71305468D01*
X125160000Y-71305468D01*
X125160002Y-71305468D01*
X125216673Y-71300509D01*
X125386692Y-71285635D01*
X125606496Y-71226739D01*
X125626623Y-71217353D01*
X125652150Y-71208683D01*
X125655482Y-71207943D01*
X125655482Y-71207942D01*
X125655486Y-71207942D01*
X126844388Y-70758510D01*
X126888234Y-70750500D01*
X127210315Y-70750500D01*
X127277354Y-70770185D01*
X127314123Y-70806678D01*
X127351015Y-70863145D01*
X127351017Y-70863147D01*
X127351021Y-70863153D01*
X127508216Y-71033913D01*
X127508219Y-71033915D01*
X127508222Y-71033918D01*
X127691365Y-71176464D01*
X127691371Y-71176468D01*
X127691374Y-71176470D01*
X127895497Y-71286936D01*
X127949479Y-71305468D01*
X128115015Y-71362297D01*
X128115017Y-71362297D01*
X128115019Y-71362298D01*
X128343951Y-71400500D01*
X128343952Y-71400500D01*
X128576048Y-71400500D01*
X128576049Y-71400500D01*
X128804981Y-71362298D01*
X129024503Y-71286936D01*
X129228626Y-71176470D01*
X129411784Y-71033913D01*
X129420511Y-71024432D01*
X129480394Y-70988441D01*
X129550232Y-70990538D01*
X129607850Y-71030060D01*
X129627924Y-71065080D01*
X129656645Y-71142086D01*
X129656649Y-71142093D01*
X129742809Y-71257187D01*
X129742812Y-71257190D01*
X129857906Y-71343350D01*
X129857913Y-71343354D01*
X129992620Y-71393596D01*
X129992627Y-71393598D01*
X130052155Y-71399999D01*
X130052172Y-71400000D01*
X130750000Y-71400000D01*
X130750000Y-70375277D01*
X130826306Y-70419333D01*
X130940756Y-70450000D01*
X131059244Y-70450000D01*
X131173694Y-70419333D01*
X131250000Y-70375277D01*
X131250000Y-71400000D01*
X131947828Y-71400000D01*
X131947844Y-71399999D01*
X132007372Y-71393598D01*
X132007379Y-71393596D01*
X132142086Y-71343354D01*
X132142093Y-71343350D01*
X132257187Y-71257190D01*
X132257190Y-71257187D01*
X132343350Y-71142093D01*
X132343354Y-71142086D01*
X132393596Y-71007379D01*
X132393598Y-71007372D01*
X132399999Y-70947844D01*
X132400000Y-70947827D01*
X132400000Y-70250000D01*
X131375278Y-70250000D01*
X131419333Y-70173694D01*
X131450000Y-70059244D01*
X131450000Y-69940756D01*
X131419333Y-69826306D01*
X131375278Y-69750000D01*
X132400000Y-69750000D01*
X132400000Y-69052172D01*
X132399999Y-69052155D01*
X132393598Y-68992627D01*
X132393596Y-68992620D01*
X132343354Y-68857913D01*
X132343350Y-68857906D01*
X132257190Y-68742812D01*
X132257187Y-68742809D01*
X132142093Y-68656649D01*
X132142086Y-68656645D01*
X132007379Y-68606403D01*
X132007372Y-68606401D01*
X131947844Y-68600000D01*
X131250000Y-68600000D01*
X131250000Y-69624722D01*
X131173694Y-69580667D01*
X131059244Y-69550000D01*
X130940756Y-69550000D01*
X130826306Y-69580667D01*
X130750000Y-69624722D01*
X130750000Y-68600000D01*
X130052155Y-68600000D01*
X129992627Y-68606401D01*
X129992620Y-68606403D01*
X129857913Y-68656645D01*
X129857906Y-68656649D01*
X129742812Y-68742809D01*
X129742809Y-68742812D01*
X129656649Y-68857906D01*
X129656646Y-68857911D01*
X129627924Y-68934920D01*
X129586052Y-68990853D01*
X129520588Y-69015270D01*
X129452315Y-69000418D01*
X129420514Y-68975571D01*
X129411784Y-68966087D01*
X129411779Y-68966083D01*
X129411777Y-68966081D01*
X129228634Y-68823535D01*
X129228628Y-68823531D01*
X129024504Y-68713064D01*
X129024495Y-68713061D01*
X128804984Y-68637702D01*
X128617404Y-68606401D01*
X128576049Y-68599500D01*
X128343951Y-68599500D01*
X128302596Y-68606401D01*
X128115015Y-68637702D01*
X127895504Y-68713061D01*
X127895495Y-68713064D01*
X127691371Y-68823531D01*
X127691365Y-68823535D01*
X127508222Y-68966081D01*
X127508219Y-68966084D01*
X127508216Y-68966086D01*
X127508216Y-68966087D01*
X127477040Y-68999954D01*
X127351015Y-69136854D01*
X127314123Y-69193322D01*
X127260977Y-69238678D01*
X127210315Y-69249500D01*
X126888237Y-69249500D01*
X126844391Y-69241489D01*
X125655491Y-68792059D01*
X125646407Y-68789088D01*
X125633533Y-68784879D01*
X125619675Y-68779406D01*
X125606495Y-68773260D01*
X125386697Y-68714366D01*
X125386693Y-68714365D01*
X125386692Y-68714365D01*
X125386691Y-68714364D01*
X125386686Y-68714364D01*
X125160002Y-68694532D01*
X125159998Y-68694532D01*
X124933313Y-68714364D01*
X124933302Y-68714366D01*
X124713511Y-68773258D01*
X124713502Y-68773261D01*
X124507267Y-68869431D01*
X124507265Y-68869432D01*
X124320858Y-68999954D01*
X124159954Y-69160858D01*
X124029432Y-69347265D01*
X124029431Y-69347267D01*
X123933261Y-69553502D01*
X123933258Y-69553511D01*
X123874366Y-69773302D01*
X123874364Y-69773313D01*
X123854532Y-69999998D01*
X116305468Y-69999998D01*
X116285635Y-69773308D01*
X116226739Y-69553504D01*
X116130568Y-69347266D01*
X116000047Y-69160861D01*
X116000045Y-69160858D01*
X115839141Y-68999954D01*
X115652734Y-68869432D01*
X115652732Y-68869431D01*
X115446497Y-68773261D01*
X115446488Y-68773258D01*
X115226697Y-68714366D01*
X115226693Y-68714365D01*
X115226692Y-68714365D01*
X115226691Y-68714364D01*
X115226686Y-68714364D01*
X115000002Y-68694532D01*
X114999998Y-68694532D01*
X114773313Y-68714364D01*
X114773302Y-68714366D01*
X114553502Y-68773261D01*
X114533371Y-68782648D01*
X114507879Y-68791309D01*
X114504525Y-68792054D01*
X114504499Y-68792062D01*
X113315609Y-69241489D01*
X113271763Y-69249500D01*
X111299972Y-69249500D01*
X111259017Y-69242542D01*
X111179254Y-69214631D01*
X111179249Y-69214630D01*
X111000004Y-69194435D01*
X110999996Y-69194435D01*
X110820750Y-69214630D01*
X110820745Y-69214631D01*
X110650476Y-69274211D01*
X110497737Y-69370184D01*
X110370184Y-69497737D01*
X110274211Y-69650476D01*
X110214631Y-69820745D01*
X110214630Y-69820750D01*
X110194435Y-69999996D01*
X109828226Y-69999996D01*
X109758262Y-69885826D01*
X109758261Y-69885823D01*
X109662164Y-69773308D01*
X109599759Y-69700241D01*
X109427952Y-69553504D01*
X109414176Y-69541738D01*
X109414173Y-69541737D01*
X109206089Y-69414222D01*
X108980618Y-69320830D01*
X108980621Y-69320830D01*
X108786441Y-69274211D01*
X108743302Y-69263854D01*
X108743300Y-69263853D01*
X108743297Y-69263853D01*
X108500000Y-69244706D01*
X108256702Y-69263853D01*
X108019380Y-69320830D01*
X107793910Y-69414222D01*
X107585826Y-69541737D01*
X107585823Y-69541738D01*
X107400241Y-69700241D01*
X107241738Y-69885823D01*
X107241737Y-69885826D01*
X107114222Y-70093910D01*
X107020830Y-70319380D01*
X106963853Y-70556702D01*
X106944706Y-70800000D01*
X106350500Y-70800000D01*
X106350500Y-66600000D01*
X106945207Y-66600000D01*
X106964348Y-66843219D01*
X107021303Y-67080457D01*
X107114668Y-67305861D01*
X107238504Y-67507941D01*
X107860689Y-66885755D01*
X107879668Y-66931574D01*
X107956274Y-67046224D01*
X108053776Y-67143726D01*
X108168426Y-67220332D01*
X108214242Y-67239309D01*
X107592057Y-67861494D01*
X107794138Y-67985331D01*
X108019542Y-68078696D01*
X108256780Y-68135651D01*
X108256779Y-68135651D01*
X108500000Y-68154792D01*
X108743219Y-68135651D01*
X108980457Y-68078696D01*
X109205861Y-67985331D01*
X109407941Y-67861495D01*
X109407941Y-67861494D01*
X108785757Y-67239309D01*
X108831574Y-67220332D01*
X108946224Y-67143726D01*
X109043726Y-67046224D01*
X109120332Y-66931574D01*
X109139309Y-66885756D01*
X109761494Y-67507941D01*
X109761495Y-67507941D01*
X109885331Y-67305861D01*
X109978696Y-67080457D01*
X110035651Y-66843219D01*
X110054792Y-66600000D01*
X110035651Y-66356780D01*
X109978696Y-66119542D01*
X109885331Y-65894138D01*
X109761494Y-65692057D01*
X109139309Y-66314242D01*
X109120332Y-66268426D01*
X109043726Y-66153776D01*
X108946224Y-66056274D01*
X108831574Y-65979668D01*
X108785756Y-65960689D01*
X109407941Y-65338504D01*
X109205861Y-65214668D01*
X108980457Y-65121303D01*
X108743219Y-65064348D01*
X108743220Y-65064348D01*
X108500000Y-65045207D01*
X108256780Y-65064348D01*
X108019542Y-65121303D01*
X107794138Y-65214668D01*
X107592057Y-65338504D01*
X108214243Y-65960689D01*
X108168426Y-65979668D01*
X108053776Y-66056274D01*
X107956274Y-66153776D01*
X107879668Y-66268426D01*
X107860690Y-66314243D01*
X107238504Y-65692057D01*
X107114668Y-65894138D01*
X107021303Y-66119542D01*
X106964348Y-66356780D01*
X106945207Y-66600000D01*
X106350500Y-66600000D01*
X106350500Y-64926079D01*
X106321659Y-64781092D01*
X106321658Y-64781091D01*
X106321658Y-64781087D01*
X106321656Y-64781082D01*
X106265087Y-64644511D01*
X106265080Y-64644498D01*
X106182952Y-64521585D01*
X106142702Y-64481335D01*
X106078416Y-64417049D01*
X105081335Y-63419968D01*
X105053565Y-63377532D01*
X105028737Y-63314179D01*
X104670475Y-62400000D01*
X106944706Y-62400000D01*
X106963853Y-62643297D01*
X107020830Y-62880619D01*
X107114222Y-63106089D01*
X107241737Y-63314173D01*
X107241738Y-63314176D01*
X107241741Y-63314179D01*
X107400241Y-63499759D01*
X107543897Y-63622453D01*
X107585823Y-63658261D01*
X107585826Y-63658262D01*
X107793910Y-63785777D01*
X108019381Y-63879169D01*
X108019378Y-63879169D01*
X108019384Y-63879170D01*
X108019388Y-63879172D01*
X108256698Y-63936146D01*
X108500000Y-63955294D01*
X108743302Y-63936146D01*
X108980612Y-63879172D01*
X109058856Y-63846761D01*
X109077227Y-63840782D01*
X109099759Y-63835350D01*
X110077880Y-63445348D01*
X110147439Y-63438805D01*
X110209497Y-63470907D01*
X110211483Y-63472850D01*
X112617049Y-65878416D01*
X112721584Y-65982951D01*
X112721587Y-65982953D01*
X112721588Y-65982954D01*
X112844503Y-66065083D01*
X112844506Y-66065085D01*
X112901079Y-66088518D01*
X112901080Y-66088518D01*
X112981088Y-66121659D01*
X113097241Y-66144763D01*
X113116468Y-66148587D01*
X113126081Y-66150500D01*
X113126082Y-66150500D01*
X113126083Y-66150500D01*
X113271766Y-66150500D01*
X113315610Y-66158510D01*
X114504513Y-66607942D01*
X114526470Y-66615121D01*
X114540330Y-66620596D01*
X114553502Y-66626738D01*
X114553504Y-66626739D01*
X114773308Y-66685635D01*
X114935230Y-66699801D01*
X114999998Y-66705468D01*
X115000000Y-66705468D01*
X115000002Y-66705468D01*
X115056673Y-66700509D01*
X115226692Y-66685635D01*
X115446496Y-66626739D01*
X115652734Y-66530568D01*
X115839139Y-66400047D01*
X116000047Y-66239139D01*
X116130568Y-66052734D01*
X116226739Y-65846496D01*
X116285635Y-65626692D01*
X116305468Y-65400000D01*
X116305468Y-65399998D01*
X123854532Y-65399998D01*
X123854532Y-65400001D01*
X123874364Y-65626686D01*
X123874366Y-65626697D01*
X123933258Y-65846488D01*
X123933261Y-65846497D01*
X124029431Y-66052732D01*
X124029432Y-66052734D01*
X124159954Y-66239141D01*
X124320858Y-66400045D01*
X124320861Y-66400047D01*
X124507266Y-66530568D01*
X124713504Y-66626739D01*
X124933308Y-66685635D01*
X125095230Y-66699801D01*
X125159998Y-66705468D01*
X125160000Y-66705468D01*
X125160002Y-66705468D01*
X125216673Y-66700509D01*
X125386692Y-66685635D01*
X125606496Y-66626739D01*
X125626623Y-66617353D01*
X125652150Y-66608683D01*
X125655482Y-66607943D01*
X125655482Y-66607942D01*
X125655486Y-66607942D01*
X126844388Y-66158510D01*
X126888234Y-66150500D01*
X127210315Y-66150500D01*
X127277354Y-66170185D01*
X127314123Y-66206678D01*
X127351015Y-66263145D01*
X127351017Y-66263147D01*
X127351021Y-66263153D01*
X127508216Y-66433913D01*
X127508219Y-66433915D01*
X127508222Y-66433918D01*
X127691365Y-66576464D01*
X127691371Y-66576468D01*
X127691374Y-66576470D01*
X127895497Y-66686936D01*
X127949479Y-66705468D01*
X128115015Y-66762297D01*
X128115017Y-66762297D01*
X128115019Y-66762298D01*
X128343951Y-66800500D01*
X128343952Y-66800500D01*
X128576048Y-66800500D01*
X128576049Y-66800500D01*
X128804981Y-66762298D01*
X129024503Y-66686936D01*
X129228626Y-66576470D01*
X129411784Y-66433913D01*
X129420511Y-66424432D01*
X129480394Y-66388441D01*
X129550232Y-66390538D01*
X129607850Y-66430060D01*
X129627924Y-66465080D01*
X129656645Y-66542086D01*
X129656649Y-66542093D01*
X129742809Y-66657187D01*
X129742812Y-66657190D01*
X129857906Y-66743350D01*
X129857913Y-66743354D01*
X129992620Y-66793596D01*
X129992627Y-66793598D01*
X130052155Y-66799999D01*
X130052172Y-66800000D01*
X130750000Y-66800000D01*
X130750000Y-65775277D01*
X130826306Y-65819333D01*
X130940756Y-65850000D01*
X131059244Y-65850000D01*
X131173694Y-65819333D01*
X131250000Y-65775277D01*
X131250000Y-66800000D01*
X131947828Y-66800000D01*
X131947844Y-66799999D01*
X132007372Y-66793598D01*
X132007379Y-66793596D01*
X132142086Y-66743354D01*
X132142093Y-66743350D01*
X132257187Y-66657190D01*
X132257190Y-66657187D01*
X132343350Y-66542093D01*
X132343354Y-66542086D01*
X132393596Y-66407379D01*
X132393598Y-66407372D01*
X132399999Y-66347844D01*
X132400000Y-66347827D01*
X132400000Y-65650000D01*
X131375278Y-65650000D01*
X131419333Y-65573694D01*
X131450000Y-65459244D01*
X131450000Y-65340756D01*
X131419333Y-65226306D01*
X131375278Y-65150000D01*
X132400000Y-65150000D01*
X132400000Y-64452172D01*
X132399999Y-64452155D01*
X132393598Y-64392627D01*
X132393596Y-64392620D01*
X132343354Y-64257913D01*
X132343350Y-64257906D01*
X132257190Y-64142812D01*
X132257187Y-64142809D01*
X132142093Y-64056649D01*
X132142086Y-64056645D01*
X132007379Y-64006403D01*
X132007372Y-64006401D01*
X131947844Y-64000000D01*
X131250000Y-64000000D01*
X131250000Y-65024722D01*
X131173694Y-64980667D01*
X131059244Y-64950000D01*
X130940756Y-64950000D01*
X130826306Y-64980667D01*
X130750000Y-65024722D01*
X130750000Y-64000000D01*
X130052155Y-64000000D01*
X129992627Y-64006401D01*
X129992620Y-64006403D01*
X129857913Y-64056645D01*
X129857906Y-64056649D01*
X129742812Y-64142809D01*
X129742809Y-64142812D01*
X129656649Y-64257906D01*
X129656646Y-64257911D01*
X129627924Y-64334920D01*
X129586052Y-64390853D01*
X129520588Y-64415270D01*
X129452315Y-64400418D01*
X129420514Y-64375571D01*
X129411784Y-64366087D01*
X129411779Y-64366083D01*
X129411777Y-64366081D01*
X129228634Y-64223535D01*
X129228628Y-64223531D01*
X129024504Y-64113064D01*
X129024495Y-64113061D01*
X128804984Y-64037702D01*
X128617404Y-64006401D01*
X128576049Y-63999500D01*
X128343951Y-63999500D01*
X128302596Y-64006401D01*
X128115015Y-64037702D01*
X127895504Y-64113061D01*
X127895495Y-64113064D01*
X127691371Y-64223531D01*
X127691365Y-64223535D01*
X127508222Y-64366081D01*
X127508219Y-64366084D01*
X127508216Y-64366086D01*
X127508216Y-64366087D01*
X127402124Y-64481335D01*
X127351015Y-64536854D01*
X127314123Y-64593322D01*
X127260977Y-64638678D01*
X127210315Y-64649500D01*
X126888237Y-64649500D01*
X126844391Y-64641489D01*
X125655491Y-64192059D01*
X125646407Y-64189088D01*
X125633533Y-64184879D01*
X125619675Y-64179406D01*
X125606495Y-64173260D01*
X125386697Y-64114366D01*
X125386693Y-64114365D01*
X125386692Y-64114365D01*
X125386691Y-64114364D01*
X125386686Y-64114364D01*
X125160002Y-64094532D01*
X125159998Y-64094532D01*
X124933313Y-64114364D01*
X124933302Y-64114366D01*
X124713511Y-64173258D01*
X124713502Y-64173261D01*
X124507267Y-64269431D01*
X124507265Y-64269432D01*
X124320858Y-64399954D01*
X124159954Y-64560858D01*
X124029432Y-64747265D01*
X124029431Y-64747267D01*
X123933261Y-64953502D01*
X123933258Y-64953511D01*
X123874366Y-65173302D01*
X123874364Y-65173313D01*
X123854532Y-65399998D01*
X116305468Y-65399998D01*
X116302163Y-65362229D01*
X116294492Y-65274548D01*
X116285635Y-65173308D01*
X116226739Y-64953504D01*
X116130568Y-64747266D01*
X116000047Y-64560861D01*
X116000045Y-64560858D01*
X115839141Y-64399954D01*
X115652734Y-64269432D01*
X115652732Y-64269431D01*
X115446497Y-64173261D01*
X115446488Y-64173258D01*
X115226697Y-64114366D01*
X115226693Y-64114365D01*
X115226692Y-64114365D01*
X115226691Y-64114364D01*
X115226686Y-64114364D01*
X115000002Y-64094532D01*
X114999998Y-64094532D01*
X114773313Y-64114364D01*
X114773302Y-64114366D01*
X114553502Y-64173261D01*
X114533371Y-64182648D01*
X114507879Y-64191309D01*
X114504525Y-64192054D01*
X114504499Y-64192062D01*
X113526393Y-64561807D01*
X113456724Y-64567099D01*
X113395254Y-64533886D01*
X113394866Y-64533499D01*
X110994413Y-62133045D01*
X110986366Y-62124181D01*
X110983975Y-62121277D01*
X110983974Y-62121276D01*
X110981445Y-62119207D01*
X110972285Y-62110917D01*
X110678421Y-61817052D01*
X110678418Y-61817049D01*
X110603815Y-61767202D01*
X110574376Y-61747532D01*
X110555495Y-61734916D01*
X110555492Y-61734914D01*
X110555491Y-61734914D01*
X110418917Y-61678343D01*
X110418907Y-61678340D01*
X110273920Y-61649499D01*
X110267858Y-61648903D01*
X110268023Y-61647217D01*
X110212163Y-61631671D01*
X109456593Y-61175779D01*
X109440124Y-61163899D01*
X109414186Y-61141746D01*
X109414170Y-61141735D01*
X109206089Y-61014222D01*
X108980618Y-60920830D01*
X108980621Y-60920830D01*
X108874992Y-60895470D01*
X108743302Y-60863854D01*
X108743300Y-60863853D01*
X108743297Y-60863853D01*
X108500000Y-60844706D01*
X108256702Y-60863853D01*
X108019380Y-60920830D01*
X107793910Y-61014222D01*
X107585826Y-61141737D01*
X107585823Y-61141738D01*
X107400241Y-61300241D01*
X107241738Y-61485823D01*
X107241737Y-61485826D01*
X107114222Y-61693910D01*
X107020830Y-61919380D01*
X106963853Y-62156702D01*
X106944706Y-62400000D01*
X104670475Y-62400000D01*
X104445070Y-61824831D01*
X104445051Y-61824783D01*
X104443420Y-61820674D01*
X104443366Y-61820542D01*
X104443360Y-61820527D01*
X104418218Y-61767202D01*
X104418214Y-61767197D01*
X104416265Y-61763952D01*
X104407988Y-61747532D01*
X104385779Y-61693914D01*
X104385777Y-61693911D01*
X104258262Y-61485826D01*
X104258261Y-61485823D01*
X104222453Y-61443897D01*
X104099759Y-61300241D01*
X103977063Y-61195449D01*
X103914176Y-61141738D01*
X103914173Y-61141737D01*
X103706089Y-61014222D01*
X103480618Y-60920830D01*
X103480621Y-60920830D01*
X103374992Y-60895470D01*
X103243302Y-60863854D01*
X103243300Y-60863853D01*
X103243297Y-60863853D01*
X103000000Y-60844706D01*
X102756702Y-60863853D01*
X102519380Y-60920830D01*
X102293910Y-61014222D01*
X102085826Y-61141737D01*
X102085823Y-61141738D01*
X101900241Y-61300241D01*
X101741738Y-61485823D01*
X101741737Y-61485826D01*
X101614222Y-61693910D01*
X101520830Y-61919380D01*
X101463853Y-62156702D01*
X101444706Y-62400000D01*
X101150500Y-62400000D01*
X101150500Y-58200000D01*
X101444706Y-58200000D01*
X101463853Y-58443297D01*
X101463853Y-58443300D01*
X101463854Y-58443302D01*
X101493400Y-58566369D01*
X101520830Y-58680619D01*
X101614222Y-58906089D01*
X101741737Y-59114173D01*
X101741738Y-59114176D01*
X101741741Y-59114179D01*
X101900241Y-59299759D01*
X101959066Y-59350000D01*
X102085823Y-59458261D01*
X102085826Y-59458262D01*
X102293910Y-59585777D01*
X102519381Y-59679169D01*
X102519378Y-59679169D01*
X102519384Y-59679170D01*
X102519388Y-59679172D01*
X102756698Y-59736146D01*
X103000000Y-59755294D01*
X103243302Y-59736146D01*
X103480612Y-59679172D01*
X103706089Y-59585777D01*
X103914179Y-59458259D01*
X104099759Y-59299759D01*
X104258259Y-59114179D01*
X104385777Y-58906089D01*
X104479172Y-58680612D01*
X104536146Y-58443302D01*
X104555294Y-58200000D01*
X106944706Y-58200000D01*
X106963853Y-58443297D01*
X106963853Y-58443300D01*
X106963854Y-58443302D01*
X106993400Y-58566369D01*
X107020830Y-58680619D01*
X107114222Y-58906089D01*
X107241737Y-59114173D01*
X107241738Y-59114176D01*
X107241741Y-59114179D01*
X107400241Y-59299759D01*
X107459066Y-59350000D01*
X107585823Y-59458261D01*
X107585826Y-59458262D01*
X107793910Y-59585777D01*
X108019381Y-59679169D01*
X108019378Y-59679169D01*
X108019384Y-59679170D01*
X108019388Y-59679172D01*
X108256698Y-59736146D01*
X108500000Y-59755294D01*
X108743302Y-59736146D01*
X108980612Y-59679172D01*
X109206089Y-59585777D01*
X109414179Y-59458259D01*
X109599759Y-59299759D01*
X109758259Y-59114179D01*
X109885777Y-58906089D01*
X109979172Y-58680612D01*
X110036146Y-58443302D01*
X110055294Y-58200000D01*
X110036146Y-57956698D01*
X110010528Y-57849994D01*
X122994859Y-57849994D01*
X122994859Y-57850005D01*
X123015385Y-58097729D01*
X123015387Y-58097738D01*
X123076412Y-58338717D01*
X123176266Y-58566364D01*
X123276564Y-58719882D01*
X123976212Y-58020234D01*
X123987482Y-58062292D01*
X124059890Y-58187708D01*
X124162292Y-58290110D01*
X124287708Y-58362518D01*
X124329765Y-58373787D01*
X123629942Y-59073609D01*
X123676768Y-59110055D01*
X123676770Y-59110056D01*
X123895385Y-59228364D01*
X123895396Y-59228369D01*
X124130506Y-59309083D01*
X124375707Y-59350000D01*
X124624293Y-59350000D01*
X124869493Y-59309083D01*
X125104603Y-59228369D01*
X125104614Y-59228364D01*
X125323228Y-59110057D01*
X125323231Y-59110055D01*
X125370056Y-59073609D01*
X124670234Y-58373787D01*
X124712292Y-58362518D01*
X124837708Y-58290110D01*
X124940110Y-58187708D01*
X125012518Y-58062292D01*
X125023787Y-58020235D01*
X125723434Y-58719882D01*
X125823731Y-58566369D01*
X125923587Y-58338717D01*
X125984612Y-58097738D01*
X125984614Y-58097729D01*
X126005141Y-57850005D01*
X126005141Y-57849994D01*
X129494859Y-57849994D01*
X129494859Y-57850005D01*
X129515385Y-58097729D01*
X129515387Y-58097738D01*
X129576412Y-58338717D01*
X129676266Y-58566364D01*
X129776564Y-58719882D01*
X130476212Y-58020234D01*
X130487482Y-58062292D01*
X130559890Y-58187708D01*
X130662292Y-58290110D01*
X130787708Y-58362518D01*
X130829765Y-58373787D01*
X130129942Y-59073609D01*
X130176768Y-59110055D01*
X130176770Y-59110056D01*
X130395385Y-59228364D01*
X130395396Y-59228369D01*
X130630506Y-59309083D01*
X130875707Y-59350000D01*
X131124293Y-59350000D01*
X131369493Y-59309083D01*
X131604603Y-59228369D01*
X131604614Y-59228364D01*
X131823228Y-59110057D01*
X131823231Y-59110055D01*
X131870056Y-59073609D01*
X131170234Y-58373787D01*
X131212292Y-58362518D01*
X131337708Y-58290110D01*
X131440110Y-58187708D01*
X131512518Y-58062292D01*
X131523787Y-58020235D01*
X132223434Y-58719882D01*
X132323731Y-58566369D01*
X132423587Y-58338717D01*
X132484612Y-58097738D01*
X132484614Y-58097729D01*
X132505141Y-57850005D01*
X132505141Y-57849994D01*
X132484614Y-57602270D01*
X132484612Y-57602261D01*
X132423587Y-57361282D01*
X132323731Y-57133630D01*
X132223434Y-56980116D01*
X131523787Y-57679764D01*
X131512518Y-57637708D01*
X131440110Y-57512292D01*
X131337708Y-57409890D01*
X131212292Y-57337482D01*
X131170235Y-57326212D01*
X131870057Y-56626390D01*
X131870056Y-56626389D01*
X131823229Y-56589943D01*
X131604614Y-56471635D01*
X131604603Y-56471630D01*
X131369493Y-56390916D01*
X131124293Y-56350000D01*
X130875707Y-56350000D01*
X130630506Y-56390916D01*
X130395396Y-56471630D01*
X130395390Y-56471632D01*
X130176761Y-56589949D01*
X130129942Y-56626388D01*
X130129942Y-56626390D01*
X130829765Y-57326212D01*
X130787708Y-57337482D01*
X130662292Y-57409890D01*
X130559890Y-57512292D01*
X130487482Y-57637708D01*
X130476212Y-57679764D01*
X129776564Y-56980116D01*
X129676267Y-57133632D01*
X129576412Y-57361282D01*
X129515387Y-57602261D01*
X129515385Y-57602270D01*
X129494859Y-57849994D01*
X126005141Y-57849994D01*
X125984614Y-57602270D01*
X125984612Y-57602261D01*
X125923587Y-57361282D01*
X125823731Y-57133630D01*
X125723434Y-56980116D01*
X125023787Y-57679764D01*
X125012518Y-57637708D01*
X124940110Y-57512292D01*
X124837708Y-57409890D01*
X124712292Y-57337482D01*
X124670235Y-57326212D01*
X125370057Y-56626390D01*
X125370056Y-56626389D01*
X125323229Y-56589943D01*
X125104614Y-56471635D01*
X125104603Y-56471630D01*
X124869493Y-56390916D01*
X124624293Y-56350000D01*
X124375707Y-56350000D01*
X124130506Y-56390916D01*
X123895396Y-56471630D01*
X123895390Y-56471632D01*
X123676761Y-56589949D01*
X123629942Y-56626388D01*
X123629942Y-56626390D01*
X124329765Y-57326212D01*
X124287708Y-57337482D01*
X124162292Y-57409890D01*
X124059890Y-57512292D01*
X123987482Y-57637708D01*
X123976212Y-57679764D01*
X123276564Y-56980116D01*
X123176267Y-57133632D01*
X123076412Y-57361282D01*
X123015387Y-57602261D01*
X123015385Y-57602270D01*
X122994859Y-57849994D01*
X110010528Y-57849994D01*
X109979172Y-57719388D01*
X109979169Y-57719380D01*
X109885777Y-57493910D01*
X109758262Y-57285826D01*
X109758261Y-57285823D01*
X109722453Y-57243897D01*
X109599759Y-57100241D01*
X109477063Y-56995449D01*
X109414176Y-56941738D01*
X109414173Y-56941737D01*
X109206089Y-56814222D01*
X108980618Y-56720830D01*
X108980621Y-56720830D01*
X108874992Y-56695470D01*
X108743302Y-56663854D01*
X108743300Y-56663853D01*
X108743297Y-56663853D01*
X108500000Y-56644706D01*
X108256702Y-56663853D01*
X108019380Y-56720830D01*
X107793910Y-56814222D01*
X107585826Y-56941737D01*
X107585823Y-56941738D01*
X107400241Y-57100241D01*
X107241738Y-57285823D01*
X107241737Y-57285826D01*
X107114222Y-57493910D01*
X107020830Y-57719380D01*
X107020828Y-57719387D01*
X107020828Y-57719388D01*
X106989472Y-57849994D01*
X106963853Y-57956702D01*
X106944706Y-58200000D01*
X104555294Y-58200000D01*
X104536146Y-57956698D01*
X104479172Y-57719388D01*
X104479169Y-57719380D01*
X104385777Y-57493910D01*
X104258262Y-57285826D01*
X104258261Y-57285823D01*
X104222453Y-57243897D01*
X104099759Y-57100241D01*
X103977063Y-56995449D01*
X103914176Y-56941738D01*
X103914173Y-56941737D01*
X103706089Y-56814222D01*
X103480618Y-56720830D01*
X103480621Y-56720830D01*
X103374992Y-56695470D01*
X103243302Y-56663854D01*
X103243300Y-56663853D01*
X103243297Y-56663853D01*
X103000000Y-56644706D01*
X102756702Y-56663853D01*
X102519380Y-56720830D01*
X102293910Y-56814222D01*
X102085826Y-56941737D01*
X102085823Y-56941738D01*
X101900241Y-57100241D01*
X101741738Y-57285823D01*
X101741737Y-57285826D01*
X101614222Y-57493910D01*
X101520830Y-57719380D01*
X101520828Y-57719387D01*
X101520828Y-57719388D01*
X101489472Y-57849994D01*
X101463853Y-57956702D01*
X101444706Y-58200000D01*
X101150500Y-58200000D01*
X101150500Y-54000000D01*
X101444706Y-54000000D01*
X101463853Y-54243297D01*
X101463853Y-54243300D01*
X101463854Y-54243302D01*
X101515336Y-54457738D01*
X101520830Y-54480619D01*
X101614222Y-54706089D01*
X101741737Y-54914173D01*
X101741738Y-54914176D01*
X101741741Y-54914179D01*
X101900241Y-55099759D01*
X102043897Y-55222453D01*
X102085823Y-55258261D01*
X102085826Y-55258262D01*
X102293910Y-55385777D01*
X102519381Y-55479169D01*
X102519378Y-55479169D01*
X102519384Y-55479170D01*
X102519388Y-55479172D01*
X102756698Y-55536146D01*
X103000000Y-55555294D01*
X103243302Y-55536146D01*
X103480612Y-55479172D01*
X103706089Y-55385777D01*
X103914179Y-55258259D01*
X104099759Y-55099759D01*
X104258259Y-54914179D01*
X104385777Y-54706089D01*
X104479172Y-54480612D01*
X104536146Y-54243302D01*
X104555294Y-54000000D01*
X106944706Y-54000000D01*
X106963853Y-54243297D01*
X106963853Y-54243300D01*
X106963854Y-54243302D01*
X107015336Y-54457738D01*
X107020830Y-54480619D01*
X107114222Y-54706089D01*
X107241737Y-54914173D01*
X107241738Y-54914176D01*
X107241741Y-54914179D01*
X107400241Y-55099759D01*
X107543897Y-55222453D01*
X107585823Y-55258261D01*
X107585826Y-55258262D01*
X107793910Y-55385777D01*
X108019381Y-55479169D01*
X108019378Y-55479169D01*
X108019384Y-55479170D01*
X108019388Y-55479172D01*
X108256698Y-55536146D01*
X108500000Y-55555294D01*
X108743302Y-55536146D01*
X108980612Y-55479172D01*
X109206089Y-55385777D01*
X109414179Y-55258259D01*
X109599759Y-55099759D01*
X109758259Y-54914179D01*
X109885777Y-54706089D01*
X109979172Y-54480612D01*
X110036146Y-54243302D01*
X110055294Y-54000000D01*
X110036146Y-53756698D01*
X109979172Y-53519388D01*
X109909010Y-53350000D01*
X109885777Y-53293910D01*
X109758262Y-53085826D01*
X109758261Y-53085823D01*
X109722453Y-53043897D01*
X109599759Y-52900241D01*
X109454387Y-52776082D01*
X109414176Y-52741738D01*
X109414173Y-52741737D01*
X109206089Y-52614222D01*
X108980618Y-52520830D01*
X108980621Y-52520830D01*
X108870971Y-52494505D01*
X108743302Y-52463854D01*
X108743300Y-52463853D01*
X108743297Y-52463853D01*
X108500000Y-52444706D01*
X108256702Y-52463853D01*
X108256698Y-52463854D01*
X108129030Y-52494505D01*
X108019380Y-52520830D01*
X107793910Y-52614222D01*
X107585826Y-52741737D01*
X107585823Y-52741738D01*
X107400241Y-52900241D01*
X107241738Y-53085823D01*
X107241737Y-53085826D01*
X107114222Y-53293910D01*
X107020830Y-53519380D01*
X106963853Y-53756702D01*
X106944706Y-54000000D01*
X104555294Y-54000000D01*
X104536146Y-53756698D01*
X104479172Y-53519388D01*
X104409010Y-53350000D01*
X104385777Y-53293910D01*
X104258262Y-53085826D01*
X104258261Y-53085823D01*
X104222453Y-53043897D01*
X104099759Y-52900241D01*
X103954387Y-52776082D01*
X103914176Y-52741738D01*
X103914173Y-52741737D01*
X103706089Y-52614222D01*
X103480618Y-52520830D01*
X103480621Y-52520830D01*
X103370971Y-52494505D01*
X103243302Y-52463854D01*
X103243300Y-52463853D01*
X103243297Y-52463853D01*
X103000000Y-52444706D01*
X102756702Y-52463853D01*
X102756698Y-52463854D01*
X102629030Y-52494505D01*
X102519380Y-52520830D01*
X102293910Y-52614222D01*
X102085826Y-52741737D01*
X102085823Y-52741738D01*
X101900241Y-52900241D01*
X101741738Y-53085823D01*
X101741737Y-53085826D01*
X101614222Y-53293910D01*
X101520830Y-53519380D01*
X101463853Y-53756702D01*
X101444706Y-54000000D01*
X101150500Y-54000000D01*
X101150500Y-53212229D01*
X101170185Y-53145190D01*
X101186819Y-53124548D01*
X102316548Y-51994819D01*
X102377871Y-51961334D01*
X102404229Y-51958500D01*
X110745770Y-51958500D01*
X110812809Y-51978185D01*
X110833451Y-51994819D01*
X111924454Y-53085821D01*
X112667048Y-53828415D01*
X112667049Y-53828416D01*
X112771584Y-53932951D01*
X112771585Y-53932952D01*
X112894498Y-54015080D01*
X112894511Y-54015087D01*
X113018890Y-54066606D01*
X113031087Y-54071658D01*
X113031091Y-54071658D01*
X113031092Y-54071659D01*
X113176079Y-54100500D01*
X113176082Y-54100500D01*
X122362100Y-54100500D01*
X122409792Y-54110038D01*
X123912081Y-54735990D01*
X123925040Y-54741180D01*
X123925053Y-54741185D01*
X123963614Y-54754259D01*
X123963622Y-54754260D01*
X123963625Y-54754261D01*
X123969142Y-54755585D01*
X123969101Y-54755753D01*
X123984378Y-54759446D01*
X124130386Y-54809571D01*
X124375665Y-54850500D01*
X124624335Y-54850500D01*
X124869614Y-54809571D01*
X125067429Y-54741660D01*
X125076750Y-54738864D01*
X125087918Y-54735990D01*
X126590208Y-54110038D01*
X126637900Y-54100500D01*
X128862100Y-54100500D01*
X128909792Y-54110038D01*
X130412081Y-54735990D01*
X130425040Y-54741180D01*
X130425053Y-54741185D01*
X130463614Y-54754259D01*
X130463622Y-54754260D01*
X130463625Y-54754261D01*
X130469142Y-54755585D01*
X130469101Y-54755753D01*
X130484378Y-54759446D01*
X130630386Y-54809571D01*
X130875665Y-54850500D01*
X131124335Y-54850500D01*
X131369614Y-54809571D01*
X131604810Y-54728828D01*
X131823509Y-54610474D01*
X132019744Y-54457738D01*
X132188164Y-54274785D01*
X132324173Y-54066607D01*
X132424063Y-53838881D01*
X132485108Y-53597821D01*
X132505643Y-53350000D01*
X132500995Y-53293911D01*
X132485109Y-53102187D01*
X132485107Y-53102175D01*
X132424063Y-52861118D01*
X132324173Y-52633393D01*
X132188166Y-52425217D01*
X132138790Y-52371581D01*
X132019744Y-52242262D01*
X131823509Y-52089526D01*
X131823507Y-52089525D01*
X131823506Y-52089524D01*
X131604811Y-51971172D01*
X131604802Y-51971169D01*
X131369616Y-51890429D01*
X131124335Y-51849500D01*
X130875665Y-51849500D01*
X130630382Y-51890429D01*
X130630380Y-51890429D01*
X130432598Y-51958328D01*
X130423265Y-51961128D01*
X130412089Y-51964006D01*
X130412083Y-51964008D01*
X130412081Y-51964009D01*
X129433907Y-52371581D01*
X128909792Y-52589962D01*
X128862100Y-52599500D01*
X126637902Y-52599500D01*
X126590210Y-52589962D01*
X125755725Y-52242261D01*
X125087918Y-51964009D01*
X125085296Y-51962959D01*
X125074951Y-51958815D01*
X125074934Y-51958809D01*
X125036388Y-51945740D01*
X125030864Y-51944416D01*
X125030904Y-51944248D01*
X125015613Y-51940550D01*
X124984276Y-51929792D01*
X124869616Y-51890429D01*
X124624335Y-51849500D01*
X124375665Y-51849500D01*
X124130382Y-51890429D01*
X124130380Y-51890429D01*
X123932598Y-51958328D01*
X123923265Y-51961128D01*
X123912089Y-51964006D01*
X123912083Y-51964008D01*
X123912081Y-51964009D01*
X122933907Y-52371581D01*
X122409792Y-52589962D01*
X122362100Y-52599500D01*
X113612229Y-52599500D01*
X113545190Y-52579815D01*
X113524548Y-52563181D01*
X111673550Y-50712181D01*
X111640065Y-50650858D01*
X111645049Y-50581166D01*
X111686921Y-50525233D01*
X111752385Y-50500816D01*
X111761231Y-50500500D01*
X134375500Y-50500500D01*
X134442539Y-50520185D01*
G37*
G04 #@! TD.AperFunction*
M02*
