M48
; DRILL file {KiCad 8.0.5} date 2024-11-12T19:43:37-0300
; FORMAT={-:-/ absolute / metric / decimal}
; #@! TF.CreationDate,2024-11-12T19:43:37-03:00
; #@! TF.GenerationSoftware,Kicad,Pcbnew,8.0.5
; #@! TF.FileFunction,Plated,1,2,PTH
FMAT,2
METRIC
; #@! TA.AperFunction,Plated,PTH,ViaDrill
T1C0.300
; #@! TA.AperFunction,Plated,PTH,ComponentDrill
T2C0.800
; #@! TA.AperFunction,Plated,PTH,ComponentDrill
T3C0.900
; #@! TA.AperFunction,Plated,PTH,ComponentDrill
T4C1.100
; #@! TA.AperFunction,Plated,PTH,ComponentDrill
T5C1.400
%
G90
G05
T1
X111.0Y-70.0
X113.0Y-74.6
T2
X115.0Y-65.4
X115.0Y-70.0
X115.0Y-74.6
X115.0Y-79.2
X115.0Y-83.8
X115.0Y-88.4
X115.0Y-93.0
X125.16Y-65.4
X125.16Y-70.0
X125.16Y-74.6
X125.16Y-79.2
X125.16Y-83.8
X125.16Y-88.4
X125.16Y-93.0
T3
X128.45Y-88.4
X128.45Y-93.0
X128.46Y-65.4
X128.46Y-70.0
X128.46Y-74.6
X128.46Y-79.2
X128.46Y-83.8
X130.99Y-88.4
X130.99Y-93.0
X131.0Y-65.4
X131.0Y-70.0
X131.0Y-74.6
X131.0Y-79.2
X131.0Y-83.8
T4
X124.5Y-53.35
X124.5Y-57.85
X131.0Y-53.35
X131.0Y-57.85
T5
X103.0Y-54.0
X103.0Y-58.2
X103.0Y-62.4
X103.0Y-66.6
X103.0Y-70.8
X103.0Y-75.0
X103.0Y-79.2
X103.0Y-83.4
X103.0Y-87.6
X103.0Y-91.8
X108.5Y-54.0
X108.5Y-58.2
X108.5Y-62.4
X108.5Y-66.6
X108.5Y-70.8
X108.5Y-75.0
X108.5Y-79.2
X108.5Y-83.4
X108.5Y-87.6
X108.5Y-91.8
M30
